# Blender 4.0.2
# www.blender.org
mtllib Balcony_Cross_Straight.mtl
o Balcony_Cross_Straight
v -1.000000 -0.105087 0.897970
v -1.000000 0.105085 0.897970
v -1.000000 -0.105087 1.102154
v -1.000000 0.105085 1.102154
v 1.000000 -0.105086 0.897970
v 1.000000 0.105087 0.897970
v 1.000000 -0.105086 1.102154
v 1.000000 0.105087 1.102154
v -1.000000 1.078037 0.955507
v -1.000000 1.069942 1.104253
v 1.000000 1.078038 0.955507
v 1.000000 1.069943 1.104253
v 1.000000 1.124799 0.955507
v -1.000000 1.124799 0.955507
v -1.000000 1.116703 1.104253
v 1.000000 1.116704 1.104253
v 0.311716 0.482009 0.974746
v 0.311716 0.482009 1.028815
v 0.486087 0.482009 1.028815
v 0.078676 0.889419 0.974746
v 0.078676 0.889419 1.028814
v -0.008509 0.802234 1.028815
v -0.008509 0.802234 0.974746
v 0.486087 0.482008 0.974746
v 0.078677 0.074598 0.974746
v 0.078677 0.074598 1.028815
v -0.008509 0.161783 1.028815
v -0.008509 0.161783 0.974746
v 0.654387 0.483208 0.973635
v 0.654387 0.483208 1.029256
v 0.833761 0.483208 0.973635
v 0.833761 0.483208 1.029256
v -0.311716 0.482009 0.974746
v -0.311716 0.482009 1.028815
v -0.486087 0.482009 1.028815
v -0.078676 0.889419 0.974746
v -0.078676 0.889419 1.028814
v 0.008509 0.802234 1.028815
v 0.008509 0.802234 0.974746
v -0.486087 0.482008 0.974746
v -0.078677 0.074598 0.974746
v -0.078677 0.074598 1.028815
v 0.008509 0.161783 1.028815
v 0.008509 0.161783 0.974746
v -0.654387 0.483208 0.973635
v -0.075568 1.093958 0.953178
v 0.075566 1.093958 1.046823
v -0.075568 1.093958 1.046823
v 0.075567 1.093958 0.953178
v -0.654387 0.483208 1.029256
v -0.833761 0.483208 0.973635
v -0.833761 0.483208 1.029256
v -1.000000 0.866430 0.966956
v -1.000000 1.076602 0.966956
v -1.000000 0.866430 1.038498
v -1.000000 1.076602 1.038498
v 1.000000 0.866431 0.966956
v 1.000000 1.076604 0.966956
v 1.000000 0.866431 1.038498
v 1.000000 1.076604 1.038498
v 1.000000 0.838133 0.974746
v 1.000000 0.838133 1.028815
v 1.000000 1.012503 1.028815
v 0.591986 0.605093 0.974746
v 0.591986 0.605093 1.028814
v 0.679171 0.517908 1.028815
v 0.679171 0.517908 0.974746
v 1.000000 1.012503 0.974746
v -1.000000 0.838133 0.974746
v -1.000000 0.838133 1.028815
v -1.000000 1.012503 1.028815
v -0.591986 0.605093 0.974746
v -0.591986 0.605093 1.028814
v -0.679171 0.517908 1.028815
v -0.679171 0.517908 0.974746
v -1.000000 1.012503 0.974746
v 1.000000 0.125885 0.974746
v 1.000000 0.125885 1.028815
v 0.591986 0.358925 0.974746
v 0.591986 0.358925 1.028814
v 0.679171 0.446110 1.028815
v 0.679171 0.446110 0.974746
v -1.000000 0.125885 0.974746
v -1.000000 0.125885 1.028815
v -0.591986 0.358925 0.974746
v -0.591986 0.358925 1.028814
v -0.679171 0.446110 1.028815
v -0.679171 0.446110 0.974746
v -0.338673 -0.011880 0.973635
v -0.159299 -0.011880 0.973635
v 0.075567 -0.011880 0.953178
v 0.075567 -0.011880 1.046823
v -0.159299 -0.011880 1.029256
v 0.159299 -0.011880 0.973635
v 0.338673 -0.011880 1.029256
v -0.963340 -0.011880 1.028815
v 0.963340 -0.011880 1.028815
v -0.075567 -0.011880 0.953178
v 0.338673 -0.011880 0.973635
v -1.000000 -0.011880 0.974746
v 1.000000 -0.011880 0.974746
v -0.963341 -0.011880 0.974746
v 0.963341 -0.011880 0.974746
v 0.159299 -0.011880 1.029256
v -0.338673 -0.011880 1.029256
v -1.000000 -0.011880 1.028815
v 1.000000 -0.011880 1.028815
v -0.075567 -0.011880 1.046823
v -0.296594 1.020375 1.029256
v 0.117219 1.020375 1.029256
v -0.117219 1.020375 0.973635
v -0.296594 1.020375 0.973635
v 0.117219 1.020375 0.973635
v 0.296594 1.020375 1.029256
v 0.296593 1.020375 0.973635
v -0.117218 1.020375 1.029256
vn -0.0000 -0.0000 1.0000
vn -0.0000 1.0000 -0.0000
vn -0.0000 -1.0000 -0.0000
vn -0.0000 -0.0000 -1.0000
vn -0.0000 -0.9985 -0.0543
vn -0.0000 0.9985 0.0543
vn 0.7071 0.7071 -0.0000
vn -0.7071 -0.7071 -0.0000
vn 0.7071 -0.7071 -0.0000
vn -0.7071 0.7071 -0.0000
vn -0.7066 0.7076 -0.0000
vn 0.7064 -0.7078 -0.0000
vn 0.7066 0.7076 -0.0000
vn -0.7064 -0.7078 -0.0000
vn 0.7064 0.7078 -0.0000
vn -0.7064 0.7078 -0.0000
vn 1.0000 -0.0000 -0.0000
vn -0.7066 -0.7076 -0.0000
vn 0.7066 -0.7076 -0.0000
vn -1.0000 -0.0000 -0.0000
vt 1.000000 0.882737
vt 0.000000 0.882737
vt 0.000000 0.996169
vt 1.000000 0.996169
vt 1.000000 0.867594
vt 1.000000 0.757548
vt 0.000000 0.757548
vt 0.000000 0.867594
vt 0.500000 0.692703
vt 1.500000 0.692703
vt 1.500000 0.745718
vt 0.500000 0.745718
vt 0.000000 0.741805
vt 0.000000 0.693592
vt 1.000000 0.693592
vt 1.000000 0.741805
vt 0.000000 0.882737
vt -0.000000 0.996169
vt 0.528262 0.867594
vt 0.281698 0.757548
vt -0.000000 0.882737
vt 0.000000 0.996169
vt 0.322923 0.882737
vt 0.322923 0.996169
vt 0.763375 0.757548
vt 0.677077 0.867594
vt 0.236625 0.882737
vt 0.236625 0.996169
vt 0.296425 0.757548
vt 0.375962 0.867594
vt 0.322923 0.882737
vt 0.677077 0.867594
vt 0.763375 0.757548
vt 0.236625 0.996169
vt 0.236625 0.882737
vt 0.296425 0.757548
vt 0.480798 0.867594
vt 0.476501 0.844492
vt 0.480798 0.867594
vt 0.479264 0.996169
vt 0.479264 0.882737
vt 0.052005 0.882737
vt 0.052005 0.996169
vt 0.052005 0.996169
vt 0.476501 0.844493
vt 0.480799 0.867594
vt 0.480799 0.867594
vt 0.476501 0.844493
vt 0.624038 0.996169
vt 0.624038 0.882737
vt 0.624038 0.882737
vt 0.520736 0.867594
vt 0.520736 0.757548
vt 0.947995 0.757548
vt 0.947995 0.867594
vt 0.910152 0.882737
vt 0.910151 0.996169
vt 0.910151 0.996169
vt 0.910152 0.882737
vt 0.703575 0.996169
vt 0.703575 0.882737
vt 0.375962 0.867594
vt 0.296425 0.757548
vt 0.703575 0.882737
vt 0.296425 0.757548
vt 0.375962 0.867594
vt 0.947995 0.867594
vt 0.947995 0.757548
vt 0.520736 0.757548
vt 0.763375 0.757548
vt 0.677077 0.867594
vt 0.763375 0.757548
s 0
usemtl MI_WoodTrim
f 3/1/1 7/2/1 8/3/1 4/4/1
f 8/5/2 6/6/2 2/7/2 4/8/2
f 3/8/3 1/7/3 5/6/3 7/5/3
f 2/1/4 6/2/4 5/3/4 1/4/4
f 9/9/5 11/10/5 12/11/5 10/12/5
f 14/9/6 15/12/6 16/11/6 13/10/6
f 9/13/4 14/14/4 13/15/4 11/16/4
f 12/15/1 16/16/1 15/13/1 10/14/1
f 24/1/7 20/17/7 21/18/7 19/4/7
f 24/19/4 17/20/4 23/7/4 20/8/4
f 18/1/8 22/21/8 23/22/8 17/4/8
f 21/8/1 22/7/1 18/20/1 19/19/1
f 24/1/9 19/4/9 26/18/9 25/17/9
f 24/19/4 25/8/4 28/7/4 17/20/4
f 18/1/10 17/4/10 28/22/10 27/21/10
f 26/8/1 19/19/1 18/20/1 27/7/1
f 31/1/7 115/23/7 114/24/7 32/4/7
f 31/8/4 29/7/4 113/25/4 115/26/4
f 30/1/8 110/27/8 113/28/8 29/4/8
f 32/5/1 30/6/1 104/29/1 95/30/1
f 40/1/10 35/4/10 37/18/10 36/17/10
f 40/19/4 36/8/4 39/7/4 33/20/4
f 34/1/9 33/4/9 39/22/9 38/21/9
f 37/8/1 35/19/1 34/20/1 38/7/1
f 40/1/8 41/17/8 42/18/8 35/4/8
f 40/19/4 33/20/4 44/7/4 41/8/4
f 34/1/7 43/21/7 44/22/7 33/4/7
f 42/8/1 43/7/1 34/20/1 35/19/1
f 51/1/10 52/4/10 109/24/10 112/31/10
f 51/8/4 112/32/4 111/33/4 45/7/4
f 50/1/9 45/4/9 111/34/9 116/35/9
f 52/5/1 105/30/1 93/36/1 50/6/1
f 55/1/1 59/2/1 60/3/1 56/4/1
f 60/5/2 58/6/2 54/7/2 56/8/2
f 55/8/3 53/7/3 57/6/3 59/5/3
f 54/1/4 58/2/4 57/3/4 53/4/4
f 68/1/11 64/17/11 65/18/11 63/4/11
f 68/19/4 61/20/4 67/7/4 64/8/4
f 62/1/12 66/21/12 67/22/12 61/4/12
f 65/8/1 66/7/1 62/20/1 63/19/1
f 76/1/13 71/4/13 73/18/13 72/17/13
f 76/19/4 72/8/4 75/7/4 69/20/4
f 70/1/14 69/4/14 75/22/14 74/21/14
f 73/8/1 71/19/1 70/20/1 74/7/1
f 78/1/15 77/4/15 82/22/15 81/21/15
f 80/8/1 97/37/1 107/38/1 78/20/1 81/7/1
f 84/1/16 87/21/16 88/22/16 83/4/16
f 86/8/1 87/7/1 84/20/1 106/38/1 96/39/1
f 108/40/1 92/41/1 47/42/1 48/43/1
f 91/40/4 98/41/4 46/42/4 49/44/4
f 101/45/4 103/46/4 79/8/4 82/7/4 77/20/4
f 102/47/4 100/48/4 83/20/4 88/7/4 85/8/4
f 95/49/9 99/50/9 31/2/9 32/3/9
f 89/51/8 105/49/8 52/3/8 51/2/8
f 92/52/17 91/53/17 49/54/17 47/55/17
f 103/56/18 97/57/18 80/18/18 79/17/18
f 96/58/19 102/59/19 85/17/19 86/18/19
f 94/60/10 104/61/10 30/2/10 29/3/10
f 99/62/4 94/63/4 29/6/4 31/5/4
f 93/64/7 90/60/7 45/3/7 50/2/7
f 90/65/4 89/66/4 51/5/4 45/6/4
f 48/67/20 46/68/20 98/69/20 108/52/20
f 116/70/1 109/71/1 52/8/1 50/7/1
f 114/71/1 110/72/1 30/7/1 32/8/1
