# Blender 4.0.2
# www.blender.org
mtllib Corner_Exterior_TopOnly.mtl
o Corner_Exterior_TopOnly
v -0.000000 2.883235 0.092245
v 0.000538 2.883235 -0.000538
v -0.046123 2.883235 0.046123
v -0.000000 3.116763 0.092245
v 0.000538 3.116763 -0.000538
v -0.092245 3.116763 -0.000000
v -0.092245 2.883235 0.000000
v -0.046123 3.116763 0.046123
vn -0.0000 -1.0000 -0.0000
vn -0.7071 -0.0000 0.7071
vn -0.0000 1.0000 -0.0000
vt 0.000149 0.747952
vt 0.000149 0.692587
vt 0.028594 0.719320
vt 0.000052 0.748049
vt 0.028497 0.719272
vt 0.000052 0.692560
vt 0.045986 0.996169
vt 0.000000 0.996169
vt 0.000000 0.882737
vt 0.045986 0.882737
vt 0.000000 0.996169
vt 0.000000 0.882737
s 1
usemtl MI_WoodTrim
f 2/1/1 1/2/1 3/3/1
f 2/4/1 3/5/1 7/6/1
f 8/7/2 6/8/2 7/9/2 3/10/2
f 5/4/3 6/6/3 8/5/3
f 5/1/3 8/3/3 4/2/3
f 4/11/2 8/7/2 3/10/2 1/12/2
