# Blender 4.0.2
# www.blender.org
mtllib DoorFrame_Flat_WoodDark.mtl
o DoorFrame_Flat_WoodDark
v -0.558467 2.246312 0.112650
v -0.719629 2.246312 0.112650
v -0.558467 2.246312 -0.225992
v -0.719629 2.246312 -0.225992
v -0.558468 -0.000000 0.112650
v -0.719631 -0.000000 0.112650
v -0.558469 -0.000000 -0.225991
v -0.719631 -0.000000 -0.225991
v 0.558467 2.246312 0.112650
v 0.719629 2.246312 0.112650
v 0.558467 2.246312 -0.225992
v 0.719629 2.246312 -0.225992
v 0.558468 -0.000000 0.112650
v 0.719631 -0.000000 0.112650
v 0.558469 -0.000000 -0.225991
v 0.719631 -0.000000 -0.225991
v 0.787783 2.140932 -0.243290
v 0.787783 2.302094 -0.243290
v -0.784636 2.140933 -0.243289
v -0.784636 2.302095 -0.243289
v 0.786209 2.155764 0.145162
v 0.786209 2.142552 0.130503
v 0.786209 2.303714 0.130503
v 0.786209 2.290501 0.145162
v -0.786210 2.142552 0.130503
v -0.786210 2.155765 0.145162
v -0.786210 2.290502 0.145162
v -0.786210 2.303715 0.130503
v 0.665267 -0.008545 0.090014
v 0.665267 0.033029 0.090014
v 0.665267 -0.008545 -0.228242
v 0.665267 0.033029 -0.228242
v -0.665267 -0.008544 0.090015
v -0.665267 0.033030 0.090015
v -0.665267 -0.008544 -0.228241
v -0.665267 0.033030 -0.228241
vn -0.0000 1.0000 -0.0000
vn -0.0000 -1.0000 -0.0000
vn -0.0000 -0.0000 -1.0000
vn -1.0000 -0.0000 -0.0000
vn 1.0000 -0.0000 -0.0000
vn -0.0000 -0.0000 1.0000
vn -1.0000 -0.0000 -0.0041
vn 1.0000 -0.0000 0.0041
vn -0.0000 1.0000 -0.0043
vn -0.0000 -0.7428 0.6695
vn -0.0000 0.7428 0.6695
vn -0.0000 -1.0000 0.0043
vt 0.332501 0.213019
vt 0.490323 0.213019
vt 0.490323 0.373570
vt 0.332501 0.373570
vt 1.000000 0.572190
vt 0.000000 0.572190
vt 0.000000 0.685623
vt 1.000000 0.685622
vt 1.000000 0.565128
vt 1.000000 0.451224
vt 0.000000 0.451224
vt 0.000000 0.565128
vt 1.292477 0.581490
vt 0.592477 0.581490
vt 0.592477 0.676323
vt 1.292477 0.676322
vt 0.850000 0.572190
vt 0.150000 0.572190
vt 0.150000 0.685623
vt 0.850000 0.685622
vt 0.499603 0.209095
vt 0.344966 0.209095
vt 0.332986 0.222981
vt 0.332986 0.364584
vt 0.344966 0.378470
vt 0.499603 0.378470
vt 0.332986 0.222981
vt 0.344966 0.209095
vt 0.344966 0.378470
vt 1.319546 0.565128
vt 1.319546 0.459414
vt 0.619546 0.459414
vt 0.619546 0.565128
vt 0.287804 0.451224
vt 0.987804 0.451224
vt 0.987804 0.459414
vt 0.287804 0.459414
vt 1.319546 0.451224
vt 0.619546 0.451224
vt 0.287804 0.565128
vt 0.987804 0.565128
vt 0.332501 0.333088
vt 0.490323 0.333088
vt 0.490323 0.333088
vt 0.332501 0.333088
vt 1.000000 0.653831
vt 0.000000 0.653831
vt 0.000000 0.682432
vt 1.000000 0.682432
vt 1.000000 0.553856
vt 1.000000 0.443811
vt 0.000000 0.443811
vt 0.000000 0.553856
vt 0.000000 0.553856
vt 1.000000 0.568999
vt 0.000000 0.568999
vt 0.000000 0.597600
vt 1.000000 0.597600
s 0
usemtl MI_WoodTrim
f 1/1/1 3/2/1 4/3/1 2/4/1
f 7/2/2 5/1/2 6/4/2 8/3/2
f 3/5/3 7/6/3 8/7/3 4/8/3
f 8/9/4 6/10/4 2/11/4 4/12/4
f 3/12/5 1/11/5 5/10/5 7/9/5
f 2/5/6 6/6/6 5/7/6 1/8/6
f 9/1/1 10/4/1 12/3/1 11/2/1
f 15/2/2 16/3/2 14/4/2 13/1/2
f 11/5/3 12/8/3 16/7/3 15/6/3
f 16/9/5 12/12/5 10/11/5 14/10/5
f 11/12/4 15/9/4 13/10/4 9/11/4
f 10/5/6 9/8/6 13/7/6 14/6/6
s 13
f 24/13/6 27/14/6 26/15/6 21/16/6
f 17/17/3 19/18/3 20/19/3 18/20/3
s 14
f 19/21/7 25/22/7 26/23/7 27/24/7 28/25/7 20/26/7
s 15
f 21/27/8 22/28/8 17/21/8 18/26/8 23/29/8 24/24/8
s 13
f 20/30/9 28/31/9 23/32/9 18/33/9
f 21/34/10 26/35/10 25/36/10 22/37/10
f 27/38/11 24/39/11 23/32/11 28/31/11
f 17/40/12 22/37/12 25/36/12 19/41/12
s 0
f 29/42/5 31/43/5 32/3/5 30/4/5
f 35/44/4 33/45/4 34/4/4 36/3/4
f 31/46/3 35/47/3 36/48/3 32/49/3
f 36/50/1 34/51/1 30/52/1 32/53/1
f 31/54/2 29/52/2 33/51/2 35/50/2
f 30/55/6 34/56/6 33/57/6 29/58/6
