# Blender 4.0.2
# www.blender.org
mtllib Floor_UnevenBrick.mtl
o Floor_UnevenBrick
v -1.000000 0.010000 1.000000
v 1.000000 0.010000 1.000000
v -1.000000 0.010000 -1.000000
v 1.000000 0.010000 -1.000000
v 1.000000 -0.010000 1.000000
v -1.000000 -0.010000 1.000000
v 1.000000 -0.010000 -1.000000
v -1.000000 -0.010000 -1.000000
vn -0.0000 1.0000 -0.0000
vn -0.0000 -1.0000 -0.0000
vt 1.000000 0.000000
vt 1.000000 1.000000
vt 0.000000 1.000000
vt 0.000000 0.000000
s 0
usemtl MI_UnevenBrick
f 2/1/1 4/2/1 3/3/1 1/4/1
f 6/4/2 8/3/2 7/2/2 5/1/2
