# Blender 4.0.2
# www.blender.org
mtllib Floor_WoodDark_Half3.mtl
o Floor_WoodDark_Half3
v -1.000000 0.010000 -1.000000
v 1.000000 0.010000 -1.000000
v -1.000000 0.010000 -0.750000
v -1.000000 0.010000 -0.500000
v -1.000000 0.010000 -0.250000
v -1.000000 0.010000 0.000000
v 1.000000 0.010000 0.000000
v 1.000000 0.010000 -0.250000
v 1.000000 0.010000 -0.500000
v 1.000000 0.010000 -0.750000
v 1.000000 -0.010000 -1.000000
v -1.000000 -0.010000 -1.000000
v 1.000000 -0.010000 -0.750000
v 1.000000 -0.010000 -0.500000
v 1.000000 -0.010000 -0.250000
v 1.000000 -0.010000 -0.000000
v -1.000000 -0.010000 0.000000
v -1.000000 -0.010000 -0.250000
v -1.000000 -0.010000 -0.500000
v -1.000000 -0.010000 -0.750000
vn -0.0000 1.0000 -0.0000
vn -0.0000 -1.0000 -0.0000
vt 0.500035 0.565378
vt 1.499965 0.565378
vt 1.499965 0.445042
vt 0.500035 0.445042
vt 0.000035 0.688472
vt 0.999965 0.688472
vt 0.999965 0.567552
vt 0.000035 0.567552
vt 0.499965 0.688472
vt -0.499965 0.688472
vt -0.499965 0.567552
vt 0.499965 0.567552
vt 0.499965 0.445042
vt -0.499965 0.445042
vt -0.499965 0.565378
vt 0.499965 0.565377
s 0
usemtl MI_WoodTrim
f 3/1/1 10/2/1 2/3/1 1/4/1
f 6/5/1 7/6/1 8/7/1 5/8/1
f 5/9/1 8/10/1 9/11/1 4/12/1
f 4/13/1 9/14/1 10/15/1 3/16/1
f 13/1/2 20/2/2 12/3/2 11/4/2
f 16/5/2 17/6/2 18/7/2 15/8/2
f 15/9/2 18/10/2 19/11/2 14/12/2
f 14/13/2 19/14/2 20/15/2 13/16/2
