# Blender 4.0.2
# www.blender.org
mtllib Floor_WoodLight_OverhangCorner.mtl
o Floor_WoodLight_OverhangCorner
v -1.000000 0.010000 1.000000
v -0.750000 0.010000 1.000000
v -0.500000 0.010000 1.000000
v -0.250000 0.010000 1.000000
v -0.000000 0.010000 1.000000
v -1.000000 -0.010000 1.000000
v -0.000000 -0.010000 1.000000
v -0.250000 -0.010000 1.000000
v -0.500000 -0.010000 1.000000
v -0.750000 -0.010000 1.000000
v -1.000000 0.010000 -0.756460
v -0.250000 -0.010000 0.028962
v -0.000000 0.010000 0.290769
v -0.750000 0.010000 -0.494653
v -0.500000 -0.010000 -0.232845
v -0.250000 0.010000 0.028962
v -1.000000 -0.010000 -0.756460
v -0.500000 0.010000 -0.232845
v -0.000000 -0.010000 0.290769
v -0.750000 -0.010000 -0.494653
vn -0.0000 -1.0000 -0.0000
vn -0.0000 1.0000 -0.0000
vt 0.499965 0.996854
vt -0.378203 0.996854
vt -0.247309 0.875933
vt 0.499965 0.875933
vt -0.499965 0.873759
vt 0.247309 0.873759
vt 0.116414 0.753424
vt -0.499965 0.753424
vt 0.999965 0.996854
vt 0.383586 0.996854
vt 0.514480 0.875933
vt 0.999965 0.875933
vt 0.499965 0.753424
vt 0.014480 0.753424
vt 0.145374 0.873759
vt 0.499965 0.873759
vt -0.116414 0.753424
vt -0.247309 0.873759
vt 0.499965 0.873759
vt 0.499965 0.753424
vt 0.485520 0.875933
vt 0.616414 0.996854
vt 0.000035 0.996854
vt 0.000035 0.875933
vt -0.145374 0.873759
vt -0.014480 0.753424
vt -0.499965 0.753424
vt -0.499965 0.873759
vt 0.247309 0.875933
vt 0.378203 0.996854
vt -0.499965 0.996854
vt -0.499965 0.875933
s 0
usemtl MI_WoodTrim
f 6/1/1 17/2/1 20/3/1 10/4/1
f 10/5/1 20/6/1 15/7/1 9/8/1
f 9/9/1 15/10/1 12/11/1 8/12/1
f 8/13/1 12/14/1 19/15/1 7/16/1
f 18/17/2 14/18/2 2/19/2 3/20/2
f 16/21/2 18/22/2 3/23/2 4/24/2
f 13/25/2 16/26/2 4/27/2 5/28/2
f 14/29/2 11/30/2 1/31/2 2/32/2
