# Blender 4.0.2
# www.blender.org
mtllib Floor_WoodDark.mtl
o Floor_WoodDark
v -1.000000 0.010000 1.000000
v 1.000000 0.010000 1.000000
v -1.000000 0.010000 -1.000000
v 1.000000 0.010000 -1.000000
v -1.000000 0.010000 -0.750000
v -1.000000 0.010000 -0.500000
v -1.000000 0.010000 -0.250000
v -1.000000 0.010000 0.000000
v -1.000000 0.010000 0.250000
v -1.000000 0.010000 0.500000
v -1.000000 0.010000 0.750000
v 1.000000 0.010000 0.750000
v 1.000000 0.010000 0.500000
v 1.000000 0.010000 0.250000
v 1.000000 0.010000 0.000000
v 1.000000 0.010000 -0.250000
v 1.000000 0.010000 -0.500000
v 1.000000 0.010000 -0.750000
v 1.000000 -0.010000 1.000000
v -1.000000 -0.010000 1.000000
v 1.000000 -0.010000 -1.000000
v -1.000000 -0.010000 -1.000000
v 1.000000 -0.010000 -0.750000
v 1.000000 -0.010000 -0.500000
v 1.000000 -0.010000 -0.250000
v 1.000000 -0.010000 -0.000000
v 1.000000 -0.010000 0.250000
v 1.000000 -0.010000 0.500000
v 1.000000 -0.010000 0.750000
v -1.000000 -0.010000 0.750000
v -1.000000 -0.010000 0.500000
v -1.000000 -0.010000 0.250000
v -1.000000 -0.010000 0.000000
v -1.000000 -0.010000 -0.250000
v -1.000000 -0.010000 -0.500000
v -1.000000 -0.010000 -0.750000
vn -0.0000 1.0000 -0.0000
vn -0.0000 -1.0000 -0.0000
vt 0.500035 0.565378
vt 1.499965 0.565378
vt 1.499965 0.445042
vt 0.500035 0.445042
vt 0.499965 0.688472
vt -0.499965 0.688472
vt -0.499965 0.567552
vt 0.499965 0.567552
vt -0.499965 0.565378
vt 0.499965 0.565378
vt 0.499965 0.445042
vt -0.499965 0.445042
vt 0.999965 0.688472
vt 0.000035 0.688472
vt 0.000035 0.567552
vt 0.999965 0.567552
vt 0.499965 0.445042
vt -0.499965 0.445042
vt -0.499965 0.565378
vt 0.499965 0.565377
vt -0.499965 0.688472
vt -0.499965 0.567552
vt 0.499965 0.445042
vt 0.499965 0.565377
s 0
usemtl MI_WoodTrim
f 5/1/1 18/2/1 4/3/1 3/4/1
f 1/5/1 2/6/1 12/7/1 11/8/1
f 11/9/1 12/10/1 13/11/1 10/12/1
f 10/13/1 13/14/1 14/15/1 9/16/1
f 9/17/1 14/18/1 15/19/1 8/20/1
f 8/14/1 15/13/1 16/16/1 7/15/1
f 7/5/1 16/21/1 17/22/1 6/8/1
f 6/23/1 17/12/1 18/9/1 5/24/1
f 23/1/2 36/2/2 22/3/2 21/4/2
f 19/5/2 20/6/2 30/7/2 29/8/2
f 29/9/2 30/10/2 31/11/2 28/12/2
f 28/13/2 31/14/2 32/15/2 27/16/2
f 27/17/2 32/18/2 33/19/2 26/20/2
f 26/14/2 33/13/2 34/16/2 25/15/2
f 25/5/2 34/21/2 35/22/2 24/8/2
f 24/23/2 35/12/2 36/9/2 23/24/2
