# Blender 4.0.2
# www.blender.org
mtllib Floor_WoodDark_OverhangCorner2.mtl
o Floor_WoodDark_OverhangCorner2
v -1.000000 0.010000 1.000000
v -1.000000 0.010000 -0.750000
v -1.000000 0.010000 -0.500000
v -1.000000 0.010000 -0.250000
v -1.000000 0.010000 0.000000
v -1.000000 0.010000 0.250000
v -1.000000 0.010000 0.500000
v -1.000000 0.010000 0.750000
v -1.000000 -0.010000 1.000000
v -1.000000 -0.010000 0.750000
v -1.000000 -0.010000 0.500000
v -1.000000 -0.010000 0.250000
v -1.000000 -0.010000 0.000000
v -1.000000 -0.010000 -0.250000
v -1.000000 -0.010000 -0.500000
v -1.000000 -0.010000 -0.750000
v -0.043353 -0.010000 0.250000
v -0.282514 0.010000 0.000000
v -0.282514 -0.010000 0.000000
v -0.521676 0.010000 -0.250000
v -0.521676 -0.010000 -0.250000
v -0.760838 0.010000 -0.500000
v -0.760838 -0.010000 -0.500000
v -0.043352 0.010000 0.750000
v -0.043352 -0.010000 0.750000
v -0.043353 0.010000 0.500000
v -0.043353 -0.010000 0.500000
v -0.043352 0.010000 1.000000
v -0.043352 -0.010000 1.000000
v -0.043353 0.010000 0.250000
vn -0.0000 1.0000 -0.0000
vn -0.0000 -1.0000 -0.0000
vt 0.499965 0.688472
vt 0.021675 0.688472
vt 0.021675 0.567552
vt 0.499965 0.567552
vt -0.499965 0.565378
vt -0.021675 0.565378
vt -0.021675 0.445042
vt -0.499965 0.445042
vt 0.999965 0.688472
vt 0.521675 0.688472
vt 0.521675 0.567552
vt 0.999965 0.567552
vt 0.499965 0.445042
vt 0.021675 0.445042
vt 0.141247 0.565377
vt 0.499965 0.565377
vt 0.000035 0.688472
vt 0.358753 0.688472
vt 0.239180 0.567552
vt 0.000035 0.567552
vt 0.260820 0.688472
vt 0.380392 0.567552
vt 0.499965 0.445042
vt 0.380392 0.445042
vt 0.499965 0.565377
vt -0.021675 0.567552
vt -0.021675 0.688472
vt -0.499965 0.688472
vt -0.499965 0.567552
vt 0.478325 0.567552
vt 0.478325 0.688472
vt 0.760820 0.567552
vt 0.641247 0.688472
vt -0.380392 0.445042
vt 0.021675 0.445042
vt 0.021675 0.565378
vt 0.499965 0.565378
vt 0.499965 0.445042
vt -0.141247 0.565378
vt -0.021675 0.445042
vt -0.499965 0.445042
vt -0.499965 0.565378
vt -0.380392 0.567552
vt -0.260820 0.688472
vt -0.499965 0.688472
vt -0.499965 0.567552
s 0
usemtl MI_WoodTrim
f 1/1/1 28/2/1 24/3/1 8/4/1
f 8/5/1 24/6/1 26/7/1 7/8/1
f 7/9/1 26/10/1 30/11/1 6/12/1
f 6/13/1 30/14/1 18/15/1 5/16/1
f 5/17/1 18/18/1 20/19/1 4/20/1
f 4/1/1 20/21/1 22/22/1 3/4/1
f 3/23/1 22/24/1 2/25/1
f 25/26/2 29/27/2 9/28/2 10/29/2
f 17/30/2 27/31/2 11/17/2 12/20/2
f 21/32/2 19/33/2 13/9/2 14/12/2
f 16/5/2 23/34/2 15/8/2
f 27/35/2 25/36/2 10/37/2 11/38/2
f 19/39/2 17/40/2 12/41/2 13/42/2
f 23/43/2 21/44/2 14/45/2 15/46/2
