# Blender 4.0.2
# www.blender.org
mtllib Floor_WoodDark_Half2.mtl
o Floor_WoodDark_Half2
v 1.000000 0.010000 1.000000
v 1.000000 0.010000 -1.000000
v 1.000000 0.010000 0.750000
v 1.000000 0.010000 0.500000
v 1.000000 0.010000 0.250000
v 1.000000 0.010000 0.000000
v 1.000000 0.010000 -0.250000
v 1.000000 0.010000 -0.500000
v 1.000000 0.010000 -0.750000
v 1.000000 -0.010000 1.000000
v 1.000000 -0.010000 -1.000000
v 1.000000 -0.010000 -0.750000
v 1.000000 -0.010000 -0.500000
v 1.000000 -0.010000 -0.250000
v 1.000000 -0.010000 -0.000000
v 1.000000 -0.010000 0.250000
v 1.000000 -0.010000 0.500000
v 1.000000 -0.010000 0.750000
v 0.000000 0.010000 1.000000
v 0.000000 0.010000 -1.000000
v 0.000000 0.010000 0.750000
v 0.000000 0.010000 0.500000
v 0.000000 0.010000 0.250000
v 0.000000 0.010000 0.000000
v 0.000000 0.010000 -0.250000
v 0.000000 0.010000 -0.500000
v 0.000000 0.010000 -0.750000
v 0.000000 -0.010000 1.000000
v 0.000000 -0.010000 -1.000000
v 0.000000 -0.010000 0.750000
v 0.000000 -0.010000 0.500000
v 0.000000 -0.010000 0.250000
v 0.000000 -0.010000 0.000000
v 0.000000 -0.010000 -0.250000
v 0.000000 -0.010000 -0.500000
v 0.000000 -0.010000 -0.750000
vn -0.0000 1.0000 -0.0000
vn -0.0000 -1.0000 -0.0000
vt 1.000000 0.565378
vt 1.499965 0.565378
vt 1.499965 0.445042
vt 1.000000 0.445042
vt -0.000000 0.688472
vt -0.499965 0.688472
vt -0.499965 0.567552
vt -0.000000 0.566465
vt 0.499965 0.565378
vt 0.499965 0.445042
vt -0.000000 0.445042
vt 0.500000 0.688472
vt 0.000035 0.688472
vt 0.000035 0.567552
vt 0.500000 0.567552
vt 0.000000 0.445042
vt -0.499965 0.445042
vt -0.499965 0.565378
vt 0.000000 0.565378
vt 0.999965 0.688472
vt 0.999965 0.567552
vt 0.000000 0.688472
vt -0.499965 0.688472
vt -0.499965 0.567552
vt 0.000000 0.567552
vt -0.000000 0.445042
vt -0.499965 0.445042
vt -0.499965 0.565378
vt -0.000000 0.565378
vt 0.499965 0.445042
vt 0.499965 0.565377
vt 0.499965 0.688472
vt 0.499965 0.567552
vt 0.499965 0.445042
vt 0.499965 0.565377
vt 0.500035 0.565378
vt 0.500035 0.445042
s 0
usemtl MI_WoodTrim
f 27/1/1 9/2/1 2/3/1 20/4/1
f 19/5/1 1/6/1 3/7/1 21/8/1
f 21/8/1 3/9/1 4/10/1 22/11/1
f 22/12/1 4/13/1 5/14/1 23/15/1
f 23/16/1 5/17/1 6/18/1 24/19/1
f 24/12/1 6/20/1 7/21/1 25/15/1
f 25/22/1 7/23/1 8/24/1 26/25/1
f 26/26/1 8/27/1 9/28/1 27/29/1
f 13/30/2 35/26/2 36/29/2 12/31/2
f 14/32/2 34/22/2 35/25/2 13/33/2
f 15/13/2 33/12/2 34/15/2 14/14/2
f 16/34/2 32/16/2 33/19/2 15/35/2
f 17/20/2 31/12/2 32/15/2 16/21/2
f 18/28/2 30/8/2 31/11/2 17/27/2
f 10/32/2 28/5/2 30/8/2 18/33/2
f 12/36/2 36/1/2 29/4/2 11/37/2
