# Blender 4.0.2
# www.blender.org
mtllib HoleCover_StraightHalf.mtl
o HoleCover_StraightHalf
v -0.500000 -0.105085 -0.880180
v -0.500000 0.105088 -0.880180
v -0.500000 -0.105085 -1.119820
v -0.500000 0.105088 -1.119820
v 0.500000 -0.105085 -1.119820
v 0.500000 0.105088 -1.119820
v 0.500000 0.105088 -0.880180
v 0.500000 -0.105086 -0.880180
vn -1.0000 -0.0000 -0.0000
vn -0.0000 1.0000 -0.0000
vn -0.0000 -1.0000 -0.0000
vn -0.0000 -0.0000 1.0000
vn -0.0000 -0.0000 -1.0000
vt 0.490323 0.213019
vt 0.332501 0.213019
vt 0.332501 0.373570
vt 0.490323 0.373570
vt 1.000000 0.867594
vt 1.000000 0.757548
vt -0.001801 0.757548
vt -0.001801 0.867594
vt 1.001801 0.996169
vt 1.001801 0.882737
vt 0.000000 0.882737
vt 0.000000 0.996169
s 0
usemtl MI_WoodTrim
f 3/1/1 1/2/1 2/3/1 4/4/1
f 4/5/2 2/6/2 7/7/2 6/8/2
f 5/8/3 8/7/3 1/6/3 3/5/3
f 8/9/4 7/10/4 2/11/4 1/12/4
f 6/9/5 5/10/5 3/11/5 4/12/5
