# Blender 4.0.2
# www.blender.org
mtllib HoleCover_Straight.mtl
o HoleCover_Straight
v 1.000000 -0.105087 -0.880181
v 1.000000 0.105086 -0.880181
v 1.000000 -0.105086 -1.119820
v 1.000000 0.105086 -1.119820
v -1.000000 -0.105086 -0.880180
v -1.000000 0.105087 -0.880180
v -1.000000 -0.105086 -1.119820
v -1.000000 0.105087 -1.119820
vn 1.0000 -0.0000 -0.0000
vn -1.0000 -0.0000 -0.0000
vn -0.0000 -0.0000 -1.0000
vn -0.0000 1.0000 -0.0000
vn -0.0000 -1.0000 -0.0000
vn -0.0000 -0.0000 1.0000
vt 0.332501 0.213019
vt 0.490323 0.213019
vt 0.490323 0.373570
vt 0.332501 0.373570
vt 1.000000 0.882737
vt 0.000000 0.882737
vt 0.000000 0.996169
vt 1.000000 0.996169
vt 1.000000 0.867594
vt 1.000000 0.757548
vt 0.000000 0.757548
vt 0.000000 0.867594
s 0
usemtl MI_WoodTrim
f 1/1/1 3/2/1 4/3/1 2/4/1
f 7/2/2 5/1/2 6/4/2 8/3/2
f 3/5/3 7/6/3 8/7/3 4/8/3
f 8/9/4 6/10/4 2/11/4 4/12/4
f 3/12/5 1/11/5 5/10/5 7/9/5
f 2/5/6 6/6/6 5/7/6 1/8/6
