# Blender 4.0.2
# www.blender.org
mtllib HoleCover_90Half.mtl
o HoleCover_90Half
v 0.880180 -0.105087 -0.880181
v 0.880180 0.105088 -0.880181
v 1.119820 -0.105085 -1.119820
v 1.119820 0.105088 -1.119820
v -0.000000 -0.105085 -1.119820
v -0.000000 0.105088 -1.119820
v -0.000000 0.105088 -0.880180
v -0.000000 -0.105086 -0.880180
v 0.880180 -0.105087 -0.880180
v 0.880180 0.105088 -0.880180
v 1.119820 -0.105085 -1.119820
v 1.119820 0.105088 -1.119820
v 1.119820 -0.105085 -0.000000
v 1.119820 0.105088 0.000000
v 0.880180 0.105088 -0.000000
v 0.880180 -0.105086 -0.000000
vn -0.0000 -0.0000 -1.0000
vn -0.0000 -1.0000 -0.0000
vn -0.0000 -0.0000 1.0000
vn -0.0000 1.0000 -0.0000
vn 1.0000 -0.0000 -0.0000
vn -1.0000 -0.0000 -0.0000
vt 1.000000 0.882737
vt 0.000000 0.882737
vt -0.000000 0.996169
vt 1.000000 0.996169
vt 0.528262 0.867594
vt 0.281698 0.757548
vt 0.000000 0.757548
vt 0.000000 0.867594
vt -0.000000 0.882737
vt 0.000000 0.996169
s 0
usemtl MI_WoodTrim
f 3/1/1 5/2/1 6/3/1 4/4/1
f 3/5/2 1/6/2 8/7/2 5/8/2
f 2/1/3 7/9/3 8/10/3 1/4/3
f 6/8/4 7/7/4 2/6/4 4/5/4
f 11/1/5 12/4/5 14/3/5 13/2/5
f 11/5/2 13/8/2 16/7/2 9/6/2
f 10/1/6 9/4/6 16/10/6 15/9/6
f 14/8/4 12/5/4 10/6/4 15/7/4
