# Blender 4.0.2
# www.blender.org
mtllib Overhang_Side_Plaster_Long_L.mtl
o Overhang_Side_Plaster_Long_L
v -1.005432 6.000000 0.007269
v -0.795260 6.000000 0.007269
v -1.005432 6.000000 -0.232370
v -0.795260 6.000000 -0.232370
v -1.005431 3.000000 0.007270
v -0.795260 3.000000 0.007269
v -1.005432 3.000000 -0.232370
v -0.795260 3.000000 -0.232370
v -1.000000 1.906325 0.000000
v -1.000000 2.036852 0.008555
v -1.000000 2.165144 0.034074
v -1.000000 2.289009 0.076121
v -1.000000 2.406325 0.133975
v -1.000000 2.515087 0.206647
v -1.000000 2.613432 0.292893
v -1.000000 2.699679 0.391239
v -1.000000 2.772351 0.500000
v -1.000000 2.830205 0.617317
v -1.000000 2.872251 0.741181
v -1.000000 2.897770 0.869474
v -1.000000 2.906325 1.000000
v -1.000000 2.913550 1.000000
v -1.000000 1.906325 -0.000944
v -1.000000 2.036852 -0.000944
v -1.000000 2.165144 -0.000944
v -1.000000 2.289009 -0.000944
v -1.000000 2.406325 -0.000944
v -1.000000 2.515087 -0.000944
v -1.000000 2.613432 -0.000944
v -1.000000 2.699679 -0.000944
v -1.000000 2.772351 -0.000944
v -1.000000 2.830205 -0.000944
v -1.000000 2.872251 -0.000944
v -1.000000 2.897770 -0.000944
v -1.000000 2.906325 -0.000944
v -1.000000 2.913550 -0.000944
v -1.105087 6.000000 1.119820
v -0.894915 6.000000 1.119820
v -1.105087 6.000000 0.880180
v -0.894915 6.000000 0.880180
v -1.165297 2.907979 1.119820
v -0.894913 2.907979 1.119820
v -1.165297 2.907979 0.880180
v -0.894913 2.907979 0.880180
v -1.105966 2.909538 0.120823
v -0.894034 2.909538 0.120823
v -1.105966 2.909538 -0.120823
v -0.894034 2.909538 -0.120823
v -1.105086 2.020782 0.197371
v -1.105086 1.979217 0.004497
v -1.102772 2.364242 -0.112410
v -0.897228 2.424341 0.123826
v -0.897228 2.364243 -0.112410
v -1.102772 2.424340 0.123827
v -1.105087 6.000000 0.119820
v -0.894915 6.000000 0.119820
v -1.105087 6.000000 -0.119820
v -0.894915 6.000000 -0.119820
v -1.014672 2.909538 0.120823
v -1.014672 2.909538 -0.120823
v -1.014550 2.020782 0.197371
v -1.014550 1.979218 0.004497
v -1.014230 2.364243 -0.112410
v -1.014230 2.424341 0.123826
v -1.014551 6.000000 0.119820
v -1.014551 6.000000 -0.119820
v -0.896966 2.320654 -0.099175
v -1.103034 2.378653 0.132153
v -1.103034 2.320653 -0.099175
v -0.897144 2.409759 0.126484
v -1.014266 2.320653 -0.099175
v -1.014242 2.409759 0.126484
v -0.800000 1.906325 0.000000
v -0.800000 2.036852 0.008555
v -0.800000 2.165144 0.034074
v -0.800000 2.289009 0.076121
v -0.800000 2.406325 0.133975
v -0.800000 2.515087 0.206647
v -0.800000 2.613432 0.292893
v -0.800000 2.699679 0.391239
v -0.800000 2.772351 0.500000
v -0.800000 2.830205 0.617317
v -0.800000 2.872251 0.741181
v -0.800000 2.897770 0.869474
v -0.800000 2.906325 2.000000
v -0.800000 2.913550 2.000000
v -0.800000 1.906325 -0.000944
v -0.800000 2.036852 -0.000944
v -0.800000 2.165144 -0.000944
v -0.800000 2.289009 -0.000944
v -0.800000 2.406325 -0.000944
v -0.800000 2.515087 -0.000944
v -0.800000 2.613432 -0.000944
v -0.800000 2.699679 -0.000944
v -0.800000 2.772351 -0.000944
v -0.800000 2.830205 -0.000944
v -0.800000 2.872251 -0.000944
v -0.800000 2.897770 -0.000944
v -0.800000 2.906325 -0.000944
v -0.800000 2.913550 -0.000944
v -1.000000 3.116765 -0.314034
v -1.000000 3.116765 -0.195093
v -0.685964 3.116763 -0.313710
v -0.806933 3.116765 -0.195093
v -0.685966 3.116765 2.000000
v -0.804906 3.116765 2.000000
v -1.000000 6.116765 -0.314034
v -1.000000 5.883237 -0.314034
v -1.000000 6.116765 -0.195093
v -1.000000 5.883237 -0.195093
v -0.685964 6.116763 -0.313710
v -0.685965 5.883235 -0.313710
v -0.806933 6.116765 -0.195093
v -0.806630 5.883237 -0.195093
v -0.685966 6.116765 2.000000
v -0.685966 5.883237 2.000000
v -0.804906 6.116765 2.000000
v -0.804906 5.883237 2.000000
v -1.086022 3.745778 1.944584
v -0.980677 3.745778 1.944584
v -0.980676 2.976954 1.160679
v -1.085638 2.976954 1.160679
v -0.980676 2.976954 0.808086
v -1.085638 2.976954 0.808085
v -0.980677 3.544073 2.000000
v -1.086022 3.705534 2.000000
v -1.086022 3.544073 2.000000
v -1.086021 3.745778 0.055416
v -0.955614 3.745778 0.055416
v -0.955613 2.976954 0.839321
v -1.060575 2.976954 0.839321
v -0.955613 2.976954 1.191914
v -1.060575 2.976954 1.191915
v -0.955613 3.544073 0.000000
v -1.086021 3.705534 0.000000
v -1.086021 3.544073 0.000000
v -1.092446 3.883107 0.000000
v -1.092446 3.649580 0.000000
v -0.987484 3.883107 0.000000
v -0.987484 3.649580 0.000000
v -1.092447 3.883105 2.000000
v -1.092447 3.649578 2.000000
v -0.987485 3.883105 2.000000
v -0.987485 3.649578 2.000000
v -1.117569 6.116765 0.000000
v -1.117569 5.883237 0.000000
v -0.998629 6.116765 0.000000
v -0.998629 5.883237 0.000000
v -1.117570 6.116763 2.000000
v -1.117570 5.883235 2.000000
v -0.998630 6.116763 2.000000
v -0.998630 5.883235 2.000000
v -1.000000 3.000000 2.000000
v -1.000000 6.000000 2.000000
v -1.000000 3.000000 0.000000
v -1.000000 6.000000 0.000000
v -1.000000 3.836088 2.000000
v -1.000000 3.836088 0.000000
v -0.800000 3.000000 2.000000
v -0.800000 6.000000 2.000000
v -0.800000 3.000000 0.000000
v -0.800000 6.000000 0.000000
v -1.097955 3.116765 0.000000
v -1.097955 2.883237 0.000000
v -0.998629 3.116765 0.000000
v -0.998629 2.883237 0.000000
v -1.117570 3.116763 2.000000
v -1.117570 2.883235 2.000000
v -0.998630 3.116763 2.000000
v -0.998630 2.883235 2.000000
v -1.000000 2.974299 -0.314034
v -0.685964 2.974297 -0.313710
v -0.685966 2.974299 2.000000
v -0.999999 0.102187 -0.007063
v -0.999999 0.510897 0.222927
v -1.000000 1.849939 -0.010602
v -1.000000 1.849939 0.222926
v -1.000000 1.997336 -0.002258
v -1.000000 1.966854 0.229271
v -1.000000 2.142382 0.025253
v -1.000000 2.081941 0.250823
v -1.000000 2.282597 0.071460
v -1.000000 2.193230 0.287211
v -1.000000 2.415581 0.135575
v -1.000000 2.297776 0.337815
v -1.000000 2.538660 0.216499
v -1.000000 2.391136 0.401768
v -1.000000 2.646050 0.312847
v -1.000000 2.472020 0.477976
v -1.000000 2.735808 0.422972
v -1.000000 2.539707 0.565134
v -1.000000 2.807593 0.544989
v -1.000000 2.593880 0.661752
v -1.000000 2.860154 0.676810
v -1.000000 2.634542 0.766018
v -1.000000 2.893213 0.814220
v -1.000000 2.661434 0.871217
v -1.000000 2.909489 0.950841
v -1.000000 2.675708 0.980552
v -1.000000 2.909303 1.122835
v -1.000000 2.675568 1.122835
v -1.123584 0.102187 -0.007063
v -1.123584 0.510897 0.222927
v -1.123584 1.849939 -0.010602
v -1.123584 1.849939 0.222926
v -1.123584 1.997336 -0.002258
v -1.123584 1.966854 0.229271
v -1.123584 2.142382 0.025253
v -1.123584 2.081941 0.250823
v -1.123584 2.282597 0.071460
v -1.123584 2.193230 0.287211
v -1.123584 2.415581 0.135575
v -1.123584 2.297776 0.337815
v -1.123584 2.538660 0.216499
v -1.123584 2.391136 0.401768
v -1.123584 2.646050 0.312847
v -1.123584 2.472020 0.477976
v -1.123584 2.735808 0.422972
v -1.123584 2.539707 0.565134
v -1.123584 2.807593 0.544989
v -1.123584 2.593880 0.661752
v -1.123584 2.860154 0.676810
v -1.123584 2.634542 0.766018
v -1.123584 2.893213 0.814220
v -1.123584 2.661434 0.871217
v -1.123584 2.909489 0.950841
v -1.123584 2.675708 0.980552
v -1.123584 2.909303 1.122835
v -1.123584 2.675568 1.122835
v -0.985431 3.000000 0.007270
v -0.795260 3.000000 0.007269
v -0.985432 3.000000 -0.232370
v -0.795260 3.000000 -0.232370
v -0.985431 -0.000000 -0.232370
v -0.795258 0.000000 -0.232370
v -0.795259 1.796202 -0.232370
v -0.985432 1.796202 -0.232370
v -0.985432 2.382959 -0.232370
v -0.795259 2.382959 0.007269
v -0.795259 2.382959 -0.232370
v -0.985431 2.382959 0.007270
v -0.985431 -0.000000 -0.154635
v -0.795259 1.796202 -0.154635
v -0.795258 0.000000 -0.154635
v -0.985432 1.796202 -0.154635
vn -0.0000 1.0000 -0.0000
vn -0.0000 -0.0000 -1.0000
vn 1.0000 -0.0000 -0.0000
vn -1.0000 -0.0000 -0.0000
vn -0.0000 -0.0000 1.0000
vn -0.0000 -1.0000 -0.0000
vn -0.9998 0.0195 -0.0000
vn 1.0000 -0.0062 0.0008
vn -0.0000 0.1793 0.9838
vn -1.0000 0.0056 -0.0013
vn -0.0000 -0.0154 -0.9999
vn -1.0000 -0.0062 0.0008
vn -0.0000 0.0062 1.0000
vn 1.0000 0.0056 -0.0014
vn -0.0000 0.0003 -1.0000
vn 1.0000 0.0003 -0.0000
vn -1.0000 0.0003 -0.0000
vn -0.0000 0.0003 1.0000
vn -0.0000 -0.2905 -0.9569
vn -1.0000 0.0055 -0.0014
vn 0.0010 -0.0000 -1.0000
vn -1.0000 -0.0003 -0.0002
vn -0.0000 0.8283 -0.5603
vn -0.0000 -0.8286 0.5599
vn -0.9997 -0.0216 0.0107
vn -0.0000 0.8283 0.5603
vn -0.0000 -0.8286 -0.5599
vn -1.0000 -0.0000 -0.0098
vn -0.0000 -0.4904 0.8715
vn -0.0000 -0.2535 0.9673
vn -0.0000 0.0273 -0.9996
vn -0.0000 -0.0020 -1.0000
vn -0.0000 -0.0271 0.9996
vn -0.0000 -0.1194 0.9928
vn -0.0000 0.1217 -0.9926
vn -0.0000 -0.2480 0.9688
vn -0.0000 -0.3741 0.9274
vn -0.0000 -0.5018 0.8650
vn -0.0000 0.4929 -0.8701
vn -0.0000 0.3744 -0.9273
vn -0.0000 -0.6273 0.7788
vn -0.0000 -0.7400 0.6726
vn -0.0000 -0.8333 0.5528
vn -0.0000 0.8209 -0.5711
vn -0.0000 0.7237 -0.6902
vn -0.0000 -0.9041 0.4272
vn -0.0000 -0.9520 0.3061
vn -0.0000 0.9530 -0.3029
vn -0.0000 0.8980 -0.4400
vn -0.0000 -0.9820 0.1889
vn -0.0000 -0.9979 0.0644
vn -0.0000 -1.0000 -0.0010
vn -0.0000 1.0000 0.0011
vn -0.0000 0.9983 -0.0587
vn -0.0000 0.9843 -0.1764
vn -0.0000 0.6103 -0.7922
vn -0.0000 0.2502 -0.9682
vt 0.332501 0.213019
vt 0.332501 0.373570
vt 0.490323 0.373570
vt 0.490323 0.213019
vt 1.000000 0.882737
vt 1.000000 0.996169
vt 0.000000 0.996169
vt 0.000000 0.882737
vt 1.000000 0.867594
vt 0.000000 0.867594
vt 0.000000 0.757548
vt 1.000000 0.757548
vt 0.122177 0.211581
vt 0.244535 0.211581
vt 0.244535 0.193830
vt 0.148742 0.193830
vt 0.242215 0.031931
vt 0.244535 0.031931
vt 0.244535 0.000049
vt 0.244305 0.000049
vt 0.093522 0.225712
vt 0.244535 0.225712
vt 0.235982 0.063267
vt 0.244535 0.063267
vt 0.063267 0.235982
vt 0.244535 0.235982
vt 0.225712 0.093522
vt 0.244535 0.093522
vt 0.031931 0.242215
vt 0.244535 0.242215
vt 0.211581 0.122177
vt 0.244535 0.122177
vt 0.000049 0.244305
vt 0.244535 0.244305
vt 0.193830 0.148743
vt 0.244535 0.148743
vt 0.000049 0.246070
vt 0.244535 0.246070
vt 0.172764 0.172764
vt 0.244535 0.172764
vt 0.271477 0.867594
vt 0.271477 0.757548
vt 0.720265 0.947306
vt 0.702652 0.996169
vt 0.500000 0.996169
vt 0.500000 0.947306
vt 0.297349 0.867594
vt 0.500000 0.867594
vt 0.500000 0.757548
vt 0.297349 0.757548
vt 1.000000 0.931600
vt 0.728523 0.996169
vt 0.728523 0.931600
vt 0.271477 0.867594
vt 0.271477 0.757548
vt 1.000000 0.947306
vt 0.728523 0.996169
vt 0.728523 0.947306
vt 0.297348 0.867594
vt 0.279734 0.757548
vt 0.332501 0.282179
vt 0.490323 0.282179
vt 1.000000 0.931600
vt 0.000000 0.931600
vt 1.000000 0.947306
vt 0.000000 0.947306
vt 0.728523 0.882737
vt 0.728523 0.882737
vt 0.702652 0.882737
vt 0.702652 0.931600
vt 0.500000 0.931600
vt 0.500000 0.882737
vt 0.720265 0.882737
vt 0.702652 0.996169
vt 0.000000 0.926969
vt 0.103516 0.996169
vt 0.103516 0.926969
vt 1.000000 0.692612
vt 1.000000 0.747971
vt 0.878191 0.747971
vt 0.878191 0.692612
vt 0.000000 0.747971
vt 0.000000 0.692612
vt 1.000000 0.926969
vt 0.916992 0.692612
vt 0.916992 0.747971
vt 0.103516 0.882737
vt 0.590145 0.882737
vt 0.080997 0.882737
vt 0.000000 0.962307
vt 0.672694 0.996169
vt 0.327306 0.692612
vt 0.327306 0.747971
vt 0.919003 0.692612
vt 0.409855 0.692612
vt 0.409856 0.747971
vt 0.919003 0.747971
vt 0.196419 0.882737
vt 0.278969 0.996169
vt -0.393725 0.996169
vt -0.393725 0.962307
vt -0.312728 0.882737
vt -0.066419 0.692612
vt -0.066419 0.747971
vt 0.606275 0.747971
vt 0.606275 0.692612
vt 0.525278 0.692612
vt 0.525278 0.747971
vt 0.016130 0.747971
vt 0.016130 0.692612
vt 1.000000 0.481160
vt 1.000000 0.132812
vt 0.000082 0.132812
vt 0.000082 0.481160
vt 1.000000 1.000000
vt 1.000000 0.000000
vt 0.000000 0.000000
vt 0.000000 1.000000
vt 1.000000 0.999918
vt 0.000082 0.999918
vt 0.000082 -0.250000
vt 1.000000 -0.250000
vt 0.083520 0.210885
vt 0.083520 0.377037
vt 0.158193 0.377037
vt 0.158193 0.210885
vt 0.475559 0.996545
vt -0.261302 0.996545
vt -0.261302 0.880729
vt 0.475559 0.880729
vt 0.502473 0.743720
vt 0.000000 0.743720
vt 0.000000 0.692207
vt 0.502473 0.692207
vt 0.546983 0.880729
vt 0.546983 0.996545
vt 0.403693 0.691466
vt 0.403693 0.750526
vt 0.459648 0.750526
vt 0.459648 0.691466
vt 0.544577 0.743720
vt 0.544577 0.692207
vt 0.618407 0.880729
vt 0.618407 0.996545
vt 0.515604 0.750526
vt 0.515604 0.691466
vt 0.689831 0.880729
vt 0.689831 0.996545
vt 0.761254 0.880729
vt 0.761254 0.996545
vt 0.571559 0.691466
vt 0.571559 0.750526
vt 0.627514 0.750526
vt 0.627514 0.691466
vt 0.670891 0.743720
vt 0.628787 0.743720
vt 0.628787 0.692207
vt 0.670891 0.692207
vt 0.832678 0.880729
vt 0.832678 0.996545
vt 0.904102 0.880729
vt 0.904102 0.996545
vt 0.683469 0.691466
vt 0.683469 0.750526
vt 0.739425 0.750526
vt 0.739425 0.691466
vt 0.975527 0.880729
vt 0.975527 0.996545
vt 0.795380 0.750526
vt 0.795380 0.691466
vt 0.794567 0.743720
vt 0.754048 0.743720
vt 0.754048 0.692207
vt 0.794567 0.692207
vt 1.046950 0.880729
vt 1.046950 0.996545
vt 1.118374 0.880729
vt 1.118374 0.996545
vt 0.851335 0.691466
vt 0.851335 0.750526
vt 0.907291 0.750526
vt 0.907291 0.691466
vt 1.189798 0.880729
vt 1.189798 0.996545
vt 0.875415 0.743720
vt 0.834941 0.743720
vt 0.834941 0.692207
vt 0.875415 0.692207
vt 0.963246 0.750526
vt 0.963246 0.691466
vt 1.261222 0.880729
vt 1.261222 0.996545
vt 1.278061 0.880729
vt 1.278061 0.996545
vt 1.019201 0.691466
vt 1.019201 0.750526
vt 1.032801 0.750526
vt 1.032801 0.691466
vt 1.000000 0.743720
vt 0.954962 0.743720
vt 0.954962 0.692207
vt 1.000000 0.692207
vt 0.915722 0.743720
vt 0.915722 0.692207
vt 0.712901 0.743720
vt 0.712901 0.692207
vt 0.586682 0.743720
vt 0.586682 0.692207
vt -0.087537 0.750526
vt -0.087537 0.691465
vt 1.278061 0.880729
vt 0.156396 0.377337
vt 0.156396 0.217649
vt 0.087430 0.217649
vt 0.087430 0.377337
vt 0.439128 0.373570
vt 0.439128 0.213019
vt 0.598734 0.882737
vt 0.598734 0.996169
vt 0.205680 0.867594
vt 0.205680 0.757548
vt 0.401266 0.867594
vt 1.000000 0.831897
vt 0.401266 0.831897
vt 0.205680 0.867594
vt 0.205680 0.757548
vt 0.401266 0.867594
vt 0.401266 0.831897
vt 1.000000 0.831897
vt 0.794320 0.882737
vt 0.794320 0.996169
s 0
usemtl MI_WoodTrim
f 1/1/1 2/2/1 4/3/1 3/4/1
f 3/5/2 4/6/2 8/7/2 7/8/2
f 8/9/3 4/10/3 2/11/3 6/12/3
f 3/10/4 7/9/4 5/12/4 1/11/4
f 2/5/5 1/6/5 5/7/5 6/8/5
f 37/1/1 38/2/1 40/3/1 39/4/1
f 43/4/6 44/3/6 42/2/6 41/1/6
f 39/5/2 40/6/2 44/7/2 43/8/2
f 44/9/3 40/10/3 38/11/3 42/12/3
f 39/10/7 43/9/7 41/12/7 37/11/7
f 38/5/5 37/6/5 41/7/5 42/8/5
f 53/41/8 48/10/8 46/11/8 52/42/8
f 72/43/9 68/44/9 49/45/9 61/46/9
f 69/47/10 50/48/10 49/49/10 68/50/10
f 60/51/11 48/6/11 53/52/11 63/53/11
f 47/10/12 51/54/12 54/55/12 45/11/12
f 59/56/13 45/6/13 54/57/13 64/58/13
f 67/59/14 53/41/14 52/42/14 70/60/14
f 65/61/1 56/2/1 58/3/1 66/62/1
f 66/63/15 58/6/15 48/7/15 60/64/15
f 48/9/16 58/10/16 56/11/16 46/12/16
f 57/10/17 47/9/17 45/12/17 55/11/17
f 65/65/18 55/6/18 45/7/18 59/66/18
f 56/5/18 65/65/18 59/66/18 46/8/18
f 57/5/15 66/63/15 60/64/15 47/8/15
f 55/1/1 65/61/1 66/62/1 57/4/1
f 46/5/13 59/56/13 64/58/13 52/67/13
f 47/5/11 60/51/11 63/53/11 51/68/11
f 69/69/19 71/70/19 62/71/19 50/72/19
f 52/67/9 64/58/9 72/43/9 70/73/9
f 51/68/19 63/53/19 71/70/19 69/69/19
f 63/53/19 53/52/19 67/74/19 71/70/19
f 51/54/20 69/47/20 68/50/20 54/55/20
f 64/58/9 54/57/9 68/44/9 72/43/9
f 171/75/21 101/7/21 103/76/21 172/77/21
f 101/78/1 102/79/1 104/80/1 103/81/1
f 106/82/1 105/83/1 103/81/1 104/80/1
f 173/84/3 172/77/3 103/76/3 105/6/3
f 110/79/6 108/78/6 112/85/6 114/86/6
f 108/8/21 107/7/21 111/76/21 112/87/21
f 107/78/1 109/79/1 113/80/1 111/81/1
f 114/86/6 112/85/6 116/83/6 118/82/6
f 117/82/1 115/83/1 111/81/1 113/80/1
f 116/5/3 112/87/3 111/76/3 115/6/3
f 122/88/22 127/89/22 126/90/22 119/7/22 124/91/22
f 124/92/23 119/78/23 120/79/23 123/93/23
f 127/94/24 122/95/24 121/96/24 125/97/24
f 131/98/25 133/99/25 128/100/25 135/101/25 136/102/25
f 133/103/26 132/104/26 129/105/26 128/106/26
f 136/107/27 134/108/27 130/109/27 131/110/27
f 139/5/3 143/8/3 144/7/3 140/6/3
f 144/79/6 142/78/6 138/83/6 140/82/6
f 139/82/1 137/83/1 141/78/1 143/79/1
f 138/5/4 142/8/4 141/7/4 137/6/4
f 147/5/3 151/8/3 152/7/3 148/6/3
f 152/79/6 150/78/6 146/83/6 148/82/6
f 147/82/1 145/83/1 149/78/1 151/79/1
f 146/5/4 150/8/4 149/7/4 145/6/4
f 165/5/3 169/8/3 170/7/3 166/6/3
f 170/79/6 168/78/6 164/83/6 166/82/6
f 165/82/1 163/83/1 167/78/1 169/79/1
f 164/5/28 168/8/28 167/7/28 163/6/28
s 92
f 174/123/29 175/124/30 203/125/30 202/126/29
f 177/127/3 175/128/3 174/129/3 176/130/3
f 176/131/31 174/132/32 202/133/32 204/134/31
f 176/130/3 178/135/3 179/136/3 177/127/3
f 205/137/33 177/138/33 179/139/34 207/140/34
f 178/141/35 176/131/31 204/134/31 206/142/35
f 178/135/3 180/143/3 181/144/3 179/136/3
f 207/140/34 179/139/34 181/145/36 209/146/36
f 180/143/3 182/147/3 183/148/3 181/144/3
f 182/147/3 184/149/3 185/150/3 183/148/3
f 211/151/37 183/152/37 185/153/38 213/154/38
f 184/155/39 182/156/40 210/157/40 212/158/39
f 184/149/3 186/159/3 187/160/3 185/150/3
f 186/159/3 188/161/3 189/162/3 187/160/3
f 215/163/41 187/164/41 189/165/42 217/166/42
f 188/161/3 190/167/3 191/168/3 189/162/3
f 217/166/42 189/165/42 191/169/43 219/170/43
f 190/171/44 188/172/45 216/173/45 218/174/44
f 190/167/3 192/175/3 193/176/3 191/168/3
f 192/175/3 194/177/3 195/178/3 193/176/3
f 221/179/46 193/180/46 195/181/47 223/182/47
f 194/177/3 196/183/3 197/184/3 195/178/3
f 194/185/48 192/186/49 220/187/49 222/188/48
f 223/182/47 195/181/47 197/189/50 225/190/50
f 196/183/3 198/191/3 199/192/3 197/184/3
f 198/191/3 200/193/3 201/194/3 199/192/3
f 227/195/51 199/196/51 201/197/52 229/198/52
f 200/199/53 198/200/54 226/201/54 228/202/53
f 225/190/50 197/189/50 199/196/51 227/195/51
f 198/200/54 196/203/55 224/204/55 226/201/54
f 196/203/55 194/185/48 222/188/48 224/204/55
f 219/170/43 191/169/43 193/180/46 221/179/46
f 192/186/49 190/171/44 218/174/44 220/187/49
f 188/172/45 186/205/56 214/206/56 216/173/45
f 213/154/38 185/153/38 187/164/41 215/163/41
f 186/205/56 184/155/39 212/158/39 214/206/56
f 209/146/36 181/145/36 183/152/37 211/151/37
f 182/156/40 180/207/57 208/208/57 210/157/40
f 180/207/57 178/141/35 206/142/35 208/208/57
f 175/209/30 177/138/33 205/137/33 203/210/30
f 205/127/4 204/130/4 202/129/4 203/128/4
f 204/130/4 205/127/4 207/136/4 206/135/4
f 206/135/4 207/136/4 209/144/4 208/143/4
f 208/143/4 209/144/4 211/148/4 210/147/4
f 210/147/4 211/148/4 213/150/4 212/149/4
f 212/149/4 213/150/4 215/160/4 214/159/4
f 214/159/4 215/160/4 217/162/4 216/161/4
f 216/161/4 217/162/4 219/168/4 218/167/4
f 218/167/4 219/168/4 221/176/4 220/175/4
f 220/175/4 221/176/4 223/178/4 222/177/4
f 222/177/4 223/178/4 225/184/4 224/183/4
f 224/183/4 225/184/4 227/192/4 226/191/4
f 226/191/4 227/192/4 229/194/4 228/211/4
f 228/212/5 229/213/5 201/214/5 200/215/5
s 0
f 234/4/6 235/3/6 244/216/6 242/217/6
f 237/218/2 236/219/2 235/7/2 234/8/2
f 240/220/3 233/10/3 231/11/3 239/221/3
f 237/222/4 234/9/4 242/223/4 245/224/4
f 238/225/4 237/222/4 245/224/4 241/226/4
f 235/9/3 236/227/3 243/228/3 244/229/3
f 238/230/2 240/231/2 236/219/2 237/218/2
f 232/5/2 233/6/2 240/231/2 238/230/2
f 232/10/4 238/225/4 241/226/4 230/11/4
f 231/5/5 230/6/5 241/231/5 239/230/5
f 236/227/3 240/220/3 239/221/3 243/228/3
usemtl MI_Plaster
f 17/13/4 31/14/4 30/15/4 16/16/4
f 10/17/4 24/18/4 23/19/4 9/20/4
f 18/21/4 32/22/4 31/14/4 17/13/4
f 11/23/4 25/24/4 24/18/4 10/17/4
f 19/25/4 33/26/4 32/22/4 18/21/4
f 12/27/4 26/28/4 25/24/4 11/23/4
f 20/29/4 34/30/4 33/26/4 19/25/4
f 13/31/4 27/32/4 26/28/4 12/27/4
f 21/33/4 35/34/4 34/30/4 20/29/4
f 14/35/4 28/36/4 27/32/4 13/31/4
f 22/37/4 36/38/4 35/34/4 21/33/4
f 15/39/4 29/40/4 28/36/4 14/35/4
f 16/16/4 30/15/4 29/40/4 15/39/4
f 81/13/4 95/14/4 94/15/4 80/16/4
f 74/17/4 88/18/4 87/19/4 73/20/4
f 82/21/4 96/22/4 95/14/4 81/13/4
f 75/23/4 89/24/4 88/18/4 74/17/4
f 83/25/4 97/26/4 96/22/4 82/21/4
f 76/27/4 90/28/4 89/24/4 75/23/4
f 84/29/4 98/30/4 97/26/4 83/25/4
f 77/31/4 91/32/4 90/28/4 76/27/4
f 85/33/4 99/34/4 98/30/4 84/29/4
f 78/35/4 92/36/4 91/32/4 77/31/4
f 86/37/4 100/38/4 99/34/4 85/33/4
f 79/39/4 93/40/4 92/36/4 78/35/4
f 80/16/4 94/15/4 93/40/4 79/39/4
f 158/111/4 155/112/4 153/113/4 157/114/4
f 156/115/4 158/116/4 157/117/4 154/118/4
f 162/119/3 160/120/3 159/121/3 161/122/3
