# Blender 4.0.2
# www.blender.org
mtllib Overhang_Side_Plaster_Short_R.mtl
o Overhang_Side_Plaster_Short_R
v 1.005432 6.000000 0.007269
v 0.795260 6.000000 0.007269
v 1.005432 6.000000 -0.232370
v 0.795260 6.000000 -0.232370
v 1.005431 3.000000 0.007270
v 0.795260 3.000000 0.007269
v 1.005432 3.000000 -0.232370
v 0.795260 3.000000 -0.232370
v 0.795260 3.000000 0.007269
v 0.985431 3.000000 0.007270
v 0.952823 3.883107 1.000000
v 0.952823 3.649580 1.000000
v 1.071764 3.883107 1.000000
v 1.071764 3.649580 1.000000
v 1.071763 3.649579 0.000000
v 0.952823 3.883106 0.000000
v 1.071763 3.883106 0.000000
v 0.952823 3.649579 0.000000
v 1.105087 6.000000 1.119820
v 0.894915 6.000000 1.119820
v 1.105087 6.000000 0.880180
v 0.894915 6.000000 0.880180
v 1.165297 2.907979 1.119820
v 0.894913 2.907979 1.119820
v 1.165297 2.907979 0.880180
v 0.894913 2.907979 0.880180
v 1.105966 2.909538 0.120823
v 0.894034 2.909538 0.120823
v 1.105966 2.909538 -0.120823
v 0.894034 2.909538 -0.120823
v 1.105086 2.020782 0.197371
v 1.105086 1.979217 0.004497
v 1.102772 2.364242 -0.112410
v 0.897228 2.424341 0.123826
v 0.897228 2.364243 -0.112410
v 1.102772 2.424340 0.123827
v 1.105087 6.000000 0.119820
v 0.894915 6.000000 0.119820
v 1.105087 6.000000 -0.119820
v 0.894915 6.000000 -0.119820
v 1.014672 2.909538 0.120823
v 1.014672 2.909538 -0.120823
v 1.014550 2.020782 0.197371
v 1.014550 1.979218 0.004497
v 1.014230 2.364243 -0.112410
v 1.014230 2.424341 0.123826
v 1.014551 6.000000 0.119820
v 1.014551 6.000000 -0.119820
v 0.896966 2.320654 -0.099175
v 1.103034 2.378653 0.132153
v 1.103034 2.320653 -0.099175
v 0.897144 2.409759 0.126484
v 1.014266 2.320653 -0.099175
v 1.014242 2.409759 0.126484
v 1.100798 3.144125 1.000000
v 1.100798 2.910598 1.000000
v 0.981857 3.144125 1.000000
v 0.981857 2.910598 1.000000
v 0.981857 2.910599 -0.000000
v 1.100797 3.144126 -0.000000
v 0.981857 3.144126 -0.000000
v 1.100797 2.910599 -0.000000
v 1.000000 3.116765 -0.314034
v 1.000000 2.883237 -0.314034
v 1.000000 3.116765 -0.195093
v 1.000000 2.883237 -0.195093
v 0.685964 3.116763 -0.313710
v 0.685965 2.883235 -0.313710
v 0.806933 3.116765 -0.195093
v 0.806630 2.883237 -0.195093
v 0.685966 3.116765 1.000000
v 0.685966 2.883237 1.000000
v 0.804906 3.116765 1.000000
v 0.804906 2.883237 1.000000
v 1.000000 6.116765 -0.314034
v 1.000000 5.883237 -0.314034
v 1.000000 6.116765 -0.195093
v 1.000000 5.883237 -0.195093
v 0.685964 6.116763 -0.313710
v 0.685965 5.883235 -0.313710
v 0.806933 6.116765 -0.195093
v 0.806630 5.883237 -0.195093
v 0.685966 6.116765 1.000000
v 0.685966 5.883237 1.000000
v 0.804906 6.116765 1.000000
v 0.804906 5.883237 1.000000
v 1.117569 6.116765 0.000000
v 1.117569 5.883237 -0.000000
v 0.998629 6.116765 0.000000
v 0.998629 5.883237 0.000000
v 1.117570 6.116763 1.000000
v 1.117570 5.883235 1.000000
v 0.998630 6.116763 1.000000
v 0.998630 5.883235 1.000000
v 0.800000 1.906325 0.000000
v 0.800000 2.036852 0.008555
v 0.800000 2.165144 0.034074
v 0.800000 2.289009 0.076121
v 0.800000 2.406325 0.133975
v 0.800000 2.515087 0.206647
v 0.800000 2.613432 0.292893
v 0.800000 2.699679 0.391239
v 0.800000 2.772351 0.500000
v 0.800000 2.830205 0.617317
v 0.800000 2.872251 0.741181
v 0.800000 2.897770 0.869474
v 0.800000 2.906325 1.000000
v 0.800000 2.913550 1.000000
v 0.800000 1.906325 -0.000944
v 0.800000 2.036852 -0.000944
v 0.800000 2.165144 -0.000944
v 0.800000 2.289009 -0.000944
v 0.800000 2.406325 -0.000944
v 0.800000 2.515087 -0.000944
v 0.800000 2.613432 -0.000944
v 0.800000 2.699679 -0.000944
v 0.800000 2.772351 -0.000944
v 0.800000 2.830205 -0.000944
v 0.800000 2.872251 -0.000944
v 0.800000 2.897770 -0.000944
v 0.800000 2.906325 -0.000944
v 0.800000 2.913550 -0.000944
v 0.800000 6.000000 1.000000
v 0.800000 6.000000 -0.000944
v 1.000000 1.906325 0.000000
v 1.000000 2.036852 0.008555
v 1.000000 2.165144 0.034074
v 1.000000 2.289009 0.076121
v 1.000000 2.406325 0.133975
v 1.000000 2.515087 0.206647
v 1.000000 2.613432 0.292893
v 1.000000 2.699679 0.391239
v 1.000000 2.772351 0.500000
v 1.000000 2.830205 0.617317
v 1.000000 2.872251 0.741181
v 1.000000 2.897770 0.869474
v 1.000000 2.906325 1.000000
v 1.000000 2.913550 1.000000
v 1.000000 1.906325 -0.000944
v 1.000000 2.036852 -0.000944
v 1.000000 2.165144 -0.000944
v 1.000000 2.289009 -0.000944
v 1.000000 2.406325 -0.000944
v 1.000000 2.515087 -0.000944
v 1.000000 2.613432 -0.000944
v 1.000000 2.699679 -0.000944
v 1.000000 2.772351 -0.000944
v 1.000000 2.830205 -0.000944
v 1.000000 2.872251 -0.000944
v 1.000000 2.897770 -0.000944
v 1.000000 2.906325 -0.000944
v 1.000000 2.913550 -0.000944
v 1.000000 6.000000 1.000000
v 1.000000 6.000000 -0.000944
v 0.985432 3.000000 -0.232370
v 0.795260 3.000000 -0.232370
v 0.985431 -0.000000 -0.232370
v 0.795258 0.000000 -0.232370
v 0.795259 1.796202 -0.232370
v 0.985432 1.796202 -0.232370
v 0.985432 2.382959 -0.232370
v 0.795259 2.382959 0.007269
v 0.795259 2.382959 -0.232370
v 0.985431 2.382959 0.007270
v 0.985431 -0.000000 -0.154635
v 0.795259 1.796202 -0.154635
v 0.795258 0.000000 -0.154635
v 0.985432 1.796202 -0.154635
v 0.999999 0.102187 -0.007063
v 0.999999 0.510897 0.222927
v 1.000000 1.849939 -0.010602
v 1.000000 1.849939 0.222926
v 1.000000 1.997336 -0.002258
v 1.000000 1.966854 0.229271
v 1.000000 2.142382 0.025253
v 1.000000 2.081941 0.250823
v 1.000000 2.282597 0.071460
v 1.000000 2.193230 0.287211
v 1.000000 2.415581 0.135575
v 1.000000 2.297776 0.337815
v 1.000000 2.538660 0.216499
v 1.000000 2.391136 0.401768
v 1.000000 2.646050 0.312847
v 1.000000 2.472020 0.477976
v 1.000000 2.735808 0.422972
v 1.000000 2.539707 0.565134
v 1.000000 2.807593 0.544989
v 1.000000 2.593880 0.661752
v 1.000000 2.860154 0.676810
v 1.000000 2.634542 0.766018
v 1.000000 2.893213 0.814220
v 1.000000 2.661434 0.871217
v 1.000000 2.909489 0.950841
v 1.000000 2.675708 0.980552
v 1.000000 2.909303 1.122835
v 1.000000 2.675568 1.122835
v 1.123585 0.102187 -0.007063
v 1.123585 0.510897 0.222927
v 1.123584 1.849939 -0.010602
v 1.123584 1.849939 0.222926
v 1.123584 1.997336 -0.002258
v 1.123584 1.966854 0.229271
v 1.123584 2.142382 0.025253
v 1.123584 2.081941 0.250823
v 1.123584 2.282597 0.071460
v 1.123584 2.193230 0.287211
v 1.123584 2.415581 0.135575
v 1.123584 2.297776 0.337815
v 1.123584 2.538660 0.216499
v 1.123584 2.391136 0.401768
v 1.123584 2.646050 0.312847
v 1.123584 2.472020 0.477976
v 1.123584 2.735808 0.422972
v 1.123584 2.539707 0.565134
v 1.123584 2.807593 0.544989
v 1.123584 2.593880 0.661752
v 1.123584 2.860154 0.676810
v 1.123584 2.634542 0.766018
v 1.123584 2.893213 0.814220
v 1.123584 2.661434 0.871217
v 1.123584 2.909489 0.950841
v 1.123584 2.675708 0.980552
v 1.123584 2.909303 1.122835
v 1.123584 2.675568 1.122835
vn -0.0000 1.0000 -0.0000
vn -0.0000 -0.0000 -1.0000
vn -1.0000 -0.0000 -0.0000
vn 1.0000 -0.0000 -0.0000
vn -0.0000 -0.0000 1.0000
vn -0.0000 -1.0000 -0.0000
vn 0.9998 0.0195 -0.0000
vn -1.0000 -0.0062 0.0008
vn -0.0000 0.1793 0.9838
vn 1.0000 0.0056 -0.0013
vn -0.0000 -0.0154 -0.9999
vn 1.0000 -0.0062 0.0008
vn -0.0000 0.0062 1.0000
vn -1.0000 0.0056 -0.0014
vn -0.0000 0.0003 -1.0000
vn -1.0000 0.0003 -0.0000
vn 1.0000 0.0003 -0.0000
vn -0.0000 0.0003 1.0000
vn -0.0000 -0.2905 -0.9569
vn 1.0000 0.0055 -0.0014
vn -0.0010 -0.0000 -1.0000
vn -0.0000 -0.4904 0.8715
vn -0.0000 -0.2535 0.9673
vn -0.0000 0.0273 -0.9996
vn -0.0000 -0.0020 -1.0000
vn -0.0000 -0.0271 0.9996
vn -0.0000 -0.1194 0.9928
vn -0.0000 0.1217 -0.9926
vn -0.0000 -0.2480 0.9688
vn -0.0000 -0.3741 0.9274
vn -0.0000 -0.5018 0.8650
vn -0.0000 0.4929 -0.8701
vn -0.0000 0.3744 -0.9273
vn -0.0000 -0.6273 0.7788
vn -0.0000 -0.7400 0.6726
vn -0.0000 -0.8333 0.5528
vn -0.0000 0.8209 -0.5711
vn -0.0000 0.7237 -0.6902
vn -0.0000 -0.9041 0.4272
vn -0.0000 -0.9520 0.3061
vn -0.0000 0.9530 -0.3029
vn -0.0000 0.8980 -0.4400
vn -0.0000 -0.9820 0.1889
vn -0.0000 -0.9979 0.0644
vn -0.0000 -1.0000 -0.0010
vn -0.0000 1.0000 0.0011
vn -0.0000 0.9983 -0.0587
vn -0.0000 0.9843 -0.1764
vn -0.0000 0.6103 -0.7922
vn -0.0000 0.2502 -0.9682
vt 0.332501 0.213019
vt 0.490323 0.213019
vt 0.490323 0.373570
vt 0.332501 0.373570
vt 1.000000 0.882737
vt 0.000000 0.882737
vt 0.000000 0.996169
vt 1.000000 0.996169
vt 1.000000 0.867594
vt 1.000000 0.757548
vt 0.000000 0.757548
vt 0.000000 0.867594
vt 0.439128 0.213019
vt 0.439128 0.373570
vt 0.500000 0.747971
vt 0.000000 0.747971
vt 0.000000 0.692612
vt 0.500000 0.692612
vt 0.500000 0.996169
vt 0.500000 0.882737
vt 0.271477 0.867594
vt 0.271477 0.757548
vt 0.720265 0.947306
vt 0.500000 0.947306
vt 0.702652 0.996169
vt 0.297349 0.867594
vt 0.297349 0.757548
vt 0.500000 0.757548
vt 0.500000 0.867594
vt 1.000000 0.931600
vt 0.728523 0.931600
vt 0.728523 0.996169
vt 0.271477 0.757548
vt 0.271477 0.867594
vt 1.000000 0.947306
vt 0.728523 0.947306
vt 0.728523 0.996169
vt 0.297348 0.867594
vt 0.279734 0.757548
vt 0.332501 0.282179
vt 0.490323 0.282179
vt 1.000000 0.931600
vt 0.000000 0.931600
vt 1.000000 0.947306
vt 0.000000 0.947306
vt 0.728523 0.882737
vt 0.728523 0.882737
vt 0.702652 0.882737
vt 0.500000 0.931600
vt 0.702652 0.931600
vt 0.720265 0.882737
vt 0.702652 0.996169
vt 1.000000 0.747971
vt 1.000000 0.692612
vt 0.916992 0.747971
vt 0.916992 0.692612
vt 0.103516 0.882737
vt 0.103516 0.996169
vt 0.878191 0.692612
vt 0.878191 0.747971
vt 0.206645 -0.345960
vt 0.415121 -0.345960
vt 0.415121 -0.376204
vt 0.251908 -0.376204
vt 0.411168 -0.652049
vt 0.415121 -0.652049
vt 0.415121 -0.706370
vt 0.414728 -0.706370
vt 0.157822 -0.321883
vt 0.415121 -0.321883
vt 0.400547 -0.598658
vt 0.415121 -0.598658
vt 0.106274 -0.304385
vt 0.415121 -0.304385
vt 0.383049 -0.547110
vt 0.415121 -0.547110
vt 0.052884 -0.293765
vt 0.415121 -0.293765
vt 0.358972 -0.498287
vt 0.415121 -0.498287
vt -0.001436 -0.290205
vt 0.415121 -0.290205
vt 0.328729 -0.453024
vt 0.415121 -0.453024
vt -0.001436 -0.287198
vt 0.415121 -0.287198
vt 0.292836 -0.412097
vt 0.415121 -0.412097
vt -0.001436 0.997272
vt 0.415121 0.997272
vt 0.598734 0.882737
vt 0.598734 0.996169
vt 0.205680 0.867594
vt 0.205680 0.757548
vt 0.401266 0.867594
vt 0.401266 0.831897
vt 1.000000 0.831897
vt 0.205680 0.867594
vt 0.205680 0.757548
vt 1.000000 0.831897
vt 0.401266 0.831897
vt 0.401266 0.867594
vt 0.794320 0.882737
vt 0.794320 0.996169
vt 0.083520 0.210885
vt 0.158193 0.210885
vt 0.158193 0.377037
vt 0.083520 0.377037
vt 0.475559 0.996545
vt 0.475559 0.880729
vt -0.261302 0.880729
vt -0.261302 0.996545
vt 0.505059 0.732618
vt 0.505059 0.697371
vt 0.000000 0.697371
vt 0.000000 0.732618
vt 0.546983 0.996545
vt 0.546983 0.880729
vt 0.403693 0.691466
vt 0.459648 0.691466
vt 0.459648 0.750526
vt 0.403693 0.750526
vt 0.547164 0.732618
vt 0.547164 0.697371
vt 0.618407 0.996545
vt 0.618407 0.880729
vt 0.515604 0.691466
vt 0.515604 0.750526
vt 0.689831 0.996545
vt 0.689831 0.880729
vt 0.761254 0.996545
vt 0.761254 0.880729
vt 0.571559 0.691466
vt 0.627514 0.691466
vt 0.627514 0.750526
vt 0.571559 0.750526
vt 0.673478 0.732618
vt 0.673478 0.697371
vt 0.631373 0.697371
vt 0.631373 0.732618
vt 0.832678 0.996545
vt 0.832678 0.880729
vt 0.904102 0.996545
vt 0.904102 0.880729
vt 0.683469 0.691466
vt 0.739425 0.691466
vt 0.739425 0.750526
vt 0.683469 0.750526
vt 0.975527 0.996545
vt 0.975527 0.880729
vt 0.795380 0.691466
vt 0.795380 0.750526
vt 0.797153 0.732618
vt 0.797153 0.697371
vt 0.756635 0.697371
vt 0.756635 0.732618
vt 1.046950 0.996545
vt 1.046950 0.880729
vt 1.118374 0.996545
vt 1.118374 0.880729
vt 0.851335 0.691466
vt 0.907291 0.691466
vt 0.907291 0.750526
vt 0.851335 0.750526
vt 1.189798 0.996545
vt 1.189798 0.880729
vt 0.878002 0.732617
vt 0.878001 0.697371
vt 0.837528 0.697371
vt 0.837528 0.732618
vt 0.963246 0.691466
vt 0.963246 0.750526
vt 1.261222 0.996545
vt 1.261222 0.880729
vt 1.278061 0.996545
vt 1.278061 0.880729
vt 1.019201 0.691466
vt 1.032801 0.691466
vt 1.032801 0.750526
vt 1.019201 0.750526
vt 1.000000 0.732617
vt 1.000000 0.697371
vt 0.957549 0.697371
vt 0.957549 0.732617
vt 0.918309 0.697371
vt 0.918309 0.732617
vt 0.715487 0.697371
vt 0.715488 0.732618
vt 0.589269 0.697371
vt 0.589269 0.732618
vt -0.087537 0.750526
vt -0.087537 0.691465
vt 1.278061 0.880729
vt 0.156396 0.377337
vt 0.087430 0.377337
vt 0.087430 0.217649
vt 0.156396 0.217649
s 0
usemtl MI_WoodTrim
f 1/1/1 3/2/1 4/3/1 2/4/1
f 3/5/2 7/6/2 8/7/2 4/8/2
f 8/9/3 6/10/3 2/11/3 4/12/3
f 3/12/4 1/11/4 5/10/4 7/9/4
f 2/5/5 6/6/5 5/7/5 1/8/5
f 157/2/6 165/13/6 167/14/6 158/3/6
f 15/15/6 14/16/6 12/17/6 18/18/6
f 12/5/3 11/8/3 16/19/3 18/20/3
f 13/16/1 17/15/1 16/18/1 11/17/1
f 13/5/4 14/8/4 15/19/4 17/20/4
f 19/1/1 21/2/1 22/3/1 20/4/1
f 25/2/6 23/1/6 24/4/6 26/3/6
f 21/5/2 25/6/2 26/7/2 22/8/2
f 26/9/3 24/10/3 20/11/3 22/12/3
f 21/12/7 19/11/7 23/10/7 25/9/7
f 20/5/5 24/6/5 23/7/5 19/8/5
f 35/21/8 34/22/8 28/11/8 30/12/8
f 54/23/9 43/24/9 31/19/9 50/25/9
f 51/26/10 50/27/10 31/28/10 32/29/10
f 42/30/11 45/31/11 35/32/11 30/8/11
f 29/12/12 27/11/12 36/33/12 33/34/12
f 41/35/13 46/36/13 36/37/13 27/8/13
f 49/38/14 52/39/14 34/22/14 35/21/14
f 47/40/1 48/41/1 40/3/1 38/4/1
f 48/42/15 42/43/15 30/7/15 40/8/15
f 30/9/16 28/10/16 38/11/16 40/12/16
f 39/12/17 37/11/17 27/10/17 29/9/17
f 47/44/18 41/45/18 27/7/18 37/8/18
f 38/5/18 28/6/18 41/45/18 47/44/18
f 39/5/15 29/6/15 42/43/15 48/42/15
f 37/1/1 39/2/1 48/41/1 47/40/1
f 28/5/13 34/46/13 46/36/13 41/35/13
f 29/5/11 33/47/11 45/31/11 42/30/11
f 51/48/19 32/20/19 44/49/19 53/50/19
f 34/46/9 52/51/9 54/23/9 46/36/9
f 33/47/19 51/48/19 53/50/19 45/31/19
f 45/31/19 53/50/19 49/52/19 35/32/19
f 33/34/20 36/33/20 50/27/20 51/26/20
f 46/36/9 54/23/9 50/25/9 36/37/9
f 61/20/3 59/19/3 58/7/3 57/6/3
f 61/15/1 57/53/1 55/54/1 60/18/1
f 62/20/4 60/19/4 55/7/4 56/6/4
f 58/53/6 59/15/6 62/18/6 56/54/6
f 66/53/6 70/55/6 68/56/6 64/54/6
f 64/6/21 68/57/21 67/58/21 63/7/21
f 63/54/1 67/59/1 69/60/1 65/53/1
f 70/55/6 74/16/6 72/17/6 68/56/6
f 73/16/1 69/60/1 67/59/1 71/17/1
f 72/5/3 71/8/3 67/58/3 68/57/3
f 78/53/6 82/55/6 80/56/6 76/54/6
f 76/6/21 80/57/21 79/58/21 75/7/21
f 75/54/1 79/59/1 81/60/1 77/53/1
f 82/55/6 86/16/6 84/17/6 80/56/6
f 85/16/1 81/60/1 79/59/1 83/17/1
f 84/5/3 83/8/3 79/58/3 80/57/3
f 89/5/3 90/8/3 94/7/3 93/6/3
f 94/53/6 90/16/6 88/17/6 92/54/6
f 89/16/1 93/53/1 91/54/1 87/17/1
f 88/5/4 87/8/4 91/7/4 92/6/4
f 160/91/2 157/6/2 158/7/2 159/92/2
f 163/93/3 162/94/3 9/11/3 156/12/3
f 160/95/4 168/96/4 165/97/4 157/9/4
f 161/98/4 164/99/4 168/96/4 160/95/4
f 158/9/3 167/100/3 166/101/3 159/102/3
f 161/103/2 160/91/2 159/92/2 163/104/2
f 155/5/2 161/103/2 163/104/2 156/8/2
f 155/12/4 10/11/4 164/99/4 161/98/4
f 9/5/5 162/103/5 164/104/5 10/8/5
f 159/102/3 166/101/3 162/94/3 163/93/3
s 98
f 169/105/22 197/106/22 198/107/23 170/108/23
f 172/109/3 171/110/3 169/111/3 170/112/3
f 171/113/24 199/114/24 197/115/25 169/116/25
f 171/110/3 172/109/3 174/117/3 173/118/3
f 200/119/26 202/120/27 174/121/27 172/122/26
f 173/123/28 201/124/28 199/114/24 171/113/24
f 173/118/3 174/117/3 176/125/3 175/126/3
f 202/120/27 204/127/29 176/128/29 174/121/27
f 175/126/3 176/125/3 178/129/3 177/130/3
f 177/130/3 178/129/3 180/131/3 179/132/3
f 206/133/30 208/134/31 180/135/31 178/136/30
f 179/137/32 207/138/32 205/139/33 177/140/33
f 179/132/3 180/131/3 182/141/3 181/142/3
f 181/142/3 182/141/3 184/143/3 183/144/3
f 210/145/34 212/146/35 184/147/35 182/148/34
f 183/144/3 184/143/3 186/149/3 185/150/3
f 212/146/35 214/151/36 186/152/36 184/147/35
f 185/153/37 213/154/37 211/155/38 183/156/38
f 185/150/3 186/149/3 188/157/3 187/158/3
f 187/158/3 188/157/3 190/159/3 189/160/3
f 216/161/39 218/162/40 190/163/40 188/164/39
f 189/160/3 190/159/3 192/165/3 191/166/3
f 189/167/41 217/168/41 215/169/42 187/170/42
f 218/162/40 220/171/43 192/172/43 190/163/40
f 191/166/3 192/165/3 194/173/3 193/174/3
f 193/174/3 194/173/3 196/175/3 195/176/3
f 222/177/44 224/178/45 196/179/45 194/180/44
f 195/181/46 223/182/46 221/183/47 193/184/47
f 220/171/43 222/177/44 194/180/44 192/172/43
f 193/184/47 221/183/47 219/185/48 191/186/48
f 191/186/48 219/185/48 217/168/41 189/167/41
f 214/151/36 216/161/39 188/164/39 186/152/36
f 187/170/42 215/169/42 213/154/37 185/153/37
f 183/156/38 211/155/38 209/187/49 181/188/49
f 208/134/31 210/145/34 182/148/34 180/135/31
f 181/188/49 209/187/49 207/138/32 179/137/32
f 204/127/29 206/133/30 178/136/30 176/128/29
f 177/140/33 205/139/33 203/189/50 175/190/50
f 175/190/50 203/189/50 201/124/28 173/123/28
f 170/191/23 198/192/23 200/119/26 172/122/26
f 200/109/4 198/112/4 197/111/4 199/110/4
f 199/110/4 201/118/4 202/117/4 200/109/4
f 201/118/4 203/126/4 204/125/4 202/117/4
f 203/126/4 205/130/4 206/129/4 204/125/4
f 205/130/4 207/132/4 208/131/4 206/129/4
f 207/132/4 209/142/4 210/141/4 208/131/4
f 209/142/4 211/144/4 212/143/4 210/141/4
f 211/144/4 213/150/4 214/149/4 212/143/4
f 213/150/4 215/158/4 216/157/4 214/149/4
f 215/158/4 217/160/4 218/159/4 216/157/4
f 217/160/4 219/166/4 220/165/4 218/159/4
f 219/166/4 221/174/4 222/173/4 220/165/4
f 221/174/4 223/193/4 224/175/4 222/173/4
f 223/194/5 195/195/5 196/196/5 224/197/5
s 0
usemtl MI_Plaster
f 103/61/3 117/62/3 116/63/3 102/64/3
f 96/65/3 110/66/3 109/67/3 95/68/3
f 104/69/3 118/70/3 117/62/3 103/61/3
f 97/71/3 111/72/3 110/66/3 96/65/3
f 105/73/3 119/74/3 118/70/3 104/69/3
f 98/75/3 112/76/3 111/72/3 97/71/3
f 106/77/3 120/78/3 119/74/3 105/73/3
f 99/79/3 113/80/3 112/76/3 98/75/3
f 107/81/3 121/82/3 120/78/3 106/77/3
f 100/83/3 114/84/3 113/80/3 99/79/3
f 108/85/3 122/86/3 121/82/3 107/81/3
f 101/87/3 115/88/3 114/84/3 100/83/3
f 102/64/3 116/63/3 115/88/3 101/87/3
f 108/85/3 123/89/3 124/90/3 122/86/3
f 133/61/4 132/64/4 146/63/4 147/62/4
f 126/65/4 125/68/4 139/67/4 140/66/4
f 134/69/4 133/61/4 147/62/4 148/70/4
f 127/71/4 126/65/4 140/66/4 141/72/4
f 135/73/4 134/69/4 148/70/4 149/74/4
f 128/75/4 127/71/4 141/72/4 142/76/4
f 136/77/4 135/73/4 149/74/4 150/78/4
f 129/79/4 128/75/4 142/76/4 143/80/4
f 137/81/4 136/77/4 150/78/4 151/82/4
f 130/83/4 129/79/4 143/80/4 144/84/4
f 138/85/4 137/81/4 151/82/4 152/86/4
f 131/87/4 130/83/4 144/84/4 145/88/4
f 132/64/4 131/87/4 145/88/4 146/63/4
f 138/85/4 152/86/4 154/90/4 153/89/4
