# Blender 4.0.2
# www.blender.org
mtllib Overhang_Plaster_Short.mtl
o Overhang_Plaster_Short
v 1.000000 0.883107 0.092446
v 1.000000 0.649580 0.092446
v 1.000000 0.883107 -0.012516
v 1.000000 0.649580 -0.012516
v -1.000000 0.883105 0.092447
v -1.000000 0.649578 0.092447
v -1.000000 0.883105 -0.012515
v -1.000000 0.649578 -0.012515
v 1.000000 3.116765 1.092446
v 1.000000 2.883237 1.092446
v 1.000000 3.116765 0.998629
v 1.000000 2.883237 0.998629
v -1.000000 3.116763 1.092446
v -1.000000 2.883235 1.092446
v -1.000000 3.116763 0.998629
v -1.000000 2.883235 0.998629
v -1.000000 0.000000 -0.200000
v 1.000000 0.000000 -0.200000
v -1.000000 1.899696 -0.200000
v 1.000000 1.899696 -0.200000
v -1.000000 2.056327 -0.189734
v 1.000000 2.056327 -0.189734
v -1.000000 2.210279 -0.159111
v 1.000000 2.210279 -0.159111
v -1.000000 2.358916 -0.108655
v 1.000000 2.358916 -0.108655
v -1.000000 2.499696 -0.039230
v 1.000000 2.499696 -0.039230
v -1.000000 2.630209 0.047976
v 1.000000 2.630209 0.047976
v -1.000000 2.748224 0.151472
v 1.000000 2.748224 0.151472
v -1.000000 2.820442 0.269486
v 1.000000 2.820442 0.269486
v -1.000000 2.862151 0.400000
v 1.000000 2.862151 0.400000
v -1.000000 2.881086 0.540780
v 1.000000 2.881086 0.540780
v -1.000000 2.881086 0.689417
v 1.000000 2.881086 0.689417
v -1.000000 2.895145 0.709681
v 1.000000 2.895145 0.709681
v -1.000000 0.000000 0.000000
v 1.000000 0.000000 0.000000
v -1.000000 0.836088 0.000000
v 1.000000 0.836088 0.000000
v 1.000000 1.000000 0.000000
v -1.000000 1.000000 0.000000
v 1.000000 1.906325 0.000000
v -1.000000 1.906325 0.000000
v 1.000000 2.036852 0.008555
v -1.000000 2.036852 0.008555
v 1.000000 2.165144 0.034074
v -1.000000 2.165144 0.034074
v 1.000000 2.289009 0.076121
v -1.000000 2.289009 0.076121
v 1.000000 2.406325 0.133975
v -1.000000 2.406325 0.133975
v 1.000000 2.515087 0.206647
v -1.000000 2.515087 0.206647
v 1.000000 2.613432 0.292893
v -1.000000 2.613432 0.292893
v 1.000000 2.699679 0.391239
v -1.000000 2.699679 0.391239
v 1.000000 2.772351 0.500000
v -1.000000 2.772351 0.500000
v 1.000000 2.830205 0.617317
v -1.000000 2.830205 0.617317
v 1.000000 2.872251 0.741181
v -1.000000 2.872251 0.741181
v 1.000000 2.881722 0.869474
v -1.000000 2.881722 0.869474
v 1.000000 2.881147 1.000000
v -1.000000 2.881147 1.000000
v 1.000000 2.913550 1.094818
v -1.000000 2.913550 1.094818
v -0.062165 0.413322 -0.007063
v -0.062165 0.822032 0.222927
v -0.062164 1.849939 -0.010601
v -0.062164 1.849939 0.222926
v -0.062164 1.997336 -0.002258
v -0.062164 1.966854 0.229271
v -0.062164 2.142382 0.025253
v -0.062164 2.081941 0.250823
v -0.062164 2.282597 0.071461
v -0.062164 2.193230 0.287212
v -0.062164 2.415581 0.135575
v -0.062164 2.297776 0.337815
v -0.062164 2.538660 0.216499
v -0.062164 2.391136 0.401768
v -0.062164 2.646050 0.312847
v -0.062164 2.472020 0.477976
v -0.062164 2.735808 0.422972
v -0.062164 2.539707 0.565134
v -0.062164 2.807593 0.544989
v -0.062164 2.593880 0.661752
v -0.062164 2.860154 0.676809
v -0.062164 2.634542 0.766018
v -0.062164 2.893213 0.814220
v -0.062164 2.661434 0.871217
v -0.062164 2.909489 0.950841
v -0.062164 2.675708 0.980552
v -0.062164 2.909303 1.122835
v -0.062164 2.675568 1.122835
v 0.061421 0.413322 -0.007063
v 0.061421 0.822032 0.222927
v 0.061420 1.849939 -0.010601
v 0.061420 1.849939 0.222926
v 0.061420 1.997336 -0.002258
v 0.061420 1.966854 0.229271
v 0.061420 2.142382 0.025253
v 0.061420 2.081941 0.250823
v 0.061420 2.282597 0.071461
v 0.061420 2.193230 0.287212
v 0.061420 2.415581 0.135575
v 0.061420 2.297776 0.337815
v 0.061420 2.538660 0.216499
v 0.061420 2.391136 0.401768
v 0.061420 2.646050 0.312847
v 0.061420 2.472020 0.477976
v 0.061420 2.735808 0.422972
v 0.061420 2.539707 0.565134
v 0.061420 2.807593 0.544989
v 0.061420 2.593880 0.661752
v 0.061420 2.860154 0.676809
v 0.061420 2.634542 0.766018
v 0.061420 2.893213 0.814220
v 0.061420 2.661434 0.871217
v 0.061420 2.909489 0.950841
v 0.061420 2.675708 0.980552
v 0.061420 2.909303 1.122835
v 0.061420 2.675568 1.122835
v -1.000000 3.116765 0.685966
v -1.000000 2.883237 0.685966
v -1.000000 3.116765 0.804906
v -1.000000 2.883237 0.804906
v 1.000000 3.116763 0.685965
v 1.000000 2.883235 0.685965
v 1.000000 3.116763 0.804905
v 1.000000 2.883235 0.804905
v -0.851329 2.883237 0.804906
v -0.636919 2.883237 0.804906
v -0.744124 2.891946 0.804906
v 0.504469 2.883236 0.804905
v 0.880926 2.883235 0.804905
v 0.744124 2.877310 0.804905
v -0.851329 3.116764 0.685966
v -0.636919 3.116764 0.685966
v -0.744124 3.108055 0.685966
v 0.504469 3.116763 0.685965
v 0.880926 3.116763 0.685965
v 0.744124 3.122689 0.685965
v 0.880926 3.116763 0.804905
v 0.504469 3.116763 0.804905
v 0.744124 3.122689 0.804905
v -0.636919 3.116764 0.804906
v -0.851329 3.116764 0.804906
v -0.744124 3.108055 0.804906
v 0.880926 2.883235 0.685965
v 0.504469 2.883236 0.685965
v 0.744124 2.877310 0.685965
v -0.636919 2.883237 0.685966
v -0.851329 2.883237 0.685966
v -0.744124 2.891946 0.685966
vn -0.0000 -0.0000 -1.0000
vn -0.0000 -1.0000 -0.0000
vn -0.0000 1.0000 -0.0000
vn -0.0000 -0.0000 1.0000
vn -0.0000 0.0327 -0.9995
vn -0.0000 0.1305 -0.9914
vn -0.0000 0.2588 -0.9659
vn -0.0000 0.3827 -0.9239
vn -0.0000 0.5000 -0.8660
vn -0.0000 0.6088 -0.7934
vn -0.0000 0.7648 -0.6442
vn -0.0000 0.9093 -0.4162
vn -0.0000 0.9756 -0.2197
vn -0.0000 0.9978 -0.0668
vn -0.0000 0.8216 -0.5701
vn -0.0000 -0.0327 0.9995
vn -0.0000 -0.1305 0.9914
vn -0.0000 -0.2588 0.9659
vn -0.0000 -0.3827 0.9239
vn -0.0000 -0.5000 0.8660
vn -0.0000 -0.6088 0.7934
vn -0.0000 -0.7071 0.7071
vn -0.0000 -0.7934 0.6088
vn -0.0000 -0.8660 0.5000
vn -0.0000 -0.9239 0.3827
vn -0.0000 -0.9800 0.1991
vn -0.0000 -0.9994 0.0346
vn -0.0000 -0.9868 0.1617
vn -0.0000 -0.9463 0.3234
vn -0.0000 -0.4904 0.8715
vn -1.0000 -0.0000 -0.0000
vn -0.0000 0.0270 -0.9996
vn -0.0000 -0.0025 -1.0000
vn -0.0000 -0.0271 0.9996
vn -0.0000 -0.1194 0.9928
vn -0.0000 0.1217 -0.9926
vn -0.0000 -0.2480 0.9688
vn -0.0000 -0.3741 0.9274
vn -0.0000 -0.5018 0.8650
vn -0.0000 0.4929 -0.8701
vn -0.0000 0.3744 -0.9273
vn -0.0000 -0.6273 0.7788
vn -0.0000 -0.7400 0.6726
vn -0.0000 -0.8333 0.5528
vn -0.0000 0.8209 -0.5711
vn -0.0000 0.7237 -0.6902
vn -0.0000 -0.9041 0.4272
vn -0.0000 -0.9520 0.3061
vn -0.0000 0.9530 -0.3029
vn -0.0000 0.8980 -0.4400
vn -0.0000 -0.9820 0.1889
vn -0.0000 -0.9979 0.0644
vn -0.0000 -1.0000 -0.0010
vn -0.0000 1.0000 0.0011
vn -0.0000 0.9983 -0.0587
vn -0.0000 0.9843 -0.1764
vn -0.0000 0.6103 -0.7922
vn -0.0000 0.2502 -0.9682
vn 1.0000 -0.0000 -0.0000
vn 0.0216 0.9998 -0.0000
vn 0.0216 -0.9998 -0.0000
vn 0.0405 0.9992 -0.0000
vn 0.0405 -0.9992 -0.0000
vn -0.0124 0.9999 -0.0000
vn -0.0405 0.9992 -0.0000
vn 0.0093 1.0000 -0.0000
vn -0.0405 -0.9992 -0.0000
vn 0.0093 -1.0000 -0.0000
vn -0.0124 -0.9999 -0.0000
vt 1.000000 0.882737
vt 1.000000 0.996169
vt 0.000000 0.996169
vt 0.000000 0.882737
vt 1.000000 0.747971
vt 0.000000 0.747971
vt 0.000000 0.692612
vt 1.000000 0.692612
vt 0.000000 0.707746
vt 0.000000 -0.420329
vt 1.000000 -0.420329
vt 1.000000 0.707746
vt 1.000000 0.800757
vt 0.000000 0.800757
vt 1.000000 0.892177
vt 0.000000 0.892177
vt 1.000000 0.980440
vt 0.000000 0.980440
vt 1.000000 1.064038
vt 0.000000 1.064038
vt 1.000000 1.141539
vt 0.000000 1.141539
vt 1.000000 1.211619
vt 0.000000 1.211619
vt 1.000000 1.273077
vt 0.000000 1.273077
vt 1.000000 1.324861
vt 0.000000 1.324861
vt 1.000000 1.366087
vt 0.000000 1.366087
vt 1.000000 1.396049
vt 0.000000 1.396049
vt 1.000000 1.398442
vt 0.000000 1.398442
vt 1.000000 -0.139892
vt 0.000076 -0.139892
vt 0.000076 -0.499886
vt 1.000000 -0.499886
vt 1.000000 -0.069316
vt 0.000076 -0.069316
vt 1.000000 0.320920
vt 0.000076 0.320920
vt 1.000000 0.377241
vt 0.000076 0.377242
vt 1.000000 0.433563
vt 0.000076 0.433563
vt 1.000000 0.489884
vt 0.000076 0.489884
vt 1.000000 0.546205
vt 0.000076 0.546205
vt 1.000000 0.602526
vt 0.000076 0.602526
vt 1.000000 0.658848
vt 0.000076 0.658848
vt 1.000000 0.715169
vt 0.000076 0.715169
vt 1.000000 0.771490
vt 0.000076 0.771490
vt 1.000000 0.827812
vt 0.000076 0.827812
vt 1.000000 0.884133
vt 0.000076 0.884133
vt 1.000000 0.940454
vt 0.000076 0.940454
vt 1.000000 0.996775
vt 0.000076 0.996775
vt 1.000000 0.999886
vt 0.000076 0.999886
vt 0.083520 0.210885
vt 0.158193 0.210885
vt 0.158193 0.377037
vt 0.083520 0.377037
vt 0.475559 0.996545
vt 0.475559 0.880729
vt -0.261302 0.880729
vt -0.261302 0.996545
vt 0.486046 0.692612
vt 0.546983 0.996545
vt 0.546983 0.880729
vt 0.403693 0.691466
vt 0.459648 0.691466
vt 0.459648 0.750526
vt 0.403693 0.750526
vt 0.618407 0.996545
vt 0.618407 0.880729
vt 0.515604 0.691466
vt 0.515604 0.750526
vt 0.689831 0.996545
vt 0.689831 0.880729
vt 0.761254 0.996545
vt 0.761254 0.880729
vt 0.571559 0.691466
vt 0.627514 0.691466
vt 0.627514 0.750526
vt 0.571559 0.750526
vt 0.832678 0.996545
vt 0.832678 0.880729
vt 0.904102 0.996545
vt 0.904102 0.880729
vt 0.683469 0.691466
vt 0.739425 0.691466
vt 0.739425 0.750526
vt 0.683469 0.750526
vt 0.975527 0.996545
vt 0.975527 0.880729
vt 0.795380 0.691466
vt 0.795380 0.750526
vt 1.046950 0.996545
vt 1.046950 0.880729
vt 1.118374 0.996545
vt 1.118374 0.880729
vt 0.851335 0.691466
vt 0.907291 0.691466
vt 0.907291 0.750526
vt 0.851335 0.750526
vt 1.189798 0.996545
vt 1.189798 0.880729
vt 0.963246 0.691466
vt 0.963246 0.750526
vt 1.261222 0.996545
vt 1.261222 0.880729
vt 1.278061 0.996545
vt 1.278061 0.880729
vt 1.019201 0.691466
vt 1.032801 0.691466
vt 1.032801 0.750526
vt 1.019201 0.750526
vt 0.486046 0.692612
vt -0.087537 0.750526
vt -0.087537 0.691465
vt 1.278061 0.880729
vt 0.156396 0.377337
vt 0.087430 0.377337
vt 0.087430 0.217649
vt 0.156396 0.217649
vt 0.940463 0.747971
vt 0.940463 0.692612
vt 0.247765 0.996169
vt 0.247765 0.882737
vt 0.818460 0.882737
vt 0.818460 0.996169
vt 0.059537 0.882737
vt 0.059537 0.996169
vt 0.940463 0.747971
vt 0.925665 0.996169
vt 0.925665 0.882737
vt 0.074335 0.747971
vt 0.074335 0.692612
vt 0.074335 0.747971
vt 0.074335 0.692612
vt 0.752235 0.747971
vt 0.752235 0.692612
vt 0.181540 0.692612
vt 0.181540 0.747971
vt 0.127938 0.882737
vt 0.127938 0.996169
vt 0.872062 0.996169
vt 0.872062 0.882737
vt 0.872062 0.692612
vt 0.872062 0.747971
vt 0.127938 0.747971
vt 0.127938 0.692612
vt 0.127938 0.747971
vt 0.181540 0.747971
vt 0.752235 0.747971
vt 0.752235 0.692612
s 1
usemtl MI_WoodTrim
f 3/1/1 4/2/1 8/3/1 7/4/1
s 2
f 8/5/2 4/6/2 2/7/2 6/8/2
s 3
f 3/6/3 7/5/3 5/8/3 1/7/3
s 4
f 2/1/4 1/2/4 5/3/4 6/4/4
s 5
f 11/1/1 12/2/1 16/3/1 15/4/1
s 6
f 16/5/2 12/6/2 10/7/2 14/8/2
s 7
f 11/6/3 15/5/3 13/8/3 9/7/3
s 8
f 10/1/4 9/2/4 13/3/4 14/4/4
s 11
f 77/69/30 105/70/30 106/71/30 78/72/30
s 12
f 80/73/31 79/74/31 77/75/31 78/76/31
f 79/77/32 107/77/32 105/8/33 77/8/33
f 79/74/31 80/73/31 82/78/31 81/79/31
f 108/80/34 110/81/35 82/82/35 80/83/34
f 81/77/36 109/77/36 107/77/32 79/77/32
f 81/79/31 82/78/31 84/84/31 83/85/31
f 110/81/35 112/86/37 84/87/37 82/82/35
f 83/85/31 84/84/31 86/88/31 85/89/31
f 85/89/31 86/88/31 88/90/31 87/91/31
f 114/92/38 116/93/39 88/94/39 86/95/38
f 87/77/40 115/77/40 113/77/41 85/77/41
f 87/91/31 88/90/31 90/96/31 89/97/31
f 89/97/31 90/96/31 92/98/31 91/99/31
f 118/100/42 120/101/43 92/102/43 90/103/42
f 91/99/31 92/98/31 94/104/31 93/105/31
f 120/101/43 122/106/44 94/107/44 92/102/43
f 93/77/45 121/77/45 119/77/46 91/77/46
f 93/105/31 94/104/31 96/108/31 95/109/31
f 95/109/31 96/108/31 98/110/31 97/111/31
f 124/112/47 126/113/48 98/114/48 96/115/47
f 97/111/31 98/110/31 100/116/31 99/117/31
f 97/77/49 125/77/49 123/77/50 95/77/50
f 126/113/48 128/118/51 100/119/51 98/114/48
f 99/117/31 100/116/31 102/120/31 101/121/31
f 101/121/31 102/120/31 104/122/31 103/123/31
f 130/124/52 132/125/53 104/126/53 102/127/52
f 103/77/54 131/128/54 129/77/55 101/77/55
f 128/118/51 130/124/52 102/127/52 100/119/51
f 101/77/55 129/77/55 127/77/56 99/77/56
f 99/77/56 127/77/56 125/77/49 97/77/49
f 122/106/44 124/112/47 96/115/47 94/107/44
f 95/77/50 123/77/50 121/77/45 93/77/45
f 91/77/46 119/77/46 117/77/57 89/77/57
f 116/93/39 118/100/42 90/103/42 88/94/39
f 89/77/57 117/77/57 115/77/40 87/77/40
f 112/86/37 114/92/38 86/95/38 84/87/37
f 85/77/41 113/77/41 111/77/58 83/77/58
f 83/77/58 111/77/58 109/77/36 81/77/36
f 78/129/4 106/130/4 108/80/34 80/83/34
f 108/73/59 106/76/59 105/75/59 107/74/59
f 107/74/59 109/79/59 110/78/59 108/73/59
f 109/79/59 111/85/59 112/84/59 110/78/59
f 111/85/59 113/89/59 114/88/59 112/84/59
f 113/89/59 115/91/59 116/90/59 114/88/59
f 115/91/59 117/97/59 118/96/59 116/90/59
f 117/97/59 119/99/59 120/98/59 118/96/59
f 119/99/59 121/105/59 122/104/59 120/98/59
f 121/105/59 123/109/59 124/108/59 122/104/59
f 123/109/59 125/111/59 126/110/59 124/108/59
f 125/111/59 127/117/59 128/116/59 126/110/59
f 127/117/59 129/121/59 130/120/59 128/116/59
f 129/121/59 131/131/59 132/122/59 130/120/59
f 131/132/4 103/133/4 104/134/4 132/135/4
s 13
f 153/136/60 139/5/3 137/8/3 151/137/60
f 150/138/1 160/139/1 162/140/1 148/141/1
f 159/142/1 151/143/1 137/3/1 138/4/1
f 140/5/2 145/144/61 159/137/61 138/8/2
f 134/1/1 133/2/1 147/145/1 163/146/1
f 135/6/3 157/147/62 147/148/62 133/7/3
f 141/149/63 136/6/2 134/7/2 163/150/63
f 154/151/64 150/152/64 148/153/65 156/154/65
f 151/143/1 159/142/1 161/155/1 152/156/1
f 152/156/1 161/155/1 160/139/1 150/138/1
f 163/146/1 147/145/1 149/157/1 164/158/1
f 164/158/1 149/157/1 148/141/1 162/140/1
f 153/136/60 151/137/60 152/159/66 155/160/66
f 155/160/66 152/159/66 150/152/64 154/151/64
f 147/148/62 157/147/62 158/161/3 149/162/3
f 149/162/3 158/161/3 156/154/65 148/153/65
f 141/149/63 163/150/63 164/162/2 143/163/2
f 143/163/2 164/162/2 162/153/67 142/164/67
f 159/137/61 145/144/61 146/160/68 161/159/68
f 161/159/68 146/160/68 144/165/69 160/166/69
f 142/164/67 162/153/67 160/166/69 144/165/69
s 9
usemtl MI_Plaster
f 20/9/5 18/10/1 17/11/1 19/12/5
f 20/9/5 19/12/5 21/13/6 22/14/6
f 22/14/6 21/13/6 23/15/7 24/16/7
f 24/16/7 23/15/7 25/17/8 26/18/8
f 26/18/8 25/17/8 27/19/9 28/20/9
f 28/20/9 27/19/9 29/21/10 30/22/10
f 30/22/10 29/21/10 31/23/11 32/24/11
f 32/24/11 31/23/11 33/25/12 34/26/12
f 34/26/12 33/25/12 35/27/13 36/28/13
f 36/28/13 35/27/13 37/29/14 38/30/14
f 38/30/14 37/29/14 39/31/3 40/32/3
f 40/32/15 39/31/15 41/33/15 42/34/15
s 10
f 46/35/4 45/36/4 43/37/4 44/38/4
f 47/39/4 48/40/4 45/36/4 46/35/4
f 49/41/16 50/42/16 48/40/4 47/39/4
f 50/42/16 49/41/16 51/43/17 52/44/17
f 52/44/17 51/43/17 53/45/18 54/46/18
f 54/46/18 53/45/18 55/47/19 56/48/19
f 56/48/19 55/47/19 57/49/20 58/50/20
f 58/50/20 57/49/20 59/51/21 60/52/21
f 60/52/21 59/51/21 61/53/22 62/54/22
f 62/54/22 61/53/22 63/55/23 64/56/23
f 64/56/23 63/55/23 65/57/24 66/58/24
f 66/58/24 65/57/24 67/59/25 68/60/25
f 68/60/25 67/59/25 69/61/26 70/62/26
f 70/62/26 69/61/26 71/63/27 72/64/27
f 72/64/27 71/63/27 73/65/28 74/66/28
f 74/66/28 73/65/28 75/67/29 76/68/29
