# Blender 4.0.2
# www.blender.org
mtllib Overhang_Roof_UnevenBricks.mtl
o Overhang_Roof_UnevenBricks
v -0.062164 -0.090697 -1.000000
v -0.062164 -0.324432 -1.000000
v 0.061420 -0.090697 -1.000000
v 0.061420 -0.324432 -1.000000
v -0.062164 -0.090697 1.000000
v -0.062164 -0.324432 1.000000
v 0.061420 -0.090697 1.000000
v 0.061420 -0.324432 1.000000
v 1.000000 -0.075467 1.000000
v -1.000000 -0.075468 1.000000
v 1.000000 -0.075467 -1.000000
v -1.000000 -0.075468 -1.000000
v 1.000000 -0.058567 -0.903426
v 1.000000 -0.173276 -0.903426
v 1.000000 -0.058567 -1.021612
v 1.000000 -0.173276 -1.021612
v -1.000000 -0.058568 -0.903426
v -1.000000 -0.173277 -0.903426
v -1.000000 -0.058568 -1.021612
v -1.000000 -0.173277 -1.021612
v 1.000000 -0.058567 0.059093
v 1.000000 -0.173276 0.059093
v 1.000000 -0.058567 -0.059093
v 1.000000 -0.173276 -0.059093
v -1.000000 -0.058568 0.059093
v -1.000000 -0.173277 0.059093
v -1.000000 -0.058568 -0.059093
v -1.000000 -0.173277 -0.059093
vn -0.0000 -0.0000 -1.0000
vn -0.0000 -0.0000 1.0000
vn -0.0000 1.0000 -0.0000
vn -1.0000 -0.0000 -0.0000
vn -0.0000 -1.0000 -0.0000
vn 1.0000 -0.0000 -0.0000
vt 0.156396 0.377337
vt 0.156396 0.217649
vt 0.087430 0.217649
vt 0.087430 0.377337
vt 1.000000 0.691466
vt 1.000000 0.750526
vt 0.000000 0.750526
vt 0.000000 0.691466
vt 1.000000 0.880729
vt 1.000000 0.996545
vt 0.000000 0.996545
vt 0.000000 0.880729
vt 0.000100 0.999900
vt 0.000100 0.000100
vt 0.999900 0.000100
vt 0.999900 0.999900
vt 1.300223 0.691876
vt 1.300223 0.750551
vt 0.000000 0.750551
vt 0.000000 0.691876
vt 0.496712 0.371929
vt 0.330910 0.371929
vt 0.330910 0.211005
vt 0.496712 0.211005
vt 0.496712 0.371928
vt 0.496712 0.211004
vt 0.330910 0.211004
vt 0.330910 0.371928
s 1
usemtl MI_WoodTrim
f 3/1/1 4/2/1 2/3/1 1/4/1
f 7/1/2 5/4/2 6/3/2 8/2/2
f 3/5/3 1/6/3 5/7/3 7/8/3
f 1/9/4 2/10/4 6/11/4 5/12/4
f 2/6/5 4/5/5 8/8/5 6/7/5
f 4/10/6 3/9/6 7/12/6 8/11/6
s 0
f 15/17/1 16/18/1 20/19/1 19/20/1
f 20/18/5 16/19/5 14/20/5 18/17/5
f 15/19/3 19/18/3 17/17/3 13/20/3
f 14/17/2 13/18/2 17/19/2 18/20/2
f 15/21/6 13/22/6 14/23/6 16/24/6
f 19/25/4 20/26/4 18/27/4 17/28/4
f 23/17/1 24/18/1 28/19/1 27/20/1
f 28/18/5 24/19/5 22/20/5 26/17/5
f 23/19/3 27/18/3 25/17/3 21/20/3
f 22/17/2 21/18/2 25/19/2 26/20/2
f 23/21/6 21/22/6 22/23/6 24/24/6
f 27/25/4 28/26/4 26/27/4 25/28/4
usemtl MI_UnevenBrick
f 10/13/5 12/14/5 11/15/5 9/16/5
