# Blender 4.0.2
# www.blender.org
mtllib Overhang_Plaster_Corner_Front.mtl
o Overhang_Plaster_Corner_Front
v -0.055416 0.745778 -1.086021
v -0.055416 0.745778 -0.980677
v -0.839321 -0.023046 -0.980677
v -0.839321 -0.023046 -1.085639
v -1.191914 -0.023046 -0.980677
v -1.191914 -0.023046 -1.085639
v -0.042592 0.521401 -0.989555
v 0.000000 0.705534 -1.086021
v 0.000590 0.544284 -1.085964
v -1.944584 0.745778 -1.086022
v -1.944584 0.745778 -0.955614
v -1.160679 -0.023046 -0.955614
v -1.160679 -0.023046 -1.060575
v -0.808085 -0.023046 -0.955613
v -0.808085 -0.023046 -1.060575
v -2.000000 0.544073 -0.955614
v -2.000000 0.705534 -1.086022
v -2.000000 0.544073 -1.086022
v 0.000000 0.000000 -1.000000
v 0.000000 3.000000 -1.000000
v -2.000000 0.000000 -1.000001
v -2.000000 3.000000 -1.000001
v 0.000000 0.836088 -1.000000
v -2.000000 0.836088 -1.000001
v -2.000000 0.883107 -1.092447
v -2.000000 0.649580 -1.092447
v -2.000000 0.883107 -0.987485
v -2.000000 0.649580 -0.987485
v 0.000001 0.883105 -1.092447
v 0.000000 0.649578 -1.092447
v 0.000001 0.883105 -0.987485
v 0.000000 0.649578 -0.987485
v -0.942645 3.000000 -1.059093
v -1.057354 3.000000 -1.059093
v -0.942645 3.000000 -0.940907
v -1.057354 3.000000 -0.940907
v -0.942645 0.813438 -1.059093
v -1.057354 0.813438 -1.059093
v -0.942645 0.813438 -0.940907
v -1.057354 0.813438 -0.940907
v -0.220878 0.000000 -0.800000
v -0.220878 3.000000 -0.800000
v -2.000000 0.000000 -0.800001
v -2.000000 3.000000 -0.800001
v -0.164046 3.116765 -0.685966
v -0.164046 2.883237 -0.685966
v -0.164046 3.116765 -0.804906
v -0.164046 2.883237 -0.804906
v -2.000000 3.116763 -0.685965
v -2.000000 2.883235 -0.685965
v -2.000000 3.116763 -0.804906
v -2.000000 2.883235 -0.804906
v -2.000000 3.116765 -1.117570
v -2.000000 2.883237 -1.117570
v -2.000000 3.116765 -0.998630
v -2.000000 2.883237 -0.998630
v 0.000001 3.116763 -1.117570
v 0.000000 2.883235 -1.117570
v 0.000001 3.116763 -0.998630
v 0.000000 2.883235 -0.998630
v 1.086021 0.745778 1.944585
v 0.980676 0.745778 1.944585
v 0.980676 -0.023046 1.160680
v 1.085638 -0.023046 1.160680
v 0.980676 -0.023046 0.808086
v 1.085638 -0.023046 0.808086
v 0.980676 0.544073 2.000000
v 1.086021 0.705534 2.000000
v 1.086021 0.544073 2.000000
v 1.086021 0.745778 0.055417
v 0.977348 0.745778 0.055417
v 0.955613 -0.023046 0.839321
v 1.060575 -0.023046 0.839321
v 0.955613 -0.023046 1.191915
v 1.060575 -0.023046 1.191915
v 0.988274 0.515886 0.038709
v 1.086021 0.705534 0.000001
v 1.086021 0.544073 0.000000
v 0.999999 0.000000 2.000000
v 0.999999 3.000000 2.000000
v 1.000000 0.000000 0.000000
v 1.000000 3.000000 0.000000
v 0.999999 0.836088 2.000000
v 1.000000 0.836088 0.000000
v 1.092446 0.883107 0.000001
v 1.092446 0.649580 0.000000
v 0.987484 0.883107 0.000001
v 0.987484 0.649580 0.000001
v 1.092446 0.883105 2.000001
v 1.092446 0.649578 2.000000
v 0.987484 0.883105 2.000001
v 0.987484 0.649578 2.000000
v 1.059093 3.000000 1.057356
v 1.059093 3.000000 0.942646
v 0.940906 3.000000 1.057356
v 0.940907 3.000000 0.942646
v 1.059093 0.813438 1.057355
v 1.059093 0.813438 0.942646
v 0.940906 0.813438 1.057355
v 0.940907 0.813438 0.942646
v 0.799999 0.000000 2.000000
v 0.799999 3.000000 2.000000
v 0.800000 0.000000 0.208435
v 0.800000 3.000000 0.208435
v 0.685965 3.116765 2.000000
v 0.685965 2.883237 2.000001
v 0.804906 3.116765 2.000000
v 0.804906 2.883237 2.000000
v 0.685965 3.116763 0.186141
v 0.685965 2.883235 0.186141
v 0.804905 3.116763 0.186141
v 0.804905 2.883235 0.186141
v 1.117569 3.116765 0.000001
v 1.117569 2.883237 0.000000
v 0.998629 3.116765 0.000001
v 0.998629 2.883237 0.000001
v 1.117569 3.116763 2.000001
v 1.117569 2.883235 2.000001
v 0.998629 3.116763 2.000001
v 0.998629 2.883235 2.000000
v 1.059553 0.733291 -0.023997
v 0.989788 0.733291 0.046664
v 0.549188 0.008587 -0.388347
v 0.618700 0.008587 -0.458752
v 0.351010 0.008587 -0.584011
v 0.420523 0.008587 -0.654416
v 0.032326 0.734625 -1.055154
v -0.054038 0.734625 -0.967680
v 0.351968 0.008587 -0.549866
v 0.421480 0.008587 -0.620271
v 0.550146 0.008587 -0.354202
v 0.619658 0.008587 -0.424607
vn -0.0001 -0.0004 -1.0000
vn -0.5603 0.8283 -0.0000
vn 0.5618 -0.8268 0.0265
vn 0.0107 -0.0216 -0.9997
vn 0.5603 0.8283 -0.0000
vn -0.5599 -0.8286 -0.0000
vn -0.0000 -0.0000 -1.0000
vn -0.0000 -0.0000 1.0000
vn -0.0000 -1.0000 -0.0000
vn -0.0000 1.0000 -0.0000
vn -1.0000 -0.0000 -0.0000
vn 1.0000 -0.0000 -0.0000
vn 1.0000 -0.0003 -0.0002
vn -0.0000 0.8283 -0.5603
vn -0.0000 -0.8286 0.5599
vn 0.9997 -0.0216 0.0107
vn -0.0000 0.8283 0.5603
vn 0.0086 -0.8292 -0.5589
vn 0.7071 -0.0000 -0.7071
vn -0.7071 -0.0000 0.7071
vn -0.7028 -0.0000 0.7114
vn -0.7161 -0.0000 0.6980
vn 0.6997 0.0024 -0.7144
vn -0.4470 0.7781 -0.4413
vn 0.4335 -0.7719 0.4651
vn 0.7151 -0.0336 -0.6982
vn 0.4587 0.7645 0.4529
vn -0.4896 -0.7560 -0.4345
vt 0.590145 0.882737
vt 0.672694 0.996169
vt 0.000000 0.996169
vt 0.000000 0.962307
vt 0.080997 0.882737
vt 0.327306 0.692612
vt 0.327306 0.747971
vt 1.000000 0.747971
vt 1.000000 0.692612
vt 0.919003 0.692612
vt 0.919003 0.747971
vt 0.409856 0.747971
vt 0.409855 0.692612
vt 0.196419 0.882737
vt -0.312728 0.882737
vt -0.393725 0.962307
vt -0.393725 0.996169
vt 0.278969 0.996169
vt -0.066419 0.692612
vt 0.606275 0.692612
vt 0.606275 0.747971
vt -0.066419 0.747971
vt 0.525278 0.692612
vt 0.016130 0.692612
vt 0.016130 0.747971
vt 0.525278 0.747971
vt 1.000000 0.481160
vt 0.000082 0.481160
vt 0.000082 0.132812
vt 1.000000 0.132812
vt 1.000000 1.000000
vt 0.000000 1.000000
vt 0.000000 0.000000
vt 1.000000 0.000000
vt 1.000000 0.882737
vt 1.000000 0.996169
vt 0.000000 0.882737
vt 0.000000 0.747971
vt 0.000000 0.692612
vt 1.300223 0.691876
vt 1.300223 0.750551
vt 0.000000 0.750551
vt 0.000000 0.691876
vt 1.000000 0.999918
vt 1.000000 -0.250000
vt 0.000082 -0.250000
vt 0.000082 0.999918
vt 0.606275 0.738745
s 0
usemtl MI_WoodTrim
f 4/1/1 6/2/1 1/3/1 8/4/1 9/5/1
f 6/6/2 5/7/2 2/8/2 1/9/2
f 9/10/3 7/11/3 3/12/3 4/13/3
f 13/14/4 18/15/4 17/16/4 10/17/4 15/18/4
f 15/19/5 10/20/5 11/21/5 14/22/5
f 18/23/6 13/24/6 12/25/6 16/26/6
f 27/35/8 28/36/8 32/3/8 31/37/8
f 32/8/9 28/38/9 26/39/9 30/9/9
f 27/38/10 31/8/10 29/9/10 25/39/10
f 26/35/7 25/36/7 29/3/7 30/37/7
f 35/40/8 36/41/8 40/42/8 39/43/8
f 40/41/11 36/42/11 34/43/11 38/40/11
f 35/42/12 39/41/12 37/40/12 33/43/12
f 34/40/7 33/41/7 37/42/7 38/43/7
f 52/8/9 48/38/9 46/39/9 50/9/9
f 47/38/10 51/8/10 49/9/10 45/39/10
f 46/35/8 45/36/8 49/3/8 50/37/8
f 55/35/8 56/36/8 60/3/8 59/37/8
f 60/8/9 56/38/9 54/39/9 58/9/9
f 55/38/10 59/8/10 57/9/10 53/39/10
f 54/35/7 53/36/7 57/3/7 58/37/7
f 64/1/13 66/2/13 61/3/13 68/4/13 69/5/13
f 66/6/14 65/7/14 62/8/14 61/9/14
f 69/10/15 67/11/15 63/12/15 64/13/15
f 73/14/16 78/15/16 77/16/16 70/17/16 75/18/16
f 75/19/17 70/20/17 71/48/17 74/22/17
f 78/23/18 73/24/18 72/25/18 76/26/18
f 87/35/11 88/36/11 92/3/11 91/37/11
f 92/8/9 88/38/9 86/39/9 90/9/9
f 87/38/10 91/8/10 89/9/10 85/39/10
f 86/35/12 85/36/12 89/3/12 90/37/12
f 95/40/11 96/41/11 100/42/11 99/43/11
f 100/41/7 96/42/7 94/43/7 98/40/7
f 95/42/8 99/41/8 97/40/8 93/43/8
f 94/40/12 93/41/12 97/42/12 98/43/12
f 112/8/9 108/38/9 106/39/9 110/9/9
f 107/38/10 111/8/10 109/9/10 105/39/10
f 106/35/11 105/36/11 109/3/11 110/37/11
f 115/35/11 116/36/11 120/3/11 119/37/11
f 120/8/9 116/38/9 114/39/9 118/9/9
f 115/38/10 119/8/10 117/9/10 113/39/10
f 114/35/12 113/36/12 117/3/12 118/37/12
f 87/38/10 85/39/10 29/9/10 31/8/10
f 85/36/19 86/35/19 30/37/19 29/3/19
f 86/39/9 88/38/9 32/8/9 30/9/9
f 88/36/20 87/35/20 31/37/20 32/3/20
f 115/38/10 113/39/10 57/9/10 59/8/10
f 113/36/19 114/35/19 58/37/19 57/3/19
f 114/39/9 116/38/9 60/8/9 58/9/9
f 116/36/20 115/35/20 59/37/20 60/3/20
f 112/8/9 110/9/9 46/39/9 48/38/9
f 110/37/22 109/3/22 45/36/22 46/35/22
f 109/9/10 111/8/10 47/38/10 45/39/10
f 124/1/23 126/2/23 121/3/23 77/4/23 78/5/23
f 126/6/24 125/7/24 122/8/24 121/9/24
f 78/10/25 76/11/25 123/12/25 124/13/25
f 130/14/26 9/15/26 8/16/26 127/17/26 132/18/26
f 132/19/27 127/20/27 128/21/27 131/22/27
f 9/23/28 130/24/28 129/25/28 7/26/28
usemtl MI_Plaster
f 24/27/7 23/28/7 19/29/7 21/30/7
f 22/31/7 20/32/7 23/33/7 24/34/7
f 44/44/8 43/45/8 41/46/8 42/47/8
f 84/27/12 83/28/12 79/29/12 81/30/12
f 82/31/12 80/32/12 83/33/12 84/34/12
f 104/44/11 103/45/11 101/46/11 102/47/11
f 82/31/19 84/34/19 23/33/19 20/32/19
f 84/27/19 81/30/19 19/29/19 23/28/19
f 103/45/21 104/44/21 42/47/21 41/46/21
