# Blender 4.0.2
# www.blender.org
mtllib Prop_ExteriorBorder_Corner.mtl
o Prop_ExteriorBorder_Corner
v -0.700000 0.000000 0.700000
v -0.700000 0.000000 0.000000
v -0.680000 0.134018 0.000000
v 0.000000 0.000000 0.700000
v 0.000000 0.000000 -0.000000
v 0.000000 0.134018 -0.000000
v -0.700000 0.119619 0.700000
v -0.680000 0.134018 0.680000
v 0.000000 0.134018 0.680000
v 0.000000 0.119619 0.700000
v -0.700000 0.119619 0.000000
vn -0.0000 1.0000 -0.0000
vn -0.3070 0.9517 -0.0000
vn -0.2372 0.9421 0.2372
vn -0.0000 0.9517 0.3070
vn -0.0000 -0.0000 -1.0000
vn -1.0000 -0.0000 -0.0000
vn -0.0000 -1.0000 -0.0000
vn 1.0000 -0.0000 -0.0000
vn -0.3208 0.8912 0.3208
vn -0.0000 0.8116 0.5843
vn -0.0000 -0.0000 1.0000
vn -0.5843 0.8116 -0.0000
vt 0.510862 0.663646
vt 0.777312 0.663646
vt 0.777312 0.493947
vt 0.510862 0.493947
vt 0.235377 0.493790
vt 0.235377 0.422952
vt 0.235377 0.414425
vt 0.504752 0.414425
vt 0.504752 0.493790
vt 0.508176 0.418295
vt 0.508176 0.488691
vt 0.781769 0.486975
vt 0.781769 0.418296
vt 0.504752 0.663084
vt 0.235377 0.663084
vt 0.506199 0.418296
vt 0.506199 0.485592
vt 0.239309 0.485592
vt 0.234660 0.480078
vt 0.234660 0.418295
vt 0.502326 0.493947
vt 0.236453 0.493947
vt 0.236453 0.488932
vt 0.502326 0.488932
vt 0.502326 0.415099
vt 0.236453 0.415099
vt 0.508176 0.494205
vt 0.781769 0.494205
s 1
usemtl MI_RockTrim
f 6/1/1 3/2/2 8/3/3 9/4/4
f 2/5/5 11/6/5 3/7/5 6/8/5 5/9/5
f 1/10/6 7/11/6 11/12/6 2/13/6
f 2/5/7 5/9/7 4/14/7 1/15/7
f 5/16/8 6/17/8 9/18/8 10/19/8 4/20/8
f 9/21/4 8/22/3 7/23/9 10/24/10
f 4/25/11 10/24/11 7/23/11 1/26/11
f 11/12/12 7/11/9 8/27/3 3/28/2
