# Blender 4.0.2
# www.blender.org
mtllib Prop_Chimney2.mtl
o Prop_Chimney2
v -0.395491 0.133509 0.494009
v -0.500000 0.000000 0.401483
v -0.469390 0.039104 0.469390
v -0.500000 0.000000 -0.401483
v -0.395491 0.133509 -0.494009
v -0.469390 0.039104 -0.469390
v 0.352603 1.089192 -0.451120
v 0.445778 1.208222 -0.347261
v 0.418488 1.173359 -0.418488
v 0.445778 1.208222 0.347261
v 0.352603 1.089192 0.451120
v 0.418488 1.173359 0.418488
v -0.142417 3.000000 0.241224
v -0.241224 3.000000 0.142417
v -0.212284 3.000000 0.212284
v -0.241224 3.000000 -0.142417
v -0.142417 3.000000 -0.241224
v -0.212284 3.000000 -0.212284
v 0.241224 3.000000 0.142417
v 0.142417 3.000000 0.241224
v 0.212284 3.000000 0.212284
v 0.142417 3.000000 -0.241224
v 0.241224 3.000000 -0.142417
v 0.212284 3.000000 -0.212284
v -0.210521 2.065573 0.112009
v -0.112009 2.065573 0.210521
v -0.181668 2.065573 0.181668
v -0.112009 2.065573 -0.210521
v -0.210521 2.065573 -0.112009
v -0.181668 2.065573 -0.181668
v 0.112009 2.065573 0.210521
v 0.210521 2.065573 0.112009
v 0.181667 2.065573 0.181668
v 0.210521 2.065573 -0.112009
v 0.112009 2.065573 -0.210521
v 0.181668 2.065573 -0.181668
v -0.271273 2.895176 0.370073
v -0.180548 3.000000 0.279356
v -0.242747 2.969298 0.341554
v -0.279356 3.000000 0.180548
v -0.370073 2.895176 0.271272
v -0.341554 2.969298 0.242747
v -0.250634 3.000000 0.250634
v -0.341135 2.895177 0.341135
v -0.312678 2.969298 0.312678
v -0.370073 2.895176 -0.271272
v -0.279356 3.000000 -0.180548
v -0.341554 2.969298 -0.242747
v -0.180548 3.000000 -0.279356
v -0.271273 2.895176 -0.370073
v -0.242747 2.969298 -0.341554
v -0.341135 2.895177 -0.341135
v -0.250634 3.000000 -0.250634
v -0.312678 2.969298 -0.312678
v 0.370073 2.895176 0.271279
v 0.279356 3.000000 0.180548
v 0.341554 2.969298 0.242749
v 0.180548 3.000000 0.279356
v 0.271278 2.895176 0.370073
v 0.242749 2.969298 0.341554
v 0.341137 2.895177 0.341137
v 0.250634 3.000000 0.250634
v 0.312678 2.969298 0.312678
v 0.271278 2.895176 -0.370073
v 0.180548 3.000000 -0.279356
v 0.242749 2.969298 -0.341554
v 0.279356 3.000000 -0.180548
v 0.370073 2.895176 -0.271279
v 0.341554 2.969298 -0.242749
v 0.341137 2.895177 -0.341137
v 0.250634 3.000000 -0.250634
v 0.312678 2.969298 -0.312678
vn -0.0000 1.0000 -0.0000
vn -0.2312 0.9726 0.0264
vn -0.1469 0.9782 0.1469
vn 0.0904 0.0487 -0.9947
vn -0.3095 0.0565 -0.9492
vn -0.2009 0.2348 -0.9511
vn 0.2009 0.2348 -0.9511
vn 0.9794 0.0386 0.1980
vn 0.9794 0.0386 -0.1980
vn 0.9807 0.0385 -0.1918
vn 0.9807 0.0385 0.1918
vn -0.9851 0.0516 0.1640
vn -0.9511 0.2348 0.2009
vn -0.9511 0.2348 -0.2009
vn -0.9851 0.0516 -0.1640
vn 0.2312 0.9726 0.0264
vn 0.1469 0.9782 0.1469
vn 0.6820 0.2639 0.6820
vn 0.5923 0.0627 0.8033
vn 0.9736 0.0537 0.2220
vn 0.9511 0.2348 0.2009
vn -0.3095 0.0565 0.9492
vn 0.0904 0.0487 0.9947
vn 0.2009 0.2348 0.9511
vn -0.2009 0.2348 0.9511
vn 0.0264 0.9726 0.2312
vn 0.1980 0.0386 -0.9794
vn -0.1980 0.0386 -0.9794
vn -0.1918 0.0385 -0.9807
vn 0.1918 0.0385 -0.9807
vn -0.1980 0.0386 0.9794
vn 0.1980 0.0386 0.9794
vn 0.1918 0.0385 0.9807
vn -0.1918 0.0385 0.9807
vn -0.9794 0.0386 -0.1980
vn -0.9794 0.0386 0.1980
vn -0.9807 0.0385 0.1918
vn -0.9807 0.0385 -0.1918
vn -0.0264 0.9726 0.2312
vn -0.2312 0.9726 -0.0264
vn 0.0264 0.9726 -0.2312
vn -0.0264 0.9726 -0.2312
vn -0.1469 0.9782 -0.1469
vn 0.2312 0.9726 -0.0264
vn 0.1469 0.9782 -0.1469
vn 0.9736 0.0537 -0.2220
vn 0.9511 0.2348 -0.2009
vn -0.8358 0.0620 0.5455
vn -0.6820 0.2639 0.6820
vn 0.5923 0.0627 -0.8033
vn 0.6820 0.2639 -0.6820
vn -0.6820 0.2639 -0.6820
vn -0.8358 0.0620 -0.5455
vn -0.7063 0.0463 -0.7063
vn -0.7063 0.0463 0.7063
vn 0.7063 0.0463 0.7063
vn 0.7063 0.0463 -0.7063
vn -0.4907 0.7200 0.4907
vn -0.1318 0.6954 0.7064
vn -0.7064 0.6954 0.1318
vn -0.1318 0.6954 -0.7064
vn -0.4907 0.7200 -0.4907
vn -0.7064 0.6954 -0.1318
vn 0.7064 0.6954 -0.1318
vn 0.4907 0.7200 -0.4907
vn 0.1318 0.6954 -0.7064
vn 0.1318 0.6954 0.7064
vn 0.4907 0.7200 0.4907
vn 0.7064 0.6954 0.1318
vt -0.269298 0.171247
vt -0.225680 0.177070
vt -0.223699 0.227044
vt -0.261753 0.227044
vt 0.590175 0.877530
vt 0.909130 1.204675
vt -0.115289 1.018992
vt -0.087936 0.816710
vt 0.508190 0.300772
vt 0.513048 0.448688
vt 0.027011 0.448842
vt 0.023191 0.332507
vt 0.999137 0.089111
vt -0.087937 0.186672
vt -0.115289 -0.015607
vt 0.958655 -0.210262
vt -0.208868 0.552071
vt -0.251962 0.557941
vt -0.249440 0.501692
vt -0.211386 0.501692
vt -0.086559 0.501692
vt 0.565472 0.501692
vt 0.563812 0.538720
vt -0.072149 0.538824
vt 0.955635 0.167373
vt 0.608685 0.464665
vt -0.072149 0.464560
vt -0.081291 0.260642
vt -0.251962 0.445443
vt -0.208868 0.451313
vt 0.514733 0.051186
vt 0.529725 0.014992
vt 0.565919 0.000000
vt 0.682316 -0.000000
vt 0.718510 0.014992
vt 0.733502 0.051186
vt 0.733502 0.167583
vt 0.718510 0.203777
vt 0.682316 0.218769
vt 0.565919 0.218769
vt 0.529725 0.203777
vt 0.514733 0.167583
vt 0.513048 0.551311
vt 0.508190 0.699228
vt 0.023191 0.667493
vt 0.027011 0.551158
vt 0.486905 0.051090
vt 0.501457 0.198370
vt 0.016478 0.230412
vt 0.005033 0.114578
vt 0.501457 0.801630
vt 0.486906 0.948910
vt 0.005033 0.885422
vt 0.016478 0.769589
vt -0.216664 0.277423
vt -0.259231 0.283293
vt -0.249005 0.004575
vt -0.291048 0.010398
vt -0.225680 0.826315
vt -0.249005 0.998810
vt -0.291048 0.992987
vt -0.269298 0.832138
vt -0.265560 1.048784
vt -0.298593 1.048784
vt -0.259231 0.720091
vt -0.216664 0.725961
vt -0.223699 0.776340
vt -0.261753 0.776340
vt -0.223699 0.776340
vt 0.552109 0.799757
vt -0.081291 0.742745
vt -0.072149 0.538824
vt 0.988453 0.127248
vt -0.098668 0.223511
vt -0.087937 0.186672
vt -0.216664 0.277423
vt -0.208868 0.451313
vt -0.216664 0.725961
vt -0.072149 0.464560
vt -0.086559 0.501692
vt -0.081291 0.742745
vt 0.550449 0.836784
vt -0.099027 0.779809
vt -0.099028 0.779809
vt -0.087936 0.816710
vt -0.120304 -0.052437
vt 0.938226 -0.244192
vt -0.115289 -0.015607
vt -0.115289 1.018992
vt 0.938226 1.247576
vt -0.120305 1.055822
vt 0.505520 0.750475
vt 0.021511 0.718651
vt 0.000000 0.063641
vt 0.480879 0.000129
vt 0.480879 0.999871
vt 0.000000 0.936359
vt 0.505520 0.249525
vt 0.021511 0.281349
vt 0.028691 0.500000
vt 0.513746 0.500000
vt -0.298593 -0.045400
vt -0.265560 -0.045400
vt -0.136087 0.227070
vt -0.120448 0.268657
vt -0.098668 0.223511
vt -0.081291 0.260642
vt -0.127896 0.185766
vt -0.154173 1.011944
vt -0.185289 1.042523
vt -0.158307 1.042523
vt -0.185289 -0.039138
vt -0.154173 -0.008560
vt -0.154173 -0.008560
vt -0.158307 -0.039138
vt -0.120448 0.734728
vt -0.136087 0.776315
vt -0.127896 0.817619
vt -0.111866 0.460080
vt -0.123775 0.501692
vt -0.111866 0.543305
vt -0.152972 0.000318
vt -0.152972 1.003067
s 1
usemtl MI_UnevenBrick
f 14/1/1 40/2/2 43/3/3 15/4/1
f 7/5/4 5/6/5 50/7/6 64/8/7
s 2
f 16/9/8 14/10/9 25/11/10 29/12/11
s 1
f 2/13/12 41/14/13 46/15/14 4/16/15
f 56/17/16 19/18/1 21/19/1 62/20/17
f 61/21/18 12/22/19 10/23/20 55/24/21
f 1/25/22 11/26/23 59/27/24 37/28/25
f 62/20/17 21/19/1 20/29/1 58/30/26
s 2
f 25/31/1 27/32/1 26/33/1 31/34/1 33/35/1 32/36/1 34/37/1 36/38/1 35/39/1 28/40/1 30/41/1 29/42/1
f 13/43/27 20/44/28 31/45/29 26/46/30
f 22/47/31 17/48/32 28/49/33 35/50/34
f 19/51/35 23/52/36 34/53/37 32/54/38
s 1
f 15/4/1 43/3/3 38/55/39 13/56/1
f 47/57/40 40/2/2 14/1/1 16/58/1
f 65/59/41 49/60/42 17/61/1 22/62/1
f 53/63/43 18/64/1 17/61/1 49/60/42
f 23/65/1 67/66/44 71/67/45 24/68/1
f 24/68/1 71/69/45 65/59/41 22/62/1
f 10/23/20 8/70/46 68/71/47 55/72/21
f 3/73/48 44/74/49 41/75/13 2/13/12
f 38/76/39 58/77/26 20/29/1 13/56/1
f 56/17/16 67/78/44 23/65/1 19/18/1
f 59/79/24 11/26/23 12/22/19 61/80/18
f 68/81/47 8/70/46 9/82/50 70/83/51
f 70/84/51 9/82/50 7/5/4 64/85/7
f 52/86/52 6/87/53 4/16/15 46/88/14
f 50/89/6 5/6/5 6/90/53 52/91/52
s 2
f 31/45/29 20/44/28 21/92/54 33/93/54
f 33/93/54 21/92/54 19/51/35 32/54/38
f 22/47/31 35/50/34 36/94/55 24/95/55
f 24/96/55 36/97/55 34/53/37 23/52/36
f 28/49/33 17/48/32 18/98/56 30/99/56
f 30/99/56 18/98/56 16/9/8 29/12/11
f 13/43/27 26/46/30 27/100/57 15/101/57
f 15/101/57 27/100/57 25/11/10 14/10/9
s 1
f 47/57/40 16/58/1 18/102/1 53/103/43
f 38/55/39 43/3/3 45/104/58 39/105/59
f 39/105/59 45/104/58 44/106/49 37/107/25
f 43/3/3 40/2/2 42/108/60 45/104/58
f 45/104/58 42/108/60 41/75/13 44/74/49
f 53/63/43 49/60/42 51/109/61 54/110/62
f 54/111/62 51/109/61 50/89/6 52/91/52
f 47/57/40 53/103/43 54/112/62 48/113/63
f 48/114/63 54/115/62 52/86/52 46/88/14
f 71/67/45 67/66/44 69/116/64 72/117/65
f 72/117/65 69/116/64 68/81/47 70/83/51
f 65/59/41 71/69/45 72/117/65 66/118/66
f 66/118/66 72/117/65 70/84/51 64/85/7
f 62/20/17 58/30/26 60/119/67 63/120/68
f 63/120/68 60/119/67 59/79/24 61/80/18
f 56/17/16 62/20/17 63/120/68 57/121/69
f 57/121/69 63/120/68 61/21/18 55/24/21
f 40/2/2 47/57/40 48/122/63 42/108/60
f 42/108/60 48/122/63 46/15/14 41/14/13
f 58/77/26 38/76/39 39/105/59 60/119/67
f 60/119/67 39/105/59 37/28/25 59/27/24
f 49/60/42 65/59/41 66/118/66 51/123/61
f 51/123/61 66/118/66 64/8/7 50/7/6
f 55/72/21 68/71/47 69/116/64 57/121/69
f 57/121/69 69/116/64 67/78/44 56/17/16
f 1/25/22 37/107/25 44/106/49 3/73/48
