# Blender 4.0.2
# www.blender.org
mtllib Prop_Vine9.mtl
o Prop_Vine9
v -1.729681 -0.232156 0.251277
v -0.769995 -0.238140 0.342792
v -1.662484 0.468408 -0.407588
v -0.702798 0.462424 -0.316074
v -2.035077 -0.332510 0.346795
v -1.276928 -0.381706 0.533996
v -1.875072 0.252624 -0.147441
v -1.116923 0.203429 0.039759
v -0.192064 -0.037927 0.099758
v -0.955274 -0.086988 0.265158
v -0.337830 0.546721 -0.399434
v -1.101040 0.497660 -0.234034
v -1.128565 -0.593031 0.640746
v -0.349985 -0.531951 0.592409
v -1.206419 0.001938 0.138545
v -0.427839 0.063018 0.090208
v -0.641903 -0.633371 0.718251
v 0.242339 -0.394561 0.417428
v -1.021827 0.021351 0.121254
v -0.137585 0.260160 -0.179570
v -0.078952 -0.077277 0.165010
v 0.001654 -0.055407 0.116682
v -0.101273 -0.266466 0.382658
v 0.222028 -0.178770 0.188796
v -0.068989 -0.189582 0.287308
v 0.141894 -0.132374 0.160861
v 0.243457 -0.335872 0.357695
v 0.135318 -0.365208 0.422535
v 0.128766 -0.232156 0.251277
v 1.088452 -0.238140 0.342792
v 0.195963 0.468408 -0.407588
v 1.155649 0.462424 -0.316074
v 0.038118 -0.423530 0.536143
v 0.777051 -0.273222 0.327242
v -0.212156 0.144141 0.059313
v 0.526777 0.294449 -0.149588
v 0.729882 -0.593031 0.640746
v 1.508462 -0.531951 0.592409
v 0.652028 0.001938 0.138545
v 1.430609 0.063018 0.090208
v 1.216544 -0.633371 0.718251
v 2.100786 -0.394561 0.417428
v 0.836621 0.021351 0.121254
v 1.720862 0.260160 -0.179570
v 1.779495 -0.077277 0.165010
v 1.860101 -0.055407 0.116682
v 1.757174 -0.266466 0.382658
v 2.080475 -0.178770 0.188796
v 1.789458 -0.189582 0.287308
v 2.000341 -0.132374 0.160861
v 2.101904 -0.335872 0.357695
v 1.993765 -0.365208 0.422535
v -0.192952 -0.117272 0.186091
v 0.702288 0.081578 -0.111250
v -0.541071 0.551341 -0.414891
v 0.354169 0.750190 -0.712233
v -0.699992 0.778028 -0.721328
v -0.595314 0.833814 -0.752210
v -0.733256 0.488037 -0.498209
v -0.313394 0.711763 -0.622109
v -0.689738 0.612511 -0.590406
v -0.415873 0.758449 -0.671216
v -0.289380 0.482350 -0.439403
v -0.429814 0.407514 -0.397965
v 0.542904 -0.059464 0.227818
v 0.652867 -0.020196 0.190544
v 0.479355 -0.335367 0.461959
v 0.920409 -0.177894 0.312420
v 0.535710 -0.221048 0.363760
v 0.823401 -0.118325 0.266227
v 0.920189 -0.403232 0.501659
v 0.772665 -0.455908 0.551672
vn 0.0786 0.9923 -0.0952
vn 0.0547 0.9937 -0.0977
vn 0.0541 0.9951 -0.0828
vn 0.0784 0.9937 -0.0804
vn 0.0859 0.9915 -0.0973
vn 0.0670 0.9925 -0.1019
vn 0.0641 0.9938 -0.0911
vn 0.0833 0.9928 -0.0864
vn 0.0244 0.9928 -0.1169
vn 0.0285 0.9939 -0.1062
vn 0.0475 0.9928 -0.1101
vn 0.0431 0.9918 -0.1207
vn 0.0631 0.9926 -0.1040
vn 0.0439 0.9937 -0.1031
vn 0.0466 0.9947 -0.0921
vn 0.0661 0.9935 -0.0931
vn 0.0510 0.9931 -0.1059
vn 0.0294 0.9946 -0.0992
vn 0.0395 0.9955 -0.0859
vn 0.0615 0.9938 -0.0928
vn 0.0321 0.9951 -0.0935
vn 0.0357 0.9951 -0.0926
vn 0.0377 0.9949 -0.0937
vn 0.0373 0.9946 -0.0965
vn 0.0295 0.9948 -0.0979
vn 0.0301 0.9951 -0.0941
vn 0.0380 0.9944 -0.0986
vn 0.0321 0.9945 -0.0994
vn -0.2209 0.9726 -0.0726
vn -0.2392 0.9686 -0.0674
vn -0.2367 0.9699 -0.0565
vn -0.2181 0.9740 -0.0618
vn -0.1755 0.9815 -0.0764
vn -0.1981 0.9777 -0.0691
vn -0.1931 0.9796 -0.0551
vn -0.1701 0.9834 -0.0626
vn -0.1554 0.9856 0.0662
vn -0.1522 0.9860 0.0679
vn -0.1499 0.9864 0.0672
vn -0.1497 0.9866 0.0644
vn -0.1570 0.9857 0.0613
vn -0.1572 0.9854 0.0651
vn -0.1486 0.9869 0.0625
vn -0.1542 0.9862 0.0604
vn -0.0100 0.9992 0.0391
vn -0.0067 0.9992 0.0406
vn -0.0045 0.9992 0.0399
vn -0.0044 0.9993 0.0370
vn -0.0119 0.9993 0.0343
vn -0.0119 0.9992 0.0381
vn -0.0033 0.9994 0.0351
vn -0.0090 0.9994 0.0332
vt 0.000000 0.000000
vt 1.000000 0.000000
vt 1.000000 1.000000
vt 0.000000 1.000000
vt 0.504865 0.789166
vt 0.616269 1.000000
vt 0.754937 1.000000
vt 0.867599 0.789166
vt 0.590873 0.365571
vt 0.443945 0.664267
vt 1.000000 0.664267
vt 0.776881 0.365571
s 1
usemtl MI_Vine
f 1/1/1 2/2/2 4/3/3 3/4/4
s 2
f 5/1/5 6/2/6 8/3/7 7/4/8
s 3
f 9/1/9 11/4/10 12/3/11 10/2/12
s 4
f 13/1/13 14/2/14 16/3/15 15/4/16
s 5
f 17/1/17 18/2/18 20/3/19 19/4/20
s 6
f 26/5/21 22/6/22 21/7/23 25/8/24
f 27/9/25 24/10/26 23/11/27 28/12/28
f 24/10/26 26/5/21 25/8/24 23/11/27
s 7
f 29/1/1 30/2/2 32/3/3 31/4/4
s 8
f 33/1/29 34/2/30 36/3/31 35/4/32
s 9
f 37/1/13 38/2/14 40/3/15 39/4/16
s 10
f 41/1/17 42/2/18 44/3/19 43/4/20
s 11
f 50/5/21 46/6/22 45/7/23 49/8/24
f 51/9/25 48/10/26 47/11/27 52/12/28
f 48/10/26 50/5/21 49/8/24 47/11/27
s 12
f 53/1/33 54/2/34 56/3/35 55/4/36
s 13
f 62/5/37 58/6/38 57/7/39 61/8/40
f 63/9/41 60/10/42 59/11/43 64/12/44
f 60/10/42 62/5/37 61/8/40 59/11/43
s 14
f 70/5/45 66/6/46 65/7/47 69/8/48
f 71/9/49 68/10/50 67/11/51 72/12/52
f 68/10/50 70/5/45 69/8/48 67/11/51
