# Blender 4.0.2
# www.blender.org
mtllib Roof_Front_Brick6_Half_L.mtl
o Roof_Front_Brick6_Half_L
v 0.000000 0.019167 -0.000000
v 0.000000 4.377230 -0.000000
v -0.880000 3.099452 0.000000
v -3.122550 0.019167 -0.000000
v -0.000000 0.019167 -0.249700
v -0.000000 4.377230 -0.249700
v -0.880000 0.019167 -0.249700
v -0.880000 0.019167 0.000000
v -3.122550 0.331691 -0.000000
v -0.880000 3.099452 -0.249700
v -3.122550 0.019167 -0.249699
v -3.122550 0.331691 -0.249699
v -3.363842 -0.131802 -0.108670
v -3.363842 -0.131802 0.117623
v -3.193275 0.131802 -0.108670
v -3.193275 0.131802 0.117623
v -1.010297 2.640000 -0.169114
v -1.241487 2.640000 -0.169115
v -1.010297 2.640000 0.094489
v -1.241487 2.640000 0.094489
v -1.010298 -0.000000 -0.169115
v -1.241489 -0.000000 -0.169115
v -1.010298 -0.000000 0.094489
v -1.241489 -0.000000 0.094489
v -1.244947 0.623672 -0.022448
v -1.364611 0.623672 -0.022448
v -1.244947 0.623672 0.081555
v -1.364611 0.623672 0.081555
v -1.244947 -0.000000 -0.022448
v -1.364611 0.000000 -0.022448
v -1.244947 -0.000000 0.081555
v -1.364611 0.000000 0.081555
v -1.253426 0.753045 -0.022448
v -1.372067 0.737425 -0.022448
v -1.253426 0.753045 0.081555
v -1.372067 0.737425 0.081555
v -1.278720 0.880203 -0.022448
v -1.394306 0.849232 -0.022448
v -1.278720 0.880203 0.081555
v -1.394306 0.849232 0.081555
v -1.320394 1.002973 -0.022448
v -1.430950 0.957179 -0.022448
v -1.320394 1.002973 0.081555
v -1.430950 0.957179 0.081555
v -1.377737 1.119252 -0.022448
v -1.481369 1.059420 -0.022448
v -1.377737 1.119252 0.081555
v -1.481369 1.059420 0.081555
v -1.449767 1.227052 -0.022448
v -1.544703 1.154205 -0.022449
v -1.449767 1.227052 0.081555
v -1.544703 1.154205 0.081555
v -1.535251 1.324528 -0.022449
v -1.619866 1.239912 -0.022449
v -1.535251 1.324528 0.081555
v -1.619866 1.239912 0.081555
v -1.632727 1.410012 -0.022449
v -1.705574 1.315076 -0.022449
v -1.632727 1.410012 0.081555
v -1.705574 1.315076 0.081555
v -1.740527 1.482041 -0.022449
v -1.800358 1.378409 -0.022449
v -1.740527 1.482041 0.081555
v -1.800358 1.378409 0.081555
v -1.856806 1.539384 -0.022237
v -1.902599 1.428828 -0.022449
v -1.856806 1.539384 0.081555
v -1.902599 1.428828 0.081555
v -2.022002 1.469842 -0.022449
v -1.968120 1.576689 0.081555
v -2.022002 1.469842 0.081555
v -1.968120 1.576689 -0.022025
v -1.237385 2.612406 0.058320
v -1.237385 2.612406 -0.205284
v -1.079201 2.843596 0.058320
v -1.079202 2.843596 -0.205284
v -1.074351 2.151636 -0.021146
v -1.074351 2.252580 -0.021146
v -1.074351 2.151636 0.082858
v -1.074351 2.252580 0.082858
v -0.050472 4.383982 -0.055221
v 0.050472 4.383982 -0.055221
v -0.050472 4.383982 0.048783
v 0.050472 4.383982 0.048783
v -0.050472 2.711982 -0.055221
v 0.050472 2.711982 -0.055221
v -0.050472 2.711982 0.048783
v 0.050472 2.711982 0.048783
v -3.193275 0.131802 -0.108671
v -3.193275 0.131802 -0.334964
v -3.363842 -0.131802 -0.108671
v -3.363842 -0.131802 -0.334964
v -0.009557 2.612405 0.058320
v -0.008079 2.843596 0.058320
v -0.009557 2.612405 -0.205284
v -0.008079 2.843596 -0.205284
v -0.000680 0.131802 0.117623
v -0.000680 -0.131802 -0.108670
v -0.000679 0.131802 -0.108670
v -0.000679 -0.131802 0.117623
v -0.000680 -0.131802 -0.334964
v -0.000680 0.131802 -0.108670
v -0.000679 -0.131802 -0.108670
v -0.000679 0.131802 -0.334964
v 0.021705 2.252580 0.082857
v 0.021705 2.151636 -0.021147
v 0.021705 2.151636 0.082857
v 0.021705 2.252580 -0.021147
v -0.392456 3.326602 0.154590
v -0.324666 3.421056 0.154590
v -0.267586 3.236982 0.154590
v -0.199796 3.331436 0.154590
v -0.898385 2.621679 0.154591
v -0.830595 2.716133 0.154591
v -0.773514 2.532059 0.154590
v -0.705724 2.626513 0.154590
v -1.404313 1.916756 0.154591
v -1.336523 2.011210 0.154591
v -1.279443 1.827136 0.154591
v -1.211653 1.921589 0.154591
v -1.922382 1.223966 0.154591
v -1.849605 1.314633 0.154591
v -1.802518 1.127753 0.154591
v -1.729741 1.218419 0.154591
v -2.479863 0.568297 0.154591
v -2.400155 0.652935 0.154591
v -2.367970 0.462920 0.154591
v -2.288261 0.547557 0.154591
v -0.830595 2.716133 -0.153780
v -2.288262 0.547558 -0.153780
v -1.922382 1.223966 -0.153780
v -0.267586 3.236982 -0.153780
v -1.279443 1.827136 -0.153779
v -0.705725 2.626513 -0.153780
v -0.324667 3.421056 -0.153780
v -1.336524 2.011210 -0.153779
v -2.400155 0.652935 -0.153779
v -0.898385 2.621680 -0.153780
v -0.392456 3.326602 -0.153780
v -1.802519 1.127753 -0.153779
v -1.211653 1.921589 -0.153780
v -2.479864 0.568297 -0.153780
v -1.849605 1.314633 -0.153779
v -1.404313 1.916756 -0.153780
v -0.773515 2.532059 -0.153780
v -2.367970 0.462920 -0.153779
v -1.729741 1.218419 -0.153780
v -0.199796 3.331436 -0.153780
vn -0.0000 -0.0000 1.0000
vn -0.0000 -0.0000 -1.0000
vn -0.8396 0.5433 -0.0000
vn -0.0000 1.0000 -0.0000
vn -0.0000 -1.0000 -0.0000
vn -1.0000 -0.0000 -0.0000
vn 1.0000 -0.0000 -0.0000
vn 0.3178 0.9482 -0.0000
vn 0.3809 0.9246 -0.0000
vn 0.3810 0.9246 -0.0000
vn -0.9995 -0.0327 -0.0000
vn 0.9995 0.0327 -0.0000
vn -0.9914 -0.1305 -0.0000
vn -0.9659 -0.2588 -0.0000
vn 0.9914 0.1305 -0.0000
vn 0.9659 0.2588 -0.0000
vn 0.9239 0.3827 -0.0000
vn -0.9239 -0.3827 -0.0000
vn -0.8660 -0.5000 -0.0000
vn -0.7934 -0.6088 -0.0000
vn 0.8660 0.5000 -0.0000
vn 0.7934 0.6088 -0.0000
vn -0.7071 -0.7071 -0.0000
vn 0.7071 0.7071 -0.0000
vn -0.6088 -0.7934 -0.0000
vn -0.5000 -0.8660 -0.0000
vn 0.6088 0.7934 -0.0000
vn 0.5000 0.8660 -0.0000
vn -0.3843 -0.9232 -0.0000
vn -0.3249 -0.9458 -0.0000
vn -0.8124 0.5831 -0.0000
vn -0.5831 -0.8124 -0.0000
vn 0.8124 -0.5831 -0.0000
vn -0.7798 0.6260 -0.0000
vn -0.6260 -0.7798 -0.0000
vn 0.7798 -0.6260 -0.0000
vn -0.7280 0.6856 -0.0000
vn -0.6856 -0.7280 -0.0000
vn 0.7280 -0.6856 -0.0000
vn 0.5831 0.8124 -0.0000
vn 0.6260 0.7798 -0.0000
vn 0.6856 0.7280 -0.0000
vt 0.821284 1.158659
vt 0.821285 -0.045837
vt 0.477175 -0.045837
vt 0.477175 1.658313
vt 1.698198 0.076371
vt 1.698198 -0.045837
vt 0.139318 1.157507
vt 0.480777 1.653313
vt 0.480777 -0.037713
vt 0.139318 -0.037713
vt -0.730842 -0.037713
vt -0.730842 0.083553
vt 0.332501 0.213019
vt 0.332501 0.373570
vt 0.490323 0.373570
vt 0.490323 0.213019
vt 0.500000 0.867594
vt -1.298395 0.867594
vt -1.298395 0.757548
vt 0.500000 0.757548
vt 1.000000 0.882737
vt 1.000000 0.996169
vt 0.000000 0.996169
vt 0.000000 0.882737
vt 1.000000 0.867594
vt 0.000000 0.867594
vt 0.000000 0.757548
vt 1.000000 0.757548
vt 0.034397 0.748991
vt 0.034397 0.691644
vt 0.104623 0.691644
vt 0.104623 0.748991
vt 0.706130 0.748991
vt 0.644601 0.748991
vt 0.644601 0.691644
vt 0.706130 0.691644
vt -0.325125 0.748991
vt -0.325125 0.691644
vt -0.293823 0.691644
vt 0.057348 0.691644
vt 0.057348 0.748991
vt -0.293823 0.748991
vt 0.033047 0.748991
vt -0.293823 0.748991
vt -0.293823 0.691644
vt 0.033048 0.691644
vt 0.121536 0.748991
vt 0.121536 0.691644
vt 0.185724 0.691644
vt 0.185724 0.748991
vt 0.100998 0.691644
vt 0.100998 0.748991
vt 0.168948 0.748991
vt 0.168948 0.691644
vt 0.236899 0.691644
vt 0.236899 0.748991
vt 0.174850 0.691644
vt 0.174850 0.748991
vt 0.245076 0.748991
vt 0.245076 0.691644
vt 0.315302 0.691644
vt 0.315302 0.748991
vt 0.249912 0.691644
vt 0.249912 0.748991
vt 0.314101 0.748991
vt 0.314101 0.691644
vt 0.378289 0.691644
vt 0.378289 0.748991
vt 0.304849 0.691644
vt 0.304849 0.748991
vt 0.385529 0.748991
vt 0.385529 0.691644
vt 0.455755 0.691644
vt 0.455755 0.748991
vt 0.372799 0.691644
vt 0.372799 0.748991
vt 0.442477 0.691644
vt 0.442477 0.748991
vt 0.440750 0.691644
vt 0.440750 0.748991
vt 0.506665 0.748991
vt 0.506665 0.691644
vt 0.570853 0.691644
vt 0.570853 0.748991
vt 0.508700 0.691644
vt 0.508700 0.748991
vt 0.525982 0.691644
vt 0.525982 0.748991
vt 0.596208 0.748991
vt 0.596208 0.691644
vt 0.666434 0.691644
vt 0.666434 0.748991
vt 0.576650 0.691644
vt 0.576650 0.748991
vt 0.635041 0.748991
vt 0.635041 0.691644
vt 0.706129 0.691644
vt 0.706129 0.748991
vt 0.736661 0.691644
vt 0.736661 0.748991
vt 0.496380 0.867594
vt 0.031294 0.867594
vt 0.031294 0.757548
vt 0.496380 0.757548
vt 0.650112 0.750551
vt 0.650111 0.691876
vt 0.000000 0.691876
vt 0.000000 0.750551
vt 1.300223 0.691876
vt 1.300223 0.750551
vt 0.091212 0.867594
vt 0.496940 0.867594
vt 0.496940 0.757548
vt 0.091212 0.757549
vt 2.298395 0.882737
vt 2.298395 0.996169
vt 0.500000 0.996169
vt 0.500000 0.882737
vt 0.908789 0.996169
vt 0.503060 0.996169
vt 0.503620 0.882737
vt 0.968706 0.882737
vt 0.968706 0.996169
vt 0.503620 0.996169
vt 0.503060 0.882737
vt 0.908788 0.882737
vt 0.650111 0.750551
vt 0.650111 0.691876
vt 0.650111 0.750551
vt 0.650112 0.691876
vt 0.619097 0.882737
vt 0.619097 0.996169
vt 0.380903 0.757548
vt 0.380903 0.867594
vt 0.619097 0.996169
vt 0.619097 0.882737
vt 0.619097 0.996169
vt 0.380903 0.757548
vt 0.380903 0.867594
vt 0.619097 0.882737
vt 0.619097 0.996169
vt 0.380903 0.757548
vt 0.380903 0.867594
vt 0.619097 0.996169
vt 0.380903 0.757548
vt 0.619097 0.996169
vt 0.619097 0.882737
vt 0.380903 0.757548
vt 0.380903 0.867594
vt 0.619097 0.882737
vt 0.380903 0.867594
vt 0.380903 0.757548
vt 0.380903 0.867594
vt 0.380903 0.867594
vt 0.380903 0.757548
s 3
usemtl MI_WoodTrim
f 13/13/3 14/14/3 16/15/3 15/16/3
f 97/17/1 16/18/1 14/19/1 100/20/1
s 4
f 17/13/4 18/14/4 20/15/4 19/16/4
f 23/16/5 24/15/5 22/14/5 21/13/5
f 19/21/1 20/22/1 24/23/1 23/24/1
f 24/25/6 20/26/6 18/27/6 22/28/6
f 19/26/7 23/25/7 21/28/7 17/27/7
f 18/21/2 17/22/2 21/23/2 22/24/2
s 5
f 28/29/1 27/30/1 35/31/1 36/32/1
f 70/33/8 67/34/9 65/35/10 72/36/8
f 27/30/1 28/29/1 32/37/1 31/38/1
f 32/39/6 28/40/11 26/41/11 30/42/6
f 27/43/12 31/44/7 29/45/7 25/46/12
f 34/47/13 36/48/13 40/49/14 38/50/14
f 26/41/11 28/40/11 36/48/13 34/47/13
f 27/43/12 25/46/12 33/51/15 35/52/15
f 39/53/16 37/54/16 41/55/17 43/56/17
f 35/52/15 33/51/15 37/54/16 39/53/16
f 36/32/1 35/31/1 39/57/1 40/58/1
f 44/59/1 43/60/1 47/61/1 48/62/1
f 40/58/1 39/57/1 43/60/1 44/59/1
f 38/50/14 40/49/14 44/63/18 42/64/18
f 46/65/19 48/66/19 52/67/20 50/68/20
f 42/64/18 44/63/18 48/66/19 46/65/19
f 43/56/17 41/55/17 45/69/21 47/70/21
f 52/71/1 51/72/1 55/73/1 56/74/1
f 47/70/21 45/69/21 49/75/22 51/76/22
f 48/62/1 47/61/1 51/72/1 52/71/1
f 50/68/20 52/67/20 56/77/23 54/78/23
f 51/76/22 49/75/22 53/79/24 55/80/24
f 58/81/25 60/82/25 64/83/26 62/84/26
f 54/78/23 56/77/23 60/82/25 58/81/25
f 55/80/24 53/79/24 57/85/27 59/86/27
f 56/74/1 55/73/1 59/87/1 60/88/1
f 64/89/1 63/90/1 67/91/1 68/92/1
f 59/86/27 57/85/27 61/93/28 63/94/28
f 60/88/1 59/87/1 63/90/1 64/89/1
f 66/95/29 68/96/29 71/97/30 69/98/30
f 62/84/26 64/83/26 68/96/29 66/95/29
f 63/94/28 61/93/28 65/35/10 67/34/9
f 68/92/1 67/91/1 70/99/1 71/100/1
s 6
f 93/101/5 73/102/5 74/103/5 95/104/5
s 7
f 77/13/6 79/16/6 80/15/6 78/14/6
f 105/105/4 108/106/4 78/107/4 80/108/4
s 8
f 81/13/4 83/16/4 84/15/4 82/14/4
f 87/16/5 85/13/5 86/14/5 88/15/5
f 83/109/1 87/107/1 88/108/1 84/110/1
f 88/110/7 86/109/7 82/107/7 84/108/7
f 83/108/6 81/107/6 85/109/6 87/110/6
f 82/109/2 86/107/2 85/108/2 81/110/2
s 9
f 89/13/3 90/14/3 92/15/3 91/16/3
f 101/17/2 92/18/2 90/19/2 104/20/2
s 6
f 75/111/4 94/112/4 96/113/4 76/114/4
s 3
f 14/115/5 13/116/5 98/117/5 100/118/5
f 15/18/2 99/17/2 98/20/2 13/19/2
s 6
f 76/119/2 96/120/2 95/121/2 74/122/2
s 3
f 15/115/4 16/116/4 97/117/4 99/118/4
s 9
f 90/115/4 89/116/4 102/117/4 104/118/4
f 91/18/1 103/17/1 102/20/1 89/19/1
s 6
f 73/123/1 93/124/1 94/125/1 75/126/1
s 9
f 91/115/5 92/116/5 101/117/5 103/118/5
s 7
f 78/109/2 108/106/2 106/127/2 77/110/2
f 79/108/5 77/107/5 106/128/5 107/129/5
f 79/109/1 107/130/1 105/105/1 80/110/1
s 10
f 109/13/1 111/16/1 112/15/1 110/14/1
f 110/21/31 135/131/31 139/132/31 109/22/31
f 111/26/32 109/27/32 139/133/32 132/134/32
f 111/21/33 132/131/33 148/135/33 112/22/33
s 11
f 113/13/1 115/16/1 116/15/1 114/14/1
f 114/21/31 129/136/31 138/137/31 113/22/31
f 115/26/32 113/27/32 138/138/32 145/139/32
f 115/21/33 145/136/33 134/137/33 116/22/33
s 12
f 117/13/1 119/16/1 120/15/1 118/14/1
f 118/21/31 136/140/31 144/141/31 117/22/31
f 119/26/32 117/27/32 144/142/32 133/143/32
f 119/21/33 133/140/33 141/141/33 120/22/33
s 13
f 121/13/1 123/16/1 124/15/1 122/14/1
f 122/21/34 143/140/34 131/144/34 121/22/34
f 123/26/35 121/27/35 131/145/35 140/143/35
f 123/21/36 140/140/36 147/146/36 124/22/36
s 14
f 125/13/1 127/16/1 128/15/1 126/14/1
f 126/21/37 137/147/37 142/135/37 125/22/37
f 127/26/38 125/27/38 142/148/38 146/149/38
f 127/21/39 146/150/39 130/135/39 128/22/39
s 10
f 135/148/40 110/27/40 112/26/40 148/134/40
s 11
f 129/133/40 114/27/40 116/26/40 134/151/40
s 12
f 136/152/40 118/27/40 120/26/40 141/153/40
s 13
f 143/152/41 122/27/41 124/26/41 147/154/41
s 14
f 137/155/42 126/27/42 128/26/42 130/134/42
s 1
usemtl MI_Plaster
f 3/1/1 8/2/1 1/3/1 2/4/1
f 3/1/1 9/5/1 4/6/1 8/2/1
s 2
f 10/7/2 6/8/2 5/9/2 7/10/2
f 10/7/2 7/10/2 11/11/2 12/12/2
