# Blender 4.0.2
# www.blender.org
mtllib Roof_Wooden_2x1_Center_Mirror.mtl
o Roof_Wooden_2x1_Center_Mirror
v -1.000000 -0.142223 -0.880180
v -1.000000 0.122818 -0.880180
v -1.000000 -0.142222 -1.161265
v 1.000000 -0.142223 -0.880180
v -1.000000 0.122816 -1.161266
v 1.000000 0.122818 -0.880180
v 1.000000 -0.142222 -1.161265
v 1.000000 0.122816 -1.161266
v 1.000000 -0.054198 -1.498114
v 1.000000 -0.145306 -1.452122
v -1.000000 -0.040941 -1.498991
v -1.000000 -0.144017 -1.452999
v 1.000000 0.924306 0.000000
v 1.000000 1.048356 0.000000
v -1.000000 0.926223 -0.000000
v -1.000000 1.062243 -0.000000
v 0.600000 -0.051988 -1.498260
v 0.200000 -0.047569 -1.498553
v -0.200000 -0.045360 -1.498699
v -0.600000 -0.043150 -1.498845
v -0.600000 -0.144232 -1.452852
v -0.200000 -0.144446 -1.452706
v 0.200000 -0.144661 -1.452560
v 0.600000 -0.145091 -1.452268
v -0.600000 0.925903 0.000000
v -0.200000 0.925584 0.000000
v 0.200000 0.925265 0.000000
v 0.600000 0.924626 0.000000
v -0.600000 1.059929 0.000000
v -0.200000 1.057614 0.000000
v 0.200000 1.055300 0.000000
v 0.600000 1.050671 0.000000
vn -0.0000 -0.0000 -1.0000
vn -0.0000 1.0000 -0.0000
vn -0.0000 -1.0000 -0.0000
vn -0.0000 -0.0000 1.0000
vn -0.0009 -0.4108 -0.9117
vn 0.0047 0.8054 -0.5927
vn -0.0006 -0.8052 0.5931
vn -1.0000 -0.0000 -0.0000
vn 1.0000 -0.0000 -0.0000
vn -0.0013 -0.8052 0.5931
vn 0.0093 0.8054 -0.5927
vn -0.0020 -0.4354 -0.9002
vn -0.0010 -0.4467 -0.8947
vn -0.0010 -0.4245 -0.9054
vn -0.0009 -0.4176 -0.9086
vt 1.000000 0.883362
vt 1.000000 0.995006
vt 0.000000 0.995006
vt 0.000000 0.883362
vt 0.086513 0.212124
vt 0.086513 0.377931
vt 0.155810 0.377974
vt 0.155810 0.212166
vt 0.000000 0.750210
vt 0.000000 0.875412
vt 1.000000 0.875412
vt 1.000000 0.750210
vt 0.000000 0.875412
vt 1.000000 0.750210
vt 0.731359 0.694275
vt 0.000000 0.694275
vt 0.000000 0.747131
vt 0.709519 0.747131
vt 0.709102 0.694275
vt 0.730942 0.747131
vt 0.085173 0.375772
vt 0.152681 0.375729
vt 0.152681 0.214332
vt 0.085173 0.214376
vt 0.085173 0.375772
vt 0.152681 0.375732
vt 0.085173 0.214372
vt 1.500000 0.875412
vt 0.500000 0.875412
vt 0.500000 0.750210
vt 1.500000 0.750210
vt 0.085173 0.375772
vt 0.152681 0.375730
vt 0.085173 0.214374
vt 0.008719 0.375772
vt 0.076227 0.375729
vt 0.076227 0.214332
vt 0.008719 0.214375
vt 1.500000 0.750210
vt 1.000000 0.998066
vt 0.000000 0.998066
vt 0.000000 0.872865
vt 1.000000 0.872865
vt 0.152736 0.212164
vt 0.083439 0.212124
vt 0.086513 0.377933
vt 0.155810 0.377974
vt 0.086513 0.212124
vt 0.086513 0.377934
vt 0.155810 0.377974
vt 0.155810 0.212163
vt 0.086513 0.377932
vt 0.155810 0.212165
vt 0.006583 0.212124
vt 0.006583 0.377931
vt 0.075880 0.377974
vt 0.075880 0.212166
vt 0.008719 0.214415
vt 0.008719 0.375772
vt 0.076227 0.375691
s 0
usemtl MI_WoodTrim
f 3/1/1 5/2/1 8/3/1 7/4/1
f 8/2/2 5/3/2 2/4/2 6/1/2
f 3/3/3 7/2/3 4/1/3 1/4/3
f 2/1/4 1/2/4 4/3/4 6/4/4
f 25/21/4 29/22/4 16/23/4 15/24/4
f 13/25/4 14/26/4 32/23/4 28/27/4
f 27/32/4 31/33/4 30/23/4 26/34/4
f 26/35/4 30/36/4 29/37/4 25/38/4
f 27/58/4 28/59/4 32/60/4 31/37/4
usemtl MI_WoodTrim_Wear
f 21/5/5 12/6/5 11/7/5 20/8/5
f 20/9/6 11/10/6 16/11/6 29/12/6
f 28/11/7 24/13/7 10/9/7 13/14/7
f 16/15/8 11/16/8 12/17/8 15/18/8
f 13/19/9 10/16/9 9/17/9 14/20/9
f 27/28/10 23/29/10 24/30/10 28/31/10
f 15/11/7 12/10/7 21/9/7 25/12/7
f 25/28/7 21/29/7 22/30/7 26/39/7
f 26/40/7 22/41/7 23/42/7 27/43/7
f 31/28/11 32/31/11 17/30/11 18/29/11
f 9/9/6 17/13/6 32/11/6 14/14/6
f 17/44/12 24/45/12 23/46/12 18/47/12
f 18/42/6 19/41/6 30/40/6 31/43/6
f 19/30/6 20/29/6 29/28/6 30/39/6
f 10/48/13 24/49/13 17/50/13 9/51/13
f 23/5/14 22/52/14 19/47/14 18/53/14
f 22/54/15 21/55/15 20/56/15 19/57/15
