# Blender 4.0.2
# www.blender.org
mtllib Roof_FrontSupports.mtl
o Roof_FrontSupports
v -2.743130 -0.118262 0.627260
v -2.743130 0.112928 0.627260
v -2.355092 -0.118262 0.627260
v -2.355092 0.112928 0.627260
v -2.355092 0.112928 -0.027265
v -2.743130 -0.118262 -0.027265
v -2.355092 -0.118262 -0.027265
v -2.743130 0.112928 -0.027265
v -1.734231 -0.118262 0.627261
v -1.734231 0.112928 0.627261
v -1.346194 -0.118262 0.627261
v -1.346194 0.112928 0.627261
v -1.346194 0.112928 -0.027265
v -1.734231 -0.118262 -0.027265
v -1.346194 -0.118262 -0.027265
v -1.734231 0.112928 -0.027265
v -0.725332 -0.118262 0.627261
v -0.725332 0.112928 0.627261
v -0.337295 -0.118262 0.627261
v -0.337295 0.112928 0.627261
v -0.337295 0.112928 -0.027264
v -0.725333 -0.118262 -0.027265
v -0.337295 -0.118262 -0.027264
v -0.725333 0.112928 -0.027265
v 2.743128 -0.118262 0.627262
v 2.743128 0.112928 0.627262
v 2.355090 -0.118262 0.627262
v 2.355090 0.112928 0.627262
v 2.355090 0.112928 -0.027263
v 2.743128 -0.118262 -0.027263
v 2.355090 -0.118262 -0.027263
v 2.743128 0.112928 -0.027263
v 1.734229 -0.118262 0.627262
v 1.734229 0.112928 0.627262
v 1.346191 -0.118262 0.627262
v 1.346191 0.112928 0.627262
v 1.346191 0.112928 -0.027264
v 1.734229 -0.118262 -0.027264
v 1.346191 -0.118262 -0.027264
v 1.734229 0.112928 -0.027264
v 0.725330 -0.118262 0.627261
v 0.725330 0.112928 0.627261
v 0.337292 -0.118262 0.627261
v 0.337292 0.112928 0.627261
v 0.337292 0.112928 -0.027264
v 0.725330 -0.118262 -0.027264
v 0.337292 -0.118262 -0.027264
v 0.725330 0.112928 -0.027264
vn -0.0000 -0.0000 1.0000
vn -0.0000 1.0000 -0.0000
vn -1.0000 -0.0000 -0.0000
vn -0.0000 -1.0000 -0.0000
vn 1.0000 -0.0000 -0.0000
vt 0.335794 0.213390
vt 0.498302 0.213390
vt 0.498302 0.377297
vt 0.335794 0.377297
vt -0.651602 0.867594
vt -0.651602 0.757548
vt -1.003268 0.757548
vt -1.003268 0.867594
vt 1.798318 0.882737
vt 1.446652 0.882737
vt 1.446652 0.996169
vt 1.798318 0.996169
vt 0.166660 0.208229
vt 0.329167 0.208229
vt 0.329167 0.374712
vt 0.166660 0.374712
vt 0.375919 0.867594
vt 0.375919 0.757548
vt 0.024253 0.757548
vt 0.024253 0.867594
vt 1.219034 0.882737
vt 0.867369 0.882737
vt 0.867368 0.996169
vt 1.219034 0.996169
vt 0.498302 0.377297
vt 0.335794 0.377297
vt 0.335794 0.213390
vt 0.498302 0.213390
vt -0.946729 0.867594
vt -0.946729 0.757548
vt -1.298395 0.757548
vt -1.298395 0.867594
vt 2.298395 0.882737
vt 1.946729 0.882737
vt 1.946729 0.996169
vt 2.298395 0.996169
vt 0.164672 0.372724
vt 0.331155 0.372724
vt 0.331155 0.210217
vt 0.164672 0.210217
vt 0.610887 0.867594
vt 0.259221 0.867594
vt 0.259221 0.757548
vt 0.610887 0.757548
vt 0.765372 0.882737
vt 0.765372 0.996169
vt 0.413706 0.996169
vt 0.413707 0.882737
vt 0.807639 0.867594
vt 0.455973 0.867594
vt 0.455973 0.757548
vt 0.807639 0.757548
vt 0.355473 0.882737
vt 0.355473 0.996169
vt 0.003807 0.996169
vt 0.003808 0.882737
s 0
usemtl MI_WoodTrim
f 1/1/1 3/2/1 4/3/1 2/4/1
f 5/5/2 8/6/2 2/7/2 4/8/2
f 2/9/3 8/10/3 6/11/3 1/12/3
f 3/8/4 1/7/4 6/6/4 7/5/4
f 3/9/5 7/10/5 5/11/5 4/12/5
f 9/13/1 11/14/1 12/15/1 10/16/1
f 13/17/2 16/18/2 10/19/2 12/20/2
f 10/21/3 16/22/3 14/23/3 9/24/3
f 11/20/4 9/19/4 14/18/4 15/17/4
f 11/21/5 15/22/5 13/23/5 12/24/5
f 17/25/1 19/26/1 20/27/1 18/28/1
f 21/29/2 24/30/2 18/31/2 20/32/2
f 18/33/3 24/34/3 22/35/3 17/36/3
f 19/32/4 17/31/4 22/30/4 23/29/4
f 19/33/5 23/34/5 21/35/5 20/36/5
f 25/37/1 26/38/1 28/39/1 27/40/1
f 29/41/2 28/42/2 26/43/2 32/44/2
f 26/45/5 25/46/5 30/47/5 32/48/5
f 27/42/4 31/41/4 30/44/4 25/43/4
f 27/45/3 28/46/3 29/47/3 31/48/3
f 33/1/1 34/4/1 36/3/1 35/2/1
f 37/29/2 36/32/2 34/31/2 40/30/2
f 34/33/5 33/36/5 38/35/5 40/34/5
f 35/32/4 39/29/4 38/30/4 33/31/4
f 35/33/3 36/36/3 37/35/3 39/34/3
f 41/13/1 42/16/1 44/15/1 43/14/1
f 45/49/2 44/50/2 42/51/2 48/52/2
f 42/53/5 41/54/5 46/55/5 48/56/5
f 43/50/4 47/49/4 46/52/4 41/51/4
f 43/53/3 44/54/3 45/55/3 47/56/3
