# Blender 4.0.2
# www.blender.org
mtllib Roof_Front_Brick6.mtl
o Roof_Front_Brick6
v -0.000000 0.019167 -0.000000
v -0.880000 3.099452 -0.000000
v -0.000000 4.377230 -0.000000
v 0.880000 3.099452 0.000000
v 3.122550 0.019167 -0.000000
v -0.880000 0.019167 -0.249701
v 0.000000 0.019167 -0.249700
v 0.000000 4.377230 -0.249700
v 0.880000 0.019167 -0.249700
v 0.880000 0.019167 0.000000
v 3.122550 0.331691 -0.000000
v -0.880000 0.019167 -0.000000
v -3.122550 0.019167 0.000000
v -3.122550 0.331691 0.000000
v 0.880000 3.099452 -0.249700
v 3.122550 0.019167 -0.249699
v 3.122550 0.331691 -0.249699
v -0.880000 3.099452 -0.249701
v -3.122550 0.019167 -0.249701
v -3.122550 0.331691 -0.249701
v 3.347877 -0.131802 -0.108670
v 3.347877 -0.131802 0.117623
v 3.347877 0.131802 -0.108670
v 3.347877 0.131802 0.117623
v -3.346518 -0.131802 -0.108670
v -3.346518 -0.131802 0.117623
v -3.346518 0.131802 -0.108670
v -3.346518 0.131802 0.117623
v 1.010297 2.640000 -0.169114
v 1.241487 2.640000 -0.169115
v 1.010297 2.640000 0.094489
v 1.241487 2.640000 0.094489
v 1.010298 -0.000000 -0.169115
v 1.241489 -0.000000 -0.169115
v 1.010298 -0.000000 0.094489
v 1.241489 -0.000000 0.094489
v -1.010297 2.640000 -0.169115
v -1.241487 2.640000 -0.169116
v -1.010297 2.640000 0.094488
v -1.241487 2.640000 0.094488
v -1.010298 -0.000000 -0.169116
v -1.241489 -0.000000 -0.169116
v -1.010298 -0.000000 0.094488
v -1.241489 -0.000000 0.094488
v -1.244946 0.623672 -0.022449
v -1.364611 0.623672 -0.022449
v -1.244946 0.623672 0.081554
v -1.364611 0.623672 0.081554
v -1.244947 0.000000 -0.022449
v -1.364611 0.000000 -0.022449
v -1.244947 0.000000 0.081554
v -1.364611 0.000000 0.081554
v -1.253426 0.753045 -0.022449
v -1.372066 0.737425 -0.022449
v -1.253426 0.753045 0.081554
v -1.372066 0.737425 0.081554
v -1.278720 0.880203 -0.022449
v -1.394306 0.849232 -0.022449
v -1.278720 0.880203 0.081554
v -1.394306 0.849232 0.081554
v -1.320394 1.002973 -0.022449
v -1.430949 0.957179 -0.022449
v -1.320394 1.002973 0.081554
v -1.430949 0.957179 0.081554
v -1.377737 1.119252 -0.022449
v -1.481369 1.059420 -0.022449
v -1.377737 1.119252 0.081554
v -1.481369 1.059420 0.081554
v -1.449767 1.227052 -0.022449
v -1.544703 1.154205 -0.022449
v -1.449767 1.227052 0.081554
v -1.544703 1.154205 0.081554
v -1.535251 1.324528 -0.022449
v -1.619866 1.239912 -0.022449
v -1.535251 1.324528 0.081554
v -1.619866 1.239912 0.081554
v -1.632727 1.410012 -0.022449
v -1.705574 1.315076 -0.022449
v -1.632727 1.410012 0.081554
v -1.705574 1.315076 0.081554
v -1.740526 1.482041 -0.022449
v -1.800358 1.378409 -0.022449
v -1.740526 1.482041 0.081554
v -1.800358 1.378409 0.081554
v -1.856806 1.539384 -0.022238
v -1.902599 1.428829 -0.022450
v -1.856806 1.539384 0.081554
v -1.902599 1.428829 0.081554
v -2.022002 1.469842 -0.022450
v -1.968120 1.576689 0.081554
v -2.022002 1.469842 0.081554
v -1.968120 1.576689 -0.022026
v 1.244947 0.623672 -0.022448
v 1.364611 0.623672 -0.022448
v 1.244947 0.623672 0.081555
v 1.364611 0.623672 0.081555
v 1.244947 -0.000000 -0.022448
v 1.364611 0.000000 -0.022448
v 1.244947 -0.000000 0.081555
v 1.364611 0.000000 0.081555
v 1.253426 0.753045 -0.022448
v 1.372067 0.737425 -0.022448
v 1.253426 0.753045 0.081555
v 1.372067 0.737425 0.081555
v 1.278720 0.880203 -0.022448
v 1.394306 0.849232 -0.022448
v 1.278720 0.880203 0.081555
v 1.394306 0.849232 0.081555
v 1.320394 1.002973 -0.022448
v 1.430950 0.957179 -0.022448
v 1.320394 1.002973 0.081555
v 1.430950 0.957179 0.081555
v 1.377737 1.119252 -0.022448
v 1.481369 1.059420 -0.022448
v 1.377737 1.119252 0.081555
v 1.481369 1.059420 0.081555
v 1.449767 1.227052 -0.022448
v 1.544703 1.154205 -0.022449
v 1.449767 1.227052 0.081555
v 1.544703 1.154205 0.081555
v 1.535251 1.324528 -0.022449
v 1.619866 1.239912 -0.022449
v 1.535251 1.324528 0.081555
v 1.619866 1.239912 0.081555
v 1.632727 1.410012 -0.022449
v 1.705574 1.315076 -0.022449
v 1.632727 1.410012 0.081555
v 1.705574 1.315076 0.081555
v 1.740527 1.482041 -0.022449
v 1.800358 1.378409 -0.022449
v 1.740527 1.482041 0.081555
v 1.800358 1.378409 0.081555
v 1.856806 1.539384 -0.022237
v 1.902599 1.428828 -0.022449
v 1.856806 1.539384 0.081555
v 1.902599 1.428828 0.081555
v 2.022002 1.469842 -0.022449
v 1.968120 1.576689 0.081555
v 2.022002 1.469842 0.081555
v 1.968120 1.576689 -0.022025
v -1.063044 2.843595 -0.205285
v -1.218272 2.612404 -0.205285
v -1.063044 2.843595 0.058319
v -1.218272 2.612404 0.058319
v 1.237385 2.612406 0.058320
v 1.237385 2.612406 -0.205284
v 1.079201 2.843596 0.058320
v 1.079202 2.843596 -0.205284
v 1.074351 2.151636 -0.021146
v 1.074351 2.252580 -0.021146
v 1.074351 2.151636 0.082858
v 1.074351 2.252580 0.082858
v -1.117761 2.151636 -0.021147
v -1.117761 2.252580 -0.021147
v -1.117761 2.151636 0.082857
v -1.117761 2.252580 0.082857
v 0.050472 4.383982 -0.055221
v -0.050472 4.383982 -0.055221
v 0.050472 4.383982 0.048783
v -0.050472 4.383982 0.048783
v 0.050472 2.711982 -0.055221
v -0.050472 2.711982 -0.055221
v 0.050472 2.711982 0.048783
v -0.050472 2.711982 0.048783
v -0.392457 3.326602 0.794139
v -0.324667 3.421056 0.794139
v -0.267586 3.236982 0.794139
v -0.199796 3.331436 0.794139
v -0.898385 2.621679 0.794139
v -0.830595 2.716133 0.794139
v -0.773515 2.532059 0.794139
v -0.705725 2.626513 0.794139
v -1.404314 1.916756 0.794139
v -1.336524 2.011210 0.794139
v -1.279443 1.827136 0.794139
v -1.211653 1.921589 0.794139
v -1.922383 1.223966 0.794139
v -1.849605 1.314633 0.794139
v -1.802519 1.127753 0.794139
v -1.729742 1.218419 0.794139
v -2.479864 0.568297 0.794139
v -2.400155 0.652935 0.794139
v -2.367971 0.462920 0.794139
v -2.288262 0.547557 0.794139
v 0.392456 3.326602 0.794140
v 0.324666 3.421056 0.794140
v 0.267586 3.236982 0.794140
v 0.199796 3.331436 0.794140
v 0.898385 2.621679 0.794140
v 0.830595 2.716133 0.794140
v 0.773514 2.532059 0.794140
v 0.705724 2.626513 0.794140
v 1.404313 1.916756 0.794140
v 1.336523 2.011210 0.794140
v 1.279443 1.827136 0.794140
v 1.211653 1.921589 0.794140
v 1.922382 1.223966 0.794140
v 1.849605 1.314633 0.794140
v 1.802518 1.127753 0.794140
v 1.729741 1.218419 0.794140
v 2.479863 0.568297 0.794140
v 2.400155 0.652935 0.794140
v 2.367970 0.462920 0.794140
v 2.288261 0.547557 0.794140
v 3.347877 0.131802 -0.108671
v 3.347877 0.131802 -0.334964
v 3.347877 -0.131802 -0.108671
v 3.347877 -0.131802 -0.334964
v -3.346518 0.131802 -0.108670
v -3.346518 0.131802 -0.334964
v -3.346518 -0.131802 -0.108670
v -3.346518 -0.131802 -0.334964
v -0.830595 2.716133 -0.153780
v -1.922382 1.223966 -0.153780
v 0.830595 2.716133 -0.153780
v 2.288262 0.547558 -0.153780
v 1.922382 1.223966 -0.153780
v 0.267586 3.236982 -0.153780
v -1.279443 1.827136 -0.153779
v -2.288262 0.547558 -0.153779
v 1.279443 1.827136 -0.153779
v -0.705724 2.626513 -0.153780
v 0.705725 2.626513 -0.153780
v 0.324667 3.421056 -0.153780
v -1.336524 2.011210 -0.153779
v -2.479864 0.568297 -0.153779
v 1.336524 2.011210 -0.153779
v 2.400155 0.652935 -0.153779
v -0.898385 2.621680 -0.153780
v 0.898385 2.621680 -0.153780
v -1.802519 1.127753 -0.153780
v 0.392456 3.326602 -0.153780
v 1.802519 1.127753 -0.153779
v -1.211653 1.921589 -0.153780
v 1.211653 1.921589 -0.153780
v 2.479864 0.568297 -0.153780
v -0.267586 3.236982 -0.153780
v -0.199796 3.331436 -0.153780
v -1.849605 1.314633 -0.153780
v 1.849605 1.314633 -0.153779
v -1.404313 1.916756 -0.153779
v 1.404313 1.916756 -0.153780
v -2.367970 0.462920 -0.153779
v -0.773514 2.532059 -0.153780
v -0.324667 3.421056 -0.153780
v -0.392456 3.326602 -0.153780
v -1.729741 1.218419 -0.153780
v 0.773515 2.532059 -0.153780
v 2.367970 0.462920 -0.153779
v 1.729741 1.218419 -0.153780
v 0.199796 3.331436 -0.153780
v -2.400155 0.652935 -0.153779
vn -0.0000 -0.0000 1.0000
vn -0.0000 -0.0000 -1.0000
vn 1.0000 -0.0000 -0.0000
vn -1.0000 -0.0000 -0.0000
vn -0.0000 1.0000 -0.0000
vn -0.0000 -1.0000 -0.0000
vn 0.3178 0.9482 -0.0000
vn 0.3809 0.9246 -0.0000
vn 0.3810 0.9246 -0.0000
vn -0.9995 -0.0327 -0.0000
vn 0.9995 0.0327 -0.0000
vn -0.9914 -0.1305 -0.0000
vn -0.9659 -0.2588 -0.0000
vn 0.9914 0.1305 -0.0000
vn 0.9659 0.2588 -0.0000
vn 0.9239 0.3827 -0.0000
vn -0.9239 -0.3827 -0.0000
vn -0.8660 -0.5000 -0.0000
vn -0.7934 -0.6088 -0.0000
vn 0.8660 0.5000 -0.0000
vn 0.7934 0.6088 -0.0000
vn -0.7071 -0.7071 -0.0000
vn 0.7071 0.7071 -0.0000
vn -0.6088 -0.7934 -0.0000
vn -0.5000 -0.8660 -0.0000
vn 0.6088 0.7934 -0.0000
vn 0.5000 0.8660 -0.0000
vn -0.3844 -0.9232 -0.0000
vn -0.3249 -0.9458 -0.0000
vn -0.3178 0.9482 -0.0000
vn -0.3810 0.9246 -0.0000
vn -0.3809 0.9246 -0.0000
vn 0.9995 -0.0327 -0.0000
vn -0.9995 0.0327 -0.0000
vn 0.9914 -0.1305 -0.0000
vn 0.9659 -0.2588 -0.0000
vn -0.9914 0.1305 -0.0000
vn -0.9659 0.2588 -0.0000
vn -0.9239 0.3827 -0.0000
vn 0.9239 -0.3827 -0.0000
vn 0.8660 -0.5000 -0.0000
vn 0.7934 -0.6088 -0.0000
vn -0.8660 0.5000 -0.0000
vn -0.7934 0.6088 -0.0000
vn 0.7071 -0.7071 -0.0000
vn -0.7071 0.7071 -0.0000
vn 0.6088 -0.7934 -0.0000
vn 0.5000 -0.8660 -0.0000
vn -0.6088 0.7934 -0.0000
vn -0.5000 0.8660 -0.0000
vn 0.3843 -0.9232 -0.0000
vn 0.3249 -0.9458 -0.0000
vn -0.8124 0.5831 -0.0000
vn -0.5831 -0.8124 -0.0000
vn 0.8124 -0.5831 -0.0000
vn -0.7798 0.6260 -0.0000
vn -0.6260 -0.7798 -0.0000
vn 0.7798 -0.6260 -0.0000
vn -0.7280 0.6856 -0.0000
vn -0.6856 -0.7280 -0.0000
vn 0.7280 -0.6856 -0.0000
vn 0.8124 0.5831 -0.0000
vn 0.5831 -0.8124 -0.0000
vn -0.8124 -0.5831 -0.0000
vn 0.7798 0.6260 -0.0000
vn 0.6260 -0.7798 -0.0000
vn -0.7798 -0.6260 -0.0000
vn 0.7280 0.6856 -0.0000
vn 0.6856 -0.7280 -0.0000
vn -0.7280 -0.6856 -0.0000
vn -0.5831 0.8124 -0.0000
vn 0.5831 0.8124 -0.0000
vn -0.6260 0.7798 -0.0000
vn 0.6260 0.7798 -0.0000
vn -0.6856 0.7280 -0.0000
vn 0.6856 0.7280 -0.0000
vt 0.133065 1.158659
vt 0.133065 -0.045837
vt 0.477175 -0.045837
vt 0.477175 1.658313
vt -0.743848 0.076370
vt -0.743848 -0.045837
vt 0.821284 1.158659
vt 0.821285 -0.045837
vt 1.698198 -0.045837
vt 1.698198 0.076371
vt 0.822237 1.152342
vt 0.480777 1.648148
vt 0.480777 -0.042878
vt 0.822237 -0.042878
vt 1.692397 -0.042877
vt 1.692397 0.078389
vt 0.139318 1.152342
vt 0.139318 -0.042877
vt -0.730842 0.078389
vt -0.730842 -0.042877
vt 0.332501 0.213019
vt 0.490323 0.213019
vt 0.490323 0.373570
vt 0.332501 0.373570
vt 2.298395 0.882737
vt -1.298395 0.882737
vt -1.298395 0.996169
vt 2.298395 0.996169
vt 2.298395 0.867594
vt 2.298395 0.757548
vt -1.298395 0.757548
vt -1.298395 0.867594
vt 1.000000 0.882737
vt 0.000000 0.882737
vt 0.000000 0.996169
vt 1.000000 0.996169
vt 1.000000 0.867594
vt 1.000000 0.757548
vt 0.000000 0.757548
vt 0.000000 0.867594
vt 0.034397 0.748991
vt 0.034397 0.691644
vt 0.104623 0.691644
vt 0.104623 0.748991
vt 0.706130 0.748991
vt 0.644601 0.748991
vt 0.644601 0.691644
vt 0.706130 0.691644
vt -0.325125 0.748991
vt -0.325125 0.691644
vt -0.293823 0.691644
vt 0.057348 0.691644
vt 0.057348 0.748991
vt -0.293823 0.748991
vt 0.033047 0.748991
vt -0.293823 0.748991
vt -0.293823 0.691644
vt 0.033048 0.691644
vt 0.121536 0.748991
vt 0.121536 0.691644
vt 0.185724 0.691644
vt 0.185724 0.748991
vt 0.100998 0.691644
vt 0.100998 0.748991
vt 0.168948 0.748991
vt 0.168948 0.691644
vt 0.236899 0.691644
vt 0.236899 0.748991
vt 0.174850 0.691644
vt 0.174850 0.748991
vt 0.245076 0.748991
vt 0.245076 0.691644
vt 0.315302 0.691644
vt 0.315302 0.748991
vt 0.249912 0.691644
vt 0.249912 0.748991
vt 0.314101 0.748991
vt 0.314101 0.691644
vt 0.378289 0.691644
vt 0.378289 0.748991
vt 0.304849 0.691644
vt 0.304849 0.748991
vt 0.385529 0.748991
vt 0.385529 0.691644
vt 0.455755 0.691644
vt 0.455755 0.748991
vt 0.372799 0.691644
vt 0.372799 0.748991
vt 0.442477 0.691644
vt 0.442477 0.748991
vt 0.440750 0.691644
vt 0.440750 0.748991
vt 0.506665 0.748991
vt 0.506665 0.691644
vt 0.570853 0.691644
vt 0.570853 0.748991
vt 0.508700 0.691644
vt 0.508700 0.748991
vt 0.525982 0.691644
vt 0.525982 0.748991
vt 0.596208 0.748991
vt 0.596208 0.691644
vt 0.666434 0.691644
vt 0.666434 0.748991
vt 0.576650 0.691644
vt 0.576650 0.748991
vt 0.635041 0.748991
vt 0.635041 0.691644
vt 0.706129 0.691644
vt 0.706129 0.748991
vt 0.736661 0.691644
vt 0.736661 0.748991
vt 0.961467 0.867594
vt 0.961467 0.757548
vt 0.031294 0.757548
vt 0.031294 0.867594
vt 0.091212 0.867594
vt 0.091212 0.757549
vt 0.902668 0.757548
vt 0.902668 0.867594
vt 0.908789 0.996169
vt 0.968706 0.882737
vt 0.038533 0.882737
vt 0.097332 0.996169
vt 0.968706 0.996169
vt 0.908788 0.882737
vt 0.097332 0.882737
vt 0.038533 0.996169
vt 1.300223 0.691876
vt 1.300223 0.750551
vt 0.000000 0.750551
vt 0.000000 0.691876
vt 0.619097 0.882737
vt 0.619097 0.996169
vt 0.380903 0.757548
vt 0.380903 0.867594
vt 0.619097 0.882737
vt 0.619097 0.996169
vt 0.380903 0.757548
vt 0.380903 0.867594
vt 0.619097 0.996169
vt 0.619098 0.882737
vt 0.619098 0.996169
vt 0.380902 0.757548
vt 0.380902 0.867594
vt 0.619097 0.996169
vt 0.619098 0.996169
vt 0.380902 0.757548
vt 0.619098 0.882737
vt 0.619098 0.996169
vt 0.380902 0.757548
vt 0.380902 0.867594
vt 0.619097 0.996169
vt 0.619097 0.882737
vt 0.380903 0.867594
vt 0.380903 0.757548
vt 0.619097 0.996169
vt 0.619097 0.996169
vt 0.619097 0.882737
vt 0.380903 0.867594
vt 0.380903 0.757548
vt 0.619097 0.882737
vt 0.380903 0.757548
vt 0.380903 0.867594
vt 0.380903 0.757548
vt 0.380903 0.867594
vt 0.380903 0.867594
vt 0.380903 0.757548
vt 0.380903 0.867594
vt 0.380903 0.867594
vt 0.380903 0.757548
vt 0.380902 0.867594
vt 0.380902 0.757548
s 3
usemtl MI_WoodTrim
f 21/21/3 23/22/3 24/23/3 22/24/3
f 27/22/4 25/21/4 26/24/4 28/23/4
f 23/25/5 27/26/5 28/27/5 24/28/5
f 28/29/1 26/30/1 22/31/1 24/32/1
f 23/32/2 21/31/2 25/30/2 27/29/2
f 22/25/6 26/26/6 25/27/6 21/28/6
s 4
f 29/21/5 31/22/5 32/23/5 30/24/5
f 35/22/6 33/21/6 34/24/6 36/23/6
f 31/33/1 35/34/1 36/35/1 32/36/1
f 36/37/3 34/38/3 30/39/3 32/40/3
f 31/40/4 29/39/4 33/38/4 35/37/4
f 30/33/2 34/34/2 33/35/2 29/36/2
s 5
f 37/21/5 38/24/5 40/23/5 39/22/5
f 43/22/6 44/23/6 42/24/6 41/21/6
f 39/33/1 40/36/1 44/35/1 43/34/1
f 44/37/4 40/40/4 38/39/4 42/38/4
f 39/40/3 43/37/3 41/38/3 37/39/3
f 38/33/2 37/36/2 41/35/2 42/34/2
s 6
f 48/41/1 47/42/1 55/43/1 56/44/1
f 90/45/7 87/46/8 85/47/9 92/48/7
f 47/42/1 48/41/1 52/49/1 51/50/1
f 52/51/4 48/52/10 46/53/10 50/54/4
f 47/55/11 51/56/3 49/57/3 45/58/11
f 54/59/12 56/60/12 60/61/13 58/62/13
f 46/53/10 48/52/10 56/60/12 54/59/12
f 47/55/11 45/58/11 53/63/14 55/64/14
f 59/65/15 57/66/15 61/67/16 63/68/16
f 55/64/14 53/63/14 57/66/15 59/65/15
f 56/44/1 55/43/1 59/69/1 60/70/1
f 64/71/1 63/72/1 67/73/1 68/74/1
f 60/70/1 59/69/1 63/72/1 64/71/1
f 58/62/13 60/61/13 64/75/17 62/76/17
f 66/77/18 68/78/18 72/79/19 70/80/19
f 62/76/17 64/75/17 68/78/18 66/77/18
f 63/68/16 61/67/16 65/81/20 67/82/20
f 72/83/1 71/84/1 75/85/1 76/86/1
f 67/82/20 65/81/20 69/87/21 71/88/21
f 68/74/1 67/73/1 71/84/1 72/83/1
f 70/80/19 72/79/19 76/89/22 74/90/22
f 71/88/21 69/87/21 73/91/23 75/92/23
f 78/93/24 80/94/24 84/95/25 82/96/25
f 74/90/22 76/89/22 80/94/24 78/93/24
f 75/92/23 73/91/23 77/97/26 79/98/26
f 76/86/1 75/85/1 79/99/1 80/100/1
f 84/101/1 83/102/1 87/103/1 88/104/1
f 79/98/26 77/97/26 81/105/27 83/106/27
f 80/100/1 79/99/1 83/102/1 84/101/1
f 86/107/28 88/108/28 91/109/29 89/110/29
f 82/96/25 84/95/25 88/108/28 86/107/28
f 83/106/27 81/105/27 85/47/9 87/46/8
f 88/104/1 87/103/1 90/111/1 91/112/1
s 7
f 96/41/1 104/44/1 103/43/1 95/42/1
f 138/45/30 140/48/30 133/47/31 135/46/32
f 95/42/1 99/50/1 100/49/1 96/41/1
f 100/51/3 98/54/3 94/53/33 96/52/33
f 95/55/34 93/58/34 97/57/4 99/56/4
f 102/59/35 106/62/36 108/61/36 104/60/35
f 94/53/33 102/59/35 104/60/35 96/52/33
f 95/55/34 103/64/37 101/63/37 93/58/34
f 107/65/38 111/68/39 109/67/39 105/66/38
f 103/64/37 107/65/38 105/66/38 101/63/37
f 104/44/1 108/70/1 107/69/1 103/43/1
f 112/71/1 116/74/1 115/73/1 111/72/1
f 108/70/1 112/71/1 111/72/1 107/69/1
f 106/62/36 110/76/40 112/75/40 108/61/36
f 114/77/41 118/80/42 120/79/42 116/78/41
f 110/76/40 114/77/41 116/78/41 112/75/40
f 111/68/39 115/82/43 113/81/43 109/67/39
f 120/83/1 124/86/1 123/85/1 119/84/1
f 115/82/43 119/88/44 117/87/44 113/81/43
f 116/74/1 120/83/1 119/84/1 115/73/1
f 118/80/42 122/90/45 124/89/45 120/79/42
f 119/88/44 123/92/46 121/91/46 117/87/44
f 126/93/47 130/96/48 132/95/48 128/94/47
f 122/90/45 126/93/47 128/94/47 124/89/45
f 123/92/46 127/98/49 125/97/49 121/91/46
f 124/86/1 128/100/1 127/99/1 123/85/1
f 132/101/1 136/104/1 135/103/1 131/102/1
f 127/98/49 131/106/50 129/105/50 125/97/49
f 128/100/1 132/101/1 131/102/1 127/99/1
f 134/107/51 137/110/52 139/109/52 136/108/51
f 130/96/48 134/107/51 136/108/51 132/95/48
f 131/106/50 135/46/32 133/47/31 129/105/50
f 136/104/1 139/112/1 138/111/1 135/103/1
s 8
f 144/113/6 142/114/6 146/115/6 145/116/6
f 147/117/5 148/118/5 141/119/5 143/120/5
f 148/121/2 146/122/2 142/123/2 141/124/2
f 145/125/1 147/126/1 143/127/1 144/128/1
s 9
f 149/21/3 150/24/3 152/23/3 151/22/3
f 155/22/4 156/23/4 154/24/4 153/21/4
f 151/129/1 152/130/1 156/131/1 155/132/1
f 156/130/5 152/131/5 150/132/5 154/129/5
f 151/131/6 155/130/6 153/129/6 149/132/6
f 150/129/2 149/130/2 153/131/2 154/132/2
s 10
f 157/21/5 158/24/5 160/23/5 159/22/5
f 163/22/6 164/23/6 162/24/6 161/21/6
f 159/129/1 160/130/1 164/131/1 163/132/1
f 164/130/4 160/131/4 158/132/4 162/129/4
f 159/131/3 163/130/3 161/129/3 157/132/3
f 158/129/2 157/130/2 161/131/2 162/132/2
s 11
f 165/21/1 167/22/1 168/23/1 166/24/1
f 166/33/53 245/133/53 246/134/53 165/36/53
f 167/40/54 165/39/54 246/135/54 237/136/54
f 167/33/55 237/133/55 238/134/55 168/36/55
s 12
f 169/21/1 171/22/1 172/23/1 170/24/1
f 170/33/53 213/137/53 229/138/53 169/36/53
f 171/40/54 169/39/54 229/139/54 244/140/54
f 171/33/55 244/137/55 222/141/55 172/36/55
s 13
f 173/21/1 175/22/1 176/23/1 174/24/1
f 174/33/53 225/142/53 241/143/53 173/36/53
f 175/40/54 173/39/54 241/144/54 219/145/54
f 175/33/55 219/142/55 234/146/55 176/36/55
s 14
f 177/21/1 179/22/1 180/23/1 178/24/1
f 178/33/56 239/142/56 214/147/56 177/36/56
f 179/40/57 177/39/57 214/148/57 231/145/57
f 179/33/58 231/142/58 247/143/58 180/36/58
s 15
f 181/21/1 183/22/1 184/23/1 182/24/1
f 182/33/59 252/149/59 226/150/59 181/36/59
f 183/40/60 181/39/60 226/151/60 243/152/60
f 183/33/61 243/149/61 220/150/61 184/36/61
s 16
f 185/21/1 186/24/1 188/23/1 187/22/1
f 186/33/62 185/36/62 232/153/62 224/154/62
f 187/40/63 218/155/63 232/156/63 185/39/63
f 187/33/64 188/36/64 251/157/64 218/154/64
s 17
f 189/21/1 190/24/1 192/23/1 191/22/1
f 190/33/62 189/36/62 230/158/62 215/159/62
f 191/40/63 248/160/63 230/161/63 189/39/63
f 191/33/64 192/36/64 223/158/64 248/159/64
s 18
f 193/21/1 194/24/1 196/23/1 195/22/1
f 194/33/62 193/36/62 242/138/62 227/137/62
f 195/40/63 221/140/63 242/139/63 193/39/63
f 195/33/64 196/36/64 235/138/64 221/137/64
s 19
f 197/21/1 198/24/1 200/23/1 199/22/1
f 198/33/65 197/36/65 217/134/65 240/137/65
f 199/40/66 233/140/66 217/135/66 197/39/66
f 199/33/67 200/36/67 250/141/67 233/137/67
s 20
f 201/21/1 202/24/1 204/23/1 203/22/1
f 202/33/68 201/36/68 236/157/68 228/162/68
f 203/40/69 249/136/69 236/163/69 201/39/69
f 203/33/70 204/36/70 216/157/70 249/133/70
s 21
f 205/21/3 207/22/3 208/23/3 206/24/3
f 211/22/4 209/21/4 210/24/4 212/23/4
f 207/25/6 211/26/6 212/27/6 208/28/6
f 212/29/2 210/30/2 206/31/2 208/32/2
f 207/32/1 205/31/1 209/30/1 211/29/1
f 206/25/5 210/26/5 209/27/5 205/28/5
s 16
f 224/163/71 251/155/71 188/40/71 186/39/71
s 11
f 238/164/72 245/165/72 166/39/72 168/40/72
s 17
f 215/156/71 223/166/71 192/40/71 190/39/71
s 12
f 222/167/72 213/168/72 170/39/72 172/40/72
s 18
f 227/168/71 235/169/71 196/40/71 194/39/71
s 13
f 234/170/72 225/144/72 174/39/72 176/40/72
s 19
f 240/168/73 250/167/73 200/40/73 198/39/73
s 14
f 247/145/74 239/144/74 178/39/74 180/40/74
s 20
f 228/171/75 216/155/75 204/40/75 202/39/75
s 15
f 220/172/76 252/173/76 182/39/76 184/40/76
s 1
usemtl MI_Plaster
f 2/1/1 12/2/1 1/3/1 3/4/1
f 2/1/1 14/5/1 13/6/1 12/2/1
f 4/7/1 3/4/1 1/3/1 10/8/1
f 4/7/1 10/8/1 5/9/1 11/10/1
s 2
f 18/11/2 8/12/2 7/13/2 6/14/2
f 18/11/2 6/14/2 19/15/2 20/16/2
f 15/17/2 9/18/2 7/13/2 8/12/2
f 15/17/2 17/19/2 16/20/2 9/18/2
