# Blender 4.0.2
# www.blender.org
mtllib Roof_Front_Brick4_Half_L.mtl
o Roof_Front_Brick4_Half_L
v -0.317246 0.623672 -0.022449
v -0.436910 0.623672 -0.022449
v -0.317246 0.623672 0.081554
v -0.436910 0.623672 0.081554
v -0.317246 0.000000 -0.022449
v -0.436911 0.000000 -0.022449
v -0.317246 0.000000 0.081554
v -0.436911 0.000000 0.081554
v -0.325725 0.753045 -0.022449
v -0.444366 0.737425 -0.022449
v -0.325725 0.753045 0.081554
v -0.444366 0.737425 0.081554
v -0.351019 0.880203 -0.022449
v -0.466606 0.849232 -0.022449
v -0.351019 0.880203 0.081554
v -0.466606 0.849232 0.081554
v -0.392694 1.002973 -0.022449
v -0.503249 0.957179 -0.022449
v -0.392694 1.002973 0.081554
v -0.503249 0.957179 0.081554
v -0.450036 1.119252 -0.022449
v -0.553669 1.059420 -0.022449
v -0.450036 1.119252 0.081554
v -0.553669 1.059420 0.081554
v -0.522066 1.227052 -0.022449
v -0.617002 1.154205 -0.022449
v -0.522066 1.227052 0.081554
v -0.617002 1.154205 0.081554
v -0.607550 1.324528 -0.022449
v -0.692165 1.239912 -0.022449
v -0.607550 1.324528 0.081554
v -0.692165 1.239912 0.081554
v -0.705026 1.410012 -0.022449
v -0.777873 1.315076 -0.022449
v -0.705026 1.410012 0.081554
v -0.777873 1.315076 0.081554
v -0.812826 1.482041 -0.022449
v -0.872658 1.378409 -0.022449
v -0.812826 1.482041 0.081554
v -0.872658 1.378409 0.081555
v -0.929105 1.539384 -0.022237
v -0.974899 1.428829 -0.022449
v -0.929105 1.539384 0.081555
v -0.974899 1.428829 0.081555
v -1.094301 1.469842 -0.022449
v -1.040419 1.576689 0.081555
v -1.094301 1.469842 0.081555
v -1.040419 1.576689 -0.022025
v 0.000000 0.019167 -0.000000
v -0.880000 0.019167 0.000000
v -0.115596 2.778279 -0.169115
v 0.115594 3.064916 -0.169116
v -0.115596 2.778279 0.094488
v 0.115594 3.064917 0.094488
v -0.115594 -0.000000 -0.169116
v 0.115596 -0.000000 -0.169116
v -0.115594 -0.000000 0.094488
v 0.115596 -0.000000 0.094488
v -1.986042 0.335474 -0.021146
v -1.921086 0.436418 -0.021146
v -1.986042 0.335474 0.082858
v -1.921086 0.436418 0.082858
v 0.129403 0.131802 0.117623
v 0.129403 -0.131802 -0.108670
v 0.129403 0.131802 -0.108670
v 0.129403 -0.131802 0.117623
v -2.084474 0.131802 -0.108670
v -2.280707 -0.131802 0.117623
v -2.084474 0.131802 0.117623
v -2.280707 -0.131802 -0.108670
v -2.277808 -0.131802 -0.108671
v -2.081576 0.131802 -0.334964
v -2.277808 -0.131802 -0.334964
v -2.081576 0.131802 -0.108671
v -0.880000 1.742847 0.000000
v 0.000000 2.932360 -0.000000
v -2.155174 0.019167 -0.000000
v -0.016061 0.131802 -0.334964
v -0.016061 -0.131802 -0.108670
v -0.000000 0.019167 -0.249700
v -0.880000 0.019167 -0.249700
v -0.000000 2.936703 -0.249700
v -0.880000 1.763386 -0.249700
v -0.016061 0.131802 -0.108670
v -0.016061 -0.131802 -0.334964
v -2.188184 0.019167 -0.249700
v 0.021705 0.436418 0.082857
v 0.021705 0.335474 -0.021147
v 0.021705 0.335474 0.082857
v 0.021705 0.436418 -0.021147
v -0.413811 2.099087 0.154590
v -0.349017 2.195621 0.154590
v -0.286191 2.013428 0.154590
v -0.221397 2.109962 0.154590
v -0.897379 1.394118 0.154590
v -0.832585 1.490651 0.154590
v -0.769759 1.308459 0.154590
v -0.704965 1.404992 0.154590
v -1.393462 0.669942 0.154590
v -1.323565 0.762847 0.154590
v -1.270640 0.577536 0.154590
v -1.200742 0.670440 0.154590
v -0.349017 2.195621 -0.153780
v -1.393463 0.669942 -0.153779
v -0.769759 1.308459 -0.153779
v -0.221397 2.109962 -0.153780
v -0.832586 1.490652 -0.153779
v -0.413811 2.099087 -0.153780
v -1.270640 0.577536 -0.153779
v -0.704965 1.404992 -0.153779
v -1.323565 0.762847 -0.153779
v -0.897379 1.394118 -0.153779
v -0.286191 2.013428 -0.153780
v -1.200742 0.670440 -0.153779
vn -0.0000 -0.0000 1.0000
vn 0.3178 0.9482 -0.0000
vn 0.3809 0.9246 -0.0000
vn 0.3810 0.9246 -0.0000
vn -1.0000 -0.0000 -0.0000
vn -0.9995 -0.0327 -0.0000
vn 0.9995 0.0327 -0.0000
vn 1.0000 -0.0000 -0.0000
vn -0.9914 -0.1305 -0.0000
vn -0.9659 -0.2588 -0.0000
vn 0.9914 0.1305 -0.0000
vn 0.9659 0.2588 -0.0000
vn 0.9239 0.3827 -0.0000
vn -0.9239 -0.3827 -0.0000
vn -0.8660 -0.5000 -0.0000
vn -0.7934 -0.6088 -0.0000
vn 0.8660 0.5000 -0.0000
vn 0.7934 0.6088 -0.0000
vn -0.7071 -0.7071 -0.0000
vn 0.7071 0.7071 -0.0000
vn -0.6088 -0.7934 -0.0000
vn -0.5000 -0.8660 -0.0000
vn 0.6088 0.7934 -0.0000
vn 0.5000 0.8660 -0.0000
vn -0.3844 -0.9232 -0.0000
vn -0.3249 -0.9458 -0.0000
vn -0.7784 0.6278 -0.0000
vn -0.0000 -1.0000 -0.0000
vn -0.0000 -0.0000 -1.0000
vn -0.8409 0.5411 -0.0000
vn -0.0000 1.0000 -0.0000
vn -0.8303 0.5573 -0.0000
vn -0.5573 -0.8303 -0.0000
vn 0.8303 -0.5573 -0.0000
vn -0.7991 0.6012 -0.0000
vn -0.6012 -0.7991 -0.0000
vn 0.7991 -0.6012 -0.0000
vn 0.5573 0.8303 -0.0000
vn 0.6012 0.7991 -0.0000
vt 0.034397 0.748991
vt 0.034397 0.691644
vt 0.104623 0.691644
vt 0.104623 0.748991
vt 0.706130 0.748991
vt 0.644601 0.748991
vt 0.644601 0.691644
vt 0.706130 0.691644
vt -0.325125 0.748991
vt -0.325125 0.691644
vt -0.293823 0.691644
vt 0.057348 0.691644
vt 0.057348 0.748991
vt -0.293823 0.748991
vt 0.033047 0.748991
vt -0.293823 0.748991
vt -0.293823 0.691644
vt 0.033048 0.691644
vt 0.121536 0.748991
vt 0.121536 0.691644
vt 0.185724 0.691644
vt 0.185724 0.748991
vt 0.100998 0.691644
vt 0.100998 0.748991
vt 0.168948 0.748991
vt 0.168948 0.691644
vt 0.236899 0.691644
vt 0.236899 0.748991
vt 0.174850 0.691644
vt 0.174850 0.748991
vt 0.245076 0.748991
vt 0.245076 0.691644
vt 0.315302 0.691644
vt 0.315302 0.748991
vt 0.249912 0.691644
vt 0.249912 0.748991
vt 0.314101 0.748991
vt 0.314101 0.691644
vt 0.378289 0.691644
vt 0.378289 0.748991
vt 0.304849 0.691644
vt 0.304849 0.748991
vt 0.385529 0.748991
vt 0.385529 0.691644
vt 0.455755 0.691644
vt 0.455755 0.748991
vt 0.372799 0.691644
vt 0.372799 0.748991
vt 0.442477 0.691644
vt 0.442477 0.748991
vt 0.440750 0.691644
vt 0.440750 0.748991
vt 0.506665 0.748991
vt 0.506665 0.691644
vt 0.570853 0.691644
vt 0.570853 0.748991
vt 0.508700 0.691644
vt 0.508700 0.748991
vt 0.525982 0.691644
vt 0.525982 0.748991
vt 0.596208 0.748991
vt 0.596208 0.691644
vt 0.666434 0.691644
vt 0.666434 0.748991
vt 0.576650 0.691644
vt 0.576650 0.748991
vt 0.635041 0.748991
vt 0.635041 0.691644
vt 0.706129 0.691644
vt 0.706129 0.748991
vt 0.736661 0.691644
vt 0.736661 0.748991
vt 0.332501 0.213019
vt 0.490323 0.213019
vt 0.490323 0.373570
vt 0.332501 0.373570
vt 1.000000 0.882737
vt 0.000000 0.882737
vt 0.000000 0.996169
vt 1.000000 0.996169
vt 1.000000 0.867594
vt 1.000000 0.757548
vt 0.000000 0.757548
vt 0.000000 0.867594
vt 0.650111 0.750551
vt 0.650111 0.691876
vt 0.000000 0.691876
vt 0.000000 0.750551
vt 1.690253 0.882737
vt 1.690254 0.996169
vt 0.500000 0.996169
vt 0.500000 0.882737
vt -0.690254 0.867594
vt 0.500000 0.867594
vt 0.500000 0.757548
vt -0.690254 0.757548
vt -0.690254 0.867594
vt -0.690254 0.757548
vt 0.491736 0.867594
vt -0.688696 0.867594
vt -0.688696 0.757548
vt 0.491736 0.757548
vt 1.319921 -0.045837
vt 0.821285 -0.045837
vt 0.821285 0.628180
vt 0.650111 0.691876
vt 0.477175 -0.045837
vt 0.477175 1.093320
vt 1.688696 0.882737
vt 1.688696 0.996169
vt 0.508264 0.996169
vt 0.508264 0.882737
vt 0.480777 1.094356
vt 0.480777 -0.037713
vt 0.139318 -0.037713
vt 0.139318 0.639083
vt -0.368287 -0.037713
vt 1.300223 0.691876
vt 1.300223 0.750551
vt 0.508264 0.882737
vt 0.619097 0.882737
vt 0.619097 0.996169
vt 0.380903 0.757548
vt 0.380903 0.867594
vt 0.619097 0.996169
vt 0.619098 0.882737
vt 0.619098 0.996169
vt 0.380902 0.757548
vt 0.380902 0.867594
vt 0.619097 0.996169
vt 0.619098 0.996169
vt 0.380902 0.757548
vt 0.380903 0.867594
vt 0.380903 0.757548
vt 0.380903 0.867594
s 1
usemtl MI_WoodTrim
f 4/1/1 3/2/1 11/3/1 12/4/1
f 46/5/2 43/6/3 41/7/4 48/8/2
f 3/2/1 4/1/1 8/9/1 7/10/1
f 8/11/5 4/12/6 2/13/6 6/14/5
f 3/15/7 7/16/8 5/17/8 1/18/7
f 10/19/9 12/20/9 16/21/10 14/22/10
f 2/13/6 4/12/6 12/20/9 10/19/9
f 3/15/7 1/18/7 9/23/11 11/24/11
f 15/25/12 13/26/12 17/27/13 19/28/13
f 11/24/11 9/23/11 13/26/12 15/25/12
f 12/4/1 11/3/1 15/29/1 16/30/1
f 20/31/1 19/32/1 23/33/1 24/34/1
f 16/30/1 15/29/1 19/32/1 20/31/1
f 14/22/10 16/21/10 20/35/14 18/36/14
f 22/37/15 24/38/15 28/39/16 26/40/16
f 18/36/14 20/35/14 24/38/15 22/37/15
f 19/28/13 17/27/13 21/41/17 23/42/17
f 28/43/1 27/44/1 31/45/1 32/46/1
f 23/42/17 21/41/17 25/47/18 27/48/18
f 24/34/1 23/33/1 27/44/1 28/43/1
f 26/40/16 28/39/16 32/49/19 30/50/19
f 27/48/18 25/47/18 29/51/20 31/52/20
f 34/53/21 36/54/21 40/55/22 38/56/22
f 30/50/19 32/49/19 36/54/21 34/53/21
f 31/52/20 29/51/20 33/57/23 35/58/23
f 32/46/1 31/45/1 35/59/1 36/60/1
f 40/61/1 39/62/1 43/63/1 44/64/1
f 35/58/23 33/57/23 37/65/24 39/66/24
f 36/60/1 35/59/1 39/62/1 40/61/1
f 42/67/25 44/68/25 47/69/26 45/70/26
f 38/56/22 40/55/22 44/68/25 42/67/25
f 39/66/24 37/65/24 41/7/4 43/6/3
f 44/64/1 43/63/1 46/71/1 47/72/1
s 2
f 51/73/27 53/74/27 54/75/27 52/76/27
f 57/74/28 55/73/28 56/76/28 58/75/28
f 53/77/1 57/78/1 58/79/1 54/80/1
f 58/81/8 56/82/8 52/83/8 54/84/8
f 53/84/5 51/83/5 55/82/5 57/81/5
f 52/77/29 56/78/29 55/79/29 51/80/29
s 3
f 59/73/30 61/74/30 62/75/30 60/76/30
f 87/85/31 90/86/31 60/87/31 62/88/31
s 4
f 68/89/28 70/90/28 64/91/28 66/92/28
f 67/93/29 65/94/29 64/95/29 70/96/29
f 67/89/31 69/90/31 63/91/31 65/92/31
f 63/94/1 69/97/1 68/98/1 66/95/1
s 5
f 85/99/29 73/100/29 72/101/29 78/102/29
s 3
f 61/88/28 59/87/28 88/106/28 89/85/28
s 5
f 72/109/31 74/110/31 84/111/31 78/112/31
f 71/100/1 79/99/1 84/102/1 74/101/1
s 3
f 60/118/29 90/86/29 88/85/29 59/119/29
s 5
f 71/109/28 73/110/28 85/111/28 79/120/28
s 3
f 61/118/1 89/106/1 87/85/1 62/119/1
s 8
f 91/73/1 93/74/1 94/75/1 92/76/1
f 92/77/32 103/121/32 108/122/32 91/80/32
f 93/84/33 91/83/33 108/123/33 113/124/33
f 93/77/34 113/121/34 106/125/34 94/80/34
s 9
f 95/73/1 97/74/1 98/75/1 96/76/1
f 96/77/32 107/126/32 112/127/32 95/80/32
f 97/84/33 95/83/33 112/128/33 105/129/33
f 97/77/34 105/126/34 110/130/34 98/80/34
s 10
f 99/73/1 101/74/1 102/75/1 100/76/1
f 100/77/35 111/126/35 104/131/35 99/80/35
f 101/84/36 99/83/36 104/132/36 109/129/36
f 101/77/37 109/126/37 114/127/37 102/80/37
s 8
f 106/133/38 103/134/38 92/83/38 94/84/38
s 9
f 110/135/38 107/128/38 96/83/38 98/84/38
s 10
f 114/129/39 111/128/39 100/83/39 102/84/39
s 6
usemtl MI_Plaster
f 77/103/1 50/104/1 75/105/1
f 75/105/1 50/104/1 49/107/1 76/108/1
s 7
f 82/113/29 80/114/29 81/115/29 83/116/29
f 83/116/29 81/115/29 86/117/29
