# Blender 4.0.2
# www.blender.org
mtllib Roof_Wooden_2x1.mtl
o Roof_Wooden_2x1
v -0.887340 -0.142223 0.880180
v -0.887340 0.122818 0.880180
v -1.128929 -0.142222 1.161265
v 0.887340 -0.142223 0.880180
v -1.128929 0.122816 1.161266
v 0.887340 0.122818 0.880180
v 1.128929 -0.142222 1.161265
v 1.128929 0.122816 1.161266
v 1.128929 0.122817 -0.000000
v -1.128929 0.122817 -0.000000
v -0.887340 0.122818 -0.000000
v 0.887340 0.122818 -0.000000
v -1.128929 -0.142222 0.000000
v -0.887340 -0.142223 0.000000
v 1.128929 -0.142222 0.000000
v 0.887340 -0.142223 0.000000
v 0.194530 -0.144017 1.452999
v 0.210429 -0.040941 1.498991
v 0.482571 -0.145306 1.452122
v 0.477115 -0.054198 1.498114
v 0.792182 -0.058119 1.518272
v 0.795572 -0.161195 1.472280
v 0.491074 -0.030463 1.519149
v 0.482571 -0.159907 1.473156
v 0.996458 -0.040248 1.489059
v 0.995867 -0.143324 1.443067
v 0.802010 -0.038960 1.489936
v 0.795572 -0.142035 1.443944
v 0.194530 -0.144017 1.452999
v 0.180422 -0.018161 1.498991
v -0.096498 -0.145306 1.452122
v -0.086264 -0.042229 1.498114
v -0.392972 -0.058119 1.518272
v -0.403402 -0.161196 1.472280
v -0.106121 -0.072662 1.519149
v -0.096498 -0.159907 1.473157
v -0.722890 -0.054198 1.498114
v -0.717435 -0.145306 1.452122
v -0.989577 -0.040941 1.498991
v -1.005476 -0.144017 1.452999
v -0.407823 -0.058119 1.518272
v -0.403402 -0.161195 1.472280
v -0.708931 -0.064409 1.519149
v -0.717435 -0.159907 1.473156
v -0.409150 1.058874 -0.041172
v 0.194530 0.926223 -0.041173
v 0.194530 0.926223 -0.041173
v 0.994605 0.919803 -0.041173
v -0.717435 0.924306 -0.041173
v -0.096498 0.924772 -0.041172
v 0.482571 0.924772 -0.041173
v -0.710258 1.053213 -0.041173
v -0.096498 0.924306 -0.041173
v 0.482571 0.924306 -0.041173
v -0.724199 1.048356 -0.041172
v -0.394298 1.058874 -0.041172
v 0.790855 1.058874 -0.041172
v -0.403402 0.922855 -0.041173
v 0.179111 1.085022 -0.041173
v 0.209120 1.062243 -0.041173
v 0.795572 0.921719 -0.041173
v -0.107448 1.044960 -0.041172
v 0.489747 1.087159 -0.041173
v -1.005476 0.926223 -0.041173
v 0.995156 1.055822 -0.041173
v -0.403402 0.922855 -0.041172
v 0.795572 0.922855 -0.041173
v -0.717435 0.924772 -0.041173
v -0.087575 1.060326 -0.041172
v 0.475807 1.048356 -0.041172
v 0.800707 1.057738 -0.041173
v -0.990886 1.062243 -0.041173
v 0.967278 -0.015760 1.141169
v 0.967278 -0.015760 0.891169
v 0.967278 -0.015760 0.641169
v 0.967278 -0.015760 0.391169
v 0.967278 -0.015760 0.141169
v 1.002412 -0.015760 0.907100
v 1.002412 -0.015760 1.125237
v 1.002412 -0.015760 0.657100
v 1.002412 -0.015760 0.875237
v 1.002412 -0.015760 0.407100
v 1.002412 -0.015760 0.625237
v 1.002412 -0.015760 0.157100
v 1.002412 -0.015760 0.375237
v 1.002412 -0.015760 0.125237
v 0.952640 0.830221 0.141169
v 0.987773 0.830221 0.157101
v 0.987773 0.839384 0.125237
v 1.002412 -0.015760 -0.000000
v 0.987773 0.915258 -0.000000
v 0.952640 0.310666 0.891169
v 0.987773 0.654938 0.407100
v 0.952640 0.488467 0.641169
v 0.987773 0.144194 1.125237
v 0.952640 0.666269 0.391169
v 0.987773 0.321996 0.875237
v 0.987773 0.299335 0.907101
v 0.987773 0.499798 0.625237
v 0.987773 0.677599 0.375237
v 0.952640 0.132864 1.141169
v 0.987773 0.477137 0.657100
v 0.946541 -0.015760 1.141169
v 0.946541 -0.015760 0.891169
v 0.946541 -0.015760 0.641169
v 0.946541 -0.015760 0.391169
v 0.946541 -0.015760 0.141169
v 0.911407 -0.015760 0.907100
v 0.911407 -0.015760 1.125237
v 0.911407 -0.015760 0.657100
v 0.911407 -0.015760 0.875237
v 0.911407 -0.015760 0.407100
v 0.911407 -0.015760 0.625237
v 0.911407 -0.015760 0.157100
v 0.911407 -0.015760 0.375237
v 0.911407 -0.015760 0.125237
v 0.931902 0.830221 0.141169
v 0.896769 0.830221 0.157101
v 0.896769 0.839384 0.125237
v 0.911407 -0.015760 -0.000000
v 0.896769 0.915258 -0.000000
v 0.931902 0.310666 0.891169
v 0.896769 0.654938 0.407100
v 0.931902 0.488467 0.641169
v 0.896769 0.144194 1.125237
v 0.931902 0.666269 0.391169
v 0.896769 0.321996 0.875237
v 0.896769 0.299335 0.907101
v 0.896769 0.499798 0.625237
v 0.896769 0.677599 0.375237
v 0.931902 0.132864 1.141169
v 0.896769 0.477137 0.657100
v -0.967278 -0.015760 1.141169
v -0.967278 -0.015760 0.891169
v -0.967278 -0.015760 0.641169
v -0.967278 -0.015760 0.391169
v -0.967278 -0.015760 0.141169
v -1.002412 -0.015760 0.907100
v -1.002412 -0.015760 1.125237
v -1.002412 -0.015760 0.657100
v -1.002412 -0.015760 0.875237
v -1.002412 -0.015760 0.407100
v -1.002412 -0.015760 0.625237
v -1.002412 -0.015760 0.157100
v -1.002412 -0.015760 0.375237
v -1.002412 -0.015760 0.125237
v -0.952640 0.830221 0.141169
v -0.987773 0.830221 0.157101
v -0.987773 0.839384 0.125237
v -1.002412 -0.015760 -0.000000
v -0.987773 0.915258 -0.000000
v -0.952640 0.310666 0.891169
v -0.987773 0.654938 0.407100
v -0.952640 0.488467 0.641169
v -0.987773 0.144194 1.125237
v -0.952640 0.666269 0.391169
v -0.987773 0.321996 0.875237
v -0.987773 0.299335 0.907101
v -0.987773 0.499798 0.625237
v -0.987773 0.677599 0.375237
v -0.952640 0.132864 1.141169
v -0.987773 0.477137 0.657100
v -0.946541 -0.015760 1.141169
v -0.946541 -0.015760 0.891169
v -0.946541 -0.015760 0.641169
v -0.946541 -0.015760 0.391169
v -0.946541 -0.015760 0.141169
v -0.911407 -0.015760 0.907100
v -0.911407 -0.015760 1.125237
v -0.911407 -0.015760 0.657100
v -0.911407 -0.015760 0.875237
v -0.911407 -0.015760 0.407100
v -0.911407 -0.015760 0.625237
v -0.911407 -0.015760 0.157100
v -0.911407 -0.015760 0.375237
v -0.911407 -0.015760 0.125237
v -0.931902 0.830221 0.141169
v -0.896769 0.830221 0.157101
v -0.896769 0.839384 0.125237
v -0.911407 -0.015760 -0.000000
v -0.896769 0.915258 -0.000000
v -0.931902 0.310666 0.891169
v -0.896769 0.654938 0.407100
v -0.931902 0.488467 0.641169
v -0.896769 0.144194 1.125237
v -0.931902 0.666269 0.391169
v -0.896769 0.321996 0.875237
v -0.896769 0.299335 0.907101
v -0.896769 0.499798 0.625237
v -0.896769 0.677599 0.375237
v -0.931902 0.132864 1.141169
v -0.896769 0.477137 0.657100
vn -1.0000 -0.0000 -0.0000
vn -0.0000 -1.0000 -0.0000
vn 1.0000 -0.0000 -0.0000
vn -0.0000 -0.0000 1.0000
vn -0.0000 1.0000 -0.0000
vn -0.0000 -0.0000 -1.0000
vn -0.0084 -0.4277 0.9039
vn 0.0423 0.8123 0.5818
vn -0.0147 -0.3675 0.9299
vn -0.0050 -0.8130 -0.5823
vn 0.0014 -0.4075 0.9132
vn -0.0078 -0.8129 -0.5823
vn 0.0140 -0.3726 0.9279
vn -0.0751 0.8106 0.5807
vn -0.0124 -0.4351 0.9003
vn 0.0051 -0.8130 -0.5823
vn 0.0060 -0.4204 0.9073
vn -0.0054 -0.8130 -0.5823
vn -0.9906 0.1110 0.0799
vn 0.9993 0.0298 0.0209
vn 1.0000 -0.0041 -0.0038
vn 0.9935 0.0924 0.0658
vn -0.9961 0.0715 0.0516
vn 0.9990 0.0374 0.0264
vn 0.0761 0.8106 0.5806
vn 0.0080 0.8129 0.5823
vn 0.0054 -0.8130 -0.5823
vn 0.0394 0.8124 0.5818
vn -0.0153 0.8129 0.5822
vn 0.9982 0.0492 0.0348
vn -0.9982 0.0481 0.0349
vn -0.9986 0.0424 0.0308
vn -0.9963 0.0701 0.0506
vn 0.9945 0.0852 0.0606
vn -0.9972 0.0608 0.0440
vn 0.4122 0.0071 0.9111
vn 0.4130 0.0071 -0.9107
vn 0.9999 0.0164 0.0050
vn 0.9998 0.0190 0.0067
vn 0.9997 0.0247 0.0088
vn 0.9993 0.0352 0.0125
vn 0.9979 0.0615 0.0219
vn 0.4154 0.0190 -0.9094
vn 0.4075 0.0387 0.9124
vn 0.4114 0.0118 0.9114
vn 0.4146 0.0122 -0.9099
vn 0.4142 0.0090 -0.9102
vn 0.4105 0.0181 0.9117
vn 0.4118 0.0088 0.9112
vn -0.4137 -0.0071 0.9104
vn -0.4130 -0.0071 -0.9107
vn -0.9999 -0.0164 -0.0050
vn -0.9998 -0.0190 -0.0067
vn -0.9997 -0.0247 -0.0088
vn -0.9993 -0.0352 -0.0125
vn -0.9979 -0.0615 -0.0219
vn -0.4104 -0.0187 -0.9117
vn -0.4180 -0.0397 0.9076
vn -0.4145 -0.0119 0.9100
vn -0.4113 -0.0121 -0.9114
vn -0.4118 -0.0089 -0.9112
vn -0.4154 -0.0183 0.9095
vn -0.4141 -0.0088 0.9102
vn -0.4122 0.0071 0.9111
vn -0.4130 0.0071 -0.9107
vn -0.9999 0.0164 0.0050
vn -0.9998 0.0190 0.0067
vn -0.9997 0.0247 0.0088
vn -0.9993 0.0352 0.0125
vn -0.9979 0.0615 0.0219
vn -0.4154 0.0190 -0.9094
vn -0.4075 0.0387 0.9124
vn -0.4114 0.0118 0.9114
vn -0.4146 0.0122 -0.9099
vn -0.4142 0.0090 -0.9102
vn -0.4105 0.0181 0.9117
vn -0.4118 0.0088 0.9112
vn 0.4137 -0.0071 0.9104
vn 0.4130 -0.0071 -0.9107
vn 0.9999 -0.0164 -0.0050
vn 0.9998 -0.0190 -0.0067
vn 0.9997 -0.0247 -0.0088
vn 0.9993 -0.0352 -0.0125
vn 0.9979 -0.0615 -0.0219
vn 0.4104 -0.0187 -0.9117
vn 0.4180 -0.0397 0.9076
vn 0.4145 -0.0119 0.9100
vn 0.4113 -0.0121 -0.9114
vn 0.4118 -0.0089 -0.9112
vn 0.4154 -0.0183 0.9095
vn 0.4141 -0.0088 0.9102
vt 1.000000 0.882737
vt 1.000000 0.996169
vt 0.408748 0.996169
vt 0.408748 0.882737
vt 0.000000 0.867594
vt 0.591252 0.867594
vt 0.539154 0.757548
vt 0.000000 0.757548
vt 0.460846 0.996169
vt 0.460846 0.882737
vt 0.408748 0.996169
vt 0.539154 0.757548
vt 0.460845 0.882737
vt 0.460846 0.996169
vt 0.000000 0.882737
vt 0.000000 0.996169
vt 1.000000 0.867594
vt 1.000000 0.757548
vt 0.591252 0.867594
vt 0.539155 0.757548
vt 0.591252 0.867594
vt 0.087826 0.212019
vt 0.158826 0.212019
vt 0.158826 0.378476
vt 0.087826 0.378476
vt 0.269058 0.867594
vt 0.268641 0.757548
vt 1.000000 0.996838
vt 0.280909 0.996838
vt 0.281325 0.883658
vt 1.000000 0.883658
vt 0.554288 0.867594
vt -0.150931 0.867594
vt -0.150515 0.757548
vt 0.554288 0.757548
vt 0.558289 0.867594
vt 0.558289 0.757548
vt -0.173069 0.757548
vt -0.172653 0.867594
vt 0.281325 0.883658
vt 0.665642 0.872568
vt 1.384733 0.872568
vt 1.384316 0.759388
vt 0.665642 0.759388
vt 0.290481 0.757548
vt 0.290898 0.867594
vt 0.731359 0.694275
vt 0.709519 0.747131
vt 0.000000 0.747131
vt 0.000000 0.694275
vt 0.718675 0.694275
vt 0.740514 0.747131
vt 0.259091 0.694275
vt 0.280931 0.747131
vt -0.445712 0.747131
vt -0.445712 0.694275
vt 0.267808 0.747131
vt 0.289648 0.694275
vt -0.441711 0.694275
vt -0.441711 0.747131
vt 0.740514 0.747131
vt 0.718675 0.694275
vt -0.221905 0.694275
vt -0.243744 0.747131
vt 0.496770 0.747131
vt 0.496770 0.694275
vt 0.259486 0.883658
vt 0.259069 0.996838
vt -0.172354 0.757548
vt -0.172771 0.867594
vt -0.150813 0.867594
vt -0.151229 0.757548
vt 0.259069 0.996838
vt 0.259486 0.883658
vt 1.406156 0.759388
vt 1.406573 0.872568
vt 0.709102 0.694275
vt 0.730942 0.747131
vt 0.740931 0.694275
vt 0.719091 0.747131
vt 0.281347 0.694275
vt 0.259507 0.747131
vt 0.289232 0.747131
vt 0.267392 0.694275
vt 0.740931 0.694275
vt -0.244161 0.694275
vt -0.222321 0.747131
vt 0.086702 0.378897
vt 0.086702 0.210016
vt 0.156001 0.210016
vt 0.156001 0.378897
vt 0.002535 0.378897
vt 0.002535 0.210016
vt 0.074296 0.210016
vt 0.074296 0.378897
vt 0.156001 0.378897
vt 0.086702 0.378897
vt 0.002535 0.378897
vt 0.002535 0.210016
vt 0.074296 0.210016
vt 0.584454 0.995896
vt 0.999965 0.995896
vt 0.999965 0.988190
vt 0.584454 0.988190
vt -0.084454 0.865133
vt -0.499965 0.865133
vt -0.499965 0.872802
vt -0.084454 0.872802
vt 0.999965 0.930161
vt 0.584454 0.930161
vt -0.084454 0.863428
vt -0.159415 0.760135
vt -0.499965 0.760135
vt 0.333756 0.988190
vt 0.004338 0.988190
vt 0.080536 0.882682
vt 0.333756 0.882682
vt 0.499965 0.760135
vt 0.257874 0.760135
vt 0.334073 0.865133
vt 0.499965 0.865133
vt -0.499965 0.882682
vt -0.345203 0.882682
vt -0.421402 0.988190
vt -0.499965 0.988190
vt -0.307050 0.874557
vt -0.499965 0.874976
vt -0.426967 0.995896
vt -0.499965 0.995896
vt 0.086101 0.874976
vt 0.333756 0.874976
vt 0.252309 0.752466
vt 0.499965 0.752466
vt -0.001228 0.995896
vt 0.333756 0.995896
vt 0.307051 0.873221
vt 0.499965 0.872802
vt -0.164980 0.752466
vt -0.499965 0.752466
vt 0.000031 0.742605
vt 0.000031 0.695414
vt 0.999969 0.695414
vt 0.999969 0.742605
s 0
usemtl MI_WoodTrim
f 3/1/1 5/2/1 10/3/1 13/4/1
f 3/5/2 13/6/2 14/7/2 1/8/2
f 2/1/3 1/2/3 14/9/3 11/10/3
f 7/1/3 15/4/3 9/11/3 8/2/3
f 7/5/2 4/8/2 16/12/2 15/6/2
f 6/1/1 12/13/1 16/14/1 4/2/1
f 3/1/4 7/15/4 8/16/4 5/2/4
f 8/17/5 6/18/5 2/8/5 5/5/5
f 3/5/2 1/8/2 4/18/2 7/17/2
f 2/1/6 6/15/6 4/16/6 1/2/6
f 10/19/5 5/5/5 2/8/5 11/20/5
f 9/21/5 12/20/5 6/8/5 8/5/5
f 48/88/6 61/89/6 71/90/6 65/91/6
f 67/92/6 51/93/6 63/94/6 57/95/6
f 47/96/6 60/97/6 70/89/6 54/90/6
f 46/92/6 53/93/6 69/94/6 59/95/6
f 66/89/6 56/90/6 62/91/6 50/88/6
f 58/98/6 68/99/6 52/100/6 45/95/6
f 49/88/6 64/89/6 72/90/6 55/91/6
usemtl MI_WoodTrim_Wear
f 19/22/7 20/23/7 18/24/7 17/25/7
f 20/17/8 70/26/8 60/27/8 18/18/8
f 23/22/9 24/23/9 22/24/9 21/25/9
f 24/28/10 51/29/10 67/30/10 22/31/10
f 27/22/11 28/23/11 26/24/11 25/25/11
f 28/32/12 61/33/12 48/34/12 26/35/12
f 31/22/13 29/25/13 30/24/13 32/23/13
f 32/36/14 30/37/14 59/38/14 69/39/14
f 35/22/15 33/25/15 34/24/15 36/23/15
f 36/28/16 34/31/16 66/40/16 50/29/16
f 38/22/7 37/23/7 39/24/7 40/25/7
f 37/17/8 55/26/8 72/27/8 39/18/8
f 43/22/17 44/23/17 42/24/17 41/25/17
f 44/41/10 68/42/10 58/43/10 42/44/10
f 64/45/18 49/46/18 38/17/18 40/18/18
f 60/47/19 47/48/19 17/49/19 18/50/19
f 67/51/20 57/52/20 21/49/20 22/50/20
f 48/53/21 65/54/21 25/55/21 26/56/21
f 46/57/22 59/58/22 30/59/22 29/60/22
f 56/61/23 66/62/23 34/50/23 33/49/23
f 58/63/24 45/64/24 41/65/24 42/66/24
f 47/45/18 54/46/18 19/17/18 17/18/18
f 57/67/25 63/68/25 23/28/25 21/31/25
f 65/69/26 71/70/26 27/32/26 25/35/26
f 53/71/27 46/72/27 29/37/27 31/36/27
f 62/73/28 56/74/28 33/31/28 35/28/28
f 72/47/19 64/48/19 40/49/19 39/50/19
f 45/75/29 52/76/29 43/41/29 41/44/29
f 49/77/30 55/78/30 37/49/30 38/50/30
f 54/77/30 70/78/30 20/49/30 19/50/30
f 63/79/31 51/80/31 24/49/31 23/50/31
f 71/81/32 61/82/32 28/55/32 27/56/32
f 69/83/33 53/84/33 31/59/33 32/60/33
f 50/80/34 62/85/34 35/50/34 36/49/34
f 52/86/35 68/87/35 44/65/35 43/66/35
f 87/101/36 77/102/36 86/103/36 89/104/36
f 88/105/37 84/106/37 77/107/37 87/108/37
f 90/109/38 91/110/38 89/104/38 86/103/38
f 84/106/39 88/111/39 100/112/39 85/113/39
f 82/114/40 93/115/40 99/116/40 83/117/40
f 80/118/41 102/119/41 97/120/41 81/121/41
f 78/122/42 98/123/42 95/124/42 79/125/42
f 92/126/43 98/123/43 78/122/43 74/127/43
f 95/124/44 101/128/44 73/129/44 79/125/44
f 99/116/45 94/130/45 75/131/45 83/117/45
f 94/132/46 102/119/46 80/118/46 75/133/46
f 96/134/47 93/115/47 82/114/47 76/135/47
f 97/120/48 92/136/48 74/137/48 81/121/48
f 100/112/49 96/138/49 76/139/49 85/113/49
f 117/101/50 119/104/50 116/103/50 107/102/50
f 118/105/51 117/108/51 107/107/51 114/106/51
f 120/109/52 116/103/52 119/104/52 121/110/52
f 114/106/53 115/113/53 130/112/53 118/111/53
f 112/114/54 113/117/54 129/116/54 123/115/54
f 110/118/55 111/121/55 127/120/55 132/119/55
f 108/122/56 109/125/56 125/124/56 128/123/56
f 122/126/57 104/127/57 108/122/57 128/123/57
f 125/124/58 109/125/58 103/129/58 131/128/58
f 129/116/59 113/117/59 105/131/59 124/130/59
f 124/132/60 105/133/60 110/118/60 132/119/60
f 126/134/61 106/135/61 112/114/61 123/115/61
f 127/120/62 111/121/62 104/137/62 122/136/62
f 130/112/63 115/113/63 106/139/63 126/138/63
f 90/140/6 120/141/6 121/142/6 91/143/6
f 147/101/64 149/104/64 146/103/64 137/102/64
f 148/105/65 147/108/65 137/107/65 144/106/65
f 150/109/66 146/103/66 149/104/66 151/110/66
f 144/106/67 145/113/67 160/112/67 148/111/67
f 142/114/68 143/117/68 159/116/68 153/115/68
f 140/118/69 141/121/69 157/120/69 162/119/69
f 138/122/70 139/125/70 155/124/70 158/123/70
f 152/126/71 134/127/71 138/122/71 158/123/71
f 155/124/72 139/125/72 133/129/72 161/128/72
f 159/116/73 143/117/73 135/131/73 154/130/73
f 154/132/74 135/133/74 140/118/74 162/119/74
f 156/134/75 136/135/75 142/114/75 153/115/75
f 157/120/76 141/121/76 134/137/76 152/136/76
f 160/112/77 145/113/77 136/139/77 156/138/77
f 177/101/78 167/102/78 176/103/78 179/104/78
f 178/105/79 174/106/79 167/107/79 177/108/79
f 180/109/80 181/110/80 179/104/80 176/103/80
f 174/106/81 178/111/81 190/112/81 175/113/81
f 172/114/82 183/115/82 189/116/82 173/117/82
f 170/118/83 192/119/83 187/120/83 171/121/83
f 168/122/84 188/123/84 185/124/84 169/125/84
f 182/126/85 188/123/85 168/122/85 164/127/85
f 185/124/86 191/128/86 163/129/86 169/125/86
f 189/116/87 184/130/87 165/131/87 173/117/87
f 184/132/88 192/119/88 170/118/88 165/133/88
f 186/134/89 183/115/89 172/114/89 166/135/89
f 187/120/90 182/136/90 164/137/90 171/121/90
f 190/112/91 186/138/91 166/139/91 175/113/91
f 150/140/6 151/143/6 181/142/6 180/141/6
