# Blender 4.0.2
# www.blender.org
mtllib Roof_Wooden_2x1_Middle.mtl
o Roof_Wooden_2x1_Middle
v 1.000000 0.924306 -1.000000
v 1.000000 1.048356 -1.000000
v -1.000000 0.926223 -1.000000
v -1.000000 1.062243 -1.000000
v -0.600000 0.925903 -1.000000
v -0.200000 0.925584 -1.000000
v 0.200000 0.925265 -1.000000
v 0.600000 0.924626 -1.000000
v -0.600000 1.059929 -1.000000
v -0.200000 1.057614 -1.000000
v 0.200000 1.055300 -1.000000
v 0.600000 1.050671 -1.000000
v 1.000000 0.924306 1.000000
v 1.000000 1.048356 1.000000
v -1.000000 0.926223 1.000000
v -1.000000 1.062243 1.000000
v -0.600000 0.925903 1.000000
v -0.200000 0.925584 1.000000
v 0.200000 0.925265 1.000000
v 0.600000 0.924626 1.000000
v -0.600000 1.059929 1.000000
v -0.200000 1.057614 1.000000
v 0.200000 1.055300 1.000000
v 0.600000 1.050671 1.000000
vn 0.0058 1.0000 -0.0000
vn -1.0000 -0.0000 -0.0000
vn -0.0008 -1.0000 -0.0000
vn -0.0016 -1.0000 -0.0000
vn 0.0116 0.9999 -0.0000
vn 1.0000 -0.0000 -0.0000
vt 0.000000 0.875412
vt 0.000000 0.750210
vt 1.000000 0.750210
vt 1.000000 0.875412
vt -0.290481 0.747131
vt -0.268641 0.694275
vt 0.731359 0.694275
vt 0.709519 0.747131
vt 0.500000 0.750210
vt 0.500000 0.875412
vt 1.500000 0.875412
vt 1.500000 0.750210
vt -0.000000 0.872865
vt -0.000000 0.998066
vt 1.000000 0.998066
vt 1.000000 0.872865
vt 0.500000 0.750210
vt 1.500000 0.750210
vt 1.000000 0.750210
vt 0.000000 0.750210
vt -0.269058 0.747131
vt -0.290898 0.694275
vt 0.709102 0.694275
vt 0.730942 0.747131
s 0
usemtl MI_WoodTrim_Wear
f 16/1/1 21/2/1 9/3/1 4/4/1
f 15/5/2 16/6/2 4/7/2 3/8/2
f 17/2/3 15/1/3 3/4/3 5/3/3
f 18/9/3 17/10/3 5/11/3 6/12/3
f 19/13/3 18/14/3 6/15/3 7/16/3
f 20/17/4 19/10/4 7/11/4 8/18/4
f 24/4/1 14/19/1 2/20/1 12/1/1
f 23/10/5 24/17/5 12/18/5 11/11/5
f 22/14/1 23/13/1 11/16/1 10/15/1
f 21/10/1 22/9/1 10/12/1 9/11/1
f 14/21/6 13/22/6 1/23/6 2/24/6
f 13/20/3 20/1/3 8/4/3 1/19/3
