# Blender 4.0.2
# www.blender.org
mtllib Roof_Modular_RoundTiles.mtl
o Roof_Modular_RoundTiles
v 0.330753 0.218234 -0.208650
v 0.330753 0.035209 0.995767
v -0.332467 0.218234 -0.208649
v -0.332467 0.035209 0.995767
v -0.284719 0.330606 -0.189604
v -0.284718 0.147581 1.014813
v -0.211151 0.425871 -0.173457
v -0.211151 0.242845 1.030959
v -0.114667 0.489525 -0.162668
v -0.114667 0.306499 1.041748
v -0.000857 0.511877 -0.158880
v -0.000857 0.328852 1.045537
v 0.112953 0.489525 -0.162668
v 0.112953 0.306499 1.041748
v 0.209437 0.425871 -0.173457
v 0.209437 0.242845 1.030959
v 0.283005 0.330606 -0.189604
v 0.283005 0.147581 1.014813
v 0.261194 0.189420 -0.213534
v 0.261194 0.006394 0.990883
v -0.262908 0.189420 -0.213533
v -0.262908 0.006394 0.990883
v -0.219420 0.293319 -0.195924
v -0.219420 0.110293 1.008493
v -0.159501 0.371589 -0.182657
v -0.159501 0.188563 1.021759
v -0.085800 0.420714 -0.174331
v -0.085800 0.237689 1.030085
v -0.000857 0.437397 -0.171504
v -0.000857 0.254372 1.032913
v 0.084086 0.420714 -0.174331
v 0.084086 0.237689 1.030085
v 0.157787 0.371589 -0.182657
v 0.157788 0.188563 1.021759
v 0.217706 0.293319 -0.195924
v 0.217706 0.110293 1.008493
v 0.330753 0.218234 -1.201238
v 0.330753 0.035209 0.003178
v -0.332467 0.218234 -1.201238
v -0.332467 0.035209 0.003179
v -0.284719 0.330606 -1.182193
v -0.284718 0.147581 0.022224
v -0.211151 0.425871 -1.166046
v -0.211151 0.242845 0.038370
v -0.114667 0.489525 -1.155257
v -0.114667 0.306499 0.049159
v -0.000857 0.511877 -1.151469
v -0.000857 0.328852 0.052948
v 0.112953 0.489525 -1.155257
v 0.112953 0.306499 0.049159
v 0.209437 0.425871 -1.166046
v 0.209437 0.242845 0.038370
v 0.283005 0.330606 -1.182193
v 0.283005 0.147581 0.022224
v 0.261194 0.189420 -1.206122
v 0.261194 0.006394 -0.001706
v -0.262908 0.189420 -1.206122
v -0.262908 0.006394 -0.001705
v -0.219420 0.293319 -1.188513
v -0.219420 0.110293 0.015904
v -0.159501 0.371589 -1.175246
v -0.159501 0.188563 0.029170
v -0.085800 0.420714 -1.166920
v -0.085800 0.237689 0.037496
v -0.000857 0.437397 -1.164093
v -0.000857 0.254372 0.040324
v 0.084086 0.420714 -1.166920
v 0.084086 0.237689 0.037496
v 0.157787 0.371589 -1.175246
v 0.157788 0.188563 0.029170
v 0.217706 0.293319 -1.188513
v 0.217706 0.110293 0.015904
vn -0.9223 0.3821 0.0581
vn -0.8653 0.4955 0.0753
vn -0.8665 0.4935 0.0750
vn -0.6843 0.7210 0.1096
vn -0.6860 0.7193 0.1093
vn -0.3823 0.9135 0.1388
vn -0.3838 0.9129 0.1387
vn -0.0000 0.9886 0.1502
vn 0.3823 0.9135 0.1388
vn 0.3838 0.9129 0.1387
vn 0.6843 0.7210 0.1096
vn 0.6860 0.7193 0.1093
vn 0.8653 0.4955 0.0753
vn 0.8665 0.4935 0.0750
vn 0.9223 0.3821 0.0581
vn 0.9244 -0.3772 -0.0573
vn 0.8689 -0.4894 -0.0744
vn 0.8677 -0.4914 -0.0747
vn 0.6893 -0.7163 -0.1088
vn 0.6875 -0.7179 -0.1091
vn 0.3860 -0.9120 -0.1386
vn 0.3845 -0.9126 -0.1387
vn -0.0000 -0.9887 -0.1502
vn -0.3860 -0.9120 -0.1386
vn -0.3845 -0.9126 -0.1387
vn -0.6893 -0.7163 -0.1088
vn -0.6875 -0.7179 -0.1091
vn -0.8689 -0.4894 -0.0744
vn -0.8677 -0.4914 -0.0747
vn -0.9244 -0.3772 -0.0573
vn 0.3873 -0.9115 -0.1385
vn -0.3873 -0.9115 -0.1385
vn -0.0000 0.1671 -0.9859
vn -0.0000 -0.1671 0.9859
vn -0.0000 0.9887 0.1502
vt 0.827870 0.159276
vt 0.827870 0.341461
vt 0.807685 0.349359
vt 0.807685 0.167174
vt 0.787499 0.354730
vt 0.787499 0.172545
vt 0.767313 0.359613
vt 0.767313 0.177428
vt 0.747128 0.362054
vt 0.747128 0.179870
vt 0.726942 0.359613
vt 0.726942 0.177428
vt 0.706757 0.354730
vt 0.706757 0.172545
vt 0.686571 0.348584
vt 0.686571 0.166399
vt 0.666385 0.341461
vt 0.666385 0.159276
vt 0.668231 0.159276
vt 0.668231 0.341461
vt 0.667001 0.341461
vt 0.667001 0.159276
vt 0.823697 0.341461
vt 0.823697 0.159276
vt 0.829583 0.159276
vt 0.829583 0.341461
vt 0.820993 0.123630
vt 0.802526 0.130855
vt 0.802526 0.122413
vt 0.820993 0.115188
vt 0.807685 0.351684
vt 0.827870 0.343786
vt 0.827870 0.331385
vt 0.807685 0.339283
vt 0.784060 0.135768
vt 0.784060 0.127327
vt 0.787499 0.357055
vt 0.787499 0.344654
vt 0.765594 0.140235
vt 0.765594 0.131793
vt 0.767313 0.361938
vt 0.767313 0.349537
vt 0.747128 0.183921
vt 0.747128 0.175479
vt 0.747128 0.364380
vt 0.747128 0.351978
vt 0.728662 0.140235
vt 0.728662 0.131793
vt 0.726942 0.361938
vt 0.726942 0.349537
vt 0.710195 0.135768
vt 0.710195 0.127327
vt 0.706757 0.357055
vt 0.706757 0.344654
vt 0.691729 0.130146
vt 0.691729 0.121704
vt 0.686571 0.350909
vt 0.686571 0.338508
vt 0.673263 0.123630
vt 0.673263 0.115188
vt 0.666385 0.343786
vt 0.666385 0.331385
s 1
usemtl MI_RoundTiles
f 3/1/1 4/2/1 6/3/2 5/4/3
f 5/4/3 6/3/2 8/5/4 7/6/5
f 7/6/5 8/5/4 10/7/6 9/8/7
f 9/8/7 10/7/6 12/9/8 11/10/8
f 11/10/8 12/9/8 14/11/9 13/12/10
f 13/12/10 14/11/9 16/13/11 15/14/12
f 15/14/12 16/13/11 18/15/13 17/16/14
f 17/16/14 18/15/13 2/17/15 1/18/15
f 21/1/16 23/4/17 24/3/18 22/2/16
f 23/4/17 25/6/19 26/5/20 24/3/18
f 25/6/19 27/8/21 28/7/22 26/5/20
f 27/8/21 29/10/23 30/9/23 28/7/22
f 29/10/23 31/12/24 32/11/25 30/9/23
f 31/12/24 33/14/26 34/13/27 32/11/25
f 33/14/26 35/16/28 36/15/29 34/13/27
f 35/16/28 19/18/30 20/17/30 36/15/29
f 1/19/31 2/20/31 20/21/31 19/22/31
f 4/23/32 3/24/32 21/25/32 22/26/32
f 3/27/33 5/28/33 23/29/33 21/30/33
f 6/31/34 4/32/34 22/33/34 24/34/34
f 5/28/33 7/35/33 25/36/33 23/29/33
f 8/37/34 6/31/34 24/34/34 26/38/34
f 7/35/33 9/39/33 27/40/33 25/36/33
f 10/41/34 8/37/34 26/38/34 28/42/34
f 9/39/33 11/43/33 29/44/33 27/40/33
f 12/45/34 10/41/34 28/42/34 30/46/34
f 11/43/33 13/47/33 31/48/33 29/44/33
f 14/49/34 12/45/34 30/46/34 32/50/34
f 13/47/33 15/51/33 33/52/33 31/48/33
f 16/53/34 14/49/34 32/50/34 34/54/34
f 15/51/33 17/55/33 35/56/33 33/52/33
f 18/57/34 16/53/34 34/54/34 36/58/34
f 17/55/33 1/59/33 19/60/33 35/56/33
f 2/61/34 18/57/34 36/58/34 20/62/34
s 2
f 39/1/1 40/2/1 42/3/2 41/4/3
f 41/4/3 42/3/2 44/5/4 43/6/5
f 43/6/5 44/5/4 46/7/6 45/8/7
f 45/8/7 46/7/6 48/9/8 47/10/35
f 47/10/35 48/9/8 50/11/9 49/12/10
f 49/12/10 50/11/9 52/13/11 51/14/12
f 51/14/12 52/13/11 54/15/13 53/16/14
f 53/16/14 54/15/13 38/17/15 37/18/15
f 57/1/16 59/4/17 60/3/18 58/2/16
f 59/4/17 61/6/19 62/5/20 60/3/18
f 61/6/19 63/8/21 64/7/22 62/5/20
f 63/8/21 65/10/23 66/9/23 64/7/22
f 65/10/23 67/12/24 68/11/25 66/9/23
f 67/12/24 69/14/26 70/13/27 68/11/25
f 69/14/26 71/16/28 72/15/29 70/13/27
f 71/16/28 55/18/30 56/17/30 72/15/29
f 37/19/31 38/20/31 56/21/31 55/22/31
f 40/23/32 39/24/32 57/25/32 58/26/32
f 39/27/33 41/28/33 59/29/33 57/30/33
f 42/31/34 40/32/34 58/33/34 60/34/34
f 41/28/33 43/35/33 61/36/33 59/29/33
f 44/37/34 42/31/34 60/34/34 62/38/34
f 43/35/33 45/39/33 63/40/33 61/36/33
f 46/41/34 44/37/34 62/38/34 64/42/34
f 45/39/33 47/43/33 65/44/33 63/40/33
f 48/45/34 46/41/34 64/42/34 66/46/34
f 47/43/33 49/47/33 67/48/33 65/44/33
f 50/49/34 48/45/34 66/46/34 68/50/34
f 49/47/33 51/51/33 69/52/33 67/48/33
f 52/53/34 50/49/34 68/50/34 70/54/34
f 51/51/33 53/55/33 71/56/33 69/52/33
f 54/57/34 52/53/34 70/54/34 72/58/34
f 53/55/33 37/59/33 55/60/33 71/56/33
f 38/61/34 54/57/34 72/58/34 56/62/34
