# Blender 4.0.2
# www.blender.org
mtllib Roof_Front_Brick8_Half_R.mtl
o Roof_Front_Brick8_Half_R
v -0.000000 0.019167 -0.000000
v -0.000000 5.314066 -0.000000
v 1.069170 3.761609 0.000000
v 4.162770 0.019167 -0.000000
v 1.069170 0.019167 0.000000
v 4.298806 -0.131802 -0.108670
v 4.298806 -0.131802 0.117623
v 4.073699 0.131802 -0.108670
v 4.073699 0.131802 0.117623
v 1.010297 3.858539 -0.169114
v 1.241487 3.601693 -0.169115
v 1.010297 3.858539 0.094489
v 1.241487 3.601693 0.094489
v 1.010298 -0.000000 -0.169115
v 1.241489 -0.000000 -0.169115
v 1.010298 -0.000000 0.094489
v 1.241489 -0.000000 0.094489
v 1.237385 3.498064 0.058320
v 1.237385 3.498064 -0.205284
v 1.079201 3.729254 0.058320
v 1.079202 3.729254 -0.205284
v 1.074351 2.544836 -0.021146
v 1.074351 2.645780 -0.021146
v 1.074351 2.544836 0.082858
v 1.074351 2.645780 0.082858
v 0.050472 5.269639 -0.055221
v -0.050472 5.269639 -0.055221
v 0.050472 5.269639 0.048783
v -0.050472 5.269639 0.048783
v 0.050472 3.597639 -0.055221
v -0.050472 3.597639 -0.055221
v 0.050472 3.597639 0.048783
v -0.050472 3.597639 0.048783
v 4.073245 0.131802 -0.108671
v 4.073245 0.131802 -0.334964
v 4.298351 -0.131802 -0.108671
v 4.298351 -0.131802 -0.334964
v 0.000000 0.019167 -0.249701
v 0.000000 5.314066 -0.249701
v 1.069170 3.761609 -0.249701
v 4.162770 0.019167 -0.249701
v 1.069170 0.019167 -0.249701
v 0.000679 0.131802 -0.334964
v 0.000679 -0.131802 -0.108670
v 0.000680 0.131802 -0.108670
v 0.000680 -0.131802 -0.334964
v 1.103944 0.705736 -0.021146
v 1.103944 0.806680 -0.021146
v 1.103944 0.705736 0.082858
v 1.103944 0.806680 0.082858
v 3.596448 0.705736 -0.021145
v 3.523066 0.806680 -0.021145
v 3.596448 0.705736 0.082859
v 3.523066 0.806680 0.082859
v 1.377773 0.971030 -0.048753
v 1.557951 0.971030 -0.048753
v 1.377773 0.971030 0.107844
v 1.557951 0.971030 0.107844
v 1.377774 0.031971 -0.048753
v 1.557951 0.031971 -0.048753
v 1.377774 0.031971 0.107844
v 1.557952 0.031971 0.107844
v 1.390541 1.165824 -0.048753
v 1.569177 1.142307 -0.048753
v 1.390541 1.165824 0.107844
v 1.569177 1.142307 0.107844
v 1.428625 1.357286 -0.048753
v 1.602663 1.310653 -0.048753
v 1.428625 1.357286 0.107844
v 1.602663 1.310653 0.107844
v 1.491374 1.542139 -0.048753
v 1.657837 1.473188 -0.048753
v 1.491374 1.542139 0.107844
v 1.657837 1.473188 0.107844
v 1.577715 1.717220 -0.048753
v 1.733753 1.627131 -0.048753
v 1.577715 1.717220 0.107844
v 1.733753 1.627131 0.107845
v 1.686169 1.879533 -0.048753
v 1.829114 1.769848 -0.048753
v 1.686169 1.879533 0.107845
v 1.829114 1.769848 0.107845
v 1.814882 2.026302 -0.048753
v 1.942286 1.898897 -0.048753
v 1.814882 2.026302 0.107845
v 1.942286 1.898897 0.107845
v 1.961651 2.155015 -0.048753
v 2.071336 2.012070 -0.048753
v 1.961651 2.155015 0.107845
v 2.071336 2.012070 0.107845
v 2.123964 2.263469 -0.048753
v 2.214052 2.107431 -0.048752
v 2.123964 2.263469 0.107845
v 2.214052 2.107431 0.107845
v 2.275773 2.337289 -0.048434
v 2.379594 2.190030 -0.048752
v 2.275772 2.337289 0.107845
v 2.379594 2.190030 0.107845
v 0.000679 0.131802 0.117623
v 0.000679 -0.131802 -0.108670
v 0.000679 0.131802 -0.108670
v 0.000679 -0.131802 0.117623
v 0.008113 3.729253 -0.205284
v 0.009596 3.498063 -0.205284
v 0.008113 3.729253 0.058320
v 0.009596 3.498063 0.058320
v -0.021705 2.645780 0.082857
v -0.021705 2.544836 -0.021147
v -0.021705 2.544836 0.082857
v -0.021705 2.645780 -0.021147
v 1.410389 3.172832 0.154590
v 1.339777 3.265195 0.154590
v 1.288282 3.079481 0.154590
v 1.217670 3.171844 0.154590
v 1.937374 2.483509 0.154590
v 1.866763 2.575872 0.154590
v 1.815268 2.390158 0.154590
v 1.744656 2.482522 0.154590
v 2.464360 1.794186 0.154590
v 2.393749 1.886549 0.154590
v 2.342254 1.700835 0.154590
v 2.271642 1.793199 0.154590
v 3.003115 1.117357 0.154590
v 2.927633 1.205785 0.154590
v 2.886212 1.017567 0.154590
v 2.810730 1.105995 0.154590
v 3.580143 0.478822 0.154589
v 3.497914 0.561014 0.154589
v 3.471483 0.370114 0.154589
v 3.389255 0.452306 0.154589
v 1.866763 2.575872 -0.153780
v 3.003115 1.117357 -0.153780
v 2.342253 1.700835 -0.153779
v 3.389254 0.452306 -0.153779
v 1.744656 2.482522 -0.153780
v 2.393749 1.886549 -0.153779
v 3.580142 0.478823 -0.153780
v 1.937374 2.483509 -0.153780
v 2.886211 1.017567 -0.153780
v 2.271642 1.793198 -0.153780
v 1.288281 3.079481 -0.153780
v 1.217670 3.171844 -0.153780
v 2.927633 1.205785 -0.153780
v 2.464360 1.794186 -0.153780
v 3.471483 0.370114 -0.153779
v 1.815267 2.390159 -0.153780
v 1.339777 3.265195 -0.153780
v 1.410388 3.172832 -0.153780
v 2.810729 1.105995 -0.153780
v 3.497914 0.561014 -0.153779
v 0.398781 4.572255 0.154590
v 0.330937 4.666670 0.154590
v 0.273962 4.482563 0.154590
v 0.206118 4.576977 0.154590
v 0.905115 3.867623 0.154590
v 0.837271 3.962037 0.154590
v 0.780297 3.777930 0.154590
v 0.712452 3.872345 0.154590
v 0.330936 4.666670 -0.153780
v 0.780296 3.777931 -0.153779
v 0.206117 4.576977 -0.153780
v 0.837271 3.962038 -0.153779
v 0.398781 4.572255 -0.153780
v 0.712452 3.872345 -0.153779
v 0.905115 3.867623 -0.153779
v 0.273962 4.482563 -0.153780
vn -0.0000 -0.0000 1.0000
vn 0.7605 0.6494 -0.0000
vn -0.0000 -1.0000 -0.0000
vn 1.0000 -0.0000 -0.0000
vn -1.0000 -0.0000 -0.0000
vn -0.0000 -0.0000 -1.0000
vn -0.0000 1.0000 -0.0000
vn 0.9995 -0.0327 -0.0000
vn -0.9995 0.0327 -0.0000
vn 0.9914 -0.1305 -0.0000
vn 0.9659 -0.2588 -0.0000
vn -0.9914 0.1305 -0.0000
vn -0.9659 0.2588 -0.0000
vn -0.9239 0.3827 -0.0000
vn 0.9239 -0.3827 -0.0000
vn 0.8660 -0.5000 -0.0000
vn 0.7934 -0.6088 -0.0000
vn -0.8660 0.5000 -0.0000
vn -0.7934 0.6088 -0.0000
vn 0.7071 -0.7071 -0.0000
vn -0.7071 0.7071 -0.0000
vn 0.6088 -0.7934 -0.0000
vn 0.5020 -0.8649 -0.0000
vn -0.6088 0.7934 -0.0000
vn -0.4976 0.8674 -0.0000
vn 0.4465 -0.8948 -0.0000
vn -0.4373 0.8993 -0.0000
vn 0.7944 0.6073 -0.0000
vn 0.6073 -0.7944 -0.0000
vn -0.7944 -0.6073 -0.0000
vn 0.7606 0.6492 -0.0000
vn 0.6492 -0.7606 -0.0000
vn -0.7606 -0.6492 -0.0000
vn 0.7069 0.7073 -0.0000
vn 0.7073 -0.7070 -0.0000
vn -0.7069 -0.7073 -0.0000
vn -0.6073 0.7944 -0.0000
vn -0.6492 0.7606 -0.0000
vn -0.7073 0.7069 -0.0000
vn 0.8121 0.5835 -0.0000
vn 0.5835 -0.8121 -0.0000
vn -0.8121 -0.5835 -0.0000
vn -0.5835 0.8121 -0.0000
vt 0.903638 1.433451
vt 0.482554 2.044873
vt 0.482554 -0.040482
vt 0.903638 -0.040482
vt 2.122029 -0.040482
vt 0.332501 0.213019
vt 0.490323 0.213019
vt 0.490323 0.373570
vt 0.332501 0.373570
vt 0.500000 0.867594
vt 0.500000 0.757548
vt -1.298395 0.757548
vt -1.298395 0.867594
vt 1.000000 0.882737
vt 0.000000 0.882737
vt 0.000000 0.996169
vt 1.000000 0.996169
vt 1.000000 0.867594
vt 1.000000 0.757548
vt 0.000000 0.757548
vt 0.000000 0.867594
vt 0.496365 0.867594
vt 0.496365 0.757548
vt 0.031294 0.757548
vt 0.031294 0.867594
vt 0.650112 0.750551
vt 0.000000 0.750551
vt 0.000000 0.691876
vt 0.650111 0.691876
vt 1.300223 0.691876
vt 1.300223 0.750551
vt 2.298395 0.882737
vt 0.500000 0.882737
vt 0.500000 0.996169
vt 2.298395 0.996169
vt 0.128585 0.691876
vt 0.128585 0.750551
vt 1.171637 0.750551
vt 1.171638 0.691876
vt 1.171638 0.750551
vt 0.034397 0.748991
vt 0.104623 0.748991
vt 0.104623 0.691644
vt 0.034397 0.691644
vt -0.325125 0.691644
vt -0.325125 0.748991
vt -0.293823 0.691644
vt -0.293823 0.748991
vt 0.057348 0.748991
vt 0.057348 0.691644
vt 0.033047 0.748991
vt 0.033048 0.691644
vt -0.293823 0.691644
vt -0.293823 0.748991
vt 0.121536 0.748991
vt 0.185724 0.748991
vt 0.185724 0.691644
vt 0.121536 0.691644
vt 0.100998 0.748991
vt 0.100998 0.691644
vt 0.168948 0.748991
vt 0.236899 0.748991
vt 0.236899 0.691644
vt 0.168948 0.691644
vt 0.174850 0.748991
vt 0.174850 0.691644
vt 0.245076 0.748991
vt 0.315302 0.748991
vt 0.315302 0.691644
vt 0.245076 0.691644
vt 0.249912 0.748991
vt 0.249912 0.691644
vt 0.314101 0.748991
vt 0.378289 0.748991
vt 0.378289 0.691644
vt 0.314101 0.691644
vt 0.304849 0.748991
vt 0.304849 0.691644
vt 0.385529 0.748991
vt 0.455755 0.748991
vt 0.455755 0.691644
vt 0.385529 0.691644
vt 0.372799 0.748991
vt 0.372799 0.691644
vt 0.442477 0.748991
vt 0.442477 0.691644
vt 0.440750 0.748991
vt 0.440750 0.691644
vt 0.506665 0.748991
vt 0.570853 0.748991
vt 0.570853 0.691644
vt 0.506665 0.691644
vt 0.508700 0.748991
vt 0.508700 0.691644
vt 0.525982 0.748991
vt 0.525982 0.691644
vt 0.596208 0.748991
vt 0.666434 0.748991
vt 0.666434 0.691644
vt 0.596208 0.691644
vt 0.576650 0.748991
vt 0.576650 0.691644
vt 0.635041 0.748991
vt 0.635041 0.691644
vt 0.644601 0.748991
vt 0.644601 0.691644
vt 0.968706 0.996169
vt 0.908788 0.882737
vt 0.503073 0.882737
vt 0.503635 0.996169
vt 0.908789 0.996169
vt 0.968706 0.882737
vt 0.503635 0.882737
vt 0.503073 0.996169
vt 0.091212 0.867594
vt 0.091212 0.757549
vt 0.496927 0.757548
vt 0.496927 0.867594
vt 0.650111 0.750551
vt 0.650111 0.750551
vt 0.650111 0.691876
vt 0.650112 0.691876
vt 0.619097 0.996169
vt 0.619097 0.882737
vt 0.380903 0.867594
vt 0.380903 0.757548
vt 0.619097 0.996169
vt 0.619097 0.882737
vt 0.380903 0.867594
vt 0.380903 0.757548
vt 0.619097 0.996169
vt 0.619098 0.996169
vt 0.619098 0.882737
vt 0.380902 0.867594
vt 0.380902 0.757548
vt 0.619097 0.996169
vt 0.619098 0.996169
vt 0.380902 0.757548
vt 0.619098 0.996169
vt 0.619098 0.882737
vt 0.380902 0.867594
vt 0.380902 0.757548
vt 0.380903 0.867594
vt 0.380903 0.757548
vt 0.380903 0.867594
vt 0.380903 0.757548
vt 0.380903 0.867594
vt 0.380902 0.867594
vt 0.380902 0.757548
s 2
usemtl MI_WoodTrim
f 6/6/2 8/7/2 9/8/2 7/9/2
f 99/10/1 102/11/1 7/12/1 9/13/1
s 3
f 16/7/3 14/6/3 15/9/3 17/8/3
f 12/14/1 16/15/1 17/16/1 13/17/1
f 17/18/4 15/19/4 11/20/4 13/21/4
f 12/21/5 10/20/5 14/19/5 16/18/5
f 11/14/6 15/15/6 14/16/6 10/17/6
s 4
f 106/22/3 104/23/3 19/24/3 18/25/3
s 5
f 22/6/4 23/9/4 25/8/4 24/7/4
f 107/26/7 25/27/7 23/28/7 110/29/7
s 6
f 26/6/7 27/9/7 29/8/7 28/7/7
f 32/7/3 33/8/3 31/9/3 30/6/3
f 28/30/1 29/31/1 33/27/1 32/28/1
f 33/31/5 29/27/5 27/28/5 31/30/5
f 28/27/4 32/31/4 30/30/4 26/28/4
f 27/30/6 26/31/6 30/27/6 31/28/6
s 7
f 34/6/2 36/7/2 37/8/2 35/9/2
f 46/10/6 43/11/6 35/12/6 37/13/6
f 36/32/3 44/33/3 46/34/3 37/35/3
s 9
f 49/30/1 53/36/1 54/37/1 50/31/1
f 54/38/7 52/39/7 48/28/7 50/27/7
f 49/27/3 47/28/3 51/39/3 53/40/3
f 48/30/6 52/36/6 51/37/6 47/31/6
s 10
f 58/41/1 66/42/1 65/43/1 57/44/1
f 57/44/1 61/45/1 62/46/1 58/41/1
f 62/47/4 60/48/4 56/49/8 58/50/8
f 57/51/9 55/52/9 59/53/5 61/54/5
f 64/55/10 68/56/11 70/57/11 66/58/10
f 56/49/8 64/55/10 66/58/10 58/50/8
f 57/51/9 65/59/12 63/60/12 55/52/9
f 69/61/13 73/62/14 71/63/14 67/64/13
f 65/59/12 69/61/13 67/64/13 63/60/12
f 66/42/1 70/65/1 69/66/1 65/43/1
f 74/67/1 78/68/1 77/69/1 73/70/1
f 70/65/1 74/67/1 73/70/1 69/66/1
f 68/56/11 72/71/15 74/72/15 70/57/11
f 76/73/16 80/74/17 82/75/17 78/76/16
f 72/71/15 76/73/16 78/76/16 74/72/15
f 73/62/14 77/77/18 75/78/18 71/63/14
f 82/79/1 86/80/1 85/81/1 81/82/1
f 77/77/18 81/83/19 79/84/19 75/78/18
f 78/68/1 82/79/1 81/82/1 77/69/1
f 80/74/17 84/85/20 86/86/20 82/75/17
f 81/83/19 85/87/21 83/88/21 79/84/19
f 88/89/22 92/90/23 94/91/23 90/92/22
f 84/85/20 88/89/22 90/92/22 86/86/20
f 85/87/21 89/93/24 87/94/24 83/88/21
f 86/80/1 90/95/1 89/96/1 85/81/1
f 94/97/1 98/98/1 97/99/1 93/100/1
f 89/93/24 93/101/25 91/102/25 87/94/24
f 90/95/1 94/97/1 93/100/1 89/96/1
f 92/90/23 96/103/26 98/104/26 94/91/23
f 93/101/25 97/105/27 95/106/27 91/102/25
s 2
f 7/32/3 102/33/3 100/34/3 6/35/3
f 8/13/6 6/12/6 100/11/6 101/10/6
s 7
f 36/13/1 34/12/1 45/11/1 44/10/1
s 2
f 8/32/7 101/33/7 99/34/7 9/35/7
s 4
f 18/107/1 20/108/1 105/109/1 106/110/1
f 21/111/6 19/112/6 104/113/6 103/114/6
f 20/115/7 21/116/7 103/117/7 105/118/7
s 7
f 35/32/7 43/33/7 45/34/7 34/35/7
s 5
f 23/30/6 22/31/6 108/119/6 110/29/6
f 24/27/3 109/120/3 108/121/3 22/28/3
f 24/30/1 25/31/1 107/26/1 109/122/1
s 11
f 111/6/1 112/9/1 114/8/1 113/7/1
f 112/14/28 111/17/28 148/123/28 147/124/28
f 113/21/29 141/125/29 148/126/29 111/20/29
f 113/14/30 114/17/30 142/123/30 141/124/30
s 12
f 115/6/1 116/9/1 118/8/1 117/7/1
f 116/14/28 115/17/28 138/127/28 131/128/28
f 117/21/29 146/129/29 138/130/29 115/20/29
f 117/14/30 118/17/30 135/131/30 146/128/30
s 13
f 119/6/1 120/9/1 122/8/1 121/7/1
f 120/14/28 119/17/28 144/132/28 136/133/28
f 121/21/29 133/134/29 144/135/29 119/20/29
f 121/14/30 122/17/30 140/136/30 133/133/30
s 14
f 123/6/1 124/9/1 126/8/1 125/7/1
f 124/14/31 123/17/31 132/137/31 143/133/31
f 125/21/32 139/134/32 132/138/32 123/20/32
f 125/14/33 126/17/33 149/132/33 139/133/33
s 15
f 127/6/1 128/9/1 130/8/1 129/7/1
f 128/14/34 127/17/34 137/139/34 150/140/34
f 129/21/35 145/141/35 137/142/35 127/20/35
f 129/14/36 130/17/36 134/139/36 145/140/36
s 11
f 142/143/37 114/21/37 112/20/37 147/144/37
s 12
f 135/145/37 118/21/37 116/20/37 131/146/37
s 13
f 140/147/37 122/21/37 120/20/37 136/135/37
s 14
f 149/134/38 126/21/38 124/20/38 143/135/38
s 15
f 134/148/39 130/21/39 128/20/39 150/149/39
s 16
f 151/6/1 152/9/1 154/8/1 153/7/1
f 152/14/40 151/17/40 163/127/40 159/128/40
f 153/21/41 166/129/41 163/130/41 151/20/41
f 153/14/42 154/17/42 161/131/42 166/128/42
s 17
f 155/6/1 156/9/1 158/8/1 157/7/1
f 156/14/40 155/17/40 165/132/40 162/133/40
f 157/21/41 160/134/41 165/135/41 155/20/41
f 157/14/42 158/17/42 164/136/42 160/133/42
s 16
f 161/145/43 154/21/43 152/20/43 159/146/43
s 17
f 164/147/43 158/21/43 156/20/43 162/135/43
s 1
usemtl MI_Plaster
f 3/1/1 2/2/1 1/3/1 5/4/1
f 3/1/1 5/4/1 4/5/1
s 8
f 40/1/6 42/4/6 38/3/6 39/2/6
f 40/1/6 41/5/6 42/4/6
