# Blender 4.0.2
# www.blender.org
mtllib Stairs_Exterior_PlatformU.mtl
o Stairs_Exterior_PlatformU
v 1.000000 1.000000 1.000000
v 1.000000 0.000000 1.000000
v 0.800000 0.000000 1.000000
v 1.000000 1.000000 -0.800000
v 1.000000 -0.000000 -0.800000
v 0.799130 -0.000000 -0.800000
v 0.800000 1.000000 1.000000
v 0.799130 1.000000 -0.800000
v 0.799130 0.000000 -1.000000
v 0.799130 1.000000 -1.000000
v 0.987944 0.000000 -1.000000
v 1.000000 0.000000 -0.987944
v 1.000000 1.000000 -0.987944
v 0.987944 1.000000 -1.000000
v 0.000000 0.000000 -1.000000
v 0.000000 1.000000 -1.000000
v 0.000000 -0.000000 -0.800000
v 0.000000 1.000000 -0.800000
v -1.000000 1.000000 1.000000
v -1.000000 0.000000 1.000000
v -0.800000 0.000000 1.000000
v -1.000000 1.000000 -0.800000
v -1.000000 -0.000000 -0.800000
v -0.799130 -0.000000 -0.800000
v -0.800000 1.000000 1.000000
v -0.799130 1.000000 -0.800000
v -0.799130 0.000000 -1.000000
v -0.799130 1.000000 -1.000000
v -0.987944 0.000000 -1.000000
v -1.000000 0.000000 -0.987944
v -1.000000 1.000000 -0.987944
v -0.987944 1.000000 -1.000000
v -0.900000 0.781740 1.000671
v -0.900000 0.781740 0.000000
v -0.900000 0.988652 0.000000
v -0.900000 0.975653 1.000671
v -0.900000 0.988652 0.979162
v -0.900000 0.988652 -0.802799
v -0.900000 0.781740 -0.802799
v 0.958919 0.781740 0.000000
v 0.958919 0.988652 0.000000
v 0.958919 0.781740 1.000671
v 0.958919 0.988652 0.979162
v 0.958919 0.975653 1.000671
v 0.958919 0.988652 -0.802799
v 0.958919 0.781740 -0.802799
vn -1.0000 -0.0000 0.0005
vn 1.0000 -0.0000 -0.0000
vn -0.0000 -1.0000 -0.0000
vn -0.0000 1.0000 -0.0000
vn 0.9239 -0.0000 -0.3827
vn -0.0000 -0.0000 -1.0000
vn 0.3827 -0.0000 -0.9239
vn -0.0000 -0.0000 1.0000
vn 1.0000 -0.0000 0.0005
vn -1.0000 -0.0000 -0.0000
vn -0.9239 -0.0000 -0.3827
vn -0.3827 -0.0000 -0.9239
vn -0.0000 0.9633 0.2685
vn -0.0000 0.8559 0.5172
vt 0.000000 0.000000
vt 1.000000 -0.000000
vt 1.000000 0.406250
vt 0.000000 0.406250
vt 0.000071 0.000035
vt 0.899943 0.000035
vt 0.899943 0.406367
vt 0.854108 0.012460
vt 0.854108 0.123514
vt 0.091149 0.123514
vt 0.091149 0.012460
vt 0.000000 0.207328
vt 0.000000 0.102281
vt 1.000000 0.102281
vt 1.000000 0.207328
vt 0.000000 0.108614
vt 0.006028 0.102281
vt 0.100435 0.102281
vt 0.100435 0.207328
vt 0.000000 0.207328
vt 0.777480 0.012460
vt 0.777480 0.123514
vt 0.849509 0.123514
vt 0.854108 0.116820
vt 0.993902 0.000035
vt 0.993969 0.406257
vt 0.376811 0.000000
vt 0.376811 0.406250
vt 0.899565 0.406250
vt 0.899565 -0.000000
vt 0.993972 -0.000000
vt 0.993972 0.406250
vt 0.623189 0.102281
vt 0.623189 0.207328
vt 0.378641 0.012460
vt 0.378641 0.123514
vt 0.777480 0.924788
vt 0.777480 0.575590
vt 0.378641 0.575590
vt 0.378641 0.924788
vt 0.444253 0.501467
vt -0.534009 0.501467
vt -0.534009 0.650953
vt 0.444253 0.650954
vt -0.534009 0.663274
vt 0.444253 0.663274
vt 0.444310 0.493890
vt 0.444310 0.420057
vt -0.534068 0.420057
vt -0.534068 0.493890
vt 0.444253 0.628946
vt -0.534009 0.628946
vt 0.464844 0.494348
vt 0.464844 0.626886
vt -0.512470 0.626886
vt -0.512470 0.494348
vt -0.512470 0.653319
vt 0.464844 0.653319
s 2
usemtl MI_RockTrim
f 41/41/4 35/42/4 37/43/13 43/44/13
f 43/44/13 37/43/13 36/45/14 44/46/14
f 42/47/8 44/48/8 36/49/8 33/50/8
f 41/41/4 45/51/4 38/52/4 35/42/4
f 34/53/3 39/54/3 46/55/3 40/56/3
f 34/53/3 40/56/3 42/57/3 33/58/3
s 1
usemtl MI_Brick
f 6/1/1 3/2/1 7/3/1 8/4/1
f 2/5/2 5/6/2 4/7/2 1/4/2
f 2/8/3 3/9/3 6/10/3 5/11/3
f 7/12/4 1/13/4 4/14/4 8/15/4
f 13/16/4 14/17/4 10/18/4 8/19/4 4/20/4
f 5/8/3 6/21/3 9/22/3 11/23/3 12/24/3
f 4/7/2 5/6/2 12/25/5 13/26/5
f 15/27/6 16/28/6 10/29/6 9/30/6
f 13/26/5 12/25/5 11/31/7 14/32/7
f 9/30/6 10/29/6 14/32/7 11/31/7
f 10/18/4 16/33/4 18/34/4 8/19/4
f 6/21/3 17/35/3 15/36/3 9/22/3
f 6/37/8 8/38/8 18/39/8 17/40/8
f 24/1/9 26/4/9 25/3/9 21/2/9
f 20/5/10 19/4/10 22/7/10 23/6/10
f 20/8/3 23/11/3 24/10/3 21/9/3
f 25/12/4 26/15/4 22/14/4 19/13/4
f 31/16/4 22/20/4 26/19/4 28/18/4 32/17/4
f 23/8/3 30/24/3 29/23/3 27/22/3 24/21/3
f 22/7/10 31/26/11 30/25/11 23/6/10
f 15/27/6 27/30/6 28/29/6 16/28/6
f 31/26/11 32/32/12 29/31/12 30/25/11
f 27/30/6 29/31/12 32/32/12 28/29/6
f 28/18/4 26/19/4 18/34/4 16/33/4
f 24/21/3 27/22/3 15/36/3 17/35/3
f 24/37/8 17/40/8 18/39/8 26/38/8
