# Blender 4.0.2
# www.blender.org
mtllib Stairs_Exterior_SingleSideThick.mtl
o Stairs_Exterior_SingleSideThick
v -0.199999 0.000000 -1.000000
v 0.200000 1.000000 1.000000
v -0.200000 0.000000 1.000000
v -0.199999 1.000000 -1.000000
v -0.200000 1.000000 1.000000
v 0.200000 0.000000 -1.000000
v 0.200000 0.000000 1.000000
v 0.200000 1.000000 -1.000000
vn -1.0000 -0.0000 -0.0000
vn 1.0000 -0.0000 -0.0000
vn -0.0000 -1.0000 -0.0000
vn -0.0000 1.0000 -0.0000
vn -0.0000 -0.0000 1.0000
vn -0.0000 -0.0000 -1.0000
vt 0.000000 0.000000
vt 0.000000 0.406250
vt 1.000000 0.406250
vt 1.000000 -0.000000
vt 0.854108 0.012460
vt 0.091149 0.012460
vt 0.091149 0.123514
vt 0.854108 0.123514
vt 0.000000 0.102281
vt 1.000000 0.102281
vt 1.000000 0.207328
vt 0.000000 0.207328
vt 0.587812 0.000000
vt 0.807860 0.000000
vt 0.807860 0.407752
vt 0.587812 0.407752
vt 0.807860 -0.000000
vt 0.587812 -0.000000
vt 0.587812 0.407752
vt 0.807860 0.407752
s 1
usemtl MI_Brick
f 3/1/1 5/2/1 4/3/1 1/4/1
f 7/1/2 6/4/2 8/3/2 2/2/2
f 6/5/3 7/6/3 3/7/3 1/8/3
f 4/9/4 5/10/4 2/11/4 8/12/4
f 3/13/5 7/14/5 2/15/5 5/16/5
f 6/17/6 1/18/6 4/19/6 8/20/6
