# Blender 4.0.2
# www.blender.org
mtllib Stairs_Exterior_SidePlatform.mtl
o Stairs_Exterior_SidePlatform
v -0.800000 1.000000 -1.000000
v -0.800000 -0.000000 -1.000000
v -1.000000 0.000000 -1.000000
v -0.800000 1.000000 1.000000
v -0.800000 0.000000 1.000000
v -1.000000 0.000000 1.000000
v -1.000000 1.000000 -1.000000
v -1.000000 1.000000 1.000000
v 1.000000 0.781740 0.000000
v -0.812613 0.781740 0.000000
v -0.812613 0.988652 0.000000
v 1.000000 0.988652 0.000000
v -0.812613 0.781740 1.000671
v 1.000000 0.781740 1.000671
v 1.000000 0.988652 0.979162
v -0.812613 0.988652 0.979162
v 1.000000 0.975653 1.000671
v -0.812613 0.975653 1.000671
v 1.000000 0.781740 -1.000671
v -0.812613 0.781740 -1.000671
v -0.812613 0.988652 -0.979162
v 1.000000 0.988652 -0.979162
v -0.812613 0.975653 -1.000671
v 1.000000 0.975653 -1.000671
vn -1.0000 -0.0000 -0.0000
vn 1.0000 -0.0000 -0.0000
vn -0.0000 -1.0000 -0.0000
vn -0.0000 1.0000 -0.0000
vn -0.0000 -0.0000 -1.0000
vn -0.0000 0.8559 -0.5172
vn -0.0000 0.9633 -0.2685
vn -0.0000 -0.0000 1.0000
vn -0.0000 0.9633 0.2685
vn -0.0000 0.8559 0.5172
vt 0.000000 0.000000
vt 0.000000 0.406250
vt 1.000000 0.406250
vt 1.000000 -0.000000
vt 0.854108 0.924788
vt 0.854108 0.575590
vt 0.091149 0.575590
vt 0.091149 0.924788
vt 0.854108 0.012460
vt 0.091149 0.012460
vt 0.091149 0.123514
vt 0.854108 0.123514
vt 0.000000 0.102281
vt 1.000000 0.102281
vt 1.000000 0.207328
vt 0.000000 0.207328
vt -0.485520 0.493890
vt -0.485520 0.420057
vt 0.417383 0.420057
vt 0.417383 0.493890
vt -0.485466 0.663274
vt -0.485466 0.650953
vt 0.417330 0.650954
vt 0.417330 0.663274
vt -0.485573 0.653319
vt -0.485573 0.494348
vt 0.416348 0.494348
vt 0.416348 0.653319
vt -0.485466 0.650954
vt -0.485466 0.501467
vt 0.417330 0.501467
vt 0.417330 0.650954
vt -0.485520 0.420057
vt 0.417383 0.493890
vt 0.417383 0.420057
vt 0.417330 0.663274
vt -0.485573 0.494348
vt -0.485573 0.653319
vt 0.416348 0.653319
vt 0.416348 0.494348
vt 0.417330 0.501467
vt 1.200097 0.483249
vt 1.192809 0.487740
vt 0.844641 0.487740
vt 0.512869 0.487740
vt 0.505581 0.483249
vt 0.505581 0.416243
vt 0.844641 0.416243
vt 1.200097 0.416243
s 2
usemtl MI_RockTrim
f 20/17/5 23/18/5 24/19/5 19/20/5
f 23/21/6 21/22/7 22/23/7 24/24/6
f 19/25/3 9/26/3 10/27/3 20/28/3
f 21/29/7 11/30/4 12/31/4 22/32/7
f 18/33/8 13/17/8 14/34/8 17/35/8
f 16/29/9 18/21/10 17/36/10 15/32/9
f 9/37/3 14/38/3 13/39/3 10/40/3
f 11/30/4 16/22/9 15/23/9 12/41/4
f 24/42/2 22/43/2 12/44/2 15/45/2 17/46/2 14/47/2 9/48/2 19/49/2
s 1
usemtl MI_Brick
f 6/1/1 8/2/1 7/3/1 3/4/1
f 2/5/2 1/6/2 4/7/2 5/8/2
f 2/9/3 5/10/3 6/11/3 3/12/3
f 7/13/4 8/14/4 4/15/4 1/16/4
