# Blender 4.0.2
# www.blender.org
mtllib Stairs_Exterior_Platform.mtl
o Stairs_Exterior_Platform
v 0.800000 1.000000 -1.000000
v 0.800000 -0.000000 -1.000000
v 1.000000 0.000000 -1.000000
v 0.800000 1.000000 1.000000
v 0.800000 0.000000 1.000000
v 1.000000 0.000000 1.000000
v 1.000000 1.000000 -1.000000
v 1.000000 1.000000 1.000000
v -0.800000 1.000000 -1.000000
v -0.800000 -0.000000 -1.000000
v -1.000000 0.000000 -1.000000
v -0.800000 1.000000 1.000000
v -0.800000 0.000000 1.000000
v -1.000000 0.000000 1.000000
v -1.000000 1.000000 -1.000000
v -1.000000 1.000000 1.000000
v 0.812613 0.781740 0.000000
v -0.812613 0.781740 0.000000
v -0.812613 0.988652 0.000000
v 0.812613 0.988652 0.000000
v -0.812613 0.781740 1.000671
v 0.812613 0.781740 1.000671
v 0.812613 0.988652 0.979162
v -0.812613 0.988652 0.979162
v 0.812613 0.975653 1.000671
v -0.812613 0.975653 1.000671
v 0.812613 0.781740 -1.000671
v -0.812613 0.781740 -1.000671
v -0.812613 0.988652 -0.979162
v 0.812613 0.988652 -0.979162
v -0.812613 0.975653 -1.000671
v 0.812613 0.975653 -1.000671
vn 1.0000 -0.0000 -0.0000
vn -1.0000 -0.0000 -0.0000
vn -0.0000 -1.0000 -0.0000
vn -0.0000 1.0000 -0.0000
vn -0.0000 -0.0000 -1.0000
vn -0.0000 0.8559 -0.5172
vn -0.0000 0.9633 -0.2685
vn -0.0000 -0.0000 1.0000
vn -0.0000 0.9633 0.2685
vn -0.0000 0.8559 0.5172
vt 0.000000 0.000000
vt 1.000000 -0.000000
vt 1.000000 0.406250
vt 0.000000 0.406250
vt 0.854108 0.924788
vt 0.091149 0.924788
vt 0.091149 0.575590
vt 0.854108 0.575590
vt 0.854108 0.012460
vt 0.854108 0.123514
vt 0.091149 0.123514
vt 0.091149 0.012460
vt 0.000000 0.207328
vt 0.000000 0.102281
vt 1.000000 0.102281
vt 1.000000 0.207328
vt 0.000000 0.102281
vt 0.000000 0.207328
vt -0.485520 0.493890
vt -0.485520 0.420057
vt 0.417383 0.420057
vt 0.417383 0.493890
vt -0.485466 0.663274
vt -0.485466 0.650953
vt 0.417330 0.650954
vt 0.417330 0.663274
vt -0.485573 0.653319
vt -0.485573 0.494348
vt 0.416348 0.494348
vt 0.416348 0.653319
vt -0.485466 0.650954
vt -0.485466 0.501467
vt 0.417330 0.501467
vt 0.417330 0.650954
vt -0.485520 0.420057
vt 0.417383 0.493890
vt 0.417383 0.420057
vt 0.417330 0.663274
vt -0.485573 0.494348
vt -0.485573 0.653319
vt 0.416348 0.653319
vt 0.416348 0.494348
vt 0.417330 0.501467
s 3
usemtl MI_RockTrim
f 28/19/5 31/20/5 32/21/5 27/22/5
f 31/23/6 29/24/7 30/25/7 32/26/6
f 27/27/3 17/28/3 18/29/3 28/30/3
f 29/31/7 19/32/4 20/33/4 30/34/7
f 26/35/8 21/19/8 22/36/8 25/37/8
f 24/31/9 26/23/10 25/38/10 23/34/9
f 17/39/3 22/40/3 21/41/3 18/42/3
f 19/32/4 24/24/9 23/25/9 20/43/4
s 1
usemtl MI_Brick
f 6/1/1 3/2/1 7/3/1 8/4/1
f 2/5/2 5/6/2 4/7/2 1/8/2
f 2/9/3 3/10/3 6/11/3 5/12/3
f 7/13/4 1/14/4 4/15/4 8/16/4
s 2
f 14/1/2 16/4/2 15/3/2 11/2/2
f 10/5/1 9/8/1 12/7/1 13/6/1
f 10/9/3 13/12/3 14/11/3 11/10/3
f 15/17/4 16/15/4 12/16/4 9/18/4
