# Blender 4.0.2
# www.blender.org
mtllib Stair_Interior_Simple.mtl
o Stair_Interior_Simple
v 0.486943 1.584475 -2.199064
v 0.486943 1.389444 -2.338313
v 0.650668 -0.010405 0.034729
v 0.486941 -0.010406 0.034729
v 0.650668 -0.008877 -0.379822
v 0.486941 -0.008877 -0.379822
v 0.650669 2.994064 -4.173337
v 0.486943 2.994064 -4.173337
v 0.650669 2.993395 -4.584810
v 0.486943 2.993395 -4.584810
v 0.650668 1.584475 -2.199064
v 0.650668 1.389444 -2.338312
v -0.486943 1.584475 -2.199064
v -0.486943 1.389444 -2.338313
v -0.650668 -0.010405 0.034729
v -0.486941 -0.010406 0.034729
v -0.650668 -0.008877 -0.379822
v -0.486941 -0.008877 -0.379822
v -0.650669 2.994064 -4.173337
v -0.486943 2.994064 -4.173337
v -0.650669 2.993395 -4.584810
v -0.486943 2.993395 -4.584810
v -0.650668 1.584475 -2.199064
v -0.650668 1.389444 -2.338312
v -0.799199 0.130237 0.002286
v -0.799199 0.210413 0.002286
v -0.799199 0.130237 -0.356918
v -0.799199 0.210413 -0.356918
v 0.841306 0.130237 0.002286
v 0.841306 0.210413 0.002286
v 0.841306 0.130237 -0.356918
v 0.841306 0.210413 -0.356918
v -0.817188 0.346712 -0.289574
v -0.817188 0.426888 -0.289573
v -0.823095 0.346712 -0.648730
v -0.823095 0.426888 -0.648730
v 0.823095 0.346712 -0.316550
v 0.823095 0.426888 -0.316550
v 0.817188 0.346712 -0.675706
v 0.817188 0.426888 -0.675706
v -0.825126 0.563187 -0.608362
v -0.825126 0.643363 -0.608362
v -0.825126 0.563187 -0.967566
v -0.825126 0.643363 -0.967566
v 0.815379 0.563187 -0.608362
v 0.815379 0.643363 -0.608362
v 0.815379 0.563187 -0.967566
v 0.815379 0.643363 -0.967566
v -0.808723 0.779662 -0.905730
v -0.808723 0.859838 -0.905730
v -0.812211 0.779662 -1.264918
v -0.812211 0.859838 -1.264917
v 0.831705 0.779662 -0.921658
v 0.831705 0.859838 -0.921658
v 0.828217 0.779662 -1.280846
v 0.828217 0.859838 -1.280846
v -0.820253 0.996137 -1.219009
v -0.820253 1.076313 -1.219009
v -0.820253 0.996137 -1.578214
v -0.820253 1.076313 -1.578214
v 0.820253 0.996137 -1.219009
v 0.820253 1.076313 -1.219009
v 0.820253 0.996137 -1.578214
v 0.820253 1.076313 -1.578214
v -0.820253 1.212612 -1.524333
v -0.820253 1.292788 -1.524333
v -0.820253 1.212612 -1.883538
v -0.820253 1.292788 -1.883538
v 0.820253 1.212612 -1.524333
v 0.820253 1.292788 -1.524333
v 0.820253 1.212612 -1.883538
v 0.820253 1.292788 -1.883538
v -0.825815 1.429087 -1.857267
v -0.825815 1.509263 -1.857267
v -0.813768 1.429087 -2.216270
v -0.813768 1.509263 -2.216270
v 0.794274 1.429087 -1.802249
v 0.794274 1.509263 -1.802249
v 0.806320 1.429087 -2.161251
v 0.806320 1.509263 -2.161252
v -0.820253 1.645562 -2.134981
v -0.820253 1.725738 -2.134981
v -0.820253 1.645562 -2.494186
v -0.820253 1.725738 -2.494186
v 0.820253 1.645562 -2.134981
v 0.820253 1.725738 -2.134981
v 0.820253 1.645562 -2.494186
v 0.820253 1.725738 -2.494186
v -0.816008 1.862037 -2.421911
v -0.816008 1.942213 -2.421911
v -0.824083 1.862037 -2.781025
v -0.824083 1.942213 -2.781025
v 0.824083 1.862037 -2.458789
v 0.824083 1.942213 -2.458789
v 0.816008 1.862037 -2.817903
v 0.816008 1.942213 -2.817903
v -0.820253 2.078512 -2.745629
v -0.820253 2.158688 -2.745629
v -0.820253 2.078512 -3.104833
v -0.820253 2.158688 -3.104833
v 0.820253 2.078512 -2.745629
v 0.820253 2.158688 -2.745629
v 0.820253 2.078512 -3.104833
v 0.820253 2.158688 -3.104833
v -0.809197 2.294987 -3.068087
v -0.809197 2.375163 -3.068087
v -0.801710 2.294987 -3.427213
v -0.801710 2.375163 -3.427213
v 0.830952 2.294987 -3.033896
v 0.830952 2.375163 -3.033896
v 0.838438 2.294987 -3.393023
v 0.838438 2.375163 -3.393023
v -0.820253 2.511462 -3.370897
v -0.820253 2.591638 -3.370897
v -0.820253 2.511462 -3.730102
v -0.820253 2.591638 -3.730102
v 0.820253 2.511462 -3.370897
v 0.820253 2.591638 -3.370897
v 0.820253 2.511462 -3.730102
v 0.820253 2.591638 -3.730102
v -0.834873 2.727937 -3.661600
v -0.834873 2.808113 -3.661601
v -0.834873 2.727937 -4.020804
v -0.834873 2.808113 -4.020805
v 0.805632 2.727937 -3.661600
v 0.805632 2.808113 -3.661601
v 0.805632 2.727937 -4.020804
v 0.805632 2.808113 -4.020805
v -0.820253 2.944412 -3.966924
v -0.820253 3.024588 -3.966924
v -0.820253 2.944412 -4.326128
v -0.820253 3.024588 -4.326128
v 0.820253 2.944412 -3.966924
v 0.820253 3.024588 -3.966924
v 0.820253 2.944412 -4.326128
v 0.820253 3.024588 -4.326128
vn -0.0000 -1.0000 -0.0037
vn -0.0000 -0.8139 -0.5811
vn -1.0000 -0.0000 -0.0000
vn 1.0000 -0.0000 -0.0000
vn -0.0000 0.8139 0.5811
vn -0.0000 1.0000 -0.0016
vn -0.0000 -0.0000 -1.0000
vn -0.0000 -0.0000 1.0000
vn -0.0000 -1.0000 -0.0000
vn -0.0000 1.0000 -0.0000
vn -0.9999 -0.0000 0.0164
vn -0.0164 -0.0000 -0.9999
vn 0.9999 -0.0000 -0.0164
vn 0.0164 -0.0000 0.9999
vn -1.0000 -0.0000 0.0097
vn -0.0097 -0.0000 -1.0000
vn 1.0000 -0.0000 -0.0097
vn 0.0097 -0.0000 1.0000
vn -0.9994 -0.0000 -0.0335
vn 0.0339 -0.0000 -0.9994
vn 0.9994 -0.0000 0.0335
vn -0.0339 -0.0000 0.9994
vn -0.9997 -0.0000 0.0225
vn -0.0225 -0.0000 -0.9997
vn 0.9997 -0.0000 -0.0225
vn 0.0225 -0.0000 0.9997
vn -0.9998 -0.0000 -0.0208
vn 0.0208 -0.0000 -0.9998
vn 0.9998 -0.0000 0.0208
vn -0.0208 -0.0000 0.9998
vt 0.736493 0.213019
vt 0.666485 0.213019
vt 0.666485 0.373570
vt 0.736493 0.373570
vt 1.000000 0.572177
vt 0.149577 0.572178
vt 0.149577 0.685610
vt 1.000000 0.685610
vt 0.850423 0.557035
vt 0.969966 0.446989
vt 0.000000 0.446989
vt 0.000000 0.557035
vt 0.030034 0.572178
vt 0.030034 0.685610
vt 0.666485 0.213019
vt 0.804255 0.213019
vt 0.804255 0.373570
vt 0.666485 0.373570
vt 0.975482 0.572177
vt 0.000000 0.572178
vt 0.000000 0.685610
vt 0.975482 0.685610
vt 1.000000 0.557035
vt 1.000000 0.446989
vt 0.142724 0.446989
vt 0.024518 0.557035
vt 0.024518 0.557035
vt 0.142724 0.446989
vt 0.857276 0.572177
vt 0.857276 0.685610
vt 0.659705 0.369927
vt 0.588177 0.369927
vt 0.588177 0.216856
vt 0.659705 0.216856
vt 0.000000 0.392731
vt 0.000000 0.437305
vt 1.000000 0.437305
vt 1.000000 0.392731
vt 0.659705 0.216856
vt 0.588177 0.216856
vt 1.000000 0.392731
vt 1.000000 0.437305
vt 0.000000 0.437305
vt 0.000000 0.392731
vt 0.490234 0.687077
vt 1.490234 0.687076
vt 1.490234 0.568291
vt 0.490234 0.568291
vt 0.575384 0.216856
vt 0.505760 0.216856
vt 0.505760 0.369927
vt 0.575384 0.369927
vt 0.562500 0.568291
vt -0.437500 0.568291
vt -0.437500 0.687077
vt 0.562500 0.687077
vt 0.659368 0.369927
vt 0.589744 0.369927
vt 0.589744 0.216856
vt 0.659368 0.216856
vt 0.659368 0.216856
vt 0.589744 0.216856
vt 1.464844 0.568291
vt 0.464844 0.568291
vt 0.464844 0.687077
vt 1.464844 0.687077
vt 0.505760 0.216856
vt 0.575384 0.216856
vt 0.689453 0.568291
vt -0.310547 0.568291
vt -0.310547 0.687077
vt 0.689453 0.687077
vt 0.871094 0.687077
vt 1.871094 0.687077
vt 1.871094 0.568291
vt 0.871094 0.568291
vt 0.507813 0.687077
vt -0.492187 0.687077
vt -0.492187 0.568291
vt 0.507813 0.568291
vt 0.464844 0.687077
vt 0.464844 0.568291
vt 1.337891 0.568291
vt 0.337891 0.568291
vt 0.337891 0.687077
vt 1.337891 0.687077
vt -0.437500 0.687077
vt 0.562500 0.687077
vt 0.562500 0.568291
vt -0.437500 0.568291
vt 0.406250 0.687077
vt 1.406250 0.687077
vt 1.406250 0.568291
vt 0.406250 0.568291
vt 0.773438 0.568291
vt -0.226562 0.568291
vt -0.226562 0.687077
vt 0.773438 0.687077
vt 0.705078 0.568291
vt -0.294922 0.568291
vt -0.294922 0.687077
vt 0.705078 0.687077
s 0
usemtl MI_WoodTrim
f 5/1/1 3/2/1 4/3/1 6/4/1
f 12/5/2 5/6/2 6/7/2 2/8/2
f 6/9/3 4/10/3 1/11/3 2/12/3
f 12/12/4 11/11/4 3/10/4 5/9/4
f 1/5/5 4/13/5 3/14/5 11/8/5
f 7/15/6 9/16/6 10/17/6 8/18/6
f 9/19/2 12/20/2 2/21/2 10/22/2
f 2/23/3 1/24/3 8/25/3 10/26/3
f 9/27/4 7/28/4 11/24/4 12/23/4
f 8/29/5 1/20/5 11/21/5 7/30/5
f 17/1/1 18/4/1 16/3/1 15/2/1
f 24/5/2 14/8/2 18/7/2 17/6/2
f 18/9/4 14/12/4 13/11/4 16/10/4
f 24/12/3 17/9/3 15/10/3 23/11/3
f 13/5/5 23/8/5 15/14/5 16/13/5
f 19/15/6 20/18/6 22/17/6 21/16/6
f 21/19/2 22/22/2 14/21/2 24/20/2
f 14/23/4 22/26/4 20/25/4 13/24/4
f 21/27/3 24/23/3 23/24/3 19/28/3
f 20/29/5 19/30/5 23/21/5 13/20/5
f 25/31/3 26/32/3 28/33/3 27/34/3
f 27/35/7 28/36/7 32/37/7 31/38/7
f 31/32/4 32/31/4 30/39/4 29/40/4
f 29/41/8 30/42/8 26/43/8 25/44/8
f 27/45/9 31/46/9 29/47/9 25/48/9
f 32/46/10 28/45/10 26/48/10 30/47/10
f 33/49/11 34/50/11 36/51/11 35/52/11
f 35/35/12 36/36/12 40/37/12 39/38/12
f 39/50/13 40/49/13 38/52/13 37/51/13
f 37/41/14 38/42/14 34/43/14 33/44/14
f 35/53/9 39/54/9 37/55/9 33/56/9
f 40/54/10 36/53/10 34/56/10 38/55/10
f 41/57/3 42/58/3 44/59/3 43/60/3
f 43/35/7 44/36/7 48/37/7 47/38/7
f 47/58/4 48/57/4 46/61/4 45/62/4
f 45/41/8 46/42/8 42/43/8 41/44/8
f 43/63/9 47/64/9 45/65/9 41/66/9
f 48/64/10 44/63/10 42/66/10 46/65/10
f 49/52/15 50/51/15 52/67/15 51/68/15
f 51/35/16 52/36/16 56/37/16 55/38/16
f 55/51/17 56/52/17 54/49/17 53/50/17
f 53/41/18 54/42/18 50/43/18 49/44/18
f 51/69/9 55/70/9 53/71/9 49/72/9
f 56/70/10 52/69/10 50/72/10 54/71/10
f 57/49/3 58/50/3 60/51/3 59/52/3
f 59/35/7 60/36/7 64/37/7 63/38/7
f 63/50/4 64/49/4 62/52/4 61/51/4
f 61/41/8 62/42/8 58/43/8 57/44/8
f 59/73/9 63/74/9 61/75/9 57/76/9
f 64/74/10 60/73/10 58/76/10 62/75/10
f 65/61/3 66/62/3 68/58/3 67/57/3
f 67/35/7 68/36/7 72/37/7 71/38/7
f 71/62/4 72/61/4 70/57/4 69/58/4
f 69/41/8 70/42/8 66/43/8 65/44/8
f 67/77/9 71/78/9 69/79/9 65/80/9
f 72/78/10 68/77/10 66/80/10 70/79/10
f 73/49/19 74/50/19 76/51/19 75/52/19
f 75/35/20 76/36/20 80/37/20 79/38/20
f 79/50/21 80/49/21 78/52/21 77/51/21
f 77/41/22 78/42/22 74/43/22 73/44/22
f 75/81/9 79/66/9 77/63/9 73/82/9
f 80/66/10 76/81/10 74/82/10 78/63/10
f 81/61/3 82/62/3 84/58/3 83/57/3
f 83/35/7 84/36/7 88/37/7 87/38/7
f 87/62/4 88/61/4 86/57/4 85/58/4
f 85/41/8 86/42/8 82/43/8 81/44/8
f 83/53/9 87/54/9 85/55/9 81/56/9
f 88/54/10 84/53/10 82/56/10 86/55/10
f 89/49/23 90/50/23 92/51/23 91/52/23
f 91/35/24 92/36/24 96/37/24 95/38/24
f 95/50/25 96/49/25 94/52/25 93/51/25
f 93/41/26 94/42/26 90/43/26 89/44/26
f 91/83/9 95/84/9 93/85/9 89/86/9
f 96/84/10 92/83/10 90/86/10 94/85/10
f 97/57/3 98/58/3 100/59/3 99/60/3
f 99/35/7 100/36/7 104/37/7 103/38/7
f 103/58/4 104/57/4 102/61/4 101/62/4
f 101/41/8 102/42/8 98/43/8 97/44/8
f 99/87/9 103/88/9 101/89/9 97/90/9
f 104/88/10 100/87/10 98/90/10 102/89/10
f 105/51/27 106/52/27 108/68/27 107/67/27
f 107/35/28 108/36/28 112/37/28 111/38/28
f 111/52/29 112/51/29 110/50/29 109/49/29
f 109/41/30 110/42/30 106/43/30 105/44/30
f 107/53/9 111/54/9 109/55/9 105/56/9
f 112/54/10 108/53/10 106/56/10 110/55/10
f 113/52/3 114/51/3 116/67/3 115/68/3
f 115/35/7 116/36/7 120/37/7 119/38/7
f 119/51/4 120/52/4 118/49/4 117/50/4
f 117/41/8 118/42/8 114/43/8 113/44/8
f 115/91/9 119/92/9 117/93/9 113/94/9
f 120/92/10 116/91/10 114/94/10 118/93/10
f 121/49/3 122/50/3 124/51/3 123/52/3
f 123/35/7 124/36/7 128/37/7 127/38/7
f 127/50/4 128/49/4 126/52/4 125/51/4
f 125/41/8 126/42/8 122/43/8 121/44/8
f 123/95/9 127/96/9 125/97/9 121/98/9
f 128/96/10 124/95/10 122/98/10 126/97/10
f 129/57/3 130/58/3 132/59/3 131/60/3
f 131/35/7 132/36/7 136/37/7 135/38/7
f 135/58/4 136/57/4 134/61/4 133/62/4
f 133/41/8 134/42/8 130/43/8 129/44/8
f 131/99/9 135/100/9 133/101/9 129/102/9
f 136/100/10 132/99/10 130/102/10 134/101/10
