# Blender 4.0.2
# www.blender.org
mtllib Wall_Plaster_Window_Wide_Round.mtl
o Wall_Plaster_Window_Wide_Round
v -1.000000 3.116765 -0.314034
v -1.000000 2.883237 -0.314034
v -1.000000 3.116765 -0.195094
v -1.000000 2.883237 -0.195094
v 1.000000 3.116763 -0.314035
v 1.000000 2.883235 -0.314035
v 1.000000 3.116763 -0.195095
v 1.000000 2.883235 -0.195095
v -0.851329 2.883237 -0.195094
v -0.636919 2.883237 -0.195094
v -0.744124 2.891946 -0.195094
v 0.504469 2.883236 -0.195095
v 0.880926 2.883235 -0.195095
v 0.744124 2.877310 -0.195095
v -0.851329 3.116764 -0.314034
v -0.636919 3.116764 -0.314034
v -0.744124 3.108055 -0.314034
v 0.504469 3.116763 -0.314035
v 0.880926 3.116763 -0.314035
v 0.744124 3.122689 -0.314035
v 0.880926 3.116763 -0.195095
v 0.504469 3.116763 -0.195095
v 0.744124 3.122689 -0.195095
v -0.636919 3.116764 -0.195094
v -0.851329 3.116764 -0.195094
v -0.744124 3.108055 -0.195094
v 0.880926 2.883235 -0.314035
v 0.504469 2.883236 -0.314035
v 0.744124 2.877310 -0.314035
v -0.636919 2.883237 -0.314034
v -0.851329 2.883237 -0.314034
v -0.744124 2.891946 -0.314034
v -1.000000 0.000000 0.000000
v -1.000000 3.000000 0.000000
v 1.000000 0.000000 0.000000
v 1.000000 3.000000 0.000000
v -1.000000 0.880000 0.000000
v 1.000000 0.880000 0.000000
v 1.000000 2.317865 0.000000
v -1.000000 2.317865 0.000000
v 1.000000 1.040000 0.000000
v -1.000000 1.040000 0.000000
v -0.600000 0.880000 0.000000
v -0.600000 2.317865 0.000000
v -0.600000 1.040000 0.000000
v -0.600000 0.000000 0.000000
v -0.600000 3.000000 0.000000
v 0.600000 0.880000 0.000000
v 0.600000 2.317865 0.000000
v 0.600000 1.040000 0.000000
v 0.600000 0.000000 0.000000
v 0.600000 3.000000 0.000000
v 1.000000 3.116765 0.092446
v 1.000000 2.883237 0.092446
v 1.000000 3.116765 -0.001371
v 1.000000 2.883237 -0.001371
v -1.000000 3.116763 0.092446
v -1.000000 2.883235 0.092446
v -1.000000 3.116763 -0.001370
v -1.000000 2.883235 -0.001370
v 1.000000 0.883107 0.092446
v 1.000000 0.649580 0.092446
v 1.000000 0.883107 -0.012516
v 1.000000 0.649580 -0.012516
v -1.000000 0.883105 0.092447
v -1.000000 0.649578 0.092447
v -1.000000 0.883105 -0.012515
v -1.000000 0.649578 -0.012515
v -1.000000 0.000000 -0.200000
v -1.000000 3.000000 -0.200000
v 1.000000 0.000000 -0.200000
v 1.000000 3.000000 -0.200000
v 1.000000 2.313423 -0.200000
v -1.000000 2.313423 -0.200000
v 1.000000 1.045138 -0.200000
v -1.000000 1.045138 -0.200000
v -0.600000 0.000000 -0.200000
v -0.600000 3.000000 -0.200000
v -0.600000 2.313423 -0.200000
v -0.600000 1.045138 -0.200000
v 0.600000 0.000000 -0.200000
v 0.600000 3.000000 -0.200000
v 0.600000 2.313423 -0.200000
v 0.600000 1.045138 -0.200000
v 0.450000 3.000000 -0.200000
v 0.300000 3.000000 -0.200000
v 0.150000 3.000000 -0.200000
v 0.000000 3.000000 -0.200000
v -0.150000 3.000000 -0.200000
v -0.300000 3.000000 -0.200000
v -0.450000 3.000000 -0.200000
v -0.300000 2.615676 -0.200000
v 0.300000 2.609287 -0.200000
v -0.150000 2.673184 -0.200000
v 0.450000 2.509181 -0.200000
v 0.000000 2.705133 -0.200000
v -0.450000 2.509181 -0.200000
v 0.150000 2.673184 -0.200000
v 0.450000 3.000000 0.000000
v 0.300000 3.000000 0.000000
v 0.150000 3.000000 0.000000
v 0.000000 3.000000 0.000000
v -0.150000 3.000000 0.000000
v -0.300000 3.000000 0.000000
v -0.450000 3.000000 0.000000
v 0.000000 2.707299 0.000000
v 0.450000 2.511076 0.000000
v -0.150000 2.668907 0.000000
v 0.300000 2.615586 0.000000
v -0.300000 2.611321 0.000000
v 0.150000 2.673173 0.000000
v -0.450000 2.504678 0.000000
vn 0.0216 0.9998 -0.0000
vn -0.0000 1.0000 -0.0000
vn -0.0000 -0.0000 -1.0000
vn -0.0000 -1.0000 -0.0000
vn 0.0216 -0.9998 -0.0000
vn 0.0405 0.9992 -0.0000
vn 0.0405 -0.9992 -0.0000
vn -0.0124 0.9999 -0.0000
vn -0.0405 0.9992 -0.0000
vn 0.0093 1.0000 -0.0000
vn -0.0405 -0.9992 -0.0000
vn 0.0093 -1.0000 -0.0000
vn -0.0124 -0.9999 -0.0000
vn -0.0000 -0.0000 1.0000
vt 0.940463 0.747971
vt 1.000000 0.747971
vt 1.000000 0.692612
vt 0.940463 0.692612
vt 0.247765 0.996169
vt 0.247765 0.882737
vt 0.818460 0.882737
vt 0.818460 0.996169
vt 0.059537 0.882737
vt 0.059537 0.996169
vt 0.000000 0.996169
vt 0.000000 0.882737
vt 0.940463 0.747971
vt 1.000000 0.882737
vt 1.000000 0.996169
vt 0.925665 0.996169
vt 0.925665 0.882737
vt 0.000000 0.747971
vt 0.074335 0.747971
vt 0.074335 0.692612
vt 0.000000 0.692612
vt 0.074335 0.747971
vt 0.074335 0.692612
vt 0.752235 0.747971
vt 0.752235 0.692612
vt 0.181540 0.692612
vt 0.181540 0.747971
vt 0.127938 0.882737
vt 0.127938 0.996169
vt 0.872062 0.996169
vt 0.872062 0.882737
vt 0.872062 0.692612
vt 0.872062 0.747971
vt 0.127938 0.747971
vt 0.127938 0.692612
vt 0.127938 0.747971
vt 0.181540 0.747971
vt 0.752235 0.747971
vt 0.752235 0.692612
vt 0.000071 0.002570
vt 0.199957 0.002570
vt 0.199957 0.420685
vt 0.000071 0.420685
vt 0.000000 0.000000
vt 0.199914 0.000000
vt 0.199915 0.072446
vt 0.000000 0.072446
vt 0.000000 0.676543
vt 0.199915 0.676543
vt 0.199915 1.000000
vt 0.000000 1.000000
vt 0.725516 1.000000
vt 0.725516 0.768160
vt 0.800602 0.676543
vt 0.800602 1.000000
vt 0.800559 0.002570
vt 0.800559 0.420685
vt 0.800602 0.000000
vt 0.800602 0.072446
vt 1.000000 0.072446
vt 1.000000 0.676543
vt 1.000000 0.000000
vt 1.000000 1.000000
vt 0.999929 0.002570
vt 0.999929 0.420685
vt 1.000000 0.999918
vt 1.000000 0.713863
vt 0.800360 0.713863
vt 0.800360 0.999918
vt 0.000082 0.713863
vt 0.200143 0.713863
vt 0.200143 0.185446
vt 0.000082 0.185446
vt 0.200143 -0.250000
vt 0.000082 -0.250000
vt 0.800360 0.185446
vt 0.800360 -0.250000
vt 0.200143 0.999918
vt 0.000082 0.999918
vt 1.000000 0.185446
vt 0.275170 0.999918
vt 0.275170 0.795424
vt 1.000000 -0.250000
vt 0.725333 0.795424
vt 0.725333 0.999918
vt 0.650306 0.837132
vt 0.650306 0.999918
vt 0.575279 0.863754
vt 0.575279 0.999918
vt 0.500252 0.877065
vt 0.500252 0.999918
vt 0.425225 0.863754
vt 0.425225 0.999918
vt 0.350197 0.839794
vt 0.350197 0.999918
vt 0.275001 0.765126
vt 0.275001 1.000000
vt 0.350086 0.815695
vt 0.350086 1.000000
vt 0.425172 0.843001
vt 0.425172 1.000000
vt 0.500258 0.861206
vt 0.500258 1.000000
vt 0.575344 0.845024
vt 0.575344 1.000000
vt 0.650430 0.817717
vt 0.650430 1.000000
s 1
usemtl MI_WoodTrim
f 21/1/1 7/2/2 5/3/2 19/4/1
f 18/5/3 28/6/3 30/7/3 16/8/3
f 27/9/3 19/10/3 5/11/3 6/12/3
f 8/2/4 13/13/5 27/4/5 6/3/4
f 2/14/3 1/15/3 15/16/3 31/17/3
f 3/18/2 25/19/6 15/20/6 1/21/2
f 9/22/7 4/18/4 2/21/4 31/23/7
f 22/24/8 18/25/8 16/26/9 24/27/9
f 19/10/3 27/9/3 29/28/3 20/29/3
f 20/29/3 29/28/3 28/6/3 18/5/3
f 31/17/3 15/16/3 17/30/3 32/31/3
f 32/31/3 17/30/3 16/8/3 30/7/3
f 21/1/1 19/4/1 20/32/10 23/33/10
f 23/33/10 20/32/10 18/25/8 22/24/8
f 15/20/6 25/19/6 26/34/2 17/35/2
f 17/35/2 26/34/2 24/27/9 16/26/9
f 9/22/7 31/23/7 32/35/4 11/36/4
f 11/36/4 32/35/4 30/26/11 10/37/11
f 27/4/5 13/13/5 14/33/12 29/32/12
f 29/32/12 14/33/12 12/38/13 28/39/13
f 10/37/11 30/26/11 28/39/13 12/38/13
s 3
f 55/14/3 56/15/3 60/11/3 59/12/3
f 60/2/4 56/18/4 54/21/4 58/3/4
f 55/18/2 59/2/2 57/3/2 53/21/2
f 54/14/14 53/15/14 57/11/14 58/12/14
s 4
f 63/14/3 64/15/3 68/11/3 67/12/3
f 68/2/4 64/18/4 62/21/4 66/3/4
f 63/18/2 67/2/2 65/3/2 61/21/2
f 62/14/14 61/15/14 65/11/14 66/12/14
s 2
usemtl MI_Plaster
f 37/44/14 43/45/14 45/46/14 42/47/14
f 40/48/14 44/49/14 47/50/14 34/51/14
f 42/47/14 45/46/14 44/49/14 40/48/14
f 99/52/14 107/53/14 49/54/14 52/55/14
f 45/46/14 43/45/14 48/58/14 50/59/14
f 49/54/14 50/59/14 41/60/14 39/61/14
f 50/59/14 48/58/14 38/62/14 41/60/14
f 52/55/14 49/54/14 39/61/14 36/63/14
s 5
f 72/66/3 73/67/3 83/68/3 82/69/3
f 74/70/3 79/71/3 80/72/3 76/73/3
f 76/73/3 80/72/3 77/74/3 69/75/3
f 77/74/3 80/72/3 84/76/3 81/77/3
f 78/78/3 79/71/3 74/70/3 70/79/3
f 84/76/3 83/68/3 73/67/3 75/80/3
f 91/81/3 97/82/3 79/71/3 78/78/3
f 81/77/3 84/76/3 75/80/3 71/83/3
f 82/69/3 83/68/3 95/84/3 85/85/3
f 85/85/3 95/84/3 93/86/3 86/87/3
f 86/87/3 93/86/3 98/88/3 87/89/3
f 87/89/3 98/88/3 96/90/3 88/91/3
f 88/91/3 96/90/3 94/92/3 89/93/3
f 89/93/3 94/92/3 92/94/3 90/95/3
f 90/95/3 92/94/3 97/82/3 91/81/3
s 2
f 47/50/14 44/49/14 112/96/14 105/97/14
f 105/97/14 112/96/14 110/98/14 104/99/14
f 104/99/14 110/98/14 108/100/14 103/101/14
f 103/101/14 108/100/14 106/102/14 102/103/14
f 102/103/14 106/102/14 111/104/14 101/105/14
f 101/105/14 111/104/14 109/106/14 100/107/14
f 100/107/14 109/106/14 107/53/14 99/52/14
usemtl MI_Brick
f 33/40/14 46/41/14 43/42/14 37/43/14
f 43/42/14 46/41/14 51/56/14 48/57/14
f 48/57/14 51/56/14 35/64/14 38/65/14
