# Blender 4.0.2
# www.blender.org
mtllib Wall_UnevenBrick_Door_Round.mtl
o Wall_UnevenBrick_Door_Round
v -1.000000 0.000000 0.000000
v -1.000000 3.000000 0.000000
v 1.000000 0.000000 0.000000
v 1.000000 3.000000 0.000000
v -1.000000 0.880000 0.000000
v 1.000000 0.880000 0.000000
v 1.000000 3.116765 0.092446
v 1.000000 2.883237 0.092446
v 1.000000 3.116765 -0.001371
v 1.000000 2.883237 -0.001371
v -1.000000 3.116763 0.092446
v -1.000000 2.883235 0.092446
v -1.000000 3.116763 -0.001370
v -1.000000 2.883235 -0.001370
v -0.649514 0.880000 0.000000
v -0.649514 0.000000 0.000000
v -0.649514 3.000000 0.000000
v 0.655521 0.880000 0.000000
v 0.655521 3.000000 0.000000
v 0.655521 0.000000 0.000000
v 1.000000 2.154865 0.000000
v -1.000000 2.154865 0.000000
v -0.649514 2.154865 0.000000
v 0.655521 2.154865 0.000000
v 1.000000 2.299803 0.000000
v -0.649514 2.299803 0.000000
v 0.655521 2.299803 0.000000
v -1.000000 2.299803 0.000000
v 1.000000 2.397505 0.000000
v -0.649514 2.397505 0.000000
v 0.655521 2.397505 0.000000
v -1.000000 2.397505 0.000000
v 1.000000 2.456533 0.000000
v -0.649514 2.456533 0.000000
v 0.655521 2.456533 0.000000
v -1.000000 2.456533 0.000000
v 1.000000 2.472878 0.000000
v -0.649514 2.472878 0.000000
v 0.655521 2.472878 0.000000
v -1.000000 2.472878 0.000000
v 0.000791 2.472878 0.000000
v -0.341746 2.397505 0.000000
v 0.341906 2.397505 0.000000
v -0.171188 2.456533 0.000000
v 0.174191 2.456533 0.000000
v -0.505197 2.299803 0.000000
v 0.502514 2.299803 0.000000
v -1.000000 0.000000 -0.200000
v -1.000000 3.000000 -0.200000
v 1.000000 0.000000 -0.200000
v 1.000000 3.000000 -0.200000
v -0.649057 3.000000 -0.200000
v -0.649057 0.000000 -0.200000
v 0.655356 0.000000 -0.200000
v 0.655356 3.000000 -0.200000
v -1.000000 2.155977 -0.200000
v 1.000000 2.155977 -0.200000
v -0.649057 2.155977 -0.200000
v 0.655356 2.155977 -0.200000
v 1.000000 2.299673 -0.200000
v -0.649057 2.299673 -0.200000
v 0.655356 2.299673 -0.200000
v -1.000000 2.299673 -0.200000
v 1.000000 2.398518 -0.200000
v -0.649057 2.398518 -0.200000
v 0.655356 2.398518 -0.200000
v -1.000000 2.398518 -0.200000
v 1.000000 2.457404 -0.200000
v -0.649057 2.457404 -0.200000
v 0.655356 2.457404 -0.200000
v -1.000000 2.457404 -0.200000
v 1.000000 2.473177 -0.200000
v -0.649057 2.473177 -0.200000
v 0.655356 2.473177 -0.200000
v -1.000000 2.473177 -0.200000
v 0.173636 2.457404 -0.200000
v -0.172053 2.457404 -0.200000
v 0.343318 2.398518 -0.200000
v -0.340682 2.398518 -0.200000
v 0.504569 2.299673 -0.200000
v -0.505095 2.299673 -0.200000
v 0.003953 2.473177 -0.200000
v -1.000000 3.116765 -0.314034
v -1.000000 2.883237 -0.314034
v -1.000000 3.116765 -0.195094
v -1.000000 2.883237 -0.195094
v 1.000000 3.116763 -0.314035
v 1.000000 2.883235 -0.314035
v 1.000000 3.116763 -0.195095
v 1.000000 2.883235 -0.195095
v -0.851329 2.883237 -0.195094
v -0.636919 2.883237 -0.195094
v -0.744124 2.891946 -0.195094
v 0.504469 2.883236 -0.195095
v 0.880926 2.883235 -0.195095
v 0.744124 2.877310 -0.195095
v -0.851329 3.116764 -0.314034
v -0.636919 3.116764 -0.314034
v -0.744124 3.108055 -0.314034
v 0.504469 3.116763 -0.314035
v 0.880926 3.116763 -0.314035
v 0.744124 3.122689 -0.314035
v 0.880926 3.116763 -0.195095
v 0.504469 3.116763 -0.195095
v 0.744124 3.122689 -0.195095
v -0.636919 3.116764 -0.195094
v -0.851329 3.116764 -0.195094
v -0.744124 3.108055 -0.195094
v 0.880926 2.883235 -0.314035
v 0.504469 2.883236 -0.314035
v 0.744124 2.877310 -0.314035
v -0.636919 2.883237 -0.314034
v -0.851329 2.883237 -0.314034
v -0.744124 2.891946 -0.314034
vn -0.0000 -0.0000 1.0000
vn -0.0000 -0.0000 -1.0000
vn -0.0000 -1.0000 -0.0000
vn -0.0000 1.0000 -0.0000
vn 0.0216 0.9998 -0.0000
vn 0.0216 -0.9998 -0.0000
vn 0.0405 0.9992 -0.0000
vn 0.0405 -0.9992 -0.0000
vn -0.0124 0.9999 -0.0000
vn -0.0405 0.9992 -0.0000
vn 0.0093 1.0000 -0.0000
vn -0.0405 -0.9992 -0.0000
vn 0.0093 -1.0000 -0.0000
vn -0.0124 -0.9999 -0.0000
vt 0.000071 -0.423211
vt 0.175289 -0.423211
vt 0.175289 -0.002548
vt 0.000071 -0.002548
vt 0.000000 0.750724
vt 0.175243 0.750724
vt 0.175243 1.000000
vt 0.000000 1.000000
vt 1.000000 0.882737
vt 1.000000 0.996169
vt 0.000000 0.996169
vt 0.000000 0.882737
vt 1.000000 0.747971
vt 0.000000 0.747971
vt 0.000000 0.692612
vt 1.000000 0.692612
vt 0.827761 0.668877
vt 0.827761 0.600335
vt 1.000000 0.600335
vt 1.000000 0.668877
vt 0.827761 -0.002548
vt 1.000000 -0.002548
vt 0.827714 -0.002548
vt 0.827714 -0.423211
vt 0.999929 -0.423211
vt 0.999929 -0.002548
vt 0.175243 0.668877
vt 0.175243 0.600335
vt 0.247402 0.668877
vt 0.000000 -0.002548
vt 0.175243 -0.002548
vt 0.000000 0.600335
vt 0.175243 0.715080
vt 0.329127 0.715080
vt 0.827761 0.715080
vt 1.000000 0.715080
vt 0.000000 0.668877
vt 0.827761 0.742995
vt 1.000000 0.742995
vt 0.175243 0.742995
vt 0.414406 0.742995
vt 0.000000 0.715080
vt 0.500395 0.750724
vt 0.827761 0.750724
vt 1.000000 0.750724
vt 0.000000 0.742995
vt 0.827761 1.000000
vt 1.000000 1.000000
vt 0.670953 0.715080
vt 0.751257 0.668877
vt 0.587095 0.742995
vt 0.175539 0.648265
vt 0.175539 -0.250000
vt 0.000082 -0.250000
vt 0.000082 0.648265
vt 1.000000 0.648265
vt 1.000000 -0.250000
vt 0.827692 -0.250000
vt 0.827692 0.648265
vt 1.000000 0.708134
vt 0.827692 0.708134
vt 0.752305 0.708134
vt 0.175539 0.708134
vt 0.000082 0.708134
vt 0.175539 0.749317
vt 0.000082 0.749317
vt 0.827692 0.749317
vt 0.671686 0.749317
vt 1.000000 0.749317
vt 1.000000 0.773851
vt 0.827692 0.773851
vt 0.586852 0.773851
vt 0.175539 0.773851
vt 0.000082 0.773851
vt 0.175539 0.780423
vt 0.000082 0.780423
vt 0.827692 0.780423
vt 0.502017 0.780423
vt 1.000000 0.780423
vt 1.000000 0.999918
vt 0.827692 0.999918
vt 0.175539 0.999918
vt 0.000082 0.999918
vt 0.414021 0.773851
vt 0.329714 0.749317
vt 0.247514 0.708134
vt 0.940463 0.747971
vt 0.940463 0.692612
vt 0.247765 0.996169
vt 0.247765 0.882737
vt 0.818460 0.882737
vt 0.818460 0.996169
vt 0.059537 0.882737
vt 0.059537 0.996169
vt 0.940463 0.747971
vt 0.925665 0.996169
vt 0.925665 0.882737
vt 0.074335 0.747971
vt 0.074335 0.692612
vt 0.074335 0.747971
vt 0.074335 0.692612
vt 0.752235 0.747971
vt 0.752235 0.692612
vt 0.181540 0.692612
vt 0.181540 0.747971
vt 0.127938 0.882737
vt 0.127938 0.996169
vt 0.872062 0.996169
vt 0.872062 0.882737
vt 0.872062 0.692612
vt 0.872062 0.747971
vt 0.127938 0.747971
vt 0.127938 0.692612
vt 0.127938 0.747971
vt 0.181540 0.747971
vt 0.752235 0.747971
vt 0.752235 0.692612
s 2
usemtl MI_WoodTrim
f 9/9/2 10/10/2 14/11/2 13/12/2
f 14/13/3 10/14/3 8/15/3 12/16/3
f 9/14/4 13/13/4 11/16/4 7/15/4
f 8/9/1 7/10/1 11/11/1 12/12/1
s 4
f 103/87/5 89/13/4 87/16/4 101/88/5
f 100/89/2 110/90/2 112/91/2 98/92/2
f 109/93/2 101/94/2 87/11/2 88/12/2
f 90/13/3 95/95/6 109/88/6 88/16/3
f 84/9/2 83/10/2 97/96/2 113/97/2
f 85/14/4 107/98/7 97/99/7 83/15/4
f 91/100/8 86/14/3 84/15/3 113/101/8
f 104/102/9 100/103/9 98/104/10 106/105/10
f 101/94/2 109/93/2 111/106/2 102/107/2
f 102/107/2 111/106/2 110/90/2 100/89/2
f 113/97/2 97/96/2 99/108/2 114/109/2
f 114/109/2 99/108/2 98/92/2 112/91/2
f 103/87/5 101/88/5 102/110/11 105/111/11
f 105/111/11 102/110/11 100/103/9 104/102/9
f 97/99/7 107/98/7 108/112/4 99/113/4
f 99/113/4 108/112/4 106/105/10 98/104/10
f 91/100/8 113/101/8 114/113/3 93/114/3
f 93/114/3 114/113/3 112/104/12 92/115/12
f 109/88/6 95/95/6 96/111/13 111/110/13
f 111/110/13 96/111/13 94/116/14 110/117/14
f 92/115/12 112/104/12 110/117/14 94/116/14
s 3
usemtl MI_Plaster
f 58/52/2 53/53/2 48/54/2 56/55/2
f 57/56/2 50/57/2 54/58/2 59/59/2
f 60/60/2 57/56/2 59/59/2 62/61/2
f 62/61/2 59/59/2 80/62/2
f 61/63/2 58/52/2 56/55/2 63/64/2
f 65/65/2 61/63/2 63/64/2 67/66/2
f 66/67/2 62/61/2 80/62/2 78/68/2
f 64/69/2 60/60/2 62/61/2 66/67/2
f 68/70/2 64/69/2 66/67/2 70/71/2
f 70/71/2 66/67/2 78/68/2 76/72/2
f 69/73/2 65/65/2 67/66/2 71/74/2
f 73/75/2 69/73/2 71/74/2 75/76/2
f 74/77/2 70/71/2 76/72/2 82/78/2
f 72/79/2 68/70/2 70/71/2 74/77/2
f 51/80/2 72/79/2 74/77/2 55/81/2
f 55/81/2 74/77/2 82/78/2 73/75/2 52/82/2
f 52/82/2 73/75/2 75/76/2 49/83/2
f 77/84/2 79/85/2 65/65/2 69/73/2
f 79/85/2 81/86/2 61/63/2 65/65/2
f 81/86/2 58/52/2 61/63/2
f 82/78/2 77/84/2 69/73/2 73/75/2
s 1
usemtl MI_UnevenBrick
f 1/1/1 16/2/1 15/3/1 5/4/1
f 40/5/1 38/6/1 17/7/1 2/8/1
f 27/17/1 24/18/1 21/19/1 25/20/1
f 24/18/1 18/21/1 6/22/1 21/19/1
f 18/23/1 20/24/1 3/25/1 6/26/1
f 26/27/1 23/28/1 46/29/1
f 5/30/1 15/31/1 23/28/1 22/32/1
f 30/33/1 26/27/1 46/29/1 42/34/1
f 31/35/1 27/17/1 25/20/1 29/36/1
f 22/32/1 23/28/1 26/27/1 28/37/1
f 35/38/1 31/35/1 29/36/1 33/39/1
f 34/40/1 30/33/1 42/34/1 44/41/1
f 28/37/1 26/27/1 30/33/1 32/42/1
f 38/6/1 34/40/1 44/41/1 41/43/1
f 39/44/1 35/38/1 33/39/1 37/45/1
f 32/42/1 30/33/1 34/40/1 36/46/1
f 19/47/1 39/44/1 37/45/1 4/48/1
f 17/7/1 38/6/1 41/43/1 39/44/1 19/47/1
f 36/46/1 34/40/1 38/6/1 40/5/1
f 43/49/1 47/50/1 27/17/1 31/35/1
f 45/51/1 43/49/1 31/35/1 35/38/1
f 47/50/1 24/18/1 27/17/1
f 41/43/1 45/51/1 35/38/1 39/44/1
