# Blender 4.0.2
# www.blender.org
mtllib Wall_Plaster_Straight.mtl
o Wall_Plaster_Straight
v -0.944584 0.745778 0.086021
v -0.944584 0.745778 -0.019323
v -1.000000 0.544073 -0.019323
v -1.000000 0.705534 0.086021
v -1.000000 0.544073 0.086021
v 0.944584 0.745778 0.086021
v 0.944584 0.745778 -0.044386
v 1.000000 0.544073 -0.044386
v 1.000000 0.705534 0.086021
v 1.000000 0.544073 0.086021
v -1.000000 0.000000 0.000000
v -1.000000 3.000000 0.000000
v 1.000000 0.000000 0.000000
v 1.000000 3.000000 0.000000
v -1.000000 0.836088 0.000000
v 1.000000 0.836088 0.000000
v 1.000000 0.883107 0.092446
v 1.000000 0.649580 0.092446
v 1.000000 0.883107 -0.012516
v 1.000000 0.649580 -0.012516
v -1.000000 0.883105 0.092447
v -1.000000 0.649578 0.092447
v -1.000000 0.883105 -0.012515
v -1.000000 0.649578 -0.012515
v -0.057355 3.000000 0.059093
v 0.057354 3.000000 0.059093
v -0.057355 3.000000 -0.059093
v 0.057354 3.000000 -0.059093
v -0.057354 0.813439 0.059093
v 0.057355 0.813439 0.059093
v -0.057354 0.813439 -0.059093
v 0.057355 0.813439 -0.059093
v -1.000000 0.000000 -0.200000
v -1.000000 3.000000 -0.200000
v 1.000000 0.000000 -0.200000
v 1.000000 3.000000 -0.200000
v 1.000000 3.116765 0.092446
v 1.000000 2.883237 0.092446
v 1.000000 3.116765 -0.001371
v 1.000000 2.883237 -0.001371
v -1.000000 3.116763 0.092446
v -1.000000 2.883235 0.092446
v -1.000000 3.116763 -0.001370
v -1.000000 2.883235 -0.001370
v -0.191684 -0.002096 0.085652
v -0.160946 -0.002096 0.061268
v 0.160946 -0.002096 0.085649
v 0.191684 -0.002096 -0.044387
v -0.191684 -0.002096 -0.019324
v -0.160946 -0.002096 -0.044387
v 0.160946 -0.002096 -0.019324
v 0.191684 -0.002096 0.061515
v -1.000000 3.116765 -0.314034
v -1.000000 2.883237 -0.314034
v -1.000000 3.116765 -0.195094
v -1.000000 2.883237 -0.195094
v 1.000000 3.116763 -0.314035
v 1.000000 2.883235 -0.314035
v 1.000000 3.116763 -0.195095
v 1.000000 2.883235 -0.195095
v -0.851329 2.883237 -0.195094
v -0.636919 2.883237 -0.195094
v -0.744124 2.891946 -0.195094
v 0.504469 2.883236 -0.195095
v 0.880926 2.883235 -0.195095
v 0.744124 2.877310 -0.195095
v -0.851329 3.116764 -0.314034
v -0.636919 3.116764 -0.314034
v -0.744124 3.108055 -0.314034
v 0.504469 3.116763 -0.314035
v 0.880926 3.116763 -0.314035
v 0.744124 3.122689 -0.314035
v 0.880926 3.116763 -0.195095
v 0.504469 3.116763 -0.195095
v 0.744124 3.122689 -0.195095
v -0.636919 3.116764 -0.195094
v -0.851329 3.116764 -0.195094
v -0.744124 3.108055 -0.195094
v 0.880926 2.883235 -0.314035
v 0.504469 2.883236 -0.314035
v 0.744124 2.877310 -0.314035
v -0.636919 2.883237 -0.314034
v -0.851329 2.883237 -0.314034
v -0.744124 2.891946 -0.314034
vn -0.5599 -0.8286 -0.0000
vn 0.5599 -0.8286 -0.0000
vn -0.0000 -0.0000 1.0000
vn -0.0000 -0.0000 -1.0000
vn -0.0000 -1.0000 -0.0000
vn -0.0000 1.0000 -0.0000
vn 1.0000 -0.0000 -0.0000
vn -1.0000 -0.0000 -0.0000
vn -0.0110 -0.0211 0.9997
vn 0.0002 -0.0003 1.0000
vn -0.5603 0.8283 -0.0000
vn 0.5603 0.8283 -0.0000
vn 0.0216 0.9998 -0.0000
vn 0.0216 -0.9998 -0.0000
vn 0.0405 0.9992 -0.0000
vn 0.0405 -0.9992 -0.0000
vn -0.0124 0.9999 -0.0000
vn -0.0405 0.9992 -0.0000
vn 0.0093 1.0000 -0.0000
vn -0.0405 -0.9992 -0.0000
vn 0.0093 -1.0000 -0.0000
vn -0.0124 -0.9999 -0.0000
vt 0.919003 0.692612
vt 0.919003 0.747971
vt 0.428664 0.747971
vt 0.428664 0.692612
vt 0.525278 0.692612
vt 0.034939 0.692612
vt 0.034939 0.747971
vt 0.525278 0.747971
vt 1.000000 0.481160
vt 0.000082 0.481160
vt 0.000082 0.132812
vt 1.000000 0.132812
vt 1.000000 1.000000
vt 0.000000 1.000000
vt 0.000000 0.000000
vt 1.000000 0.000000
vt 1.000000 0.882737
vt 1.000000 0.996169
vt 0.000000 0.996169
vt 0.000000 0.882737
vt 1.000000 0.747971
vt 0.000000 0.747971
vt 0.000000 0.692612
vt 1.000000 0.692612
vt 1.300223 0.691876
vt 1.300223 0.750551
vt 0.000000 0.750551
vt 0.000000 0.691876
vt 1.000000 0.999918
vt 1.000000 -0.250000
vt 0.000082 -0.250000
vt 0.000082 0.999918
vt 0.260638 0.996169
vt 0.177611 0.882737
vt -0.312728 0.882737
vt -0.393725 0.962307
vt -0.393725 0.996169
vt 0.571336 0.882737
vt 0.654364 0.996169
vt 0.000000 0.962307
vt 0.080997 0.882737
vt -0.048089 0.747971
vt -0.048089 0.692612
vt 0.606275 0.692612
vt 0.606275 0.747971
vt 0.345636 0.692612
vt 0.345636 0.747971
vt 0.940463 0.747971
vt 0.940463 0.692612
vt 0.247765 0.996169
vt 0.247765 0.882737
vt 0.818460 0.882737
vt 0.818460 0.996169
vt 0.059537 0.882737
vt 0.059537 0.996169
vt 0.940463 0.747971
vt 0.925665 0.996169
vt 0.925665 0.882737
vt 0.074335 0.747971
vt 0.074335 0.692612
vt 0.074335 0.747971
vt 0.074335 0.692612
vt 0.752235 0.747971
vt 0.752235 0.692612
vt 0.181540 0.692612
vt 0.181540 0.747971
vt 0.127938 0.882737
vt 0.127938 0.996169
vt 0.872062 0.996169
vt 0.872062 0.882737
vt 0.872062 0.692612
vt 0.872062 0.747971
vt 0.127938 0.747971
vt 0.127938 0.692612
vt 0.127938 0.747971
vt 0.181540 0.747971
vt 0.752235 0.747971
vt 0.752235 0.692612
s 1
usemtl MI_WoodTrim
f 5/1/1 3/2/1 49/3/1 45/4/1
s 2
f 10/5/2 52/6/2 48/7/2 8/8/2
s 4
f 19/17/4 20/18/4 24/19/4 23/20/4
f 24/21/5 20/22/5 18/23/5 22/24/5
f 19/22/6 23/21/6 21/24/6 17/23/6
f 18/17/3 17/18/3 21/19/3 22/20/3
s 5
f 27/25/4 28/26/4 32/27/4 31/28/4
f 32/26/7 28/27/7 26/28/7 30/25/7
f 27/27/8 31/26/8 29/25/8 25/28/8
f 26/25/3 25/26/3 29/27/3 30/28/3
s 7
f 39/17/4 40/18/4 44/19/4 43/20/4
f 44/21/5 40/22/5 38/23/5 42/24/5
f 39/22/6 43/21/6 41/24/6 37/23/6
f 38/17/3 37/18/3 41/19/3 42/20/3
s 2
f 46/33/9 52/34/9 10/35/9 9/36/9 6/37/9
s 1
f 45/38/10 47/39/10 1/19/10 4/40/10 5/41/10
s 2
f 50/42/11 46/43/11 6/44/11 7/45/11
s 1
f 47/46/12 51/47/12 2/21/12 1/24/12
s 8
f 73/48/13 59/21/6 57/24/6 71/49/13
f 70/50/4 80/51/4 82/52/4 68/53/4
f 79/54/4 71/55/4 57/19/4 58/20/4
f 60/21/5 65/56/14 79/49/14 58/24/5
f 54/17/4 53/18/4 67/57/4 83/58/4
f 55/22/6 77/59/15 67/60/15 53/23/6
f 61/61/16 56/22/5 54/23/5 83/62/16
f 74/63/17 70/64/17 68/65/18 76/66/18
f 71/55/4 79/54/4 81/67/4 72/68/4
f 72/68/4 81/67/4 80/51/4 70/50/4
f 83/58/4 67/57/4 69/69/4 84/70/4
f 84/70/4 69/69/4 68/53/4 82/52/4
f 73/48/13 71/49/13 72/71/19 75/72/19
f 75/72/19 72/71/19 70/64/17 74/63/17
f 67/60/15 77/59/15 78/73/6 69/74/6
f 69/74/6 78/73/6 76/66/18 68/65/18
f 61/61/16 83/62/16 84/74/5 63/75/5
f 63/75/5 84/74/5 82/65/20 62/76/20
f 79/49/14 65/56/14 66/72/21 81/71/21
f 81/71/21 66/72/21 64/77/22 80/78/22
f 62/76/20 82/65/20 80/78/22 64/77/22
s 3
usemtl MI_Plaster
f 16/9/3 15/10/3 11/11/3 13/12/3
f 14/13/3 12/14/3 15/15/3 16/16/3
s 6
f 36/29/4 35/30/4 33/31/4 34/32/4
