# Blender 4.0.2
# www.blender.org
mtllib Wall_Plaster_Window_Thin_Round.mtl
o Wall_Plaster_Window_Thin_Round
v -1.000000 0.000000 0.000000
v -1.000000 3.000000 0.000000
v 1.000000 0.000000 0.000000
v 1.000000 3.000000 0.000000
v -1.000000 0.880000 0.000000
v 1.000000 0.880000 0.000000
v 1.000000 2.317865 0.000000
v -1.000000 2.317865 0.000000
v 1.000000 1.048717 0.000000
v -1.000000 1.048717 0.000000
v -0.318593 0.880000 0.000000
v -0.318593 2.317865 0.000000
v -0.318593 1.048717 0.000000
v -0.318593 0.000000 0.000000
v -0.318593 3.000000 0.000000
v 0.320603 0.880000 0.000000
v 0.320603 2.317865 0.000000
v 0.320603 1.048717 0.000000
v 0.320603 0.000000 0.000000
v 0.320603 3.000000 0.000000
v 1.000000 3.116765 0.092446
v 1.000000 2.883237 0.092446
v 1.000000 3.116765 -0.001371
v 1.000000 2.883237 -0.001371
v -1.000000 3.116763 0.092446
v -1.000000 2.883235 0.092446
v -1.000000 3.116763 -0.001370
v -1.000000 2.883235 -0.001370
v 1.000000 0.883107 0.092446
v 1.000000 0.649580 0.092446
v 1.000000 0.883107 -0.012516
v 1.000000 0.649580 -0.012516
v -1.000000 0.883105 0.092447
v -1.000000 0.649578 0.092447
v -1.000000 0.883105 -0.012515
v -1.000000 0.649578 -0.012515
v 0.240704 0.880000 0.000000
v 0.160804 0.880000 0.000000
v 0.080905 0.880000 0.000000
v 0.001005 0.880000 0.000000
v -0.078894 0.880000 0.000000
v -0.158794 0.880000 0.000000
v -0.238693 0.880000 0.000000
v 0.240704 3.000000 0.000000
v 0.160804 3.000000 0.000000
v 0.080905 3.000000 0.000000
v 0.001005 3.000000 0.000000
v -0.078894 3.000000 0.000000
v -0.158794 3.000000 0.000000
v -0.238693 3.000000 0.000000
v -0.238693 2.426672 0.000000
v -0.158794 2.481595 0.000000
v -0.078894 2.512979 0.000000
v 0.001005 2.521385 0.000000
v 0.080905 2.512979 0.000000
v 0.160804 2.481595 0.000000
v 0.240704 2.426672 0.000000
v -0.238693 1.049459 0.000000
v -0.158794 1.049833 0.000000
v -0.078894 1.050048 0.000000
v 0.001005 1.050105 0.000000
v 0.080905 1.050048 0.000000
v 0.160804 1.049833 0.000000
v 0.240704 1.049459 0.000000
v -0.238693 0.000000 0.000000
v -0.158794 0.000000 0.000000
v -0.078894 0.000000 0.000000
v 0.001005 0.000000 0.000000
v 0.080905 0.000000 0.000000
v 0.160804 0.000000 0.000000
v 0.240704 0.000000 0.000000
v -1.000000 0.000000 -0.200000
v -1.000000 3.000000 -0.200000
v 1.000000 0.000000 -0.200000
v 1.000000 3.000000 -0.200000
v -1.000000 1.049015 -0.200000
v 1.000000 1.049015 -0.200000
v 1.000000 2.315328 -0.200000
v -1.000000 2.315328 -0.200000
v 0.000000 3.000000 -0.200000
v 0.000000 0.000000 -0.200000
v 0.000000 1.049015 -0.200000
v 0.000000 2.519831 -0.200000
v -0.319930 3.000000 -0.200000
v -0.319930 1.049015 -0.200000
v -0.319930 2.317390 -0.200000
v -0.319930 0.000000 -0.200000
v 0.318182 0.000000 -0.200000
v 0.318182 3.000000 -0.200000
v 0.318182 1.049015 -0.200000
v 0.318182 2.317390 -0.200000
v -0.239948 0.000000 -0.200000
v -0.159965 0.000000 -0.200000
v -0.079983 0.000000 -0.200000
v -0.079983 3.000000 -0.200000
v -0.159965 3.000000 -0.200000
v -0.239948 3.000000 -0.200000
v -0.079983 1.049015 -0.200000
v -0.159965 1.049015 -0.200000
v -0.239948 1.049015 -0.200000
v -0.079983 2.512395 -0.200000
v -0.159965 2.482027 -0.200000
v -0.239948 2.426112 -0.200000
v 0.238636 3.000000 -0.200000
v 0.159091 3.000000 -0.200000
v 0.079545 3.000000 -0.200000
v 0.238636 1.049015 -0.200000
v 0.159091 1.049015 -0.200000
v 0.079545 1.049015 -0.200000
v 0.238636 2.426112 -0.200000
v 0.159091 2.482027 -0.200000
v 0.079545 2.512395 -0.200000
v 0.079545 0.000000 -0.200000
v 0.159091 0.000000 -0.200000
v 0.238636 0.000000 -0.200000
v -1.000000 3.116765 -0.314034
v -1.000000 2.883237 -0.314034
v -1.000000 3.116765 -0.195094
v -1.000000 2.883237 -0.195094
v 1.000000 3.116763 -0.314035
v 1.000000 2.883235 -0.314035
v 1.000000 3.116763 -0.195095
v 1.000000 2.883235 -0.195095
v -0.851329 2.883237 -0.195094
v -0.636919 2.883237 -0.195094
v -0.744124 2.891946 -0.195094
v 0.504469 2.883236 -0.195095
v 0.880926 2.883235 -0.195095
v 0.744124 2.877310 -0.195095
v -0.851329 3.116764 -0.314034
v -0.636919 3.116764 -0.314034
v -0.744124 3.108055 -0.314034
v 0.504469 3.116763 -0.314035
v 0.880926 3.116763 -0.314035
v 0.744124 3.122689 -0.314035
v 0.880926 3.116763 -0.195095
v 0.504469 3.116763 -0.195095
v 0.744124 3.122689 -0.195095
v -0.636919 3.116764 -0.195094
v -0.851329 3.116764 -0.195094
v -0.744124 3.108055 -0.195094
v 0.880926 2.883235 -0.314035
v 0.504469 2.883236 -0.314035
v 0.744124 2.877310 -0.314035
v -0.636919 2.883237 -0.314034
v -0.851329 2.883237 -0.314034
v -0.744124 2.891946 -0.314034
vn -0.0000 -0.0000 1.0000
vn -0.0000 -0.0000 -1.0000
vn -0.0000 -1.0000 -0.0000
vn -0.0000 1.0000 -0.0000
vn 0.0433 0.9991 -0.0000
vn -0.0247 0.9997 -0.0000
vn 0.0810 0.9967 -0.0000
vn -0.0810 0.9967 -0.0000
vn 0.0810 -0.9967 -0.0000
vn -0.0810 -0.9967 -0.0000
vn 0.0433 -0.9991 -0.0000
vn -0.0247 -0.9997 -0.0000
vt 0.000071 0.002570
vt 0.340802 0.002570
vt 0.340802 0.420685
vt 0.000071 0.420685
vt 0.000000 0.000000
vt 0.340779 0.000000
vt 0.340779 0.076566
vt 0.000000 0.076566
vt 0.000000 0.676543
vt 0.340779 0.676543
vt 0.340779 1.000000
vt 0.000000 1.000000
vt 0.620748 1.000000
vt 0.620748 0.728137
vt 0.660743 0.676543
vt 0.660743 1.000000
vt 0.620731 0.420685
vt 0.620731 0.002570
vt 0.660721 0.002570
vt 0.660721 0.420685
vt 0.620748 0.076918
vt 0.620748 0.000000
vt 0.660743 0.000000
vt 0.660743 0.076566
vt 1.000000 0.076566
vt 1.000000 0.676543
vt 1.000000 0.000000
vt 1.000000 1.000000
vt 0.999929 0.002570
vt 0.999929 0.420685
vt 1.000000 0.882737
vt 1.000000 0.996169
vt 0.000000 0.996169
vt 0.000000 0.882737
vt 1.000000 0.747971
vt 0.000000 0.747971
vt 0.000000 0.692612
vt 1.000000 0.692612
vt 0.380775 0.000000
vt 0.380775 0.076918
vt 0.420770 0.000000
vt 0.420770 0.077096
vt 0.460766 0.000000
vt 0.460766 0.077198
vt 0.500761 0.000000
vt 0.500761 0.077225
vt 0.540757 0.000000
vt 0.540757 0.077198
vt 0.580752 0.000000
vt 0.580752 0.077096
vt 0.380792 0.002570
vt 0.380792 0.420685
vt 0.420781 0.002570
vt 0.420781 0.420685
vt 0.460771 0.002570
vt 0.460771 0.420685
vt 0.500761 0.002570
vt 0.500761 0.420685
vt 0.540751 0.002570
vt 0.540751 0.420685
vt 0.580741 0.002570
vt 0.580741 0.420685
vt 0.380775 0.728137
vt 0.380775 1.000000
vt 0.420770 0.754181
vt 0.420770 1.000000
vt 0.460766 0.769063
vt 0.460766 1.000000
vt 0.500761 0.773049
vt 0.500761 1.000000
vt 0.540757 0.769063
vt 0.540757 1.000000
vt 0.580752 0.754181
vt 0.580752 1.000000
vt 0.340089 0.187061
vt 0.340089 -0.250000
vt 0.000082 -0.250000
vt 0.000082 0.187061
vt 0.340089 0.715516
vt 0.000082 0.714657
vt 0.340089 0.999918
vt 0.000082 0.999918
vt 0.539810 0.999918
vt 0.539810 0.796763
vt 0.500041 0.799861
vt 0.500041 0.999918
vt 0.539810 0.187061
vt 0.539810 -0.250000
vt 0.500041 -0.250000
vt 0.500041 0.187061
vt 0.380077 0.999918
vt 0.380077 0.760814
vt 0.380077 0.187061
vt 0.380077 -0.250000
vt 1.000000 0.187061
vt 1.000000 -0.250000
vt 0.659119 -0.250000
vt 0.659119 0.187061
vt 1.000000 0.714657
vt 0.659119 0.715516
vt 1.000000 0.999918
vt 0.659119 0.999918
vt 0.460053 -0.250000
vt 0.460053 0.187061
vt 0.420065 -0.250000
vt 0.420065 0.187061
vt 0.460053 0.796763
vt 0.460053 0.999918
vt 0.420065 0.784110
vt 0.420065 0.999918
vt 0.619349 -0.250000
vt 0.619349 0.187061
vt 0.579580 -0.250000
vt 0.579580 0.187061
vt 0.619349 0.760814
vt 0.619349 0.999918
vt 0.579580 0.784110
vt 0.579580 0.999918
vt 0.940463 0.747971
vt 0.940463 0.692612
vt 0.247765 0.996169
vt 0.247765 0.882737
vt 0.818460 0.882737
vt 0.818460 0.996169
vt 0.059537 0.882737
vt 0.059537 0.996169
vt 0.940463 0.747971
vt 0.925665 0.996169
vt 0.925665 0.882737
vt 0.074335 0.747971
vt 0.074335 0.692612
vt 0.074335 0.747971
vt 0.074335 0.692612
vt 0.752235 0.747971
vt 0.752235 0.692612
vt 0.181540 0.692612
vt 0.181540 0.747971
vt 0.127938 0.882737
vt 0.127938 0.996169
vt 0.872062 0.996169
vt 0.872062 0.882737
vt 0.872062 0.692612
vt 0.872062 0.747971
vt 0.127938 0.747971
vt 0.127938 0.692612
vt 0.127938 0.747971
vt 0.181540 0.747971
vt 0.752235 0.747971
vt 0.752235 0.692612
s 0
usemtl MI_Plaster
f 5/5/1 11/6/1 13/7/1 10/8/1
f 8/9/1 12/10/1 15/11/1 2/12/1
f 10/8/1 13/7/1 12/10/1 8/9/1
f 44/13/1 57/14/1 17/15/1 20/16/1
f 64/21/1 37/22/1 16/23/1 18/24/1
f 17/15/1 18/24/1 9/25/1 7/26/1
f 18/24/1 16/23/1 6/27/1 9/25/1
f 20/16/1 17/15/1 7/26/1 4/28/1
f 13/7/1 11/6/1 43/39/1 58/40/1
f 58/40/1 43/39/1 42/41/1 59/42/1
f 59/42/1 42/41/1 41/43/1 60/44/1
f 60/44/1 41/43/1 40/45/1 61/46/1
f 61/46/1 40/45/1 39/47/1 62/48/1
f 62/48/1 39/47/1 38/49/1 63/50/1
f 63/50/1 38/49/1 37/22/1 64/21/1
f 15/11/1 12/10/1 51/63/1 50/64/1
f 50/64/1 51/63/1 52/65/1 49/66/1
f 49/66/1 52/65/1 53/67/1 48/68/1
f 48/68/1 53/67/1 54/69/1 47/70/1
f 47/70/1 54/69/1 55/71/1 46/72/1
f 46/72/1 55/71/1 56/73/1 45/74/1
f 45/74/1 56/73/1 57/14/1 44/13/1
f 85/75/2 87/76/2 72/77/2 76/78/2
f 86/79/2 85/75/2 76/78/2 79/80/2
f 84/81/2 86/79/2 79/80/2 73/82/2
f 106/83/2 112/84/2 83/85/2 80/86/2
f 109/87/2 113/88/2 81/89/2 82/90/2
f 97/91/2 103/92/2 86/79/2 84/81/2
f 100/93/2 92/94/2 87/76/2 85/75/2
f 77/95/2 74/96/2 88/97/2 90/98/2
f 78/99/2 77/95/2 90/98/2 91/100/2
f 75/101/2 78/99/2 91/100/2 89/102/2
f 82/90/2 81/89/2 94/103/2 98/104/2
f 98/104/2 94/103/2 93/105/2 99/106/2
f 99/106/2 93/105/2 92/94/2 100/93/2
f 80/86/2 83/85/2 101/107/2 95/108/2
f 95/108/2 101/107/2 102/109/2 96/110/2
f 96/110/2 102/109/2 103/92/2 97/91/2
f 90/98/2 88/97/2 115/111/2 107/112/2
f 107/112/2 115/111/2 114/113/2 108/114/2
f 108/114/2 114/113/2 113/88/2 109/87/2
f 89/102/2 91/100/2 110/115/2 104/116/2
f 104/116/2 110/115/2 111/117/2 105/118/2
f 105/118/2 111/117/2 112/84/2 106/83/2
usemtl MI_Brick
f 1/1/1 14/2/1 11/3/1 5/4/1
f 37/17/1 71/18/1 19/19/1 16/20/1
f 16/20/1 19/19/1 3/29/1 6/30/1
f 11/3/1 14/2/1 65/51/1 43/52/1
f 43/52/1 65/51/1 66/53/1 42/54/1
f 42/54/1 66/53/1 67/55/1 41/56/1
f 41/56/1 67/55/1 68/57/1 40/58/1
f 40/58/1 68/57/1 69/59/1 39/60/1
f 39/60/1 69/59/1 70/61/1 38/62/1
f 38/62/1 70/61/1 71/18/1 37/17/1
usemtl MI_WoodTrim
f 23/31/2 24/32/2 28/33/2 27/34/2
f 28/35/3 24/36/3 22/37/3 26/38/3
f 23/36/4 27/35/4 25/38/4 21/37/4
f 22/31/1 21/32/1 25/33/1 26/34/1
f 31/31/2 32/32/2 36/33/2 35/34/2
f 36/35/3 32/36/3 30/37/3 34/38/3
f 31/36/4 35/35/4 33/38/4 29/37/4
f 30/31/1 29/32/1 33/33/1 34/34/1
f 136/119/4 122/35/4 120/38/4 134/120/4
f 133/121/2 143/122/2 145/123/2 131/124/2
f 142/125/2 134/126/2 120/33/2 121/34/2
f 123/35/3 128/127/3 142/120/3 121/38/3
f 117/31/2 116/32/2 130/128/2 146/129/2
f 118/36/4 140/130/4 130/131/4 116/37/4
f 124/132/3 119/36/3 117/37/3 146/133/3
f 137/134/4 133/135/4 131/136/4 139/137/4
f 134/126/2 142/125/2 144/138/2 135/139/2
f 135/139/2 144/138/2 143/122/2 133/121/2
f 146/129/2 130/128/2 132/140/2 147/141/2
f 147/141/2 132/140/2 131/124/2 145/123/2
f 136/119/5 134/120/5 135/142/5 138/143/5
f 138/143/6 135/142/6 133/135/6 137/134/6
f 130/131/7 140/130/7 141/144/7 132/145/7
f 132/145/8 141/144/8 139/137/8 131/136/8
f 124/132/9 146/133/9 147/145/9 126/146/9
f 126/146/10 147/145/10 145/136/10 125/147/10
f 142/120/11 128/127/11 129/143/11 144/142/11
f 144/142/12 129/143/12 127/148/12 143/149/12
f 125/147/3 145/136/3 143/149/3 127/148/3
