# Blender 4.0.2
# www.blender.org
mtllib Wall_Plaster_Door_RoundInset.mtl
o Wall_Plaster_Door_RoundInset
v -1.000000 0.000000 0.000000
v -1.000000 3.000000 0.000000
v 1.000000 0.000000 0.000000
v 1.000000 3.000000 0.000000
v -1.000000 0.895864 0.000000
v 1.000000 0.895864 0.000000
v -0.647874 0.000000 -0.040789
v -0.647874 0.895864 -0.040789
v 0.647874 0.000000 -1.000000
v -0.647874 0.000000 -1.000000
v -0.647874 0.895864 -1.000000
v 0.647874 0.895864 -1.000000
v 0.647874 2.151056 -1.000000
v -0.647874 2.151056 -1.000000
v -0.635858 3.000000 0.000000
v 0.635858 3.000000 0.000000
v -0.476893 3.000000 0.000000
v -0.317929 3.000000 0.000000
v -0.158964 3.000000 0.000000
v 0.000000 3.000000 0.000000
v 0.158964 3.000000 0.000000
v 0.317929 3.000000 0.000000
v 0.476893 3.000000 0.000000
v 0.630211 2.171734 -1.000000
v -0.630212 2.171734 -1.000000
v 0.495154 2.301494 -1.000000
v 0.341068 2.397914 -1.000000
v 0.173875 2.457290 -1.000000
v -0.000000 2.477339 -1.000000
v -0.173875 2.457290 -1.000000
v -0.341068 2.397914 -1.000000
v -0.495154 2.301494 -1.000000
v 0.680309 -0.000000 0.000000
v -0.680309 0.000000 0.000000
v -0.680309 0.910062 0.000000
v 0.680309 0.910062 0.000000
v 0.647874 0.895864 -0.040789
v 0.680309 2.185147 0.000000
v -0.680309 2.185147 0.000000
v 0.647874 -0.000000 -0.040789
v 0.663984 2.203636 0.000000
v -0.663984 2.203636 0.000000
v 0.521689 2.335895 0.000000
v 0.359345 2.434173 0.000000
v 0.183193 2.494692 0.000000
v -0.000000 2.515127 0.000000
v -0.183193 2.494692 0.000000
v -0.359345 2.434173 0.000000
v -0.521689 2.335895 0.000000
v -0.647874 2.151056 -0.040789
v 0.647874 2.151056 -0.040789
v 0.632241 2.169358 -0.040789
v -0.632241 2.169358 -0.040789
v 0.496748 2.299536 -0.040789
v -0.496748 2.299536 -0.040789
v 0.342166 2.396267 -0.040789
v 0.174435 2.455834 -0.040789
v -0.000000 2.475947 -0.040789
v -0.174435 2.455834 -0.040789
v -0.342166 2.396267 -0.040789
v 1.000000 3.116765 0.092446
v 1.000000 2.883237 0.092446
v 1.000000 3.116765 -0.001371
v 1.000000 2.883237 -0.001371
v -1.000000 3.116763 0.092446
v -1.000000 2.883235 0.092446
v -1.000000 3.116763 -0.001370
v -1.000000 2.883235 -0.001370
v -1.000000 0.000000 -0.200000
v -1.000000 3.000000 -0.200000
v 1.000000 0.000000 -0.200000
v 1.000000 3.000000 -0.200000
v 0.485847 2.381958 -0.961074
v 0.323898 2.462502 -0.961074
v -0.670519 2.224160 -0.961074
v 0.670389 2.224160 -0.961074
v 0.670389 3.000000 -0.200000
v 0.670389 0.000000 -0.200000
v -0.323898 2.462502 -0.961074
v 0.000000 2.544565 -0.961074
v -0.670519 3.000000 -0.200000
v -0.670519 0.000000 -0.200000
v 1.000000 2.224160 -0.200000
v -0.670519 0.000000 -0.961074
v -1.000000 2.224160 -0.200000
v 0.670389 0.000000 -0.961074
v 0.670389 2.224160 -0.200000
v -0.670519 2.224160 -0.200000
v 0.000000 3.000000 -0.200000
v 0.000000 2.544565 -0.200000
v 0.323898 3.000000 -0.200000
v 0.323898 2.462502 -0.200000
v -0.323898 3.000000 -0.200000
v -0.323898 2.462502 -0.200000
v 0.485847 3.000000 -0.200000
v 0.485847 2.381958 -0.200000
v -0.485847 3.000000 -0.200000
v -0.485847 2.381958 -0.200000
v 0.161949 3.000000 -0.200000
v 0.161949 2.523736 -0.200000
v -0.161949 3.000000 -0.200000
v -0.161949 2.523736 -0.200000
v -0.485847 2.381958 -0.961074
v 0.161949 2.523736 -0.961074
v -0.161949 2.523736 -0.961074
v -1.000000 3.116765 -0.314034
v -1.000000 2.883237 -0.314034
v -1.000000 3.116765 -0.195094
v -1.000000 2.883237 -0.195094
v 1.000000 3.116763 -0.314035
v 1.000000 2.883235 -0.314035
v 1.000000 3.116763 -0.195095
v 1.000000 2.883235 -0.195095
v -0.851329 2.883237 -0.195094
v -0.636919 2.883237 -0.195094
v -0.744124 2.891946 -0.195094
v 0.504469 2.883236 -0.195095
v 0.880926 2.883235 -0.195095
v 0.744124 2.877310 -0.195095
v -0.851329 3.116764 -0.314034
v -0.636919 3.116764 -0.314034
v -0.744124 3.108055 -0.314034
v 0.504469 3.116763 -0.314035
v 0.880926 3.116763 -0.314035
v 0.744124 3.122689 -0.314035
v 0.880926 3.116763 -0.195095
v 0.504469 3.116763 -0.195095
v 0.744124 3.122689 -0.195095
v -0.636919 3.116764 -0.195094
v -0.851329 3.116764 -0.195094
v -0.744124 3.108055 -0.195094
v 0.880926 2.883235 -0.314035
v 0.504469 2.883236 -0.314035
v 0.744124 2.877310 -0.314035
v -0.636919 2.883237 -0.314034
v -0.851329 2.883237 -0.314034
v -0.744124 2.891946 -0.314034
vn -0.0000 -0.0000 1.0000
vn 0.9441 -0.0000 0.3296
vn 1.0000 -0.0000 -0.0000
vn -0.8678 -0.2783 0.4117
vn -0.6601 -0.6262 0.4149
vn -0.7274 -0.6862 -0.0002
vn -0.9382 -0.3461 -0.0000
vn 0.6601 -0.6262 0.4149
vn 0.8678 -0.2783 0.4117
vn 0.9382 -0.3461 -0.0000
vn 0.7274 -0.6862 -0.0002
vn -0.9441 -0.0000 0.3296
vn -1.0000 -0.0000 -0.0000
vn -0.2985 -0.6313 0.7158
vn -0.3969 -0.8271 0.3979
vn -0.5588 -0.7206 0.4105
vn -0.4112 -0.5405 0.7340
vn -0.7827 -0.0000 0.6224
vn 0.6148 -0.7887 -0.0006
vn 0.5588 -0.7206 0.4105
vn 0.4350 -0.9004 -0.0010
vn 0.3969 -0.8271 0.3979
vn 0.2260 -0.9741 -0.0013
vn 0.2068 -0.8981 0.3882
vn -0.0000 -1.0000 -0.0015
vn -0.0000 -0.9231 0.3845
vn -0.2260 -0.9741 -0.0013
vn -0.2068 -0.8981 0.3882
vn -0.4350 -0.9004 -0.0010
vn -0.6148 -0.7887 -0.0006
vn -0.4785 -0.4605 0.7476
vn -0.1581 -0.6951 0.7013
vn -0.0000 -0.7182 0.6958
vn 0.1581 -0.6951 0.7013
vn 0.2985 -0.6313 0.7158
vn 0.4112 -0.5405 0.7340
vn 0.4785 -0.4605 0.7476
vn 0.6261 -0.2783 0.7284
vn 0.7827 -0.0000 0.6224
vn -0.6261 -0.2783 0.7284
vn -0.0000 -1.0000 -0.0000
vn -0.0000 1.0000 -0.0000
vn -0.0000 -0.0000 -1.0000
vn -0.9082 0.4186 -0.0000
vn -0.5516 0.8341 -0.0000
vn -0.4000 0.9165 -0.0000
vn 0.2423 0.9702 -0.0000
vn 0.4000 0.9165 -0.0000
vn 0.9083 0.4184 -0.0000
vn 0.5518 0.8340 -0.0000
vn -0.2423 0.9702 -0.0000
vn 0.0216 0.9998 -0.0000
vn 0.0216 -0.9998 -0.0000
vn 0.0405 0.9992 -0.0000
vn 0.0405 -0.9992 -0.0000
vn -0.0124 0.9999 -0.0000
vn -0.0405 0.9992 -0.0000
vn 0.0093 1.0000 -0.0000
vn -0.0405 -0.9992 -0.0000
vn 0.0093 -1.0000 -0.0000
vn -0.0124 -0.9999 -0.0000
vt 0.823937 0.596536
vt 0.823937 0.000000
vt 1.000000 0.000000
vt 1.000000 1.000000
vt 0.215812 0.420685
vt 0.215812 0.002570
vt 0.709376 0.002570
vt 0.709376 0.420685
vt 0.642019 0.707481
vt 0.630970 0.707471
vt 0.629903 0.266240
vt 0.642387 0.266251
vt 0.000000 1.000000
vt 0.176063 0.596536
vt 0.183798 0.605143
vt 0.182071 1.000000
vt -0.033598 0.707471
vt -0.044648 0.707482
vt -0.045015 0.266251
vt -0.032531 0.266240
vt 1.218230 0.707999
vt 1.218597 0.266769
vt -0.620858 0.707999
vt -0.621226 0.266769
vt 0.183841 0.605182
vt 0.251562 0.667027
vt 0.261553 1.000000
vt 0.176063 0.000000
vt 0.000000 0.000000
vt 0.461025 0.726095
vt 0.461003 0.707333
vt 0.544714 0.707395
vt 0.544748 0.726158
vt 0.194824 0.002570
vt 0.194824 0.420685
vt 0.000071 0.420685
vt 0.000071 0.002570
vt 0.803979 0.002570
vt 0.803979 0.420685
vt 0.781649 0.420685
vt 0.781649 0.002570
vt 0.748438 0.667027
vt 0.816160 0.605182
vt 0.817929 1.000000
vt 0.738447 1.000000
vt 0.328901 0.713020
vt 0.412760 0.741327
vt 0.420518 1.000000
vt 0.341036 1.000000
vt 0.412774 0.741328
vt 0.500000 0.750888
vt 0.500000 1.000000
vt 0.587226 0.741328
vt 0.579482 1.000000
vt 0.587240 0.741327
vt 0.671099 0.713020
vt 0.658964 1.000000
vt 0.671127 0.713010
vt 0.748400 0.667049
vt 0.251600 0.667049
vt 0.328873 0.713010
vt 0.053447 0.266164
vt 0.052657 0.707396
vt 0.136890 0.266101
vt 0.136369 0.707333
vt 0.218338 0.266060
vt 0.218079 0.707291
vt 0.298686 0.266046
vt 0.298686 0.707277
vt 0.379034 0.266060
vt 0.379293 0.707291
vt 0.460482 0.266101
vt 0.543925 0.266164
vt 0.631015 0.726234
vt 0.256519 0.420685
vt 0.256519 0.002570
vt 0.999929 0.002570
vt 0.999929 0.420685
vt 0.816202 0.605143
vt 0.379304 0.726054
vt 0.298686 0.726039
vt 0.218068 0.726054
vt 0.136347 0.726095
vt 0.052624 0.726158
vt -0.033643 0.726234
vt -0.044632 0.726244
vt -0.620842 0.726762
vt 1.218214 0.726762
vt 0.642004 0.726244
vt 0.332501 0.213019
vt 0.332501 0.373570
vt 0.490323 0.373570
vt 0.490323 0.213019
vt 1.000000 0.747971
vt 0.000000 0.747971
vt 0.000000 0.692612
vt 1.000000 0.692612
vt 1.000000 0.882737
vt 1.000000 0.996169
vt 0.000000 0.996169
vt 0.000000 0.882737
vt 0.164809 0.999918
vt 0.257137 0.999918
vt 0.257137 0.742418
vt 0.164809 0.676673
vt 0.017599 0.931607
vt 0.017599 0.769970
vt 0.524038 0.769969
vt 0.524038 0.931607
vt 0.017599 0.649613
vt 0.524038 0.649613
vt 0.164809 -0.250000
vt 0.000082 -0.250000
vt 0.000082 0.676673
vt 0.017599 0.317096
vt 0.017599 0.201884
vt 0.524038 0.201884
vt 0.524038 0.317096
vt 0.835208 0.999918
vt 0.835208 0.676673
vt 0.742945 0.742418
vt 0.742945 0.999918
vt 1.000000 0.999918
vt 1.000000 0.676673
vt 0.017599 -0.080044
vt 0.017599 -1.560058
vt 0.524038 -1.560058
vt 0.524038 -0.080044
vt 0.000082 0.999918
vt 0.419073 0.801488
vt 0.419073 0.999918
vt 0.500041 0.999918
vt 0.500041 0.813593
vt 0.581009 0.801488
vt 0.581009 0.999918
vt 0.661977 0.999918
vt 0.661977 0.775976
vt 0.338105 0.999918
vt 0.338105 0.775976
vt 0.017599 0.081527
vt 0.524038 0.081527
vt 1.000000 -0.250000
vt 0.835208 -0.250000
vt 0.017599 2.411621
vt 0.524038 2.411621
vt 0.017599 0.534401
vt 0.017599 0.425748
vt 0.524038 0.425748
vt 0.524038 0.534401
vt 0.940463 0.747971
vt 0.940463 0.692612
vt 0.247765 0.996169
vt 0.247765 0.882737
vt 0.818460 0.882737
vt 0.818460 0.996169
vt 0.059537 0.882737
vt 0.059537 0.996169
vt 0.940463 0.747971
vt 0.925665 0.996169
vt 0.925665 0.882737
vt 0.074335 0.747971
vt 0.074335 0.692612
vt 0.074335 0.747971
vt 0.074335 0.692612
vt 0.752235 0.747971
vt 0.752235 0.692612
vt 0.181540 0.692612
vt 0.181540 0.747971
vt 0.127938 0.882737
vt 0.127938 0.996169
vt 0.872062 0.996169
vt 0.872062 0.882737
vt 0.872062 0.692612
vt 0.872062 0.747971
vt 0.127938 0.747971
vt 0.127938 0.692612
vt 0.127938 0.747971
vt 0.181540 0.747971
vt 0.752235 0.747971
vt 0.752235 0.692612
s 3
usemtl MI_WoodTrim
f 61/90/3 62/91/3 64/92/3 63/93/3
f 67/93/13 68/92/13 66/91/13 65/90/13
f 68/94/41 64/95/41 62/96/41 66/97/41
f 63/95/42 67/94/42 65/97/42 61/96/42
f 62/98/1 61/99/1 65/100/1 66/101/1
s 5
f 126/150/52 112/94/42 110/97/42 124/151/52
f 123/152/43 133/153/43 135/154/43 121/155/43
f 132/156/43 124/157/43 110/100/43 111/101/43
f 113/94/41 118/158/53 132/151/53 111/97/41
f 107/98/43 106/99/43 120/159/43 136/160/43
f 108/95/42 130/161/54 120/162/54 106/96/42
f 114/163/55 109/95/41 107/96/41 136/164/55
f 127/165/56 123/166/56 121/167/57 129/168/57
f 124/157/43 132/156/43 134/169/43 125/170/43
f 125/170/43 134/169/43 133/153/43 123/152/43
f 136/160/43 120/159/43 122/171/43 137/172/43
f 137/172/43 122/171/43 121/155/43 135/154/43
f 126/150/52 124/151/52 125/173/58 128/174/58
f 128/174/58 125/173/58 123/166/56 127/165/56
f 120/162/54 130/161/54 131/175/42 122/176/42
f 122/176/42 131/175/42 129/168/57 121/167/57
f 114/163/55 136/164/55 137/176/41 116/177/41
f 116/177/41 137/176/41 135/167/59 115/178/59
f 132/151/53 118/158/53 119/174/60 134/173/60
f 134/173/60 119/174/60 117/179/61 133/180/61
f 115/178/59 135/167/59 133/180/61 117/179/61
s 1
usemtl MI_Plaster
f 38/1/1 36/2/1 6/3/1 4/4/1
s 2
f 51/9/4 52/10/5 24/11/6 13/12/7
s 1
f 2/13/1 39/14/1 42/15/1 15/16/1
s 2
f 53/17/8 50/18/9 14/19/10 25/20/11
f 37/21/12 51/9/4 13/12/7 12/22/13
f 50/18/9 8/23/2 11/24/3 14/19/10
s 1
f 42/25/1 49/26/1 17/27/1 15/16/1
f 35/28/1 39/14/1 2/13/1 5/29/1
s 2
f 44/30/14 56/31/15 54/32/16 43/33/17
s 1
f 43/42/1 41/43/1 16/44/1 23/45/1
f 48/46/1 47/47/1 19/48/1 18/49/1
f 47/50/1 46/51/1 20/52/1 19/48/1
f 46/51/1 45/53/1 21/54/1 20/52/1
f 45/55/1 44/56/1 22/57/1 21/54/1
f 44/58/1 43/59/1 23/45/1 22/57/1
f 49/60/1 48/61/1 18/49/1 17/27/1
s 2
f 53/17/8 25/20/11 32/62/19 55/63/20
f 55/63/20 32/62/19 31/64/21 60/65/22
f 60/65/22 31/64/21 30/66/23 59/67/24
f 59/67/24 30/66/23 29/68/25 58/69/26
f 58/69/26 29/68/25 28/70/27 57/71/28
f 57/71/28 28/70/27 27/72/29 56/31/15
f 56/31/15 27/72/29 26/73/30 54/32/16
f 54/32/16 26/73/30 24/11/6 52/10/5
f 43/33/17 54/32/16 52/10/5 41/74/31
s 1
f 41/79/1 38/1/1 4/4/1 16/44/1
s 2
f 45/80/32 57/71/28 56/31/15 44/30/14
f 46/81/33 58/69/26 57/71/28 45/80/32
f 47/82/34 59/67/24 58/69/26 46/81/33
f 48/83/35 60/65/22 59/67/24 47/82/34
f 49/84/36 55/63/20 60/65/22 48/83/35
f 42/85/37 53/17/8 55/63/20 49/84/36
f 39/86/38 35/87/39 8/23/2 50/18/9
f 36/88/18 38/89/40 51/9/4 37/21/12
f 42/85/37 39/86/38 50/18/9 53/17/8
f 38/89/40 41/74/31 52/10/5 51/9/4
s 4
f 81/102/43 97/103/43 98/104/43 88/105/43
f 88/106/44 98/107/45 103/108/45 75/109/44
f 98/107/45 94/110/46 79/111/46 103/108/45
f 82/112/43 69/113/43 85/114/43 88/105/43
f 100/115/47 92/116/48 74/117/48 104/118/47
f 77/119/43 87/120/43 96/121/43 95/122/43
f 72/123/43 83/124/43 87/120/43 77/119/43
f 87/125/49 78/126/3 86/127/3 76/128/49
f 81/102/43 88/105/43 85/114/43 70/129/43
f 102/130/43 101/131/43 89/132/43 90/133/43
f 100/134/43 99/135/43 91/136/43 92/137/43
f 98/104/43 97/103/43 93/138/43 94/139/43
f 92/137/43 91/136/43 95/122/43 96/121/43
f 92/116/48 96/140/50 73/141/50 74/117/48
f 90/133/43 89/132/43 99/135/43 100/134/43
f 94/139/43 93/138/43 101/131/43 102/130/43
f 71/142/43 78/143/43 87/120/43 83/124/43
f 82/144/13 88/106/44 75/109/44 84/145/13
f 102/146/51 90/147/42 80/148/42 105/149/51
f 96/140/50 87/125/49 76/128/49 73/141/50
f 94/110/46 102/146/51 105/149/51 79/111/46
f 90/147/42 100/115/47 104/118/47 80/148/42
s 2
usemtl MI_RockTrim
f 8/5/2 7/6/2 10/7/3 11/8/3
s 1
f 34/34/1 35/35/1 5/36/1 1/37/1
s 2
f 33/38/18 36/39/18 37/40/12 40/41/12
f 40/41/12 37/40/12 12/75/13 9/76/13
s 1
f 36/39/1 33/38/1 3/77/1 6/78/1
s 2
f 35/35/39 34/34/39 7/6/2 8/5/2
