# Blender 4.0.2
# www.blender.org
mtllib Wall_Plaster_WoodGrid.mtl
o Wall_Plaster_WoodGrid
v -1.000000 0.000000 0.000000
v 1.000000 0.000000 0.000000
v -1.000000 0.836088 0.000000
v 1.000000 0.836088 0.000000
v -1.000000 0.000000 -0.200000
v 1.000000 0.000000 -0.200000
v -1.000000 2.883237 -0.195094
v 1.000000 2.883235 -0.195095
v 1.000000 3.116765 0.092446
v 1.000000 2.883237 0.092446
v 1.000000 3.116765 -0.001371
v 1.000000 2.883237 -0.001371
v -1.000000 3.116763 0.092446
v -1.000000 2.883235 0.092446
v -1.000000 3.116763 -0.001370
v -1.000000 2.883235 -0.001370
v -1.000000 0.835227 -0.200000
v 1.000000 0.835227 -0.200000
v 1.000000 0.883107 0.092446
v 1.000000 0.649580 0.092446
v 1.000000 0.883107 -0.012516
v 1.000000 0.649580 -0.012516
v -1.000000 0.883105 0.092447
v -1.000000 0.649578 0.092447
v -1.000000 0.883105 -0.012515
v -1.000000 0.649578 -0.012515
v 1.000000 0.649580 -0.233967
v 1.000000 0.883107 -0.233967
v -1.000000 0.883105 -0.233966
v -1.000000 0.649578 -0.233966
v -0.984601 2.989747 0.021960
v -0.887095 2.989747 0.021960
v -1.000000 2.989747 -0.211140
v -0.887095 2.989747 -0.211140
v -0.984601 0.882445 0.021960
v -0.887095 0.882445 0.021960
v -1.000000 0.882445 -0.211140
v -0.887095 0.882445 -0.211140
v -0.091154 2.994891 0.021960
v 0.000000 2.994891 0.021960
v -0.091154 2.994891 -0.211140
v 0.000000 2.994891 -0.211140
v -0.091154 0.808330 0.021960
v 0.000000 0.808330 0.021960
v -0.091154 0.808330 -0.211140
v 0.000000 0.808330 -0.211140
v 0.984601 2.989747 0.021960
v 0.887095 2.989747 0.021960
v 1.000000 2.989747 -0.211140
v 0.887095 2.989747 -0.211140
v 0.984601 0.882445 0.021960
v 0.887095 0.882445 0.021960
v 1.000000 0.882445 -0.211140
v 0.887095 0.882445 -0.211140
v 0.091154 2.994891 0.021960
v 0.091154 2.994891 -0.211140
v 0.091154 0.808330 0.021960
v 0.091154 0.808330 -0.211140
v 0.980815 2.712929 -0.059942
v 0.980815 2.633896 -0.059942
v 0.980815 2.712929 -0.145243
v 0.980815 2.633896 -0.145243
v -0.977680 2.712929 -0.059942
v -0.977680 2.633895 -0.059942
v -0.977680 2.712929 -0.145243
v -0.977680 2.633896 -0.145243
v 0.980815 2.396794 -0.059942
v 0.980815 2.317760 -0.059942
v 0.980815 2.396794 -0.145243
v 0.980815 2.317760 -0.145243
v -0.977680 2.396794 -0.059942
v -0.977680 2.317760 -0.059942
v -0.977680 2.396794 -0.145243
v -0.977680 2.317760 -0.145243
v 0.980815 2.080658 -0.059942
v 0.980815 2.001625 -0.059942
v 0.980815 2.080658 -0.145243
v 0.980815 2.001625 -0.145243
v -0.977680 2.080658 -0.059942
v -0.977680 2.001625 -0.059942
v -0.977680 2.080658 -0.145243
v -0.977680 2.001625 -0.145243
v 0.980815 1.764523 -0.059942
v 0.980815 1.685490 -0.059942
v 0.980815 1.764523 -0.145243
v 0.980815 1.685490 -0.145243
v -0.977680 1.764523 -0.059942
v -0.977680 1.685489 -0.059942
v -0.977680 1.764523 -0.145243
v -0.977680 1.685489 -0.145243
v 0.980815 1.448388 -0.059942
v 0.980815 1.369354 -0.059942
v 0.980815 1.448388 -0.145243
v 0.980815 1.369354 -0.145243
v -0.977680 1.448387 -0.059942
v -0.977680 1.369354 -0.059942
v -0.977680 1.448387 -0.145243
v -0.977680 1.369354 -0.145243
v 0.980815 1.132252 -0.059942
v 0.980815 1.053219 -0.059942
v 0.980815 1.132252 -0.145243
v 0.980815 1.053219 -0.145243
v -0.977680 1.132252 -0.059942
v -0.977680 1.053218 -0.059942
v -0.977680 1.132252 -0.145243
v -0.977680 1.053219 -0.145243
v 0.666586 0.841518 -0.073650
v 0.587552 0.841518 -0.073650
v 0.666586 0.841518 -0.131534
v 0.587552 0.841518 -0.131534
v 0.666585 2.924896 -0.073650
v 0.587552 2.924896 -0.073650
v 0.666585 2.924896 -0.131534
v 0.587552 2.924896 -0.131534
v 0.350451 0.841518 -0.073650
v 0.271417 0.841518 -0.073650
v 0.350450 0.841518 -0.131534
v 0.271417 0.841518 -0.131534
v 0.350450 2.924896 -0.073650
v 0.271416 2.924896 -0.073650
v 0.350450 2.924896 -0.131534
v 0.271417 2.924896 -0.131534
v 0.034315 0.841518 -0.073650
v -0.044718 0.841518 -0.073650
v 0.034315 0.841518 -0.131534
v -0.044718 0.841518 -0.131534
v 0.034315 2.924896 -0.073650
v -0.044719 2.924896 -0.073650
v 0.034315 2.924896 -0.131534
v -0.044719 2.924896 -0.131534
v -0.281820 0.841518 -0.073650
v -0.360854 0.841518 -0.073650
v -0.281820 0.841518 -0.131534
v -0.360854 0.841518 -0.131534
v -0.281821 2.924896 -0.073650
v -0.360854 2.924896 -0.073650
v -0.281821 2.924896 -0.131534
v -0.360854 2.924896 -0.131534
v -0.597956 0.841518 -0.073650
v -0.676989 0.841518 -0.073650
v -0.597956 0.841518 -0.131534
v -0.676989 0.841518 -0.131534
v -0.597956 2.924896 -0.073650
v -0.676990 2.924896 -0.073650
v -0.597956 2.924896 -0.131534
v -0.676990 2.924896 -0.131534
v -1.000000 3.116765 -0.314034
v -1.000000 2.883237 -0.314034
v -1.000000 3.116765 -0.195094
v -1.000000 2.883237 -0.195094
v 1.000000 3.116763 -0.314035
v 1.000000 2.883235 -0.314035
v 1.000000 3.116763 -0.195095
v 1.000000 2.883235 -0.195095
v -0.850942 2.883237 -0.195094
v -0.636919 2.883237 -0.195094
v -0.744124 2.891946 -0.195094
v 0.633452 2.881646 -0.195095
v 0.880926 2.883235 -0.195095
v 0.744124 2.877310 -0.195095
v -0.851329 3.116764 -0.314034
v -0.636919 3.116764 -0.314034
v -0.744124 3.108055 -0.314034
v 0.504469 3.116763 -0.314035
v 0.880926 3.116763 -0.314035
v 0.744124 3.122689 -0.314035
v 0.880926 3.116763 -0.195095
v 0.504469 3.116763 -0.195095
v 0.744124 3.122689 -0.195095
v -0.636919 3.116764 -0.195094
v -0.851329 3.116764 -0.195094
v -0.744124 3.108055 -0.195094
v 0.880926 2.883235 -0.314035
v 0.504469 2.883236 -0.314035
v 0.744124 2.877310 -0.314035
v -0.636919 2.883237 -0.314034
v -0.851329 2.883237 -0.314034
v -0.744124 2.891946 -0.314034
v 0.850555 3.116764 0.092446
v 0.633821 3.116764 0.092446
v 0.742188 3.116764 0.092446
v -0.633821 3.116763 0.092446
v -0.850555 3.116763 0.092446
v -0.742188 3.116763 0.092446
v -0.850555 3.116763 -0.001370
v -0.633821 3.116763 -0.001370
v -0.742188 3.116763 -0.001370
v 0.633821 3.116764 -0.001371
v 0.850555 3.116764 -0.001371
v 0.742188 3.116764 -0.001371
v -0.850555 2.883236 0.092446
v -0.633821 2.883236 0.092446
v -0.742188 2.883236 0.092446
v 0.633821 2.883237 0.092446
v 0.850555 2.883237 0.092446
v 0.742188 2.883237 0.092446
v -0.850555 2.883236 -0.001370
v -0.633821 2.883236 -0.001370
v -0.742188 2.883236 -0.001370
v 0.633821 2.883237 -0.001371
v 0.850555 2.883237 -0.001371
v 0.742188 2.883237 -0.001371
vn -0.0000 -0.0000 1.0000
vn -0.0000 -0.0000 -1.0000
vn -0.0308 -0.9995 -0.0061
vn -0.0163 -0.9998 0.0086
vn -0.0102 -0.9999 0.0117
vn -0.0203 -0.9998 -0.0088
vn -0.0000 1.0000 -0.0000
vn 1.0000 -0.0000 -0.0000
vn -0.0000 -1.0000 -0.0000
vn -1.0000 -0.0000 -0.0000
vn -0.9978 -0.0000 0.0659
vn 0.9978 -0.0000 0.0659
vn 0.0216 0.9998 -0.0000
vn 0.0163 -0.9999 0.0039
vn 0.0216 -0.9998 -0.0000
vn 0.0405 0.9992 -0.0000
vn 0.0304 -0.9995 -0.0057
vn 0.0405 -0.9992 -0.0001
vn -0.0124 0.9999 -0.0000
vn -0.0405 0.9992 -0.0000
vn 0.0093 1.0000 -0.0000
vn 0.0001 -1.0000 -0.0001
vn 0.0002 -0.9999 -0.0112
vn -0.0408 -0.9992 -0.0032
vn 0.0047 -0.9999 0.0115
vn 0.0070 -1.0000 0.0046
vn -0.0074 -1.0000 -0.0026
vn 0.0202 -0.9997 -0.0114
vn 0.0133 -0.9999 0.0095
vn -0.0002 -0.9998 -0.0223
vn 0.0020 -0.9998 0.0183
vt 1.000000 0.481160
vt 0.000082 0.481160
vt 0.000082 0.132812
vt 1.000000 0.132812
vt 1.000000 0.097989
vt 1.000000 -0.250000
vt 0.000082 -0.250000
vt 0.000082 0.097989
vt 0.183089 0.694618
vt 0.816911 0.694618
vt 0.816911 0.750565
vt 0.183089 0.750565
vt 0.816911 0.747971
vt 0.816911 0.692612
vt 0.183089 0.692612
vt 0.183089 0.747971
vt 0.183089 0.996169
vt 0.183089 0.882737
vt 0.816911 0.882737
vt 0.816911 0.996169
vt 0.334920 0.377002
vt 0.334920 0.211324
vt 0.496635 0.211324
vt 0.496635 0.377002
vt 1.000000 0.747971
vt 0.000000 0.747971
vt 0.000000 0.692612
vt 1.000000 0.692612
vt 1.000000 0.882737
vt 1.000000 0.996169
vt 0.000000 0.996169
vt 0.000000 0.882737
vt 1.000000 0.692664
vt 0.000000 0.692664
vt 0.496635 0.211324
vt 0.496635 0.377002
vt 1.300223 0.691876
vt 1.300223 0.750551
vt 0.000000 0.750551
vt 0.000000 0.691876
vt -0.618948 0.442866
vt -0.618948 0.384190
vt 0.681275 0.384190
vt 0.681275 0.442866
vt 1.300223 0.442866
vt 0.000000 0.442866
vt 0.000000 0.384190
vt 1.300223 0.384190
vt 1.915072 0.384190
vt 1.915072 0.442866
vt 0.614849 0.442866
vt 0.614849 0.384190
vt 1.648637 0.384190
vt 1.648637 0.442866
vt 0.348414 0.442866
vt 0.348414 0.384190
vt 0.250038 0.442866
vt 0.250038 0.384190
vt 1.550261 0.384190
vt 1.550261 0.442866
vt 1.935567 0.384190
vt 1.935567 0.442866
vt 0.635344 0.442866
vt 0.635344 0.384190
vt 0.513217 0.384190
vt 0.513217 0.442866
vt -0.787006 0.442866
vt -0.787006 0.384190
vt 1.697825 0.384190
vt 1.697825 0.442866
vt 0.397602 0.442866
vt 0.397602 0.384190
vt 0.582900 0.384190
vt 0.582900 0.442866
vt -0.717323 0.442866
vt -0.717323 0.384190
vt 1.656835 0.384190
vt 1.656835 0.442866
vt 0.356612 0.442866
vt 0.356612 0.384190
vt 0.940463 0.747971
vt 0.940463 0.692612
vt 0.247765 0.996169
vt 0.247765 0.882737
vt 0.818460 0.882737
vt 0.818460 0.996169
vt 0.059537 0.882737
vt 0.059537 0.996169
vt 0.940463 0.747971
vt 0.925665 0.996169
vt 0.925665 0.882737
vt 0.074335 0.747971
vt 0.074335 0.692612
vt 0.074335 0.747971
vt 0.074335 0.692612
vt 0.752235 0.747971
vt 0.752235 0.692612
vt 0.181540 0.692612
vt 0.181540 0.747971
vt 0.127938 0.882737
vt 0.127938 0.996169
vt 0.872062 0.996169
vt 0.872062 0.882737
vt 0.872062 0.692612
vt 0.872062 0.747971
vt 0.127938 0.747971
vt 0.127938 0.692612
vt 0.127938 0.747971
vt 0.181540 0.747971
vt 0.816541 0.747971
vt 0.752235 0.692612
vt 0.074723 0.882737
vt 0.074723 0.996169
vt 0.925277 0.747971
vt 0.925277 0.692612
vt 0.925277 0.996169
vt 0.925277 0.882737
vt 0.074723 0.747971
vt 0.074723 0.692612
vt 0.074723 0.747971
vt 0.074723 0.694618
vt 0.074723 0.750565
vt 0.000000 0.750565
vt 0.000000 0.694618
vt 1.000000 0.694618
vt 1.000000 0.750565
vt 0.925277 0.750565
vt 0.937798 0.694618
vt 0.925277 0.996169
vt 0.871094 0.996169
vt 0.183090 0.996169
vt 0.128906 0.996169
vt 0.074723 0.996169
vt 0.128906 0.882737
vt 0.816911 0.882737
vt 0.871094 0.882737
vt 0.128906 0.996169
vt 0.871094 0.882737
vt 0.871094 0.692612
vt 0.871094 0.747971
vt 0.128906 0.747971
vt 0.128906 0.692612
vt 0.128906 0.747971
vt 0.183089 0.747971
vt 0.128906 0.694618
vt 0.128906 0.750565
vt 0.871094 0.750565
vt 0.871094 0.694618
s 3
usemtl MI_WoodTrim
f 156/9/3 158/10/4 200/11/5 198/12/6
s 4
f 186/13/7 182/14/7 180/15/7 188/16/7
f 182/17/1 192/18/1 194/19/1 180/20/1
s 0
f 21/21/8 22/22/8 27/23/8 28/24/8
f 26/25/9 22/26/9 20/27/9 24/28/9
f 21/26/7 25/25/7 23/28/7 19/27/7
f 20/29/1 19/30/1 23/31/1 24/32/1
f 28/29/2 27/30/2 30/31/2 29/32/2
f 25/33/7 21/34/7 28/26/7 29/25/7
f 22/26/9 26/25/9 30/25/9 27/26/9
f 26/35/10 25/36/10 29/21/10 30/22/10
f 33/37/2 34/38/2 38/39/2 37/40/2
f 38/38/8 34/39/8 32/40/8 36/37/8
f 33/39/11 37/38/11 35/37/11 31/40/11
f 32/37/1 31/38/1 35/39/1 36/40/1
f 41/37/2 42/38/2 46/39/2 45/40/2
f 41/39/10 45/38/10 43/37/10 39/40/10
f 40/37/1 39/38/1 43/39/1 44/40/1
f 49/37/2 53/40/2 54/39/2 50/38/2
f 54/38/10 52/37/10 48/40/10 50/39/10
f 49/39/12 47/40/12 51/37/12 53/38/12
f 48/37/1 52/40/1 51/39/1 47/38/1
f 56/37/2 58/40/2 46/39/2 42/38/2
f 56/39/8 55/40/8 57/37/8 58/38/8
f 40/37/1 44/40/1 57/39/1 55/38/1
f 61/41/2 62/42/2 66/43/2 65/44/2
f 66/45/9 62/46/9 60/47/9 64/48/9
f 61/46/7 65/45/7 63/48/7 59/47/7
f 60/41/1 59/42/1 63/43/1 64/44/1
f 69/49/2 70/50/2 74/51/2 73/52/2
f 74/45/9 70/46/9 68/47/9 72/48/9
f 69/46/7 73/45/7 71/48/7 67/47/7
f 68/49/1 67/50/1 71/51/1 72/52/1
f 77/53/2 78/54/2 82/55/2 81/56/2
f 82/45/9 78/46/9 76/47/9 80/48/9
f 77/46/7 81/45/7 79/48/7 75/47/7
f 76/53/1 75/54/1 79/55/1 80/56/1
f 85/57/2 86/58/2 90/59/2 89/60/2
f 90/45/9 86/46/9 84/47/9 88/48/9
f 85/46/7 89/45/7 87/48/7 83/47/7
f 84/57/1 83/58/1 87/59/1 88/60/1
f 93/61/2 94/62/2 98/63/2 97/64/2
f 98/45/9 94/46/9 92/47/9 96/48/9
f 93/46/7 97/45/7 95/48/7 91/47/7
f 92/61/1 91/62/1 95/63/1 96/64/1
f 101/65/2 102/66/2 106/67/2 105/68/2
f 106/45/9 102/46/9 100/47/9 104/48/9
f 101/46/7 105/45/7 103/48/7 99/47/7
f 100/65/1 99/66/1 103/67/1 104/68/1
f 109/48/2 110/45/2 114/46/2 113/47/2
f 114/45/10 110/46/10 108/47/10 112/48/10
f 109/46/8 113/45/8 111/48/8 107/47/8
f 108/48/1 107/45/1 111/46/1 112/47/1
f 117/69/2 118/70/2 122/71/2 121/72/2
f 122/45/10 118/46/10 116/47/10 120/48/10
f 117/46/8 121/45/8 119/48/8 115/47/8
f 116/69/1 115/70/1 119/71/1 120/72/1
f 125/48/2 126/45/2 130/46/2 129/47/2
f 130/45/10 126/46/10 124/47/10 128/48/10
f 125/46/8 129/45/8 127/48/8 123/47/8
f 124/48/1 123/45/1 127/46/1 128/47/1
f 133/73/2 134/74/2 138/75/2 137/76/2
f 138/45/10 134/46/10 132/47/10 136/48/10
f 133/46/8 137/45/8 135/48/8 131/47/8
f 132/73/1 131/74/1 135/75/1 136/76/1
f 141/77/2 142/78/2 146/79/2 145/80/2
f 146/45/10 142/46/10 140/47/10 144/48/10
f 141/46/8 145/45/8 143/48/8 139/47/8
f 140/77/1 139/78/1 143/79/1 144/80/1
s 3
f 167/81/13 153/25/7 151/28/7 165/82/13
f 164/83/2 174/84/2 176/85/2 162/86/2
f 173/87/2 165/88/2 151/31/2 152/32/2
f 154/25/9 159/89/14 173/82/15 152/28/9
f 148/29/2 147/30/2 161/90/2 177/91/2
f 149/26/7 171/92/16 161/93/16 147/27/7
f 155/94/17 150/26/9 148/27/9 177/95/18
f 168/96/19 164/97/19 162/98/20 170/99/20
f 165/88/2 173/87/2 175/100/2 166/101/2
f 166/101/2 175/100/2 174/84/2 164/83/2
f 177/91/2 161/90/2 163/102/2 178/103/2
f 178/103/2 163/102/2 162/86/2 176/85/2
f 167/81/13 165/82/13 166/104/21 169/105/21
f 169/105/21 166/104/21 164/97/19 168/96/19
f 161/93/16 171/92/16 172/106/7 163/107/7
f 163/107/7 172/106/7 170/99/20 162/98/20
f 155/94/17 177/95/18 178/107/22 157/108/23
f 157/108/23 178/107/22 176/98/24 156/109/3
f 173/82/15 159/89/14 160/105/25 175/104/26
f 175/104/26 160/105/25 158/110/4 174/111/27
f 156/109/3 176/98/24 174/111/27 158/110/4
s 4
f 191/112/1 183/113/1 13/31/1 14/32/1
f 185/114/7 15/25/7 13/28/7 183/115/7
f 10/29/1 9/30/1 179/116/1 195/117/1
f 11/26/7 189/118/7 179/119/7 9/27/7
f 16/25/9 197/114/9 191/115/9 14/28/9
f 195/119/9 201/120/9 12/26/9 10/27/9
s 3
f 155/121/17 197/122/28 16/123/9 7/124/9
f 8/125/9 12/126/9 201/127/29 159/128/14
s 4
f 11/29/2 12/30/2 201/129/2 202/130/2 200/20/2 198/131/2 199/132/2 197/133/2 16/31/2 15/32/2 185/112/2 187/134/2 186/18/2 188/135/2 190/136/2 189/117/2
f 183/113/1 191/112/1 193/134/1 184/137/1
f 184/137/1 193/134/1 192/18/1 182/17/1
f 195/117/1 179/116/1 181/130/1 196/138/1
f 196/138/1 181/130/1 180/20/1 194/19/1
f 185/114/7 183/115/7 184/139/7 187/140/7
f 187/140/7 184/139/7 182/14/7 186/13/7
f 179/119/7 189/118/7 190/141/7 181/142/7
f 181/142/7 190/141/7 188/16/7 180/15/7
f 191/115/9 197/114/9 199/140/9 193/139/9
f 193/139/9 199/140/9 198/13/9 192/14/9
f 201/120/9 195/119/9 196/142/9 202/143/9
f 202/143/9 196/142/9 194/15/9 200/144/9
s 3
f 197/122/28 155/121/17 157/145/23 199/146/30
f 199/146/30 157/145/23 156/9/3 198/12/6
f 159/128/14 201/127/29 202/147/31 160/148/25
f 160/148/25 202/147/31 200/11/5 158/10/4
s 4
f 200/144/9 194/15/9 192/14/9 198/13/9
s 0
usemtl MI_Plaster
f 4/1/1 3/2/1 1/3/1 2/4/1
f 18/5/2 6/6/2 5/7/2 17/8/2
