# Blender 4.0.2
# www.blender.org
mtllib Window_Thin_Flat1.mtl
o Window_Thin_Flat1
v -0.295673 1.171728 -0.037315
v -0.295673 1.114170 -0.037315
v -0.295673 1.171728 0.044315
v -0.295673 1.114170 0.044315
v 0.284026 1.171727 -0.037316
v 0.284026 1.114169 -0.037316
v 0.284026 1.171727 0.044315
v 0.284026 1.114169 0.044315
v 0.262390 1.972149 -0.007354
v 0.262921 2.009035 -0.007354
v 0.262390 1.972149 0.032800
v 0.262921 2.009035 0.032800
v -0.259525 1.986531 -0.007353
v -0.258994 2.023417 -0.007353
v -0.259525 1.986531 0.032800
v -0.258994 2.023417 0.032800
v 0.262804 1.514277 -0.007354
v 0.262532 1.549642 -0.007354
v 0.262853 1.507901 0.032800
v 0.262580 1.543266 0.032800
v -0.259185 1.506568 -0.007353
v -0.259458 1.541933 -0.007353
v -0.259135 1.500191 0.032800
v -0.259409 1.535556 0.032800
v -0.214128 2.442165 -0.039516
v -0.299500 2.442165 -0.039516
v -0.214128 2.442165 0.046516
v -0.299500 2.442165 0.046516
v -0.214129 1.107793 -0.039516
v -0.299500 1.107793 -0.039516
v -0.214129 1.107793 0.046516
v -0.299500 1.107793 0.046516
v 0.204285 2.442165 -0.039516
v 0.289657 2.442165 -0.039516
v 0.204285 2.442165 0.046516
v 0.289657 2.442165 0.046516
v 0.204285 1.107793 -0.039516
v 0.289657 1.107793 -0.039516
v 0.204285 1.107793 0.046516
v 0.289657 1.107793 0.046516
v 0.285830 2.367628 -0.037316
v 0.285830 2.434860 -0.037316
v 0.285830 2.367628 0.044315
v 0.285830 2.434860 0.044315
v -0.293869 2.367628 -0.037315
v -0.293869 2.434860 -0.037315
v -0.293869 2.367628 0.044315
v -0.293869 2.434860 0.044315
v 0.261887 1.127709 0.003888
v -0.271730 1.127710 0.003888
v 0.261887 2.391654 0.003888
v -0.271730 2.391655 0.003888
v -0.000001 1.127709 0.003888
v -0.000001 2.391655 0.003888
v 0.261858 1.991215 0.003888
v 0.261878 1.531636 0.003888
v -0.271722 1.525853 0.003888
v -0.271701 2.001993 0.003888
v -0.000001 1.996604 0.003888
v -0.000001 1.528744 0.003888
v -0.397311 2.430120 -0.228898
v -0.295841 2.430120 -0.228898
v -0.397311 2.430120 0.153762
v -0.295841 2.430120 0.153762
v -0.397310 1.107793 -0.228899
v -0.295840 1.107793 -0.228899
v -0.397310 1.107793 0.153762
v -0.295840 1.107793 0.153762
v 0.372707 2.430120 -0.228898
v 0.286000 2.430120 -0.228898
v 0.372707 2.430120 0.153762
v 0.286000 2.430120 0.153762
v 0.372706 1.107793 -0.228899
v 0.285999 1.107793 -0.228899
v 0.372706 1.107793 0.153762
v 0.285999 1.107793 0.153762
v 0.382913 2.532715 -0.266581
v 0.382913 2.419751 -0.266581
v 0.382913 2.532715 0.169162
v 0.382913 2.419751 0.169162
v -0.405058 2.532714 -0.266580
v -0.405058 2.419750 -0.266580
v -0.405058 2.532714 0.169162
v -0.405058 2.419750 0.169162
v 0.373673 1.115586 -0.266581
v 0.373673 0.974749 -0.266581
v 0.373673 1.115586 0.169162
v 0.373673 0.974749 0.169162
v -0.398279 1.115585 -0.266581
v -0.398279 0.974748 -0.266581
v -0.398279 1.115585 0.169162
v -0.398279 0.974748 0.169162
vn -0.0000 -0.0000 1.0000
vn -0.0000 -1.0000 -0.0000
vn -0.0000 1.0000 -0.0000
vn -0.0000 -0.0000 -1.0000
vn 0.0275 0.9996 -0.0000
vn -0.0275 -0.9996 -0.0000
vn -0.0146 0.9875 0.1568
vn 0.0146 -0.9875 -0.1568
vn -1.0000 -0.0000 -0.0000
vn 1.0000 -0.0000 -0.0000
vt 0.680145 0.388303
vt 0.680145 0.438890
vt -0.620078 0.438890
vt -0.620078 0.388303
vt 1.300223 0.438890
vt 0.000000 0.438890
vt 0.000000 0.388303
vt 1.300223 0.388303
vt 0.714249 0.388303
vt 0.714249 0.438890
vt -0.585974 0.438890
vt -0.585974 0.388303
vt 0.742152 0.438890
vt -0.558071 0.438890
vt -0.558071 0.388303
vt 0.742152 0.388303
vt 1.724977 0.388303
vt 1.724977 0.438890
vt 0.424754 0.438890
vt 0.424754 0.388303
vt 0.335357 0.375915
vt 0.335357 0.213070
vt 0.496952 0.213070
vt 0.496952 0.375915
vt 0.164458 0.213070
vt 0.326053 0.213070
vt 0.326053 0.375915
vt 0.164458 0.375915
vt 1.346729 0.388303
vt 0.046506 0.388303
vt 0.046506 0.438890
vt 1.346729 0.438890
vt 1.000000 1.000000
vt 0.508863 0.992128
vt 0.507641 0.000000
vt 0.953992 0.000001
vt 0.509979 0.987185
vt 0.000000 1.000000
vt 0.058612 0.000000
vt 0.508411 0.005359
vt 1.000000 0.974410
vt 0.942541 0.010727
vt 0.943317 0.000000
vt 1.000000 0.999999
vt 0.509221 1.000000
vt 0.507723 0.011964
vt 0.000000 0.984268
vt 0.044516 0.000000
vt 0.000000 1.000000
vt 0.054388 0.023964
vt 0.083990 0.209792
vt 0.083990 0.378749
vt 0.157543 0.378749
vt 0.157543 0.209792
vt 0.722656 0.692001
vt 0.000000 0.692001
vt 0.000000 0.749964
vt 0.722656 0.749964
vt 0.722656 0.873930
vt 0.722656 0.756432
vt 0.000000 0.756432
vt 0.000000 0.873930
vt 1.000000 0.692001
vt 1.000000 0.749964
vt 1.000000 0.873930
vt 1.000000 0.756432
vt -0.364296 0.998930
vt -0.364296 0.881432
vt 0.635704 0.881432
vt 0.635704 0.998930
vt 1.502264 0.692001
vt 0.502264 0.692001
vt 0.502264 0.749964
vt 1.502264 0.749964
s 0
usemtl MI_WoodTrim
f 3/1/1 4/2/1 8/3/1 7/4/1
f 8/5/2 4/6/2 2/7/2 6/8/2
f 3/6/3 7/5/3 5/8/3 1/7/3
f 2/8/4 1/5/4 5/6/4 6/7/4
f 11/9/1 12/10/1 16/11/1 15/12/1
f 16/13/5 12/14/5 10/15/5 14/16/5
f 11/14/6 15/13/6 13/16/6 9/15/6
f 10/8/4 9/5/4 13/6/4 14/7/4
f 19/17/1 20/18/1 24/19/1 23/20/1
f 24/5/7 20/6/7 18/7/7 22/8/7
f 19/6/8 23/5/8 21/8/8 17/7/8
f 18/8/4 17/5/4 21/6/4 22/7/4
f 27/1/1 28/2/1 32/3/1 31/4/1
f 32/5/9 28/6/9 26/7/9 30/8/9
f 27/6/10 31/5/10 29/8/10 25/7/10
f 26/8/4 25/5/4 29/6/4 30/7/4
f 27/21/3 25/22/3 26/23/3 28/24/3
f 31/25/2 32/26/2 30/27/2 29/28/2
f 35/29/1 39/30/1 40/31/1 36/32/1
f 40/5/10 38/8/10 34/7/10 36/6/10
f 35/6/9 33/7/9 37/8/9 39/5/9
f 34/8/4 38/7/4 37/6/4 33/5/4
f 35/21/3 36/24/3 34/23/3 33/22/3
f 39/25/2 37/28/2 38/27/2 40/26/2
f 43/1/1 44/2/1 48/3/1 47/4/1
f 48/5/3 44/6/3 42/7/3 46/8/3
f 43/6/2 47/5/2 45/8/2 41/7/2
f 42/8/4 41/5/4 45/6/4 46/7/4
f 67/51/2 65/52/2 66/53/2 68/54/2
f 63/55/1 67/56/1 68/57/1 64/58/1
f 68/59/10 66/60/10 62/61/10 64/62/10
f 63/62/9 61/61/9 65/60/9 67/59/9
f 62/55/4 66/56/4 65/57/4 61/58/4
f 75/51/2 76/54/2 74/53/2 73/52/2
f 71/55/1 72/58/1 76/57/1 75/56/1
f 76/59/9 72/62/9 70/61/9 74/60/9
f 71/62/10 75/59/10 73/60/10 69/61/10
f 70/55/4 69/58/4 73/57/4 74/56/4
f 77/52/10 79/51/10 80/54/10 78/53/10
f 83/51/9 81/52/9 82/53/9 84/54/9
f 79/63/1 83/56/1 84/57/1 80/64/1
f 84/65/2 82/66/2 78/61/2 80/62/2
f 79/67/3 77/68/3 81/69/3 83/70/3
f 85/52/10 87/51/10 88/54/10 86/53/10
f 91/51/9 89/52/9 90/53/9 92/54/9
f 87/63/1 91/56/1 92/57/1 88/64/1
f 92/65/2 90/66/2 86/61/2 88/62/2
f 87/67/3 85/68/3 89/69/3 91/70/3
f 86/71/4 90/72/4 89/73/4 85/74/4
f 78/71/4 82/72/4 81/73/4 77/74/4
usemtl MI_WindowGlass
f 56/33/1 60/34/1 53/35/1 49/36/1
f 59/37/1 58/38/1 57/39/1 60/40/1
f 55/41/1 59/37/1 60/40/1 56/42/1
f 55/43/1 51/44/1 54/45/1 59/46/1
f 60/34/1 57/47/1 50/48/1 53/35/1
f 59/46/1 54/45/1 52/49/1 58/50/1
