# Blender 4.0.2
# www.blender.org
mtllib WindowShutters_Thin_Round_Open.mtl
o WindowShutters_Thin_Round_Open
v -0.634960 2.555748 0.181112
v -0.589951 2.555748 0.240871
v -0.479253 2.347695 0.063639
v -0.434244 2.347695 0.123398
v -0.628523 1.093244 0.189775
v -0.583514 1.093244 0.249535
v -0.472816 1.093244 0.072302
v -0.427807 1.093244 0.132061
v -0.775344 2.611667 0.372775
v -0.819573 2.611667 0.312436
v -0.600969 2.553317 0.244986
v -0.645198 2.553317 0.184647
v -0.768908 1.093244 0.381439
v -0.813137 1.093244 0.321100
v -0.594534 1.093244 0.253649
v -0.638762 1.093244 0.193310
v -0.391054 2.004088 0.159089
v -0.423677 2.004430 0.115184
v -0.390203 2.158413 0.160234
v -0.422826 2.158755 0.116329
v -0.721286 2.004088 0.400601
v -0.753909 2.004430 0.356696
v -0.720435 2.158413 0.401746
v -0.753058 2.158755 0.357841
v -0.425225 1.373422 0.113100
v -0.392602 1.373764 0.157005
v -0.426076 1.527747 0.111955
v -0.393453 1.528089 0.155860
v -0.751759 1.373422 0.359590
v -0.719136 1.373764 0.403495
v -0.752609 1.527747 0.358445
v -0.719986 1.528089 0.402349
v 0.735903 2.611667 0.383242
v 0.786706 2.611667 0.328323
v 0.574726 2.543952 0.234145
v 0.625529 2.543952 0.179226
v 0.728523 1.093244 0.391116
v 0.779326 1.093244 0.336197
v 0.567346 1.093244 0.242020
v 0.618149 1.093244 0.187101
v 0.559107 2.546384 0.236823
v 0.609909 2.546384 0.181905
v 0.434299 2.349124 0.121810
v 0.485101 2.349124 0.066892
v 0.566487 1.093244 0.228949
v 0.617290 1.093244 0.174030
v 0.441679 1.093244 0.113936
v 0.492482 1.093244 0.059017
v 0.703501 2.158755 0.434464
v 0.740905 2.158413 0.394554
v 0.702526 2.004430 0.435505
v 0.739929 2.004088 0.395595
v 0.399841 2.158755 0.145526
v 0.437244 2.158413 0.105615
v 0.398865 2.004430 0.146567
v 0.436269 2.004088 0.106656
v 0.745217 1.528089 0.389952
v 0.707814 1.527747 0.429863
v 0.746193 1.373764 0.388911
v 0.708789 1.373422 0.428822
v 0.437212 1.528089 0.105649
v 0.399809 1.527747 0.145560
v 0.438188 1.373764 0.104608
v 0.400784 1.373422 0.144519
v 0.554886 1.093244 0.116524
v 0.504083 1.093244 0.171442
v 0.547505 2.485213 0.124398
v 0.496703 2.485213 0.179317
v -0.505661 1.093244 0.190798
v -0.550670 1.093244 0.131038
v -0.512097 2.505569 0.182134
v -0.557106 2.505569 0.122375
vn 0.6796 0.5256 -0.5118
vn -0.0000 -1.0000 -0.0000
vn 0.7988 -0.0001 -0.6016
vn 0.6038 0.0075 0.7971
vn -0.6038 -0.0075 -0.7971
vn -0.7988 -0.0000 0.6016
vn 0.2102 0.9655 -0.1541
vn 0.8065 -0.0000 -0.5912
vn -0.5919 -0.0072 -0.8060
vn 0.5919 0.0072 0.8060
vn -0.8065 -0.0000 0.5912
vn 0.8027 -0.0000 -0.5964
vn -0.8027 -0.0000 0.5964
vn 0.0037 1.0000 0.0050
vn -0.5903 0.0092 -0.8071
vn 0.5903 -0.0092 0.8071
vn -0.0037 -1.0000 -0.0050
vn -0.0038 1.0000 -0.0050
vn 0.6025 0.0092 0.7981
vn -0.6025 -0.0092 -0.7981
vn 0.0038 -1.0000 0.0050
vn -0.2163 0.9556 -0.2001
vn -0.7341 -0.0000 -0.6791
vn 0.6799 -0.0073 -0.7333
vn -0.6799 0.0073 0.7333
vn 0.7341 -0.0000 0.6791
vn -0.6728 -0.0082 0.7398
vn 0.6075 0.0081 0.7943
vn 0.6728 0.0082 -0.7398
vn -0.4293 0.8112 -0.3971
vn -0.6229 0.5291 -0.5762
vn -0.7341 -0.0001 -0.6791
vn 0.6756 0.0076 -0.7372
vn -0.6756 -0.0076 0.7372
vn 0.7297 -0.0000 0.6838
vn -0.7297 -0.0000 -0.6838
vn -0.0043 -1.0000 0.0045
vn 0.6893 -0.0092 -0.7244
vn -0.6893 0.0092 0.7244
vn 0.0043 1.0000 -0.0045
vn 0.0042 -1.0000 -0.0046
vn -0.6782 -0.0092 0.7348
vn 0.6782 0.0092 -0.7348
vn -0.0042 1.0000 0.0046
vn 0.3655 0.8892 -0.2753
vn -0.6075 -0.0081 -0.7943
vt 0.087826 0.295247
vt 0.158826 0.295247
vt 0.158826 0.212019
vt 0.087826 0.212019
vt 0.064598 0.295080
vt 0.135599 0.295080
vt 0.135599 0.378308
vt 0.064598 0.378308
vt 0.554288 0.694275
vt 0.554288 0.747131
vt 0.002368 0.747131
vt 0.002368 0.694275
vt 0.106208 0.812571
vt -0.445712 0.812571
vt -0.445712 0.757548
vt 0.106208 0.757548
vt 0.106208 0.812571
vt 0.106208 0.757548
vt 0.087826 0.378476
vt 0.158826 0.378476
vt 0.111050 0.212141
vt 0.111050 0.378598
vt 0.182050 0.378598
vt 0.182050 0.212141
vt 1.000000 0.694275
vt 0.448080 0.694275
vt 0.448080 0.747131
vt 1.000000 0.747131
vt 0.551920 0.867594
vt 0.551920 0.757548
vt 0.000000 0.757548
vt 0.000000 0.867594
vt 0.551920 0.757548
vt 0.551920 0.867594
vt 0.448080 0.747131
vt 0.090234 0.378488
vt 0.161234 0.378488
vt 0.161234 0.212031
vt 0.090234 0.212031
vt 0.088657 0.211858
vt 0.159657 0.211858
vt 0.159657 0.378315
vt 0.088656 0.378315
vt 0.905127 0.694275
vt 0.905127 0.747131
vt 0.746566 0.747131
vt 0.746566 0.694275
vt 0.253434 0.996838
vt 0.094873 0.996838
vt 0.094873 0.883658
vt 0.253434 0.883658
vt 0.094873 0.996838
vt 0.253434 0.996838
vt 0.253434 0.883658
vt 0.094873 0.883658
vt 0.905127 0.694275
vt 0.905127 0.747131
vt 0.746566 0.747131
vt 0.746566 0.694275
vt 0.090234 0.378488
vt 0.090234 0.212031
vt 0.161234 0.378488
vt 0.094873 0.883658
vt 0.094873 0.996838
vt 0.094873 0.996838
vt 0.094873 0.883658
vt 0.111051 0.212139
vt 0.182051 0.212139
vt 0.182051 0.378596
vt 0.111051 0.378596
vt 0.448080 0.747131
vt 0.448080 0.694275
vt 0.551920 0.757548
vt 0.448080 0.747131
vt 0.448080 0.694275
vt -0.445712 0.867594
vt 0.106208 0.867594
vt 0.106208 0.812571
vt 0.106209 0.867594
vt 0.064598 0.211851
vt 0.135599 0.211851
vt 0.064598 0.295080
vt 0.158826 0.295247
vt 0.086347 0.211846
vt 0.086347 0.378303
vt 0.157348 0.378303
vt 0.157348 0.211846
vt 0.837548 0.694275
vt 0.837548 0.747131
vt 0.162452 0.996838
vt 0.162452 0.883658
vt 0.000000 0.883658
vt 0.000000 0.996838
vt 0.162452 0.883658
vt 0.162452 0.996838
vt 0.837548 0.694275
vt 0.837548 0.747131
vt 0.086347 0.211846
vt 0.157348 0.378303
vt 0.086347 0.378303
vt 0.837548 0.694275
vt 0.162452 0.996838
vt 0.162452 0.996838
vt 0.162452 0.883658
s 0
usemtl MI_WoodTrim_Wear
f 72/1/1 71/2/1 4/3/1 3/4/1
f 70/5/2 69/6/2 6/7/2 5/8/2
f 3/9/3 4/10/3 8/11/3 7/12/3
f 69/13/4 71/14/4 2/15/4 6/16/4
f 72/14/5 70/17/5 5/18/5 1/15/5
f 2/9/6 1/10/6 5/11/6 6/12/6
f 9/19/7 11/4/7 12/3/7 10/20/7
f 15/21/2 13/22/2 14/23/2 16/24/2
f 11/25/8 15/26/8 16/27/8 12/28/8
f 16/29/9 14/30/9 10/31/9 12/32/9
f 11/32/10 9/31/10 13/33/10 15/34/10
f 10/25/11 14/26/11 13/35/11 9/28/11
f 17/36/12 18/37/12 20/38/12 19/39/12
f 23/40/13 24/41/13 22/42/13 21/43/13
f 19/44/14 20/45/14 24/46/14 23/47/14
f 24/48/15 20/49/15 18/50/15 22/51/15
f 19/52/16 23/53/16 21/54/16 17/55/16
f 18/56/17 17/57/17 21/58/17 22/59/17
f 25/60/12 27/61/12 28/38/12 26/62/12
f 31/40/13 29/43/13 30/42/13 32/41/13
f 27/44/18 31/47/18 32/46/18 28/45/18
f 32/48/19 30/51/19 26/63/19 28/64/19
f 27/65/20 25/66/20 29/54/20 31/53/20
f 26/56/21 30/59/21 29/58/21 25/57/21
f 33/19/22 34/20/22 36/3/22 35/4/22
f 39/67/2 40/68/2 38/69/2 37/70/2
f 35/25/23 36/28/23 40/71/23 39/72/23
f 40/34/24 36/32/24 34/31/24 38/73/24
f 35/32/25 39/34/25 37/30/25 33/31/25
f 34/25/26 33/28/26 37/74/26 38/75/26
f 43/76/27 47/77/27 66/78/27 68/14/27
f 8/79/28 4/76/28 71/14/28 69/13/28
f 48/79/29 44/76/29 67/14/29 65/13/29
f 47/80/2 48/81/2 65/6/2 66/82/2
f 41/19/30 42/20/30 67/83/30 68/1/30
f 68/1/31 67/83/31 44/3/31 43/4/31
f 66/82/2 65/6/2 46/7/2 45/8/2
f 43/9/32 44/10/32 48/11/32 47/12/32
f 65/13/33 67/14/33 42/15/33 46/16/33
f 68/14/34 66/78/34 45/18/34 41/15/34
f 42/9/26 41/10/26 45/11/26 46/12/26
f 49/19/35 51/4/35 52/3/35 50/20/35
f 55/84/36 53/85/36 54/86/36 56/87/36
f 51/25/37 55/88/37 56/89/37 52/28/37
f 56/90/38 54/91/38 50/92/38 52/93/38
f 51/93/39 49/92/39 53/94/39 55/95/39
f 50/25/40 54/96/40 53/97/40 49/28/40
f 57/19/35 58/20/35 60/3/35 59/4/35
f 63/98/36 64/87/36 62/99/36 61/100/36
f 59/25/41 60/28/41 64/89/41 63/101/41
f 64/102/42 60/93/42 58/92/42 62/91/42
f 59/93/43 63/103/43 61/104/43 57/92/43
f 58/25/44 57/28/44 61/97/44 62/96/44
f 1/19/45 2/20/45 71/2/45 72/1/45
f 7/80/2 8/81/2 69/6/2 70/5/2
f 3/76/46 7/77/46 70/17/46 72/14/46
