# Blender 4.0.2
# www.blender.org
mtllib WindowShutters_Wide_Round_Open.mtl
o WindowShutters_Wide_Round_Open
v -0.994465 2.710266 0.281092
v -0.961127 2.710266 0.348066
v -0.819923 2.640342 0.194032
v -0.786585 2.640342 0.261006
v -0.989719 1.093244 0.290785
v -0.956381 1.093244 0.357760
v -0.815177 1.093244 0.203725
v -0.781838 1.093244 0.270699
v -1.167492 2.740432 0.443893
v -1.199957 2.740432 0.376492
v -0.972712 2.707834 0.350099
v -1.005177 2.707834 0.282698
v -1.162747 1.093244 0.453587
v -1.195212 1.093244 0.386185
v -0.967967 1.093244 0.359793
v -1.000432 1.093244 0.292391
v -0.608548 1.093244 0.100488
v -0.576083 1.093244 0.167890
v -0.803328 1.093244 0.194282
v -0.770863 1.093244 0.261684
v -0.613293 2.348439 0.090795
v -0.580828 2.348439 0.158197
v -0.808074 2.632905 0.184589
v -0.775609 2.632905 0.251991
v -0.529983 2.004088 0.197996
v -0.554039 2.004430 0.148872
v -0.529355 2.158413 0.199277
v -0.553411 2.158755 0.150153
v -1.119425 2.004088 0.481124
v -1.143481 2.004430 0.431999
v -1.118798 2.158413 0.482405
v -1.142854 2.158755 0.433280
v -0.556812 1.373422 0.143207
v -0.532756 1.373764 0.192332
v -0.557439 1.527747 0.141927
v -0.533384 1.528089 0.191051
v -1.141896 1.373422 0.435237
v -1.117840 1.373764 0.484361
v -1.142523 1.527747 0.433956
v -1.118467 1.528089 0.483080
v 1.061347 2.740432 0.506549
v 1.103526 2.740432 0.444760
v 0.880008 2.707834 0.382758
v 0.922188 2.707834 0.320969
v 1.055204 1.093244 0.515423
v 1.097384 1.093244 0.453634
v 0.873865 1.093244 0.391632
v 0.916045 1.093244 0.329843
v 0.588044 2.348439 0.091285
v 0.545865 2.348439 0.153074
v 0.769383 2.618920 0.215076
v 0.727203 2.618920 0.276865
v 0.581901 1.093244 0.100159
v 0.539721 1.093244 0.161948
v 0.763240 1.093244 0.223950
v 0.721060 1.093244 0.285738
v 0.864952 2.710266 0.387703
v 0.907132 2.710266 0.325915
v 0.724596 2.634748 0.292281
v 0.766776 2.634748 0.230493
v 0.871095 1.093244 0.378829
v 0.913275 1.093244 0.317041
v 0.730739 1.093244 0.283408
v 0.772919 1.093244 0.221619
v 1.036824 2.158755 0.561977
v 1.067956 2.158413 0.517003
v 1.036013 2.004430 0.563150
v 1.067145 2.004088 0.518176
v 0.501994 2.158755 0.185732
v 0.533127 2.158413 0.140758
v 0.501183 2.004430 0.186905
v 0.532315 2.004088 0.141930
v 1.071546 1.528089 0.511818
v 1.040414 1.527747 0.556792
v 1.072358 1.373764 0.510645
v 1.041226 1.373422 0.555619
v 0.531075 1.528089 0.143722
v 0.499943 1.527747 0.188696
v 0.531887 1.373764 0.142549
v 0.500755 1.373422 0.187523
v -0.705938 1.093244 0.147385
v -0.678219 2.520549 0.205094
v -0.710683 2.520549 0.137692
v -0.673473 1.093244 0.214787
v 0.678714 2.513557 0.153181
v 0.636534 2.513557 0.214969
v 0.672571 1.093244 0.162054
v 0.630391 1.093244 0.223843
vn 0.3021 0.9413 -0.1504
vn -0.0000 -1.0000 -0.0000
vn 0.8952 -0.0000 -0.4456
vn 0.4474 0.0068 0.8943
vn -0.4474 -0.0068 -0.8943
vn -0.8952 -0.0000 0.4456
vn 0.1343 0.9888 -0.0647
vn 0.9009 -0.0000 -0.4339
vn -0.4343 -0.0066 -0.9007
vn 0.4343 0.0066 0.9007
vn -0.9009 -0.0000 0.4339
vn 0.4372 0.0073 0.8993
vn 0.7629 0.5319 -0.3675
vn 0.9009 0.0001 -0.4339
vn -0.4372 -0.0073 -0.8993
vn 0.8981 -0.0000 -0.4398
vn -0.8981 -0.0000 0.4398
vn 0.0027 1.0000 0.0056
vn -0.4330 0.0092 -0.9014
vn 0.4330 -0.0092 0.9014
vn -0.0027 -1.0000 -0.0056
vn -0.0028 1.0000 -0.0056
vn 0.4466 0.0092 0.8947
vn -0.4466 -0.0092 -0.8947
vn 0.0028 -1.0000 0.0056
vn -0.1213 0.9892 -0.0828
vn -0.8259 -0.0000 -0.5638
vn 0.5642 -0.0066 -0.8256
vn -0.5642 0.0066 0.8256
vn 0.8259 -0.0000 0.5638
vn -0.5719 0.7215 -0.3904
vn -0.5688 0.0081 0.8224
vn 0.5688 -0.0081 -0.8224
vn -0.8259 0.0001 -0.5638
vn -0.3358 0.9136 -0.2292
vn 0.5610 0.0068 -0.8278
vn -0.5610 -0.0068 0.8278
vn 0.8222 -0.0000 0.5692
vn -0.8222 -0.0000 -0.5692
vn -0.0036 -1.0000 0.0051
vn 0.5753 -0.0092 -0.8179
vn -0.5753 0.0092 0.8179
vn 0.0036 1.0000 -0.0051
vn 0.0035 -1.0000 -0.0052
vn -0.5629 -0.0092 0.8265
vn 0.5629 0.0092 -0.8265
vn -0.0035 1.0000 0.0052
vn -0.4396 -0.0080 -0.8982
vn 0.6493 0.6933 -0.3127
vn 0.4396 0.0080 0.8982
vn 0.5667 -0.0073 -0.8239
vn -0.5667 0.0073 0.8239
vn -0.6878 0.5537 -0.4695
vt 0.087826 0.378476
vt 0.158826 0.378476
vt 0.158826 0.212019
vt 0.087826 0.212019
vt 0.064598 0.211851
vt 0.135599 0.211851
vt 0.135599 0.378308
vt 0.064598 0.378308
vt 0.554288 0.694275
vt 0.554288 0.747131
vt 0.002368 0.747131
vt 0.002368 0.694275
vt 0.106209 0.867594
vt -0.445712 0.867594
vt -0.445712 0.757548
vt 0.106208 0.757548
vt 0.106208 0.867594
vt 0.106208 0.757548
vt 0.111050 0.212141
vt 0.111050 0.378598
vt 0.182050 0.378598
vt 0.182050 0.212141
vt 1.000000 0.694275
vt 0.448080 0.694275
vt 0.448080 0.747131
vt 1.000000 0.747131
vt 0.551920 0.867594
vt 0.551920 0.757548
vt 0.000000 0.757548
vt 0.000000 0.867594
vt 0.551920 0.757548
vt 0.551920 0.867594
vt 0.448080 0.747131
vt 0.000000 0.812571
vt 0.551920 0.812571
vt 0.087826 0.295247
vt 0.158826 0.295247
vt 0.111050 0.295370
vt 0.182050 0.295370
vt 0.551920 0.812571
vt 0.000000 0.812571
vt 0.088657 0.211858
vt 0.159657 0.211858
vt 0.159657 0.378315
vt 0.088656 0.378315
vt 0.746566 0.747131
vt 0.746566 0.694275
vt 0.253434 0.996838
vt 0.000000 0.996838
vt 0.000000 0.883658
vt 0.253434 0.883658
vt 0.253434 0.996838
vt 0.253434 0.883658
vt 0.746566 0.747131
vt 0.746566 0.694275
vt 0.111051 0.212139
vt 0.182051 0.212139
vt 0.182051 0.378596
vt 0.111051 0.378596
vt 0.448080 0.747131
vt 0.448080 0.694275
vt 0.551920 0.757548
vt 0.448080 0.747131
vt 0.448080 0.694275
vt 0.158826 0.295247
vt 0.064601 0.295126
vt 0.135601 0.295126
vt 0.135601 0.378355
vt 0.064600 0.378355
vt 0.551920 0.940248
vt 0.000000 0.940248
vt 0.551920 0.883658
vt 0.551920 0.883658
vt 0.448080 0.694275
vt 0.551920 0.996838
vt 0.551920 0.996838
vt 0.064601 0.211898
vt 0.135601 0.211898
s 0
usemtl MI_WoodTrim_Wear
f 1/1/1 2/2/1 4/3/1 3/4/1
f 7/5/2 8/6/2 6/7/2 5/8/2
f 3/9/3 4/10/3 8/11/3 7/12/3
f 8/13/4 4/14/4 2/15/4 6/16/4
f 3/14/5 7/17/5 5/18/5 1/15/5
f 2/9/6 1/10/6 5/11/6 6/12/6
f 9/1/7 11/4/7 12/3/7 10/2/7
f 15/19/2 13/20/2 14/21/2 16/22/2
f 11/23/8 15/24/8 16/25/8 12/26/8
f 16/27/9 14/28/9 10/29/9 12/30/9
f 11/30/10 9/29/10 13/31/10 15/32/10
f 10/23/11 14/24/11 13/33/11 9/26/11
f 82/34/12 24/29/12 20/31/12 84/35/12
f 82/36/13 22/4/13 21/3/13 83/37/13
f 84/38/2 20/20/2 19/21/2 81/39/2
f 22/23/14 18/24/14 17/25/14 21/26/14
f 23/23/11 19/24/11 20/33/11 24/26/11
f 81/40/15 19/28/15 23/29/15 83/41/15
f 25/1/16 26/2/16 28/3/16 27/4/16
f 31/42/17 32/43/17 30/44/17 29/45/17
f 27/23/18 28/26/18 32/46/18 31/47/18
f 32/48/19 28/49/19 26/50/19 30/51/19
f 27/49/20 31/52/20 29/53/20 25/50/20
f 26/23/21 25/26/21 29/54/21 30/55/21
f 33/1/16 35/4/16 36/3/16 34/2/16
f 39/42/17 37/45/17 38/44/17 40/43/17
f 35/23/22 39/47/22 40/46/22 36/26/22
f 40/48/23 38/51/23 34/50/23 36/49/23
f 35/49/24 33/50/24 37/53/24 39/52/24
f 34/23/25 38/55/25 37/54/25 33/26/25
f 41/1/26 42/2/26 44/3/26 43/4/26
f 47/56/2 48/57/2 46/58/2 45/59/2
f 43/23/27 44/26/27 48/60/27 47/61/27
f 48/32/28 44/30/28 42/29/28 46/62/28
f 43/30/29 47/32/29 45/28/29 41/29/29
f 42/23/30 41/26/30 45/63/30 46/64/30
f 85/36/31 86/65/31 52/3/31 51/4/31
f 87/66/2 88/67/2 54/68/2 53/69/2
f 51/23/30 52/26/30 56/25/30 55/64/30
f 88/70/32 86/71/32 50/50/32 54/72/32
f 85/71/33 87/70/33 53/73/33 49/50/33
f 50/23/34 49/26/34 53/25/34 54/74/34
f 57/1/35 58/2/35 60/3/35 59/4/35
f 63/5/2 64/6/2 62/7/2 61/8/2
f 59/9/27 60/10/27 64/11/27 63/12/27
f 64/13/36 60/14/36 58/15/36 62/16/36
f 59/14/37 63/17/37 61/18/37 57/15/37
f 58/9/30 57/10/30 61/11/30 62/12/30
f 65/1/38 67/4/38 68/3/38 66/2/38
f 71/42/39 69/45/39 70/44/39 72/43/39
f 67/23/40 71/47/40 72/46/40 68/26/40
f 72/48/41 70/51/41 66/50/41 68/49/41
f 67/49/42 65/50/42 69/53/42 71/52/42
f 66/23/43 70/55/43 69/54/43 65/26/43
f 73/1/38 74/2/38 76/3/38 75/4/38
f 79/42/39 80/43/39 78/44/39 77/45/39
f 75/23/44 76/26/44 80/46/44 79/47/44
f 80/48/45 76/49/45 74/50/45 78/51/45
f 75/49/46 79/52/46 77/53/46 73/50/46
f 74/23/47 73/26/47 77/54/47 78/55/47
f 17/27/48 81/40/48 83/41/48 21/30/48
f 18/19/2 84/38/2 81/39/2 17/22/2
f 24/1/49 82/36/49 83/37/49 23/2/49
f 22/30/50 82/34/50 84/35/50 18/32/50
f 51/49/51 55/75/51 87/70/51 85/71/51
f 56/76/52 52/49/52 86/71/52 88/70/52
f 55/77/2 56/78/2 88/67/2 87/66/2
f 49/1/53 50/2/53 86/65/53 85/36/53
