# Blender 4.0.2
# www.blender.org
mtllib WindowShutters_Thin_Flat_Open.mtl
o WindowShutters_Thin_Flat_Open
v -0.537622 2.517276 0.269086
v -0.481940 2.517276 0.319050
v -0.424084 2.517276 0.142077
v -0.368401 2.517276 0.192042
v -0.529636 1.093244 0.276346
v -0.473954 1.093244 0.326311
v -0.416098 1.093244 0.149337
v -0.360416 1.093244 0.199302
v -0.638437 2.517276 0.484211
v -0.693465 2.517276 0.433527
v -0.491959 2.517276 0.325211
v -0.546987 2.517276 0.274527
v -0.630452 1.093244 0.491472
v -0.685480 1.093244 0.440788
v -0.483974 1.093244 0.332472
v -0.539002 1.093244 0.281788
v -0.325950 2.004088 0.226115
v -0.366423 2.004430 0.189321
v -0.324895 2.158413 0.227075
v -0.365368 2.158755 0.190280
v -0.580029 2.004088 0.501097
v -0.620502 2.004430 0.464302
v -0.578974 2.158413 0.502056
v -0.619447 2.158755 0.465262
v -0.368232 1.373422 0.187676
v -0.327759 1.373764 0.224471
v -0.369287 1.527747 0.186717
v -0.328814 1.528089 0.223511
v -0.617835 1.373422 0.466727
v -0.577362 1.373764 0.503522
v -0.618890 1.527747 0.465768
v -0.578417 1.528089 0.502562
v 0.601175 2.517439 0.474364
v 0.660541 2.517439 0.428838
v 0.467564 2.517439 0.300135
v 0.526930 2.517439 0.254609
v 0.592569 1.093407 0.480876
v 0.651935 1.093407 0.435350
v 0.458957 1.093407 0.306647
v 0.518323 1.093407 0.261121
v 0.446711 2.517439 0.293515
v 0.506077 2.517439 0.247989
v 0.365521 2.517439 0.188572
v 0.424887 2.517439 0.143045
v 0.455318 1.093407 0.287004
v 0.514684 1.093407 0.241478
v 0.374129 1.093407 0.182060
v 0.433495 1.093407 0.136534
v 0.555564 2.158918 0.512747
v 0.599184 2.158576 0.479744
v 0.554427 2.004593 0.513608
v 0.598047 2.004251 0.480605
v 0.330887 2.158918 0.210597
v 0.374507 2.158576 0.177594
v 0.329749 2.004593 0.211458
v 0.373369 2.004251 0.178455
v 0.604214 1.528252 0.475939
v 0.560594 1.527910 0.508942
v 0.605351 1.373927 0.475078
v 0.561731 1.373585 0.508081
v 0.374537 1.528252 0.177571
v 0.330917 1.527910 0.210574
v 0.375674 1.373927 0.176710
v 0.332054 1.373585 0.209713
vn -0.0000 1.0000 -0.0000
vn -0.0000 -1.0000 -0.0000
vn 0.6679 -0.0000 -0.7443
vn 0.7455 0.0076 0.6664
vn -0.7455 -0.0076 -0.6664
vn -0.6679 -0.0000 0.7443
vn 0.6775 -0.0000 -0.7355
vn -0.7355 -0.0076 -0.6775
vn 0.7355 0.0076 0.6775
vn -0.6775 -0.0000 0.7355
vn 0.6727 -0.0000 -0.7399
vn -0.6727 -0.0000 0.7399
vn 0.0046 1.0000 0.0042
vn -0.7344 0.0092 -0.6786
vn 0.7344 -0.0092 0.6786
vn -0.0046 -1.0000 -0.0042
vn -0.0047 1.0000 -0.0042
vn 0.7453 0.0092 0.6667
vn -0.7453 -0.0092 -0.6667
vn 0.0047 -1.0000 0.0042
vn -0.6085 -0.0000 -0.7935
vn 0.7935 -0.0076 -0.6085
vn -0.7935 0.0076 0.6085
vn 0.6085 -0.0000 0.7935
vn 0.7909 0.0076 -0.6119
vn -0.7909 -0.0076 0.6119
vn 0.6034 -0.0000 0.7975
vn -0.6034 -0.0000 -0.7975
vn -0.0050 -1.0000 0.0037
vn 0.8024 -0.0092 -0.5967
vn -0.8024 0.0092 0.5967
vn 0.0050 1.0000 -0.0037
vn 0.0049 -1.0000 -0.0038
vn -0.7924 -0.0092 0.6100
vn 0.7924 0.0092 -0.6100
vn -0.0050 1.0000 0.0038
vt 0.087826 0.378476
vt 0.158826 0.378476
vt 0.158826 0.212019
vt 0.087826 0.212019
vt 0.064598 0.211851
vt 0.135599 0.211851
vt 0.135599 0.378308
vt 0.064598 0.378308
vt 0.554288 0.694275
vt 0.554288 0.747131
vt 0.002368 0.747131
vt 0.002368 0.694275
vt 0.106209 0.867594
vt -0.445712 0.867594
vt -0.445712 0.757548
vt 0.106208 0.757548
vt 0.106208 0.867594
vt 0.106208 0.757548
vt 0.111050 0.212141
vt 0.111050 0.378598
vt 0.182050 0.378598
vt 0.182050 0.212141
vt 1.000000 0.694275
vt 0.448080 0.694275
vt 0.448080 0.747131
vt 1.000000 0.747131
vt 0.551920 0.867594
vt 0.551920 0.757548
vt 0.000000 0.757548
vt 0.000000 0.867594
vt 0.551920 0.757548
vt 0.551920 0.867594
vt 0.448080 0.747131
vt 0.090332 0.378489
vt 0.161333 0.378489
vt 0.161333 0.212032
vt 0.090332 0.212032
vt 0.088657 0.211858
vt 0.159657 0.211858
vt 0.159657 0.378315
vt 0.088656 0.378315
vt 0.901238 0.694275
vt 0.901237 0.747131
vt 0.746566 0.747131
vt 0.746566 0.694275
vt 0.253434 0.996838
vt 0.098763 0.996838
vt 0.098762 0.883658
vt 0.253434 0.883658
vt 0.098762 0.996838
vt 0.253434 0.996838
vt 0.253434 0.883658
vt 0.098762 0.883658
vt 0.901237 0.747131
vt 0.746566 0.747131
vt 0.746566 0.694275
vt 0.090332 0.378489
vt 0.090332 0.212032
vt 0.161333 0.212032
vt 0.161333 0.378489
vt 0.901237 0.694275
vt 0.098762 0.883658
vt 0.098763 0.996838
vt 0.098762 0.996838
vt 0.111051 0.212139
vt 0.182051 0.212139
vt 0.182051 0.378596
vt 0.111051 0.378596
vt 0.448080 0.747131
vt 0.448080 0.694275
vt 0.551920 0.757548
vt 0.448080 0.747131
vt 0.448080 0.694275
vt 0.086292 0.211846
vt 0.086292 0.378303
vt 0.157293 0.378303
vt 0.157293 0.211846
vt 0.839716 0.694275
vt 0.839716 0.747131
vt 0.160284 0.996838
vt 0.160284 0.883658
vt 0.000000 0.883658
vt 0.000000 0.996838
vt 0.160284 0.883658
vt 0.160284 0.996838
vt 0.839716 0.694275
vt 0.839716 0.747131
vt 0.086292 0.211846
vt 0.157293 0.378303
vt 0.086292 0.378303
vt 0.160284 0.996838
vt 0.160284 0.996838
s 0
usemtl MI_WoodTrim_Wear
f 1/1/1 2/2/1 4/3/1 3/4/1
f 7/5/2 8/6/2 6/7/2 5/8/2
f 3/9/3 4/10/3 8/11/3 7/12/3
f 8/13/4 4/14/4 2/15/4 6/16/4
f 3/14/5 7/17/5 5/18/5 1/15/5
f 2/9/6 1/10/6 5/11/6 6/12/6
f 9/1/1 11/4/1 12/3/1 10/2/1
f 15/19/2 13/20/2 14/21/2 16/22/2
f 11/23/7 15/24/7 16/25/7 12/26/7
f 16/27/8 14/28/8 10/29/8 12/30/8
f 11/30/9 9/29/9 13/31/9 15/32/9
f 10/23/10 14/24/10 13/33/10 9/26/10
f 17/34/11 18/35/11 20/36/11 19/37/11
f 23/38/12 24/39/12 22/40/12 21/41/12
f 19/42/13 20/43/13 24/44/13 23/45/13
f 24/46/14 20/47/14 18/48/14 22/49/14
f 19/50/15 23/51/15 21/52/15 17/53/15
f 18/42/16 17/54/16 21/55/16 22/56/16
f 25/57/11 27/58/11 28/59/11 26/60/11
f 31/38/12 29/41/12 30/40/12 32/39/12
f 27/61/17 31/45/17 32/44/17 28/43/17
f 32/46/18 30/49/18 26/62/18 28/63/18
f 27/64/19 25/48/19 29/52/19 31/51/19
f 26/42/20 30/56/20 29/55/20 25/43/20
f 33/1/1 34/2/1 36/3/1 35/4/1
f 39/65/2 40/66/2 38/67/2 37/68/2
f 35/23/21 36/26/21 40/69/21 39/70/21
f 40/32/22 36/30/22 34/29/22 38/71/22
f 35/30/23 39/32/23 37/28/23 33/29/23
f 34/23/24 33/26/24 37/72/24 38/73/24
f 41/1/1 42/2/1 44/3/1 43/4/1
f 47/5/2 48/6/2 46/7/2 45/8/2
f 43/9/21 44/10/21 48/11/21 47/12/21
f 48/13/25 44/14/25 42/15/25 46/16/25
f 43/14/26 47/17/26 45/18/26 41/15/26
f 42/9/24 41/10/24 45/11/24 46/12/24
f 49/1/27 51/4/27 52/3/27 50/2/27
f 55/74/28 53/75/28 54/76/28 56/77/28
f 51/23/29 55/78/29 56/79/29 52/26/29
f 56/80/30 54/81/30 50/82/30 52/83/30
f 51/83/31 49/82/31 53/84/31 55/85/31
f 50/23/32 54/86/32 53/87/32 49/26/32
f 57/1/27 58/2/27 60/3/27 59/4/27
f 63/88/28 64/77/28 62/89/28 61/90/28
f 59/23/33 60/26/33 64/79/33 63/78/33
f 64/91/34 60/83/34 58/82/34 62/81/34
f 59/83/35 63/92/35 61/81/35 57/82/35
f 58/23/36 57/26/36 61/87/36 62/86/36
