# Blender 4.0.2
# www.blender.org
mtllib Window_Wide_Round1.mtl
o Window_Wide_Round1
v -0.258677 2.018752 -0.026289
v -0.226343 2.058441 -0.026289
v -0.260248 2.019952 0.027064
v -0.227914 2.059641 0.027064
v -0.544889 2.250769 -0.026289
v -0.512555 2.290458 -0.026289
v -0.546460 2.251969 0.027064
v -0.514126 2.291658 0.027064
v 0.258677 2.018752 -0.026289
v 0.226343 2.058441 -0.026289
v 0.260248 2.019952 0.027064
v 0.227914 2.059641 0.027064
v 0.544889 2.250769 -0.026289
v 0.512555 2.290458 -0.026289
v 0.546460 2.251969 0.027064
v 0.514126 2.291658 0.027064
v -0.024533 2.235652 -0.026289
v 0.018887 2.235260 -0.026289
v -0.024569 2.237666 0.027064
v 0.018851 2.237274 0.027064
v -0.026522 2.605336 -0.026289
v 0.016898 2.604944 -0.026289
v -0.026558 2.607350 0.027064
v 0.016863 2.606959 0.027064
v 0.681762 1.105609 -0.251689
v 0.681762 1.016045 -0.251689
v 0.681762 1.105609 0.091975
v 0.681762 1.016045 0.091975
v -0.673586 1.105609 -0.251688
v -0.673586 1.016044 -0.251688
v -0.673586 1.105609 0.091976
v -0.673586 1.016044 0.091976
v -0.670419 2.226641 -0.238833
v -0.529582 2.189999 -0.238833
v -0.670419 2.226641 0.079178
v -0.529582 2.189999 0.079178
v -0.670418 1.097817 -0.238833
v -0.529581 1.097817 -0.238833
v -0.670418 1.097817 0.079177
v -0.529581 1.097817 0.079177
v 0.670419 2.226641 -0.238833
v 0.529582 2.189999 -0.238833
v 0.670419 2.226641 0.079178
v 0.529582 2.189999 0.079178
v 0.670418 1.097817 -0.238833
v 0.529581 1.097817 -0.238833
v 0.670418 1.097817 0.079177
v 0.529581 1.097817 0.079177
v -0.682458 2.164801 -0.252283
v -0.527872 2.158101 -0.252283
v -0.682458 2.164801 0.277292
v -0.527872 2.158101 0.277292
v -0.580564 2.466267 0.277292
v -0.580564 2.466267 -0.252283
v -0.440768 2.373152 -0.252283
v -0.440768 2.373152 0.277292
v -0.434130 2.616764 0.277292
v -0.434130 2.616764 -0.252283
v -0.314328 2.493491 -0.252283
v -0.314328 2.493491 0.277292
v -0.231789 2.708408 0.277292
v -0.231789 2.708408 -0.252283
v -0.172930 2.561070 -0.252283
v -0.172930 2.561070 0.277292
v -0.000000 2.741781 0.277292
v -0.000000 2.741781 -0.252283
v -0.000000 2.589528 -0.252283
v -0.000000 2.589528 0.277292
v -0.517045 2.230139 -0.252283
v -0.517045 2.230139 0.277292
v -0.659911 2.299418 0.277292
v -0.659911 2.299418 -0.252283
v 0.682458 2.164801 -0.252283
v 0.527872 2.158101 -0.252283
v 0.682458 2.164801 0.277292
v 0.527872 2.158101 0.277292
v 0.580564 2.466267 0.277292
v 0.580564 2.466267 -0.252283
v 0.440768 2.373152 -0.252283
v 0.440768 2.373152 0.277292
v 0.434130 2.616764 0.277292
v 0.434130 2.616764 -0.252283
v 0.314328 2.493491 -0.252283
v 0.314328 2.493491 0.277292
v 0.231789 2.708408 0.277292
v 0.231789 2.708408 -0.252283
v 0.172930 2.561070 -0.252283
v 0.172930 2.561070 0.277292
v 0.517045 2.230139 -0.252283
v 0.517045 2.230139 0.277292
v 0.659911 2.299418 0.277292
v 0.659911 2.299418 -0.252283
v -0.281852 2.003783 -0.032133
v -0.225715 1.992744 -0.032133
v -0.282388 2.002594 0.048874
v -0.225715 1.992744 0.048874
v 0.282036 2.003783 -0.032133
v 0.225899 1.992744 -0.032133
v 0.282571 2.002594 0.048874
v 0.225899 1.992744 0.048874
v -0.239301 2.139109 0.048874
v -0.239301 2.139109 -0.032133
v -0.189014 2.107444 -0.032133
v -0.189014 2.107444 0.048874
v -0.178920 2.201166 0.048874
v -0.178920 2.201166 -0.032133
v -0.134767 2.158855 -0.032133
v -0.134767 2.158855 0.048874
v -0.095485 2.238955 0.048874
v -0.095485 2.238955 -0.032133
v -0.074102 2.183810 -0.032133
v -0.074102 2.183810 0.048874
v 0.000092 2.252715 0.048874
v 0.000092 2.252715 -0.032133
v 0.000092 2.197215 -0.032133
v 0.000092 2.197215 0.048874
v -0.221740 2.044177 -0.032133
v -0.221740 2.044177 0.048874
v -0.272020 2.070309 0.048874
v -0.272020 2.070309 -0.032133
v 0.239485 2.139109 0.048874
v 0.239485 2.139109 -0.032133
v 0.189198 2.107444 -0.032133
v 0.189198 2.107444 0.048874
v 0.179103 2.201166 0.048874
v 0.179103 2.201166 -0.032133
v 0.134951 2.158855 -0.032133
v 0.134951 2.158855 0.048874
v 0.095669 2.238955 0.048874
v 0.095669 2.238955 -0.032133
v 0.074285 2.183810 -0.032133
v 0.074285 2.183810 0.048874
v 0.221924 2.044177 -0.032133
v 0.221924 2.044177 0.048874
v 0.272203 2.070309 0.048874
v 0.272203 2.070309 -0.032133
v -0.231787 1.389446 -0.026289
v -0.231614 1.430616 -0.026289
v -0.231818 1.382023 0.027064
v -0.231646 1.423193 0.027064
v -0.547805 1.386362 -0.026289
v -0.547632 1.427532 -0.026289
v -0.547836 1.378939 0.027064
v -0.547664 1.420109 0.027064
v -0.229285 1.799327 -0.026289
v -0.229112 1.840497 -0.026289
v -0.229317 1.791904 0.027064
v -0.229144 1.833074 0.027064
v -0.545303 1.796243 -0.026289
v -0.545130 1.837412 -0.026289
v -0.545334 1.788820 0.027064
v -0.545162 1.829990 0.027064
v 0.231970 1.389446 -0.026289
v 0.231798 1.430616 -0.026289
v 0.232002 1.382023 0.027064
v 0.231829 1.423193 0.027064
v 0.547988 1.386362 -0.026289
v 0.547816 1.427532 -0.026289
v 0.548019 1.378939 0.027064
v 0.547847 1.420109 0.027064
v 0.229469 1.799327 -0.026289
v 0.229296 1.840497 -0.026289
v 0.229500 1.791904 0.027064
v 0.229327 1.833074 0.027064
v 0.545487 1.796243 -0.026289
v 0.545314 1.837412 -0.026289
v 0.545518 1.788820 0.027064
v 0.545345 1.829990 0.027064
v -0.282126 1.062070 -0.032133
v 0.225899 1.062070 -0.032133
v 0.225899 1.062070 0.048874
v -0.282387 1.062070 0.048874
v 0.282309 1.062070 -0.032133
v -0.225715 1.062070 -0.032133
v -0.225715 1.062070 0.048874
v 0.282571 1.062070 0.048874
v -0.544548 2.273126 0.003888
v 0.000219 2.619254 0.003888
v -0.263370 2.047079 0.003888
v 0.000161 2.226923 0.003888
v -0.540879 1.398651 0.003888
v 0.000161 1.398651 0.003888
v -0.544548 1.799263 0.003888
v -0.263370 1.804029 0.003888
v 0.000161 1.804029 0.003888
v -0.376616 2.474962 0.003888
v -0.259988 1.398651 0.003888
v -0.173575 2.591134 0.003888
v -0.138783 2.178937 0.003888
v -0.138783 1.398651 0.003888
v -0.138783 1.804029 0.003888
v -0.086679 2.619254 0.003888
v -0.069311 2.217982 0.003888
v -0.069311 1.398651 0.003888
v -0.069311 1.804029 0.003888
v -0.208255 2.115050 0.003888
v -0.208255 1.398651 0.003888
v -0.208255 1.804029 0.003888
v -0.275096 2.533049 0.003888
v 0.537648 2.273126 0.003888
v 0.256929 2.047079 0.003888
v 0.541317 1.398651 0.003888
v 0.537648 1.799263 0.003888
v 0.256929 1.804029 0.003888
v 0.377053 2.474962 0.003888
v 0.260311 1.398651 0.003888
v 0.174013 2.591134 0.003888
v 0.139106 2.178937 0.003888
v 0.139106 1.398651 0.003888
v 0.139106 1.804029 0.003888
v 0.087116 2.619254 0.003888
v 0.069634 2.217982 0.003888
v 0.069634 1.398651 0.003888
v 0.069634 1.804029 0.003888
v 0.208578 2.115050 0.003888
v 0.208578 1.398651 0.003888
v 0.208578 1.804029 0.003888
v 0.275533 2.533049 0.003888
v 0.000161 1.064762 0.003888
v -0.540880 1.064762 0.003888
v -0.259988 1.064762 0.003888
v -0.138783 1.064762 0.003888
v -0.069311 1.064762 0.003888
v -0.208255 1.064762 0.003888
v 0.541317 1.064762 0.003888
v 0.260311 1.064762 0.003888
v 0.139106 1.064762 0.003888
v 0.069634 1.064762 0.003888
v 0.208578 1.064762 0.003888
v 0.593646 1.151098 -0.139131
v 0.593646 1.073180 -0.139131
v 0.593646 1.151098 0.044760
v 0.593646 1.073180 0.044760
v -0.585470 1.151098 -0.139131
v -0.585470 1.073179 -0.139131
v -0.585470 1.151098 0.044760
v -0.585470 1.073179 0.044760
vn -0.0000 -0.0000 1.0000
vn 0.6297 0.7768 0.0011
vn -0.6297 -0.7768 -0.0011
vn -0.0000 -0.0000 -1.0000
vn -0.6297 0.7768 0.0011
vn 0.6297 -0.7768 -0.0011
vn 1.0000 0.0054 0.0005
vn -1.0000 -0.0054 -0.0005
vn 1.0000 -0.0000 -0.0000
vn -1.0000 -0.0000 -0.0000
vn -0.0000 -1.0000 -0.0000
vn -0.0000 1.0000 -0.0000
vn 0.9494 -0.3142 -0.0000
vn 0.7961 -0.6052 -0.0000
vn -0.9539 0.3002 -0.0000
vn -0.8209 0.5711 -0.0000
vn 0.5673 -0.8235 -0.0000
vn 0.2998 -0.9540 -0.0000
vn -0.5747 0.8184 -0.0000
vn -0.2803 0.9599 -0.0000
vn -0.9863 0.1652 -0.0000
vn 0.9889 -0.1486 -0.0000
vn -0.0433 -0.9991 -0.0000
vn -0.9494 -0.3142 -0.0000
vn -0.7961 -0.6052 -0.0000
vn 0.9539 0.3002 -0.0000
vn 0.8209 0.5711 -0.0000
vn -0.5673 -0.8235 -0.0000
vn -0.2998 -0.9540 -0.0000
vn 0.5747 0.8184 -0.0000
vn 0.2803 0.9599 -0.0000
vn 0.9863 0.1652 -0.0000
vn -0.9889 -0.1486 -0.0000
vn 0.0433 -0.9991 -0.0000
vn -0.9973 0.0740 -0.0036
vn -0.9971 0.0754 -0.0035
vn -1.0000 0.0001 -0.0049
vn 0.9973 0.0740 -0.0036
vn 1.0000 0.0001 -0.0049
vn 0.9971 0.0754 -0.0035
vn 0.9618 -0.2737 -0.0000
vn 0.7992 -0.6010 -0.0000
vn -0.9563 0.2923 -0.0011
vn 0.5433 -0.8395 -0.0000
vn 0.2807 -0.9598 -0.0000
vn 0.9993 -0.0386 -0.0000
vn -0.9618 -0.2737 -0.0000
vn -0.7992 -0.6010 -0.0000
vn 0.9563 0.2923 -0.0011
vn -0.5433 -0.8395 -0.0000
vn -0.2807 -0.9598 -0.0000
vn -0.9993 -0.0386 -0.0000
vn -0.0097 0.9904 0.1378
vn 0.0097 -0.9904 -0.1378
vn 0.0097 0.9904 0.1378
vn -0.0097 -0.9904 -0.1378
vt 1.724977 0.395601
vt 1.724977 0.438890
vt 1.154446 0.438890
vt 1.154445 0.395601
vt 0.570531 0.438890
vt 0.000000 0.438890
vt 0.000000 0.388303
vt 0.570531 0.388303
vt -0.000243 0.438886
vt 0.570289 0.438886
vt 0.570288 0.388298
vt -0.000243 0.388298
vt 1.300223 0.388303
vt 1.300223 0.431593
vt 0.729692 0.431593
vt 0.729692 0.388303
vt 1.724977 0.388303
vt 1.154445 0.388303
vt 0.570532 0.438890
vt 0.570531 0.388303
vt 1.300223 0.438890
vt 0.729692 0.438890
vt 0.083990 0.378749
vt 0.083990 0.209792
vt 0.157543 0.209792
vt 0.157543 0.378749
vt 0.083990 0.378749
vt 0.157543 0.378749
vt 1.112351 0.692001
vt -0.165585 0.692001
vt -0.165586 0.749964
vt 1.112351 0.749964
vt 1.100516 0.873930
vt 1.100516 0.756432
vt -0.177421 0.756432
vt -0.177421 0.873930
vt -0.885344 0.998930
vt -0.885344 0.757804
vt 0.392593 0.757804
vt 0.392593 0.998930
vt 2.088381 0.692001
vt 0.810444 0.692001
vt 0.810444 0.749964
vt 2.088381 0.749964
vt 0.722656 0.692001
vt 0.000000 0.692001
vt 0.000000 0.749964
vt 0.722656 0.749964
vt 0.230989 0.927094
vt 0.230989 0.690848
vt 0.953646 0.690848
vt 0.953646 0.927094
vt 0.000000 0.873930
vt 0.000000 0.756432
vt 0.722656 0.756432
vt 0.722656 0.873930
vt 0.230989 0.930348
vt 0.953646 0.930348
vt 0.214601 0.997378
vt 0.214601 0.757209
vt 0.273666 0.757209
vt 0.273666 0.997378
vt 0.108271 0.997378
vt 0.108271 0.885876
vt 0.237229 0.885876
vt 0.237229 0.997378
vt 0.125875 0.997378
vt 0.125875 0.757209
vt 0.194151 0.757209
vt 0.194151 0.997378
vt -0.011077 0.997378
vt -0.011077 0.885876
vt 1.032853 0.885876
vt 1.032853 0.997378
vt 0.910316 0.997378
vt 0.910316 0.885876
vt 0.333349 0.997378
vt 0.333349 0.757209
vt 0.383556 0.757209
vt 0.383556 0.997378
vt 0.777912 0.997378
vt 0.777912 0.885876
vt 0.271750 0.757209
vt 0.271749 0.997378
vt 0.353836 0.997378
vt 0.353836 0.757209
vt 0.440376 0.757209
vt 0.440376 0.997378
vt 0.362038 0.885876
vt 0.362038 0.997378
vt 0.649768 0.997378
vt 0.649768 0.885876
vt 0.497111 0.885876
vt 0.497111 0.997378
vt 0.511085 0.997378
vt 0.511085 0.885876
vt 0.440376 0.757209
vt 0.440376 0.997378
vt 1.131144 0.885876
vt 1.131144 0.997378
vt -0.106809 0.997378
vt -0.106809 0.885876
vt 0.066730 0.997378
vt 0.066730 0.757209
vt 0.171960 0.997378
vt 0.171960 0.757209
vt 0.635711 0.875644
vt 0.356401 0.875644
vt 0.356401 0.759490
vt 0.635711 0.759490
vt 0.666152 0.997378
vt 0.607087 0.997378
vt 0.607087 0.757209
vt 0.666152 0.757209
vt 0.885951 0.997378
vt 0.756993 0.997378
vt 0.756993 0.885876
vt 0.885951 0.885876
vt 0.754877 0.997378
vt 0.686602 0.997378
vt 0.686602 0.757209
vt 0.754877 0.757209
vt 1.005299 0.997378
vt 1.005299 0.885876
vt -0.010683 0.885876
vt 0.111855 0.885876
vt 0.111855 0.997378
vt -0.010683 0.997378
vt 0.547404 0.997378
vt 0.497197 0.997378
vt 0.497197 0.757209
vt 0.547404 0.757209
vt 0.244258 0.885876
vt 0.244258 0.997378
vt 0.609003 0.997378
vt 0.609003 0.757209
vt 0.526917 0.997378
vt 0.526917 0.757209
vt 0.632184 0.997378
vt 0.632184 0.885876
vt 0.372403 0.885876
vt 0.372403 0.997378
vt -0.108973 0.885876
vt -0.108973 0.997378
vt 1.101031 0.997378
vt 1.101031 0.885876
vt 0.814023 0.997378
vt 0.814023 0.757209
vt 0.708793 0.997378
vt 0.708793 0.757209
vt 0.637948 0.757524
vt 0.637948 0.875598
vt 0.354021 0.875598
vt 0.354021 0.757525
vt 0.332502 0.439937
vt -0.228408 0.439937
vt -0.226563 0.386124
vt 0.332502 0.386124
vt 0.423361 0.386124
vt 0.424070 0.439937
vt 0.004609 0.439937
vt 0.004505 0.386124
vt 0.846835 0.386124
vt 1.387145 0.386124
vt 1.389266 0.439937
vt 0.846835 0.439937
vt 0.887729 0.439937
vt 0.887729 0.386124
vt 1.446793 0.386124
vt 1.448637 0.439937
vt 0.897346 0.386124
vt 1.316202 0.386124
vt 1.316098 0.439937
vt 0.896637 0.439937
vt 0.310233 0.386124
vt 0.310233 0.439937
vt -0.232201 0.439937
vt -0.230079 0.386124
vt 0.820963 0.386124
vt 0.820963 0.439937
vt 0.782030 0.439937
vt 0.782030 0.386124
vt 0.429235 0.439937
vt 0.429235 0.386124
vt 0.488278 0.386124
vt 0.488278 0.439937
vt 0.462068 0.439937
vt 0.462068 0.386124
vt 0.505114 0.386124
vt 0.505114 0.439937
vt 0.375803 0.439937
vt 0.375803 0.386124
vt 0.804986 0.386124
vt 0.804986 0.439937
vt 0.753346 0.439937
vt 0.753346 0.386124
vt 0.740451 0.386124
vt 0.740451 0.439937
vt 0.703304 0.439937
vt 0.703304 0.386124
vt 0.696284 0.439937
vt 0.696284 0.386124
vt 0.554038 0.386124
vt 0.554038 0.439937
vt 0.605792 0.439937
vt 0.605792 0.386124
vt 0.660353 0.386124
vt 0.660353 0.439937
vt 0.546424 0.386124
vt 0.546424 0.439937
vt 0.640088 0.439937
vt 0.640088 0.386124
vt 0.610115 0.386124
vt 0.610115 0.439937
vt 0.578534 0.439937
vt 0.578534 0.386124
vt 0.660353 0.439937
vt 0.660353 0.386124
vt 0.848826 0.386124
vt 0.848826 0.439937
vt 0.499743 0.386124
vt 0.538676 0.386124
vt 0.538676 0.439937
vt 0.499743 0.439937
vt 0.790996 0.439937
vt 0.731952 0.439937
vt 0.731952 0.386124
vt 0.790996 0.386124
vt 0.858639 0.439937
vt 0.815592 0.439937
vt 0.815592 0.386124
vt 0.858639 0.386124
vt 0.844427 0.439937
vt 0.844427 0.386124
vt 0.352081 0.386124
vt 0.403721 0.386124
vt 0.403721 0.439937
vt 0.352081 0.439937
vt 0.580254 0.386124
vt 0.617401 0.386124
vt 0.617401 0.439937
vt 0.580254 0.439937
vt 0.460784 0.386124
vt 0.460784 0.439937
vt 0.766669 0.439937
vt 0.766669 0.386124
vt 0.714915 0.439937
vt 0.714915 0.386124
vt 0.673806 0.439937
vt 0.673806 0.386124
vt 0.516980 0.386124
vt 0.516980 0.439937
vt 0.471880 0.386124
vt 0.471880 0.439937
vt 1.661128 0.388303
vt 1.661128 0.438890
vt 0.994220 0.438890
vt 0.994220 0.388303
vt 0.730757 0.438890
vt 0.063849 0.438890
vt 0.063849 0.388303
vt 0.730757 0.388303
vt 0.063849 0.438890
vt 0.730757 0.438890
vt 0.730757 0.388303
vt 0.063849 0.388303
vt 1.236374 0.388303
vt 1.236374 0.438890
vt 0.569466 0.438890
vt 0.569466 0.388303
vt 1.661128 0.438890
vt 0.994220 0.438890
vt 0.730757 0.438890
vt 0.063849 0.438890
vt 0.063849 0.388303
vt 0.730757 0.388303
vt 0.063849 0.438890
vt 0.730757 0.438890
vt 0.063849 0.388303
vt 1.291016 0.386124
vt 1.291015 0.439937
vt 0.029691 0.439937
vt 0.029691 0.386124
vt 1.000000 0.000000
vt 1.000000 1.000000
vt 0.000001 1.000000
vt 0.000000 0.000000
vt 0.281115 0.019311
vt 0.320289 0.981885
vt 0.030923 0.981885
vt 0.000001 1.000000
vt 0.105246 0.287300
vt 0.105246 0.570783
vt 0.000000 0.570783
vt 0.006458 0.287300
vt 0.105246 0.000000
vt 0.006458 0.000000
vt 0.429625 0.019311
vt 0.495220 0.981885
vt 0.105246 1.000000
vt 0.000000 1.000000
vt 0.370567 0.570783
vt 0.370567 1.000000
vt 0.237906 1.000000
vt 0.237906 0.570783
vt 0.804015 0.019311
vt 0.819884 0.981885
vt 0.670152 0.981885
vt 0.616820 0.019311
vt 0.370567 0.000000
vt 0.370567 0.287300
vt 0.237906 0.287300
vt 0.237906 0.000000
vt 0.503229 0.287300
vt 0.503229 0.570783
vt 0.503229 0.000000
vt 0.991213 0.019311
vt 0.969619 0.981885
vt 0.503229 1.000000
vt 0.999999 1.000000
vt 0.000000 1.000000
vt 0.276121 0.019311
vt 0.021369 0.981885
vt 0.301870 0.981885
vt 0.999999 1.000000
vt 0.901213 0.287300
vt 1.000000 0.287300
vt 0.993542 0.570783
vt 0.901213 0.570783
vt 0.901213 0.000000
vt 0.408184 0.019311
vt 0.479189 0.981885
vt 0.993542 1.000000
vt 0.901213 1.000000
vt 0.635892 0.570783
vt 0.768552 0.570783
vt 0.768552 1.000000
vt 0.635892 1.000000
vt 0.787685 0.019311
vt 0.597935 0.019311
vt 0.656509 0.981885
vt 0.808286 0.981885
vt 0.635892 0.000000
vt 0.768552 0.000000
vt 0.768552 0.287300
vt 0.635892 0.287300
vt 0.977439 0.019311
vt 0.960065 0.981885
vt 1.000000 0.000000
vt 0.999999 1.000000
vt 0.000001 1.000000
vt 1.112351 0.382137
vt -0.165585 0.382137
vt -0.165586 0.440100
vt 1.112351 0.440100
vt 1.100516 0.564066
vt 1.100516 0.446568
vt -0.177421 0.446568
vt -0.177421 0.564066
vt -0.885344 0.689066
vt -0.885344 0.447940
vt 0.392593 0.447940
vt 0.392593 0.689066
vt 2.088381 0.382137
vt 0.810444 0.382137
vt 0.810444 0.440100
vt 2.088381 0.440100
s 1
usemtl MI_WoodTrim_Wear
f 3/1/1 4/2/1 8/3/1 7/4/1
f 8/5/2 4/6/2 2/7/2 6/8/2
f 3/9/3 7/10/3 5/11/3 1/12/3
f 2/13/4 1/14/4 5/15/4 6/16/4
s 2
f 11/1/1 15/4/1 16/3/1 12/2/1
f 16/5/5 14/8/5 10/7/5 12/6/5
f 11/9/6 9/12/6 13/11/6 15/10/6
f 10/13/4 14/16/4 13/15/4 9/14/4
s 3
f 19/17/1 20/2/1 24/3/1 23/18/1
f 24/5/7 20/6/7 18/7/7 22/8/7
f 19/6/8 23/19/8 21/20/8 17/7/8
f 18/13/4 17/21/4 21/22/4 22/16/4
s 4
f 25/23/9 27/24/9 28/25/9 26/26/9
f 31/24/10 29/27/10 30/28/10 32/25/10
f 27/29/1 31/30/1 32/31/1 28/32/1
f 32/33/11 30/34/11 26/35/11 28/36/11
f 27/37/12 25/38/12 29/39/12 31/40/12
f 26/41/4 30/42/4 29/43/4 25/44/4
s 5
f 39/24/11 37/27/11 38/26/11 40/25/11
f 35/45/1 39/46/1 40/47/1 36/48/1
f 40/49/9 38/50/9 34/51/9 36/52/9
f 35/53/10 33/54/10 37/55/10 39/56/10
f 34/45/4 38/46/4 37/47/4 33/48/4
s 6
f 47/24/11 48/25/11 46/26/11 45/27/11
f 43/45/1 44/48/1 48/47/1 47/46/1
f 48/57/10 44/58/10 42/51/10 46/50/10
f 43/53/9 47/56/9 45/55/9 41/54/9
f 42/45/4 41/48/4 45/47/4 46/46/4
s 7
f 70/59/13 69/60/13 55/61/14 56/62/14
f 53/63/1 56/64/1 60/65/1 57/66/1
f 72/67/15 71/68/15 53/69/16 54/70/16
f 71/71/1 70/72/1 56/64/1 53/63/1
f 69/73/4 72/74/4 54/75/4 55/76/4
f 60/77/17 59/78/17 63/79/18 64/80/18
f 55/76/4 54/75/4 58/81/4 59/82/4
f 56/62/14 55/61/14 59/78/17 60/77/17
f 54/70/16 53/69/16 57/83/19 58/84/19
f 62/85/20 61/86/20 65/87/12 66/88/12
f 58/84/19 57/83/19 61/86/20 62/85/20
f 57/66/1 60/65/1 64/89/1 61/90/1
f 59/82/4 58/81/4 62/91/4 63/92/4
f 61/90/1 64/89/1 68/93/1 65/94/1
f 63/92/4 62/91/4 66/95/4 67/96/4
f 64/80/18 63/79/18 67/97/11 68/98/11
f 50/99/4 49/100/4 72/74/4 69/73/4
f 51/101/1 52/102/1 70/72/1 71/71/1
f 49/103/21 51/104/21 71/68/15 72/67/15
f 52/105/22 50/106/22 69/60/13 70/59/13
f 51/107/23 49/108/23 50/109/23 52/110/23
f 90/111/24 80/112/25 79/113/25 89/114/24
f 77/115/1 81/116/1 84/117/1 80/118/1
f 92/119/26 78/120/27 77/121/27 91/122/26
f 91/123/1 77/115/1 80/118/1 90/124/1
f 89/125/4 79/126/4 78/127/4 92/128/4
f 84/129/28 88/130/29 87/131/29 83/132/28
f 79/126/4 83/133/4 82/134/4 78/127/4
f 80/112/25 84/129/28 83/132/28 79/113/25
f 78/120/27 82/135/30 81/136/30 77/121/27
f 86/137/31 66/88/12 65/87/12 85/138/31
f 82/135/30 86/137/31 85/138/31 81/136/30
f 81/116/1 85/139/1 88/140/1 84/117/1
f 83/133/4 87/141/4 86/142/4 82/134/4
f 85/139/1 65/94/1 68/93/1 88/140/1
f 87/141/4 67/96/4 66/95/4 86/142/4
f 88/130/29 68/98/11 67/97/11 87/131/29
f 74/143/4 89/125/4 92/128/4 73/144/4
f 75/145/1 91/123/1 90/124/1 76/146/1
f 73/147/32 92/119/26 91/122/26 75/148/32
f 76/149/33 90/111/24 89/114/24 74/150/33
f 75/151/34 76/152/34 74/153/34 73/154/34
s 8
f 95/155/1 172/156/1 175/157/1 96/158/1
f 95/159/35 93/160/36 169/161/37 172/162/37
f 94/163/4 174/164/4 169/165/4 93/166/4
f 99/167/1 100/168/1 171/169/1 176/170/1
f 99/171/38 176/172/39 173/173/39 97/174/40
f 98/175/4 97/176/4 173/177/4 170/178/4
f 118/179/41 117/180/41 103/181/42 104/182/42
f 101/183/1 104/184/1 108/185/1 105/186/1
f 120/187/43 119/188/43 101/189/16 102/190/16
f 119/191/1 118/192/1 104/184/1 101/183/1
f 117/193/4 120/194/4 102/195/4 103/196/4
f 108/197/44 107/198/44 111/199/45 112/200/45
f 103/196/4 102/195/4 106/201/4 107/202/4
f 104/182/42 103/181/42 107/198/44 108/197/44
f 102/190/16 101/189/16 105/203/19 106/204/19
f 110/205/20 109/206/20 113/207/12 114/208/12
f 106/204/19 105/203/19 109/206/20 110/205/20
f 105/186/1 108/185/1 112/209/1 109/210/1
f 107/202/4 106/201/4 110/211/4 111/212/4
f 109/210/1 112/209/1 116/213/1 113/214/1
f 111/212/4 110/211/4 114/215/4 115/216/4
f 112/200/45 111/199/45 115/217/11 116/218/11
f 94/163/4 93/166/4 120/194/4 117/193/4
f 95/155/1 96/158/1 118/192/1 119/191/1
f 93/160/36 95/159/35 119/188/43 120/187/43
f 96/219/46 94/220/46 117/180/41 118/179/41
f 134/221/47 124/222/48 123/223/48 133/224/47
f 121/225/1 125/226/1 128/227/1 124/228/1
f 136/229/49 122/230/27 121/231/27 135/232/49
f 135/233/1 121/225/1 124/228/1 134/234/1
f 133/235/4 123/236/4 122/237/4 136/238/4
f 128/239/50 132/240/51 131/241/51 127/242/50
f 123/236/4 127/243/4 126/244/4 122/237/4
f 124/222/48 128/239/50 127/242/50 123/223/48
f 122/230/27 126/245/30 125/246/30 121/231/27
f 130/247/31 114/208/12 113/207/12 129/248/31
f 126/245/30 130/247/31 129/248/31 125/246/30
f 125/226/1 129/249/1 132/250/1 128/227/1
f 127/243/4 131/251/4 130/252/4 126/244/4
f 129/249/1 113/214/1 116/213/1 132/250/1
f 131/251/4 115/216/4 114/215/4 130/252/4
f 132/240/51 116/218/11 115/217/11 131/241/51
f 98/175/4 133/235/4 136/238/4 97/176/4
f 99/167/1 135/233/1 134/234/1 100/168/1
f 97/174/40 136/229/49 135/232/49 99/171/38
f 100/253/52 134/221/47 133/224/47 98/254/52
s 9
f 139/255/1 140/256/1 144/257/1 143/258/1
f 144/259/53 140/260/53 138/261/53 142/262/53
f 139/263/54 143/264/54 141/265/54 137/266/54
f 138/267/4 137/268/4 141/269/4 142/270/4
s 10
f 147/255/1 148/271/1 152/272/1 151/258/1
f 152/273/53 148/274/53 146/275/53 150/276/53
f 147/277/54 151/278/54 149/276/54 145/279/54
f 146/267/4 145/268/4 149/269/4 150/270/4
s 8
f 175/280/9 174/281/9 94/220/46 96/219/46
f 170/282/10 171/283/10 100/253/52 98/254/52
s 11
f 155/255/1 159/258/1 160/257/1 156/256/1
f 160/259/55 158/262/55 154/261/55 156/260/55
f 155/263/56 153/266/56 157/265/56 159/264/56
f 154/267/4 158/270/4 157/269/4 153/268/4
s 12
f 163/255/1 167/258/1 168/272/1 164/271/1
f 168/273/55 166/276/55 162/275/55 164/274/55
f 163/277/56 161/279/56 165/276/56 167/278/56
f 162/267/4 166/270/4 165/269/4 161/268/4
s 14
f 232/352/1 236/353/1 237/354/1 233/355/1
f 237/356/11 235/357/11 231/358/11 233/359/11
f 232/360/12 230/361/12 234/362/12 236/363/12
f 231/364/4 235/365/4 234/366/4 230/367/4
s 13
usemtl MI_WindowGlass
f 184/284/1 179/285/1 177/286/1 183/287/1
f 179/288/1 186/289/1 177/290/1
f 187/284/1 184/285/1 183/291/1 181/287/1
f 197/292/1 198/293/1 184/294/1 187/295/1
f 224/296/1 197/292/1 187/295/1 221/297/1
f 196/298/1 199/299/1 186/289/1 179/288/1
f 198/293/1 196/300/1 179/301/1 184/294/1
f 195/302/1 193/303/1 189/304/1 191/305/1
f 193/306/1 192/307/1 188/308/1 189/309/1
f 223/310/1 194/311/1 190/312/1 222/313/1
f 194/311/1 195/302/1 191/305/1 190/312/1
f 182/314/1 185/315/1 195/302/1 194/311/1
f 219/316/1 182/314/1 194/311/1 223/310/1
f 180/317/1 178/318/1 192/307/1 193/306/1
f 185/315/1 180/319/1 193/303/1 195/302/1
f 191/305/1 189/304/1 196/300/1 198/293/1
f 189/309/1 188/308/1 199/299/1 196/298/1
f 222/313/1 190/312/1 197/292/1 224/296/1
f 190/312/1 191/305/1 198/293/1 197/292/1
f 204/287/1 203/284/1 200/320/1 201/321/1
f 201/322/1 200/323/1 205/324/1
f 206/287/1 202/284/1 203/325/1 204/321/1
f 216/326/1 206/327/1 204/328/1 217/329/1
f 229/330/1 226/284/1 206/327/1 216/326/1
f 215/331/1 201/322/1 205/324/1 218/332/1
f 217/329/1 204/328/1 201/333/1 215/334/1
f 214/335/1 210/336/1 208/337/1 212/338/1
f 212/339/1 208/340/1 207/341/1 211/342/1
f 228/343/1 227/344/1 209/345/1 213/346/1
f 213/346/1 209/345/1 210/336/1 214/335/1
f 182/314/1 213/346/1 214/335/1 185/315/1
f 219/316/1 228/343/1 213/346/1 182/314/1
f 180/347/1 212/339/1 211/342/1 178/348/1
f 185/315/1 214/335/1 212/338/1 180/319/1
f 210/336/1 217/329/1 215/334/1 208/337/1
f 208/340/1 215/331/1 218/332/1 207/341/1
f 227/344/1 229/330/1 216/326/1 209/345/1
f 209/345/1 216/326/1 217/329/1 210/336/1
f 206/321/1 226/287/1 225/349/1 202/350/1
f 187/285/1 181/351/1 220/287/1 221/284/1
