# Blender 4.0.2
# www.blender.org
mtllib Window_Wide_Flat1.mtl
o Window_Wide_Flat1
v -0.529415 1.141158 -0.037315
v -0.529415 1.083600 -0.037315
v -0.529415 1.141158 0.044315
v -0.529415 1.083600 0.044315
v 0.527610 1.141157 -0.037316
v 0.527610 1.083600 -0.037316
v 0.527610 1.141157 0.044315
v 0.527610 1.083600 0.044315
v 0.051813 2.342480 -0.031363
v -0.033549 2.343738 -0.031363
v 0.051813 2.342480 0.038362
v -0.033549 2.343738 0.038362
v 0.033547 1.102975 -0.031363
v -0.051815 1.104233 -0.031363
v 0.033547 1.102975 0.038362
v -0.051815 1.104233 0.038362
v 0.505974 1.941579 -0.007354
v 0.506504 1.978465 -0.007354
v 0.505974 1.941579 0.032800
v 0.506504 1.978465 0.032800
v -0.493267 1.955961 -0.007353
v -0.492736 1.992847 -0.007353
v -0.493267 1.955961 0.032800
v -0.492736 1.992847 0.032800
v 0.506388 1.483707 -0.007354
v 0.506115 1.519073 -0.007354
v 0.506436 1.477331 0.032800
v 0.506164 1.512696 0.032800
v -0.492927 1.475998 -0.007353
v -0.493199 1.511363 -0.007353
v -0.492877 1.469621 0.032800
v -0.493151 1.504986 0.032800
v -0.447869 2.405867 -0.039516
v -0.533241 2.405867 -0.039516
v -0.447869 2.405867 0.046516
v -0.533241 2.405867 0.046516
v -0.447870 1.077224 -0.039516
v -0.533242 1.077224 -0.039516
v -0.447870 1.077224 0.046516
v -0.533242 1.077224 0.046516
v 0.447868 2.405866 -0.039516
v 0.533240 2.405866 -0.039516
v 0.447868 2.405866 0.046516
v 0.533240 2.405866 0.046516
v 0.447868 1.077223 -0.039516
v 0.533240 1.077223 -0.039516
v 0.447868 1.077223 0.046516
v 0.533240 1.077223 0.046516
v 0.529413 2.331329 -0.037316
v 0.529413 2.398561 -0.037316
v 0.529413 2.331329 0.044315
v 0.529413 2.398561 0.044315
v -0.527611 2.331330 -0.037315
v -0.527611 2.398561 -0.037315
v -0.527611 2.331330 0.044315
v -0.527611 2.398561 0.044315
v -0.272114 1.100380 -0.007078
v -0.233954 1.100380 -0.007078
v -0.272114 1.100380 0.026066
v -0.233954 1.100380 0.026066
v -0.272114 2.365076 -0.007078
v -0.233954 2.365076 -0.007078
v -0.272114 2.365076 0.026066
v -0.233954 2.365076 0.026066
v 0.272112 1.100380 -0.007078
v 0.233953 1.100380 -0.007078
v 0.272112 1.100380 0.026065
v 0.233953 1.100380 0.026066
v 0.272113 2.365075 -0.007078
v 0.233953 2.365075 -0.007078
v 0.272113 2.365075 0.026066
v 0.233953 2.365075 0.026066
v 0.505470 1.097139 0.003888
v -0.505472 1.097140 0.003888
v 0.505470 2.355356 0.003888
v -0.505471 2.355356 0.003888
v -0.000001 1.097140 0.003888
v -0.000001 2.355356 0.003888
v 0.252735 2.355356 0.003888
v 0.252734 1.097139 0.003888
v -0.252736 1.097140 0.003888
v -0.252736 2.355356 0.003888
v 0.505442 1.960646 0.003888
v 0.505462 1.501066 0.003888
v -0.505464 1.495283 0.003888
v -0.505443 1.971423 0.003888
v -0.000001 1.966034 0.003888
v -0.000001 1.498174 0.003888
v 0.252720 1.963340 0.003888
v 0.252730 1.499620 0.003888
v -0.252722 1.968729 0.003888
v -0.252732 1.496729 0.003888
v -0.670420 2.393822 -0.228898
v -0.529583 2.393822 -0.228898
v -0.670420 2.393822 0.153762
v -0.529583 2.393822 0.153762
v -0.670419 1.077223 -0.228899
v -0.529582 1.077223 -0.228899
v -0.670419 1.077223 0.153762
v -0.529582 1.077223 0.153762
v 0.670420 2.393822 -0.228898
v 0.529583 2.393822 -0.228898
v 0.670420 2.393822 0.153762
v 0.529583 2.393822 0.153762
v 0.670419 1.077223 -0.228899
v 0.529582 1.077223 -0.228899
v 0.670419 1.077223 0.153762
v 0.529582 1.077223 0.153762
v 0.804117 2.524289 -0.266581
v 0.804117 2.383453 -0.266581
v 0.804117 2.524289 0.169162
v 0.804117 2.383453 0.169162
v -0.804119 2.524288 -0.266580
v -0.804119 2.383451 -0.266580
v -0.804118 2.524288 0.169162
v -0.804118 2.383451 0.169162
v 0.671386 1.085016 -0.266581
v 0.671386 0.944179 -0.266581
v 0.671386 1.085016 0.169162
v 0.671386 0.944179 0.169162
v -0.671388 1.085015 -0.266581
v -0.671388 0.944178 -0.266581
v -0.671388 1.085015 0.169162
v -0.671388 0.944178 0.169162
v 0.700640 1.064705 0.170345
v 0.700640 0.964490 0.170345
v 0.700640 1.064705 0.416857
v 0.700640 0.964490 0.416857
v -0.700641 1.064704 0.170345
v -0.700642 0.964489 0.170345
v -0.700641 1.064704 0.416857
v -0.700641 0.964489 0.416857
vn -0.0000 -0.0000 1.0000
vn -0.0000 -1.0000 -0.0000
vn -0.0000 1.0000 -0.0000
vn -0.0000 -0.0000 -1.0000
vn -0.9999 0.0147 -0.0000
vn 0.9999 -0.0147 -0.0000
vn 0.0144 0.9999 -0.0000
vn -0.0144 -0.9999 -0.0000
vn -0.0076 0.9876 0.1568
vn 0.0076 -0.9876 -0.1568
vn -1.0000 -0.0000 -0.0000
vn 1.0000 -0.0000 -0.0000
vt 0.680145 0.388303
vt 0.680145 0.438890
vt -0.620078 0.438890
vt -0.620078 0.388303
vt 1.300223 0.438890
vt 0.000000 0.438890
vt 0.000000 0.388303
vt 1.300223 0.388303
vt 0.714249 0.388303
vt 0.714249 0.438890
vt -0.585974 0.438890
vt -0.585974 0.388303
vt 0.742152 0.438890
vt -0.558071 0.438890
vt -0.558071 0.388303
vt 0.742152 0.388303
vt 1.724977 0.388303
vt 1.724977 0.438890
vt 0.424754 0.438890
vt 0.424754 0.388303
vt 0.335357 0.375915
vt 0.335357 0.213070
vt 0.496952 0.213070
vt 0.496952 0.375915
vt 0.164458 0.213070
vt 0.326053 0.213070
vt 0.326053 0.375915
vt 0.164458 0.375915
vt 1.346729 0.388303
vt 0.046506 0.388303
vt 0.046506 0.438890
vt 1.346729 0.438890
vt 0.832064 0.388303
vt 0.832064 0.438890
vt -0.468159 0.438890
vt -0.468159 0.388303
vt 1.449042 0.388303
vt 0.148819 0.388303
vt 0.148819 0.438890
vt 1.449042 0.438890
vt 0.000000 0.996427
vt 0.000000 0.000000
vt 1.000000 0.000000
vt 1.000000 0.996427
vt 0.083990 0.209792
vt 0.083990 0.378749
vt 0.157543 0.378749
vt 0.157543 0.209792
vt 0.722656 0.692001
vt 0.000000 0.692001
vt 0.000000 0.749964
vt 0.722656 0.749964
vt 0.722656 0.873930
vt 0.722656 0.756432
vt 0.000000 0.756432
vt 0.000000 0.873930
vt 1.000000 0.692001
vt 1.000000 0.749964
vt 1.000000 0.873930
vt 1.000000 0.756432
vt -0.364296 0.998930
vt -0.364296 0.881432
vt 0.635704 0.881432
vt 0.635704 0.998930
vt 1.502264 0.692001
vt 0.502264 0.692001
vt 0.502264 0.749964
vt 1.502264 0.749964
vt 0.920940 0.873930
vt 0.920940 0.756432
vt -0.079060 0.756432
vt -0.079060 0.873930
s 0
usemtl MI_WoodTrim
f 3/1/1 4/2/1 8/3/1 7/4/1
f 8/5/2 4/6/2 2/7/2 6/8/2
f 3/6/3 7/5/3 5/8/3 1/7/3
f 2/8/4 1/5/4 5/6/4 6/7/4
f 11/1/1 12/2/1 16/3/1 15/4/1
f 16/5/5 12/6/5 10/7/5 14/8/5
f 11/6/6 15/5/6 13/8/6 9/7/6
f 19/9/1 20/10/1 24/11/1 23/12/1
f 24/13/7 20/14/7 18/15/7 22/16/7
f 19/14/8 23/13/8 21/16/8 17/15/8
f 18/8/4 17/5/4 21/6/4 22/7/4
f 27/17/1 28/18/1 32/19/1 31/20/1
f 32/5/9 28/6/9 26/7/9 30/8/9
f 27/6/10 31/5/10 29/8/10 25/7/10
f 26/8/4 25/5/4 29/6/4 30/7/4
f 10/8/4 9/5/4 13/6/4 14/7/4
f 35/1/1 36/2/1 40/3/1 39/4/1
f 40/5/11 36/6/11 34/7/11 38/8/11
f 35/6/12 39/5/12 37/8/12 33/7/12
f 34/8/4 33/5/4 37/6/4 38/7/4
f 35/21/3 33/22/3 34/23/3 36/24/3
f 39/25/2 40/26/2 38/27/2 37/28/2
f 43/29/1 47/30/1 48/31/1 44/32/1
f 48/5/12 46/8/12 42/7/12 44/6/12
f 43/6/11 41/7/11 45/8/11 47/5/11
f 42/8/4 46/7/4 45/6/4 41/5/4
f 43/21/3 44/24/3 42/23/3 41/22/3
f 47/25/2 45/28/2 46/27/2 48/26/2
f 51/1/1 52/2/1 56/3/1 55/4/1
f 56/5/3 52/6/3 50/7/3 54/8/3
f 51/6/2 55/5/2 53/8/2 49/7/2
f 50/8/4 49/5/4 53/6/4 54/7/4
f 59/33/1 60/34/1 64/35/1 63/36/1
f 64/34/12 60/35/12 58/36/12 62/33/12
f 59/35/11 63/34/11 61/33/11 57/36/11
f 58/33/4 57/34/4 61/35/4 62/36/4
f 67/37/1 71/38/1 72/39/1 68/40/1
f 72/40/11 70/37/11 66/38/11 68/39/11
f 67/39/12 65/38/12 69/37/12 71/40/12
f 66/37/4 70/38/4 69/39/4 65/40/4
f 99/45/2 97/46/2 98/47/2 100/48/2
f 95/49/1 99/50/1 100/51/1 96/52/1
f 100/53/12 98/54/12 94/55/12 96/56/12
f 95/56/11 93/55/11 97/54/11 99/53/11
f 94/49/4 98/50/4 97/51/4 93/52/4
f 107/45/2 108/48/2 106/47/2 105/46/2
f 103/49/1 104/52/1 108/51/1 107/50/1
f 108/53/11 104/56/11 102/55/11 106/54/11
f 103/56/12 107/53/12 105/54/12 101/55/12
f 102/49/4 101/52/4 105/51/4 106/50/4
f 109/46/12 111/45/12 112/48/12 110/47/12
f 115/45/11 113/46/11 114/47/11 116/48/11
f 111/57/1 115/50/1 116/51/1 112/58/1
f 116/59/2 114/60/2 110/55/2 112/56/2
f 111/61/3 109/62/3 113/63/3 115/64/3
f 117/46/12 119/45/12 120/48/12 118/47/12
f 123/45/11 121/46/11 122/47/11 124/48/11
f 119/57/1 123/50/1 124/51/1 120/58/1
f 124/59/2 122/60/2 118/55/2 120/56/2
f 119/61/3 117/62/3 121/63/3 123/64/3
f 118/65/4 122/66/4 121/67/4 117/68/4
f 125/46/12 127/45/12 128/48/12 126/47/12
f 131/45/11 129/46/11 130/47/11 132/48/11
f 127/57/1 131/50/1 132/51/1 128/58/1
f 132/69/2 130/70/2 126/71/2 128/72/2
f 127/61/3 125/62/3 129/63/3 131/64/3
f 126/65/4 130/66/4 129/67/4 125/68/4
f 110/65/4 114/66/4 113/67/4 109/68/4
usemtl MI_WindowGlass
f 91/41/1 82/42/1 76/43/1 86/44/1
f 89/41/1 79/42/1 78/43/1 87/44/1
f 83/41/1 75/42/1 79/43/1 89/44/1
f 87/41/1 78/42/1 82/43/1 91/44/1
f 77/43/1 88/44/1 92/41/1 81/42/1
f 88/41/1 87/42/1 91/43/1 92/44/1
f 73/41/1 84/42/1 90/43/1 80/44/1
f 84/41/1 83/42/1 89/43/1 90/44/1
f 80/41/1 90/42/1 88/43/1 77/44/1
f 90/41/1 89/42/1 87/43/1 88/44/1
f 81/43/1 92/44/1 85/41/1 74/42/1
f 92/41/1 91/42/1 86/43/1 85/44/1
