# Blender 4.0.2
# www.blender.org
mtllib Window_Roof_Wide.mtl
o Window_Roof_Wide
v 0.191027 2.108554 1.030254
v 0.205963 2.186298 1.074767
v 0.461637 2.107107 1.029673
v 0.456511 2.186699 1.076748
v 0.752512 2.187185 1.097278
v 0.755697 2.095902 1.052765
v 0.469626 2.184192 1.092214
v 0.461637 2.097348 1.053346
v -0.079707 2.187185 1.097279
v -0.089506 2.095902 1.052766
v 0.189785 2.173167 1.101249
v 0.198826 2.097348 1.053346
v -0.389661 2.186699 1.076748
v -0.384536 2.107107 1.029673
v -0.640209 2.199837 1.074767
v -0.655146 2.108554 1.030254
v -0.093660 2.187185 1.097278
v -0.089506 2.095902 1.052765
v -0.376547 2.181228 1.099482
v -0.384536 2.097348 1.053346
v -0.647006 2.519272 0.158022
v -0.095160 2.403116 0.158022
v -0.660789 2.406882 0.158023
v 0.199167 2.505733 0.158022
v -0.390190 2.404961 0.158023
v 0.193171 2.404961 0.158022
v 0.455983 2.404961 0.158023
v 0.449714 2.505767 0.158023
v 0.182959 2.501978 0.158023
v -0.100484 2.515549 0.158022
v -0.086531 2.515549 0.158022
v 0.745688 2.515549 0.158022
v 0.185384 2.406882 0.158023
v 0.462804 2.512880 0.158023
v -0.390178 2.405038 0.158023
v -0.396458 2.505767 0.158023
v -0.095160 2.403116 0.158022
v -0.383372 2.510016 0.158022
v 0.750043 2.403116 0.158022
v 0.455994 2.405038 0.158023
v 0.639369 1.425028 -0.077805
v 0.539155 1.425028 -0.077805
v 0.639369 1.338216 0.000901
v 0.539155 1.338216 0.000901
v 0.639369 2.231661 0.811913
v 0.539154 2.231661 0.811913
v 0.639369 2.176448 0.925473
v 0.539154 2.176448 0.925473
v -0.639369 1.425028 -0.077805
v -0.539155 1.425028 -0.077805
v -0.639369 1.338216 0.000901
v -0.539155 1.338216 0.000901
v -0.639369 2.231661 0.811913
v -0.539154 2.231661 0.811913
v -0.639369 2.176448 0.925473
v -0.539154 2.176448 0.925473
vn -0.0033 -0.5029 0.8643
vn -0.0021 0.9445 0.3286
vn -0.0059 -0.4238 0.9057
vn -0.0056 -0.9458 -0.3248
vn -0.0180 -0.4838 0.8750
vn 0.0057 -0.9457 -0.3249
vn -0.0156 -0.4717 0.8816
vn 0.0489 0.9435 0.3278
vn 0.0079 -0.4597 0.8880
vn 0.9981 0.0596 0.0136
vn 0.9943 0.1028 0.0288
vn -0.0061 -0.9462 -0.3235
vn 0.9993 0.0358 0.0056
vn 0.9990 0.0446 0.0087
vn -0.0124 0.9435 0.3310
vn -0.9904 0.1285 0.0512
vn -0.9971 0.0696 0.0310
vn -0.9970 0.0705 0.0312
vn -0.9876 0.1462 0.0573
vn -0.9960 0.0824 0.0353
vn 0.0459 0.9432 0.3290
vn -0.0179 0.9438 0.3299
vn -0.0000 -0.7409 0.6717
vn -1.0000 -0.0000 -0.0000
vn 1.0000 -0.0000 -0.0000
vn -0.0000 0.7409 -0.6717
vt 0.087826 0.212019
vt 0.158826 0.212019
vt 0.158826 0.378476
vt 0.087826 0.378476
vt -0.283533 0.886792
vt 0.389555 0.886792
vt 0.389831 0.996838
vt -0.283533 0.996838
vt 1.000000 0.996838
vt 0.339101 0.996838
vt 0.339516 0.883658
vt 1.000000 0.883658
vt 0.339516 0.883658
vt 0.339101 0.996838
vt 1.000000 0.867594
vt 0.326912 0.867594
vt 0.326636 0.757548
vt 1.000000 0.757548
vt 0.388260 0.757549
vt 1.049159 0.757548
vt 1.048744 0.870728
vt 0.388260 0.870728
vt 0.650386 0.694275
vt 0.673088 0.747131
vt 0.000000 0.747131
vt 0.000000 0.694275
vt 0.660899 0.747131
vt 0.683603 0.694275
vt 0.349198 0.757548
vt 0.349614 0.867594
vt 0.660484 0.694275
vt 0.683009 0.747131
vt 1.332278 0.694275
vt 1.354803 0.747131
vt 0.671794 0.747131
vt 0.671794 0.694275
vt 0.316991 0.883658
vt 0.316876 0.996838
vt 0.673364 0.694275
vt 0.650802 0.747131
vt 0.683124 0.694275
vt 1.355304 0.694275
vt 1.332692 0.747131
vt 0.683009 0.747131
vt 0.660484 0.694275
vt 0.367268 0.996838
vt 0.366853 0.886792
vt 0.316397 0.996838
vt 0.316991 0.883658
vt 1.071269 0.870728
vt 1.071770 0.757548
vt 1.000000 0.692001
vt 0.109397 0.692001
vt 0.109397 0.749964
vt 1.000000 0.749964
vt 0.811543 0.873930
vt 0.777969 0.818078
vt -0.079060 0.818078
vt -0.079060 0.873930
vt -0.364296 0.998930
vt -0.364296 0.943078
vt 0.492733 0.943078
vt 0.526307 0.998930
vt 1.502264 0.692001
vt 0.645234 0.692001
vt 0.645234 0.749964
vt 1.502264 0.749964
s 0
usemtl MI_WoodTrim
f 43/52/23 47/53/23 48/54/23 44/55/23
f 48/56/24 46/57/24 42/58/24 44/59/24
f 43/60/25 41/61/25 45/62/25 47/63/25
f 42/64/26 46/65/26 45/66/26 41/67/26
f 51/52/23 52/55/23 56/54/23 55/53/23
f 56/56/25 52/59/25 50/58/25 54/57/25
f 51/60/24 55/63/24 53/62/24 49/61/24
f 50/64/26 49/67/26 53/66/26 54/65/26
usemtl MI_WoodTrim_Wear
f 3/1/1 4/2/1 2/3/1 1/4/1
f 4/5/2 28/6/2 24/7/2 2/8/2
f 7/1/3 8/2/3 6/3/3 5/4/3
f 8/9/4 27/10/4 39/11/4 6/12/4
f 11/1/5 9/4/5 10/3/5 12/2/5
f 12/9/6 10/12/6 37/13/6 26/14/6
f 14/1/7 13/2/7 15/3/7 16/4/7
f 13/15/8 36/16/8 21/17/8 15/18/8
f 19/1/9 20/2/9 18/3/9 17/4/9
f 20/19/4 25/20/4 22/21/4 18/22/4
f 40/23/10 28/24/10 4/25/10 3/26/10
f 26/27/11 29/28/11 11/26/11 12/25/11
f 23/29/12 35/30/12 14/15/12 16/18/12
f 39/31/13 32/32/13 5/25/13 6/26/13
f 22/33/14 30/34/14 17/35/14 18/36/14
f 32/37/15 34/38/15 7/9/15 5/12/15
f 21/39/16 23/40/16 16/25/16 15/26/16
f 35/23/10 36/24/10 13/25/10 14/26/10
f 34/41/17 27/27/17 8/25/17 7/26/17
f 38/42/18 25/43/18 20/35/18 19/36/18
f 24/39/19 33/40/19 1/25/19 2/26/19
f 31/44/20 37/45/20 10/26/20 9/25/20
f 33/46/12 40/47/12 3/5/12 1/8/12
f 29/48/21 31/49/21 9/12/21 11/9/21
f 30/50/22 38/51/22 19/19/22 17/22/22
