# Blender 4.0.2
# www.blender.org
mtllib WindowShutters_Wide_Round_Closed.mtl
o WindowShutters_Wide_Round_Closed
v -0.219771 2.710266 0.283539
v -0.220257 2.710266 0.208728
v -0.414816 2.640342 0.284965
v -0.415303 2.640342 0.210154
v -0.219771 1.093244 0.272746
v -0.220257 1.093244 0.197935
v -0.414816 1.093244 0.274173
v -0.415302 1.093244 0.199361
v 0.007223 2.740432 0.213423
v 0.006737 2.740432 0.288235
v -0.208959 2.707834 0.211997
v -0.209445 2.707834 0.286808
v 0.007224 1.093244 0.202631
v 0.006738 1.093244 0.277442
v -0.208958 1.093244 0.201204
v -0.209444 1.093244 0.276016
v -0.645792 1.093244 0.276016
v -0.645305 1.093244 0.201204
v -0.429610 1.093244 0.277442
v -0.429124 1.093244 0.202631
v -0.645793 2.348439 0.286808
v -0.645307 2.348439 0.211997
v -0.429611 2.632905 0.288235
v -0.429125 2.632905 0.213423
v -0.673468 2.004088 0.153891
v -0.673468 2.004430 0.208589
v -0.673468 2.158413 0.152465
v -0.673468 2.158755 0.207163
v -0.019572 2.004088 0.158847
v -0.019572 2.004430 0.213545
v -0.019572 2.158413 0.157421
v -0.019572 2.158755 0.212119
v -0.673468 1.373422 0.214896
v -0.673468 1.373764 0.160198
v -0.673468 1.527747 0.216323
v -0.673468 1.528089 0.161625
v -0.019572 1.373422 0.209940
v -0.019572 1.373764 0.155242
v -0.019572 1.527747 0.211367
v -0.019572 1.528089 0.156669
v 0.030957 2.740432 0.213423
v 0.031443 2.740432 0.288235
v 0.250515 2.707834 0.211997
v 0.251002 2.707834 0.286808
v 0.030957 1.093244 0.202631
v 0.031443 1.093244 0.277442
v 0.250515 1.093244 0.201204
v 0.251001 1.093244 0.276016
v 0.656470 2.348439 0.285480
v 0.655984 2.348439 0.210669
v 0.436912 2.618920 0.286906
v 0.436426 2.618920 0.212095
v 0.656471 1.093244 0.274687
v 0.655985 1.093244 0.199876
v 0.436912 1.093244 0.276114
v 0.436426 1.093244 0.201302
v 0.260080 2.710266 0.199361
v 0.260566 2.710266 0.274173
v 0.429795 2.634748 0.197935
v 0.430281 2.634748 0.272746
v 0.260080 1.093244 0.210154
v 0.260566 1.093244 0.284966
v 0.429794 1.093244 0.208728
v 0.430281 1.093244 0.283539
v 0.019572 2.158755 0.153891
v 0.019572 2.158413 0.208589
v 0.019572 2.004430 0.152465
v 0.019572 2.004088 0.207163
v 0.673468 2.158755 0.158847
v 0.673468 2.158413 0.213545
v 0.673468 2.004430 0.157421
v 0.673468 2.004088 0.212119
v 0.019572 1.528089 0.214896
v 0.019572 1.527747 0.160198
v 0.019572 1.373764 0.216323
v 0.019572 1.373422 0.161625
v 0.673468 1.528089 0.209940
v 0.673468 1.527747 0.155242
v 0.673468 1.373764 0.211367
v 0.673468 1.373422 0.156669
v -0.537701 1.093244 0.276729
v -0.537216 2.520549 0.212710
v -0.537702 2.520549 0.287521
v -0.537215 1.093244 0.201918
v 0.546691 2.513557 0.286193
v 0.546205 2.513557 0.211382
v 0.546692 1.093244 0.275401
v 0.546205 1.093244 0.200589
vn -0.3375 0.9413 0.0022
vn -0.0000 -1.0000 -0.0000
vn -1.0000 -0.0000 0.0065
vn -0.0085 0.0068 -0.9999
vn 0.0085 -0.0068 0.9999
vn 1.0000 -0.0000 -0.0065
vn -0.1491 0.9888 -0.0010
vn -1.0000 -0.0000 -0.0065
vn -0.0061 -0.0066 1.0000
vn 0.0061 0.0066 -1.0000
vn 1.0000 -0.0000 0.0065
vn 0.0028 0.0073 -1.0000
vn -0.8468 0.5319 -0.0055
vn -1.0000 0.0001 -0.0065
vn -0.0028 -0.0073 1.0000
vn -1.0000 -0.0000 -0.0000
vn 1.0000 -0.0000 -0.0000
vn -0.0000 1.0000 -0.0062
vn -0.0076 0.0092 0.9999
vn 0.0076 -0.0092 -0.9999
vn -0.0000 -1.0000 0.0063
vn -0.0000 1.0000 0.0062
vn -0.0076 0.0092 -0.9999
vn 0.0076 -0.0092 0.9999
vn -0.0000 -1.0000 -0.0063
vn 0.1469 0.9892 -0.0010
vn 0.0060 -0.0066 1.0000
vn -0.0060 0.0066 -1.0000
vn 0.6924 0.7215 -0.0045
vn -0.0004 0.0081 -1.0000
vn 0.0004 -0.0081 1.0000
vn 1.0000 0.0001 -0.0065
vn 0.4065 0.9136 -0.0026
vn 0.0099 0.0068 0.9999
vn -0.0099 -0.0068 -0.9999
vn -0.0000 -1.0000 -0.0062
vn -0.0076 -0.0092 0.9999
vn 0.0076 0.0092 -0.9999
vn -0.0000 1.0000 0.0063
vn -0.0000 -1.0000 0.0062
vn -0.0076 -0.0092 -0.9999
vn 0.0076 0.0092 0.9999
vn -0.0000 1.0000 -0.0063
vn -0.0002 -0.0080 1.0000
vn -0.7206 0.6933 -0.0047
vn 0.0002 0.0080 -1.0000
vn 0.0030 -0.0073 1.0000
vn -0.0030 0.0073 -1.0000
vn 0.8327 0.5537 -0.0054
vt 0.087826 0.378476
vt 0.158826 0.378476
vt 0.158826 0.212019
vt 0.087826 0.212019
vt 0.064598 0.211851
vt 0.135599 0.211851
vt 0.135599 0.378308
vt 0.064598 0.378308
vt 0.554288 0.694275
vt 0.554288 0.747131
vt 0.002368 0.747131
vt 0.002368 0.694275
vt 0.106209 0.867594
vt -0.445712 0.867594
vt -0.445712 0.757548
vt 0.106208 0.757548
vt 0.106208 0.867594
vt 0.106208 0.757548
vt 0.111050 0.212141
vt 0.111050 0.378598
vt 0.182050 0.378598
vt 0.182050 0.212141
vt 1.000000 0.694275
vt 0.448080 0.694275
vt 0.448080 0.747131
vt 1.000000 0.747131
vt 0.551920 0.867594
vt 0.551920 0.757548
vt 0.000000 0.757548
vt 0.000000 0.867594
vt 0.551920 0.757548
vt 0.551920 0.867594
vt 0.448080 0.747131
vt 0.000000 0.812571
vt 0.551920 0.812571
vt 0.087826 0.295247
vt 0.158826 0.295247
vt 0.111050 0.295370
vt 0.182050 0.295370
vt 0.551920 0.812571
vt 0.000000 0.812571
vt 0.088657 0.211858
vt 0.159657 0.211858
vt 0.159657 0.378315
vt 0.088656 0.378315
vt 0.746566 0.747131
vt 0.746566 0.694275
vt 0.253434 0.996838
vt 0.000000 0.996838
vt 0.000000 0.883658
vt 0.253434 0.883658
vt 0.253434 0.996838
vt 0.253434 0.883658
vt 0.746566 0.747131
vt 0.746566 0.694275
vt 0.111051 0.212139
vt 0.182051 0.212139
vt 0.182051 0.378596
vt 0.111051 0.378596
vt 0.448080 0.747131
vt 0.448080 0.694275
vt 0.551920 0.757548
vt 0.448080 0.747131
vt 0.448080 0.694275
vt 0.158826 0.295247
vt 0.064601 0.295126
vt 0.135601 0.295126
vt 0.135601 0.378355
vt 0.064600 0.378355
vt 0.551920 0.940248
vt 0.000000 0.940248
vt 0.551920 0.883658
vt 0.551920 0.883658
vt 0.448080 0.694275
vt 0.551920 0.996838
vt 0.551920 0.996838
vt 0.064601 0.211898
vt 0.135601 0.211898
s 0
usemtl MI_WoodTrim_Wear
f 1/1/1 2/2/1 4/3/1 3/4/1
f 7/5/2 8/6/2 6/7/2 5/8/2
f 3/9/3 4/10/3 8/11/3 7/12/3
f 8/13/4 4/14/4 2/15/4 6/16/4
f 3/14/5 7/17/5 5/18/5 1/15/5
f 2/9/6 1/10/6 5/11/6 6/12/6
f 9/1/7 11/4/7 12/3/7 10/2/7
f 15/19/2 13/20/2 14/21/2 16/22/2
f 11/23/8 15/24/8 16/25/8 12/26/8
f 16/27/9 14/28/9 10/29/9 12/30/9
f 11/30/10 9/29/10 13/31/10 15/32/10
f 10/23/11 14/24/11 13/33/11 9/26/11
f 82/34/12 24/29/12 20/31/12 84/35/12
f 82/36/13 22/4/13 21/3/13 83/37/13
f 84/38/2 20/20/2 19/21/2 81/39/2
f 22/23/14 18/24/14 17/25/14 21/26/14
f 23/23/11 19/24/11 20/33/11 24/26/11
f 81/40/15 19/28/15 23/29/15 83/41/15
f 25/1/16 26/2/16 28/3/16 27/4/16
f 31/42/17 32/43/17 30/44/17 29/45/17
f 27/23/18 28/26/18 32/46/18 31/47/18
f 32/48/19 28/49/19 26/50/19 30/51/19
f 27/49/20 31/52/20 29/53/20 25/50/20
f 26/23/21 25/26/21 29/54/21 30/55/21
f 33/1/16 35/4/16 36/3/16 34/2/16
f 39/42/17 37/45/17 38/44/17 40/43/17
f 35/23/22 39/47/22 40/46/22 36/26/22
f 40/48/23 38/51/23 34/50/23 36/49/23
f 35/49/24 33/50/24 37/53/24 39/52/24
f 34/23/25 38/55/25 37/54/25 33/26/25
f 41/1/26 42/2/26 44/3/26 43/4/26
f 47/56/2 48/57/2 46/58/2 45/59/2
f 43/23/6 44/26/6 48/60/6 47/61/6
f 48/32/27 44/30/27 42/29/27 46/62/27
f 43/30/28 47/32/28 45/28/28 41/29/28
f 42/23/3 41/26/3 45/63/3 46/64/3
f 85/36/29 86/65/29 52/3/29 51/4/29
f 87/66/2 88/67/2 54/68/2 53/69/2
f 51/23/3 52/26/3 56/25/3 55/64/3
f 88/70/30 86/71/30 50/50/30 54/72/30
f 85/71/31 87/70/31 53/73/31 49/50/31
f 50/23/32 49/26/32 53/25/32 54/74/32
f 57/1/33 58/2/33 60/3/33 59/4/33
f 63/5/2 64/6/2 62/7/2 61/8/2
f 59/9/6 60/10/6 64/11/6 63/12/6
f 64/13/34 60/14/34 58/15/34 62/16/34
f 59/14/35 63/17/35 61/18/35 57/15/35
f 58/9/3 57/10/3 61/11/3 62/12/3
f 65/1/16 67/4/16 68/3/16 66/2/16
f 71/42/17 69/45/17 70/44/17 72/43/17
f 67/23/36 71/47/36 72/46/36 68/26/36
f 72/48/37 70/51/37 66/50/37 68/49/37
f 67/49/38 65/50/38 69/53/38 71/52/38
f 66/23/39 70/55/39 69/54/39 65/26/39
f 73/1/16 74/2/16 76/3/16 75/4/16
f 79/42/17 80/43/17 78/44/17 77/45/17
f 75/23/40 76/26/40 80/46/40 79/47/40
f 80/48/41 76/49/41 74/50/41 78/51/41
f 75/49/42 79/52/42 77/53/42 73/50/42
f 74/23/43 73/26/43 77/54/43 78/55/43
f 17/27/44 81/40/44 83/41/44 21/30/44
f 18/19/2 84/38/2 81/39/2 17/22/2
f 24/1/45 82/36/45 83/37/45 23/2/45
f 22/30/46 82/34/46 84/35/46 18/32/46
f 51/49/47 55/75/47 87/70/47 85/71/47
f 56/76/48 52/49/48 86/71/48 88/70/48
f 55/77/2 56/78/2 88/67/2 87/66/2
f 49/1/49 50/2/49 86/65/49 85/36/49
